<svg xmlns="http://www.w3.org/2000/svg" viewBox="0 0 595.28 841.89"><defs><style>.cls-1{fill:#fd0079;}.cls-2{fill:none;stroke:#f7beff;stroke-width:25px;}.cls-2,.cls-9{stroke-miterlimit:10;}.cls-3{fill:#231f20;}.cls-4,.cls-9{fill:#fff;}.cls-5{fill:#2556a2;}.cls-6{fill:#83aedd;}.cls-7{fill:#898b8d;}.cls-8{fill:#aaabb0;}.cls-9{stroke:#fff;}.cls-10{fill:#d8d9da;}</style></defs><title>3</title><g id="Layer_3" data-name="Layer 3"><rect class="cls-1" width="595.4" height="841.89"/><path class="cls-2" d="M297.64,570.92c-193.74,0-351.29,156.53-351.29,350"/><path class="cls-2" d="M647.87,420.94c0-193.43-156.77-350.53-350.51-350.53"/><path class="cls-2" d="M297.29,770.9c193.74,0,350.52-156.52,350.52-350"/><line class="cls-2" x1="297.64" y1="120.5" y2="120.5"/><path class="cls-2" d="M297.64,621C131.57,621-3.57,755.08-3.57,920.88"/><path class="cls-2" d="M597.8,420.94C597.24,255.62,463.36,120.5,297.64,120.5"/><path class="cls-2" d="M297.64,670.91c-138.39,0-251.14,111.8-251.14,250"/><path class="cls-2" d="M547.72,420.94c0-138.16-112-250.38-250.36-250.38"/><line class="cls-2" x1="297.64" y1="220.65" y2="220.65"/><path class="cls-2" d="M297.64,720.9c-110.71,0-201.07,89.44-201.07,200"/><path class="cls-2" d="M497.65,420.94c0-110.53-89.31-200.28-200-200.28"/><path class="cls-2" d="M297.64,621a199.84,199.84,0,0,0,200-200"/><line class="cls-2" x1="297.64" y1="270.72" y2="270.72"/><path class="cls-2" d="M297.29,770.9c-83,0-150.64,67.08-150.64,150"/><path class="cls-2" d="M447.58,420.36A149.49,149.49,0,0,0,297.67,270.69"/><path class="cls-2" d="M297.64,570.92c83,0,149.94-67.79,149.94-150.69"/><line class="cls-2" x1="297.64" y1="170.58" y2="170.58"/><line class="cls-2" x1="299.45" y1="170.58" x2="297.64" y2="170.58"/><line class="cls-2" x1="297.64" y1="70.43" y2="70.43"/><line class="cls-2" x1="299.45" y1="70.43" x2="297.64" y2="70.43"/></g><g id="Layer_1" data-name="Layer 1"><path class="cls-3" d="M477.26,129.93l-3-1.76,7.25-12.2-4.35-2.59L470,125.58l-3-1.76,8.72-14.67L486,115.26Z"/><path class="cls-3" d="M485.48,128.11l-3.19,5.07-2.92-1.83,9.09-14.44,4.92,3.1a5.32,5.32,0,0,1,2.58,3.48,5.66,5.66,0,0,1-.9,4.25,5.28,5.28,0,0,1-3.37,2.56,5.64,5.64,0,0,1-4.26-1Zm1.53-2.43,2,1.26a1.88,1.88,0,0,0,1.63.27,2.92,2.92,0,0,0,1.46-1.31,3.4,3.4,0,0,0,.61-2,1.74,1.74,0,0,0-.84-1.43l-2-1.29Z"/><path class="cls-3" d="M504.33,139.74a8,8,0,0,1-4.41,3.42,5.59,5.59,0,0,1-4.77-1,5.68,5.68,0,0,1-2.6-4.14,7.82,7.82,0,0,1,1.68-5.26l1.69-2.39a8.39,8.39,0,0,1,4.5-3.54,6.16,6.16,0,0,1,7.37,5.18,8.21,8.21,0,0,1-1.78,5.4Zm-1.18-4.33a6.88,6.88,0,0,0,1.45-3.18,2.21,2.21,0,0,0-1-2.1,2.23,2.23,0,0,0-2.29-.28,6.72,6.72,0,0,0-2.46,2.3l-1.75,2.48a6.4,6.4,0,0,0-1.36,3.08,2.26,2.26,0,0,0,1.07,2,2.2,2.2,0,0,0,2.24.31,6.08,6.08,0,0,0,2.4-2.24Z"/><path class="cls-3" d="M510.17,144.24l-1.18-.91-4.25,5.52-2.73-2.1,10.4-13.53,2.73,2.1-4.16,5.4.92.71,6.51-3.6,3.33,2.55-8.15,3.76-1.88,10.06-3.25-2.5Z"/><path class="cls-3" d="M518.92,152.4,515.08,157l-2.65-2.2,10.91-13.12,4.47,3.72a5.29,5.29,0,0,1,2.1,3.78,5.65,5.65,0,0,1-1.45,4.1,5.26,5.26,0,0,1-3.67,2.1,5.69,5.69,0,0,1-4.11-1.52Zm1.83-2.21,1.82,1.51a1.9,1.9,0,0,0,1.59.48,2.8,2.8,0,0,0,1.61-1.1,3.4,3.4,0,0,0,.88-1.91,1.79,1.79,0,0,0-.65-1.54l-1.85-1.53Z"/><path class="cls-3" d="M529.51,164.83,526,161.7l-3,2-2.73-2.42,15.33-9.2,2.36,2.1-7.34,16.31L527.87,168Zm-1-4.77,2.38,2.12,2.86-5.6Z"/><path class="cls-3" d="M543.61,175.13a6.38,6.38,0,0,1-4.25,2,5.8,5.8,0,0,1-4.11-1.88,5.34,5.34,0,0,1-1.87-4.45,8.37,8.37,0,0,1,2.66-5l2-2.07a8.19,8.19,0,0,1,4.91-2.79,6.3,6.3,0,0,1,6.48,5.76,7.15,7.15,0,0,1-1.92,4.37l-2.49-2.4a4.6,4.6,0,0,0,1.32-2.18,2.15,2.15,0,0,0-.87-1.79,2.08,2.08,0,0,0-2.08-.66,6.7,6.7,0,0,0-2.64,1.86l-2.24,2.33a7.35,7.35,0,0,0-2,2.9,2.09,2.09,0,0,0,.74,2,2.26,2.26,0,0,0,1.81.82,4.26,4.26,0,0,0,2.09-1.31Z"/><path class="cls-3" d="M558.58,178.38l-2.93-3-10.22,9.84L543,182.7l10.22-9.84-2.87-3,2.06-2,8.21,8.51Z"/><path class="cls-3" d="M567.78,184.35l2.29,2.57-12.74,11.34L555,195.69l8.44-7.51-11.79,3.75-2.29-2.58L562.15,178l2.29,2.58L556,188.11Z"/><path class="cls-3" d="M566.44,209.34l-2.17-2.65,5.66-4.62-3.22-3.94-5.66,4.62-2.17-2.67,13.21-10.79,2.18,2.66-5.35,4.37,3.22,3.94,5.35-4.37,2.17,2.66Z"/><path class="cls-3" d="M575.73,215.83l-2.82-3.76-3.34,1.36-2.19-2.92,16.86-5.95,1.89,2.52L575.68,221.6l-2.2-2.94Zm-.07-4.88,1.91,2.55,3.91-4.92Z"/><path class="cls-3" d="M590.41,212.88l1.94,2.84-11.73,8,2.85,4.17,11.73-8,1.95,2.86-11.74,8,1.18,1.73-5.88,3.73-1.81-2.65,3.39-2.32-6-8.76Z"/><path class="cls-3" d="M604.06,233.67l1.82,2.93-14.5,9-1.82-2.92,9.6-6-12.25,1.68-1.82-2.93,14.5-9,1.82,2.94-9.61,6Z"/><path class="cls-3" d="M595.72,253.2l5.34-3-.89-1.57-6.58.85-1.84-3.23,7.92-1a5,5,0,0,1,2.79-4,5.18,5.18,0,0,1,4.09-.69,5.6,5.6,0,0,1,3.19,2.83l2.53,4.46-14.84,8.42Zm8.21-8.88a3.35,3.35,0,0,0-1.54,1.45,1.86,1.86,0,0,0,.22,1.68l.79,1.39,4.66-2.65-.84-1.49C606.57,243.57,605.48,243.44,603.93,244.32Z"/><path class="cls-3" d="M364,773.9l-3.39.58-2.4-14-5,.86,2.4,14-3.4.59-2.89-16.82,11.79-2Z"/><path class="cls-3" d="M369.2,766.7l1.26,5.87-3.37.72-3.57-16.69,5.69-1.21a5.34,5.34,0,0,1,4.27.69,5.67,5.67,0,0,1,2.33,3.68,5.26,5.26,0,0,1-.63,4.18,5.61,5.61,0,0,1-3.73,2.28Zm-.6-2.8,2.32-.5a1.84,1.84,0,0,0,1.35-.95,2.79,2.79,0,0,0,.14-1.94,3.43,3.43,0,0,0-1-1.88,1.8,1.8,0,0,0-1.61-.44l-2.35.5Z"/><path class="cls-3" d="M390.66,760.56a8,8,0,0,1-.25,5.57,6.32,6.32,0,0,1-8.74,2.25,7.78,7.78,0,0,1-2.91-4.69l-.73-2.82a8.45,8.45,0,0,1,.22-5.73,6.16,6.16,0,0,1,8.72-2.26,8.24,8.24,0,0,1,3,4.86Zm-4.06-1.91a6.93,6.93,0,0,0-1.49-3.16,2.19,2.19,0,0,0-2.25-.59,2.22,2.22,0,0,0-1.7,1.56,6.71,6.71,0,0,0,.16,3.36l.75,2.94a6.27,6.27,0,0,0,1.47,3,2.26,2.26,0,0,0,2.26.52,2.22,2.22,0,0,0,1.68-1.51,6.06,6.06,0,0,0-.15-3.28Z"/><path class="cls-3" d="M406.57,763.14l-3.3,1-4.08-13.59L394.34,752l4.08,13.59-3.3,1-4.91-16.34,11.45-3.44Z"/><path class="cls-3" d="M411.55,751.45l-.3-7.92,3.5-1.21.05,14.49a6.85,6.85,0,0,1-.72,3.21,3.47,3.47,0,0,1-1.82,1.47l-.36.12-.79.23-1-2.69a2.84,2.84,0,0,0,.74-.2,1.51,1.51,0,0,0,.84-.6,2.6,2.6,0,0,0,.12-1.43l-.05-.64-8.58-10,3.48-1.2Z"/><path class="cls-3" d="M430.82,748.32a6.38,6.38,0,0,1,.06,4.71,5.77,5.77,0,0,1-3.43,2.94,5.36,5.36,0,0,1-4.83-.18,8.39,8.39,0,0,1-3.39-4.5l-1-2.68a8.22,8.22,0,0,1-.47-5.63,6.3,6.3,0,0,1,8-3.45,7.1,7.1,0,0,1,3.15,3.58l-3.22,1.25a4.74,4.74,0,0,0-1.42-2.13,2.2,2.2,0,0,0-2,0,2.09,2.09,0,0,0-1.48,1.61,6.79,6.79,0,0,0,.58,3.18l1.16,3a7.41,7.41,0,0,0,1.79,3,2.07,2.07,0,0,0,2.17.18,2.28,2.28,0,0,0,1.51-1.29,4.42,4.42,0,0,0-.32-2.45Z"/><path class="cls-3" d="M439.34,735.42l-3.88,1.66,5.61,13-3.18,1.36-5.6-13-3.82,1.64-1.13-2.64,10.86-4.67Z"/><path class="cls-3" d="M447.25,728.5l3.11-1.49,7.35,15.4-3.11,1.48-4.87-10.19.33,12.36-3.12,1.49-7.35-15.4,3.12-1.49,4.87,10.21Z"/><path class="cls-3" d="M463.25,720.24l8,15.08-3.05,1.61-6.65-12.53-2.79,1.48,2.62,5.45a20.63,20.63,0,0,1,1.63,4.5,5.11,5.11,0,0,1-.18,3,4.35,4.35,0,0,1-2,2l-.75.39-1.34-2.53.34-.21a1.92,1.92,0,0,0,.71-2,16.62,16.62,0,0,0-1.61-4.29l-3.65-7.36Z"/><path class="cls-3" d="M479.42,726.56l-4.05,2.37,1,3.48-3.14,1.84-4-17.42,2.72-1.59,13.25,12L482,729.11Zm-4.86-.48,2.76-1.61L472.87,720Z"/><path class="cls-3" d="M505.31,719.11l-2.63,1.75-2.33-3.49-6.72,4.48,2.32,3.48-2.71,1.81-4.06-5.76.94-.63a4.67,4.67,0,0,0-.25-2.5,20.85,20.85,0,0,0-1.72-3.69l-4-6.88,8.16-5.45,7.88,11.82,1.48-1Zm-12.11-.41,4.12-2.74L491,706.53l-2.57,1.71,2.37,4.07A16.77,16.77,0,0,1,493.2,718.7Z"/><path class="cls-3" d="M507.74,703l-4.34,3.15,2.65,3.66,5.14-3.73,1.68,2.32-7.93,5.75-10-13.81,7.91-5.74,1.69,2.32-5.12,3.72,2.37,3.26,4.34-3.15Z"/><path class="cls-3" d="M528.05,701.92l-2.49,2-2.59-3.3-6.35,5,2.59,3.29-2.56,2-4.5-5.42.89-.71a4.66,4.66,0,0,0-.45-2.48,20.21,20.21,0,0,0-2-3.53L506,692.19l7.71-6.07,8.79,11.16,1.39-1.09Zm-12.1.54,3.89-3.06-7-8.9-2.43,1.91,2.68,3.87A16.85,16.85,0,0,1,516,702.46Z"/><path class="cls-3" d="M525.41,676.18l11.14,12.93-2.62,2.26-9.26-10.75-2.4,2.06,3.77,4.73a19.85,19.85,0,0,1,2.58,4,5.09,5.09,0,0,1,.5,3,4.34,4.34,0,0,1-1.55,2.43l-.64.55-1.87-2.16.28-.29a1.89,1.89,0,0,0,.26-2.08,16.55,16.55,0,0,0-2.52-3.83l-5.19-6.37Z"/><path class="cls-3" d="M542.59,678.75,539.16,682l1.73,3.17-2.66,2.5-7.79-16.09,2.3-2.16,15.59,8.77-2.68,2.52Zm-4.84.61,2.32-2.19-5.32-3.34Z"/><path class="cls-3" d="M541.27,654.59a3.18,3.18,0,0,1,1,2.56,5,5,0,0,1-4.14,4.22,3.16,3.16,0,0,1-2.58-1l1.69-1.73a1.47,1.47,0,0,0,1.12.48,1.72,1.72,0,0,0,1.14-.59,1.7,1.7,0,0,0,.55-1.13,1.45,1.45,0,0,0-.51-1.1Zm2.11,4.27,2.41-2.46,12.18,12-2.41,2.46-8.06-7.91L552,674.4l-2.42,2.47-12.18-12,2.42-2.47,8.07,7.92Z"/><path class="cls-3" d="M568.11,657.21l-2.3,2.55-5.42-4.89L557,658.65l5.42,4.89-2.3,2.56-12.67-11.43,2.3-2.56,5.13,4.62,3.41-3.77-5.13-4.63,2.3-2.55Z"/><path class="cls-3" d="M386.15,142.73l-3.29-1,2.06-7L380,133.32l-2.06,7-3.31-1L379.5,123l3.31,1-2,6.62,4.88,1.44,1.95-6.62,3.3,1Z"/><path class="cls-3" d="M399.14,139.36l-5.08-1.74-1.47,4.28,6,2.06-.93,2.7-9.26-3.17,5.53-16.14,9.25,3.17-.93,2.71-6-2L395,135l5.08,1.74Z"/><path class="cls-3" d="M415,135.08l-1.81,12.62,7.74-10.13,4.15,1.75-6.62,15.73-3.19-1.34,1.8-4.26,3.05-6.43-7.7,9.48-2.16-.9,1.41-12.14-2.47,6.68-1.79,4.26-3.17-1.34,6.61-15.73Z"/><path class="cls-3" d="M434.35,155a8,8,0,0,1-3.79,4.09,5.59,5.59,0,0,1-4.88-.27,5.69,5.69,0,0,1-3.24-3.66,7.91,7.91,0,0,1,.81-5.47l1.28-2.62a8.28,8.28,0,0,1,3.87-4.22,6.15,6.15,0,0,1,8.11,3.91,8.24,8.24,0,0,1-.88,5.62Zm-1.85-4.08a7.1,7.1,0,0,0,.91-3.38,2.42,2.42,0,0,0-3.64-1.81,6.68,6.68,0,0,0-2.06,2.67l-1.32,2.73a6.31,6.31,0,0,0-.85,3.26,2.26,2.26,0,0,0,1.39,1.85,2.2,2.2,0,0,0,2.26-.05,6.27,6.27,0,0,0,2-2.6Z"/><path class="cls-3" d="M448.36,154.39,443,151.47,436.21,164l-3-1.64,8.13-15,8.42,4.56Z"/><path class="cls-3" d="M452.63,162.37l5.86-5.33,3.18,1.9-11.05,9.37a6.9,6.9,0,0,1-2.91,1.52,3.52,3.52,0,0,1-2.3-.45l-.32-.19-.68-.46,1.41-2.48a3.54,3.54,0,0,0,.63.43,1.45,1.45,0,0,0,1,.25,2.65,2.65,0,0,0,1.17-.83l.46-.44,2.09-13,3.16,1.89Z"/><path class="cls-3" d="M464.87,174.28l-3.4,4.95-2.84-1.95,9.67-14.07,4.79,3.3a5.35,5.35,0,0,1,2.44,3.58,5.69,5.69,0,0,1-1.07,4.21,5.31,5.31,0,0,1-3.47,2.42,5.63,5.63,0,0,1-4.23-1.14Zm1.63-2.36,1.95,1.34a1.88,1.88,0,0,0,1.62.33,2.9,2.9,0,0,0,1.51-1.24,3.37,3.37,0,0,0,.69-2,1.79,1.79,0,0,0-.78-1.47l-2-1.36Z"/><path class="cls-3" d="M476.52,185.73l-3.76-2.81-2.82,2.25L467,183l14.49-10.47L484,174.4l-5.92,16.88-2.95-2.2Zm-1.44-4.66,2.55,1.9,2.37-5.82Z"/><path class="cls-3" d="M495.43,187.16l-4.72-3.88-2.07,2.51,1.57,1.3a5.71,5.71,0,0,1,2.25,3.75,5.17,5.17,0,0,1-1.31,4,5.4,5.4,0,0,1-3.67,2.11,5.47,5.47,0,0,1-4.07-1.32L479,192l10.84-13.18,7.39,6.08Zm-8.61.84-3.31,4,1.61,1.33a1.93,1.93,0,0,0,1.71.42,3.07,3.07,0,0,0,1.68-1.13,2.82,2.82,0,0,0,.71-1.76,2,2,0,0,0-.77-1.55Z"/><path class="cls-3" d="M502.42,203a8,8,0,0,1-4.78,2.87,6.33,6.33,0,0,1-6.7-6,7.83,7.83,0,0,1,2.29-5l2-2.16a8.35,8.35,0,0,1,4.88-3,5.52,5.52,0,0,1,4.68,1.57,5.57,5.57,0,0,1,2,4.44,8.3,8.3,0,0,1-2.41,5.16Zm-.65-4.44a7,7,0,0,0,1.81-3,2.43,2.43,0,0,0-3-2.76,6.68,6.68,0,0,0-2.71,2l-2,2.25a6.29,6.29,0,0,0-1.71,2.9,2.28,2.28,0,0,0,.82,2.17,2.21,2.21,0,0,0,2.18.57,6.24,6.24,0,0,0,2.65-1.94Z"/><path class="cls-3" d="M516.37,206.6l-3-2.95-9.95,10.12-2.47-2.43,9.95-10.12-3-2.91,2-2,8.43,8.29Z"/><path class="cls-3" d="M514.68,220.43,511.47,217l-3.17,1.73-2.5-2.66,16.1-7.78,2.16,2.3-8.78,15.58-2.52-2.68Zm-.6-4.84,2.18,2.32,3.35-5.32Z"/><path class="cls-3" d="M533.1,225.16,530.35,222l-10.74,9.27-2.26-2.61,10.74-9.28-2.71-3.14,2.17-1.88,7.73,8.95Z"/><path class="cls-3" d="M534.21,231.76l1.26,1.6a5.73,5.73,0,0,1,1.4,4.15,5.21,5.21,0,0,1-2.14,3.64,5.39,5.39,0,0,1-4,1.28,5.54,5.54,0,0,1-3.69-2.15l-3.52-4.46,13.4-10.57L539,228ZM532,233.53l-4.09,3.23,1.29,1.64a1.9,1.9,0,0,0,1.58.77,3,3,0,0,0,1.88-.74,2.78,2.78,0,0,0,1.07-1.57,2,2,0,0,0-.42-1.68Z"/><path class="cls-3" d="M562.3,281.79a8,8,0,0,1-5.46,1.16,6.32,6.32,0,0,1-4.37-7.89,7.84,7.84,0,0,1,3.81-4l2.55-1.41a8.45,8.45,0,0,1,5.6-1.23,6.17,6.17,0,0,1,4.38,7.88,8.23,8.23,0,0,1-4,4.08Zm.83-4.41a7,7,0,0,0,2.69-2.23,2.42,2.42,0,0,0-1.93-3.58,6.69,6.69,0,0,0-3.22,1L558,274a6.27,6.27,0,0,0-2.56,2.18,2.26,2.26,0,0,0,.07,2.31,2.2,2.2,0,0,0,1.87,1.26,6.24,6.24,0,0,0,3.14-1Z"/><path class="cls-3" d="M562.4,297.77l-1.52-3.09,12.75-6.25-2.23-4.55-12.74,6.25L557.14,287l15.32-7.51,5.26,10.73Z"/><path class="cls-3" d="M569.83,306,568,301.71l-3.57.54L563,298.91,580.73,297l1.25,2.89-13.54,11.69L567,308.25Zm1.07-4.76,1.26,2.92,5-3.87Z"/><path class="cls-3" d="M582.84,314.76a2.12,2.12,0,0,0,1.21-1,1.82,1.82,0,0,0,0-1.52,1.68,1.68,0,0,0-1-1,2.11,2.11,0,0,0-1.54.05L580.36,308a4.61,4.61,0,0,1,4.89.9,5.9,5.9,0,0,1,1.5,2.26,5.74,5.74,0,0,1,.22,4.16,4.57,4.57,0,0,1-2.84,2.61,4.09,4.09,0,0,1-2.21.2,4.3,4.3,0,0,1-2-1,3.85,3.85,0,0,1-.75,2.22,5.16,5.16,0,0,1-6.07,1.34,6,6,0,0,1-2.71-3.34,6.42,6.42,0,0,1-.43-2.82,4.59,4.59,0,0,1,.91-2.43,4.84,4.84,0,0,1,2.23-1.59l1.23,3.23a2.21,2.21,0,0,0-1.21,1.05,1.84,1.84,0,0,0-.08,1.56,2.07,2.07,0,0,0,1.14,1.24,2.21,2.21,0,0,0,1.71,0,2.84,2.84,0,0,0,1.6-1.14,1.88,1.88,0,0,0,0-1.58l-.62-1.63,2.59-1,.63,1.64C580.51,315,581.43,315.29,582.84,314.76Z"/><path class="cls-3" d="M573.54,338.83l-1-3,4-1.3-2.49-7.68-4,1.3-1-3.1,6.64-2.36.35,1.08a4.76,4.76,0,0,0,2.48.44,21.3,21.3,0,0,0,4-.67l7.72-2,3,9.32-13.51,4.4.55,1.68Zm3.66-11.55,1.53,4.7,10.77-3.5-1-3L584,326.72A16.64,16.64,0,0,1,577.2,327.28Z"/><path class="cls-3" d="M589.46,339.63l.52,2a5.74,5.74,0,0,1-.37,4.36,5.2,5.2,0,0,1-3.41,2.49A5.42,5.42,0,0,1,582,348a5.52,5.52,0,0,1-2.53-3.44l-1.45-5.5,16.5-4.35.88,3.34ZM582,354.06l-.88-3.33,16.49-4.36.88,3.34Zm4.73-13.7-5,1.34.53,2a1.91,1.91,0,0,0,1.14,1.35,3.13,3.13,0,0,0,2,.06,2.83,2.83,0,0,0,1.61-1,2,2,0,0,0,.28-1.71Z"/><path class="cls-3" d="M582.43,356.34l16.7-3.48,1.08,5.16a6.09,6.09,0,0,1-.34,4.22,4.33,4.33,0,0,1-3.13,2.07,4.25,4.25,0,0,1-2.31-.1,3.42,3.42,0,0,1-1.66-1.26,3,3,0,0,1-.93,2,4.55,4.55,0,0,1-2.26,1.11,4.89,4.89,0,0,1-4-.58,5.57,5.57,0,0,1-2-3.61Zm8,1.86-4.46.93.45,2.16a1.76,1.76,0,0,0,.85,1.26,2.46,2.46,0,0,0,1.69.13c1.5-.31,2.16-1,2-2.11Zm2.46-.51.36,1.75a1.82,1.82,0,0,0,2.47,1.56,2.42,2.42,0,0,0,1.54-.8,2,2,0,0,0,.18-1.59l-.37-1.79Z"/><path class="cls-3" d="M589.79,376.62,589,372l-3.59-.35-.58-3.6,17.69,2.57.5,3.11-16,8-.59-3.63Zm2.21-4.35.5,3.14,5.75-2.53Z"/><path class="cls-3" d="M596,399.2a7.91,7.91,0,0,1-5.47-1.07,5.6,5.6,0,0,1-2.35-4.28,5.71,5.71,0,0,1,1.36-4.64,7.73,7.73,0,0,1,5-2.22l-.14-1.37-6.74.69-.35-3.42,17-1.74.36,3.42-7.49.77.14,1.36.32,0a9.89,9.89,0,0,1,4,.32,5.52,5.52,0,0,1,2.77,1.86,6,6,0,0,1,1.22,3.18,5.58,5.58,0,0,1-1.47,4.66,8.34,8.34,0,0,1-5.25,2.22Zm2.49-3.73a7,7,0,0,0,3.35-1,2.43,2.43,0,0,0-.37-4.05,6.78,6.78,0,0,0-3.36-.34l-3,.31a6.38,6.38,0,0,0-3.21,1,2.26,2.26,0,0,0-.84,2.16,2.21,2.21,0,0,0,1.23,1.89,6.18,6.18,0,0,0,3.27.33Z"/><path class="cls-3" d="M327,171.42l3.16-7.26,3.68.43-6.23,13.07a6.92,6.92,0,0,1-2,2.59,3.5,3.5,0,0,1-2.28.53l-.38,0-.8-.14.27-2.85a3,3,0,0,0,.75.14,1.44,1.44,0,0,0,1-.18,2.61,2.61,0,0,0,.73-1.24l.24-.59-3.43-12.71,3.66.43Z"/><path class="cls-3" d="M345.29,178a6.34,6.34,0,0,1-2.35,4.08,5.78,5.78,0,0,1-4.46.77,5.35,5.35,0,0,1-4.05-2.62,8.45,8.45,0,0,1-.62-5.61l.48-2.83a8.29,8.29,0,0,1,2.48-5.08,6.29,6.29,0,0,1,8.6,1.11,7.09,7.09,0,0,1,.88,4.69l-3.41-.58a4.7,4.7,0,0,0-.13-2.55,2.2,2.2,0,0,0-1.73-1,2.1,2.1,0,0,0-2.09.63,6.57,6.57,0,0,0-1.13,3l-.54,3.17a7.49,7.49,0,0,0,0,3.54,2.08,2.08,0,0,0,1.77,1.26,2.26,2.26,0,0,0,2-.34,4.38,4.38,0,0,0,1-2.26Z"/><path class="cls-3" d="M359.55,172.48l-4.12-.92-3.09,13.85-3.37-.75,3.09-13.85L348,169.9l.62-2.8,11.54,2.58Z"/><path class="cls-3" d="M365.37,185.16l-4.53-1.25L359,187l-3.51-1,9.67-15,3,.84.65,17.87-3.54-1Zm-3-3.82,3.07.85.07-6.29Z"/><path class="cls-3" d="M386.92,177.84,381.43,194l-3.28-1.11,4.57-13.44-3-1-2.16,5.65a19.63,19.63,0,0,1-2.17,4.27,5.12,5.12,0,0,1-2.3,1.94,4.42,4.42,0,0,1-2.88-.1l-.8-.28.92-2.7.39.09a1.88,1.88,0,0,0,1.92-.84,16.32,16.32,0,0,0,2-4.1l2.85-7.71Z"/><path class="cls-3" d="M402.36,195.11a8,8,0,0,1-3.61,4.24,6.31,6.31,0,0,1-8.28-3.56,7.84,7.84,0,0,1,.56-5.5l1.16-2.68a8.4,8.4,0,0,1,3.68-4.39,6.16,6.16,0,0,1,8.28,3.55,8.3,8.3,0,0,1-.63,5.66Zm-2-4a6.94,6.94,0,0,0,.76-3.41,2.18,2.18,0,0,0-1.42-1.85,2.21,2.21,0,0,0-2.29.19,6.74,6.74,0,0,0-1.94,2.76l-1.2,2.78a6.27,6.27,0,0,0-.7,3.3,2.28,2.28,0,0,0,1.47,1.79,2.18,2.18,0,0,0,2.25-.16,6.12,6.12,0,0,0,1.89-2.68Z"/><path class="cls-3" d="M416.71,194.18l-3.78-1.87L406.63,205l-3.1-1.53,6.3-12.72-3.71-1.84,1.27-2.58,10.6,5.26Z"/><path class="cls-3" d="M421.85,206.44l-3.05,5.16-3-1.75,8.67-14.69,5,3a5.3,5.3,0,0,1,2.68,3.41,5.59,5.59,0,0,1-.77,4.27,5.29,5.29,0,0,1-3.3,2.66,5.63,5.63,0,0,1-4.29-.85Zm1.46-2.48,2,1.21a1.91,1.91,0,0,0,1.64.22,2.9,2.9,0,0,0,1.42-1.34,3.41,3.41,0,0,0,.56-2,1.78,1.78,0,0,0-.88-1.42L426,199.38Z"/><path class="cls-3" d="M436.9,211.71l6.11-5,3.09,2.05-11.49,8.82a6.88,6.88,0,0,1-3,1.38,3.45,3.45,0,0,1-2.28-.56l-.31-.2-.66-.5,1.53-2.41a3.38,3.38,0,0,0,.61.46,1.49,1.49,0,0,0,1,.31,2.67,2.67,0,0,0,1.21-.78l.48-.42,2.71-12.88L439,204Z"/><path class="cls-3" d="M455.27,219.09l-3.38-2.53-8.48,11.38-2.77-2.06,8.48-11.38L445.79,212l1.72-2.3,9.48,7.06Z"/><path class="cls-3" d="M465.34,223.66l2.64,2.21L457.05,239l-2.64-2.21,7.23-8.67-11.1,5.45-2.65-2.21,10.94-13.1,2.65,2.21-7.25,8.69Z"/><path class="cls-3" d="M467.45,248.64l-2.51-2.35,5-5.33-3.71-3.48-5,5.33-2.52-2.36L470.4,228l2.51,2.36-4.72,5,3.71,3.48,4.72-5,2.5,2.35Z"/><path class="cls-3" d="M479.43,245.26l1.39,1.49a5.69,5.69,0,0,1,1.74,4,5.19,5.19,0,0,1-1.82,3.8,5.39,5.39,0,0,1-3.93,1.61,5.49,5.49,0,0,1-3.85-1.83l-3.88-4.16,12.47-11.64,2.36,2.52Zm-2.09,2-3.81,3.56,1.42,1.52a1.91,1.91,0,0,0,1.64.65,3.06,3.06,0,0,0,1.81-.9,2.76,2.76,0,0,0,.94-1.65,2,2,0,0,0-.56-1.64Zm2.31,14.31L477.3,259l12.47-11.65,2.35,2.52Z"/><path class="cls-3" d="M540.8,357.52l7.92.3.94,3.59-14.45-1.05a7,7,0,0,1-3.15-.95,3.56,3.56,0,0,1-1.33-1.94l-.09-.36-.16-.81,2.75-.78a3.74,3.74,0,0,0,.14.75,1.42,1.42,0,0,0,.54.88,2.57,2.57,0,0,0,1.42.23H536l10.59-7.81.93,3.57Z"/><path class="cls-3" d="M541.3,377a6.36,6.36,0,0,1-4.66-.71,5.82,5.82,0,0,1-2.34-3.87,5.36,5.36,0,0,1,1-4.73,8.45,8.45,0,0,1,5-2.61l2.81-.58a8.22,8.22,0,0,1,5.63.46,6.3,6.3,0,0,1,2.09,8.41,7,7,0,0,1-4,2.52l-.7-3.38a4.72,4.72,0,0,0,2.33-1.05,2.21,2.21,0,0,0,.29-2,2.09,2.09,0,0,0-1.34-1.72,6.65,6.65,0,0,0-3.24.05l-3.16.65a7.34,7.34,0,0,0-3.3,1.27,2.09,2.09,0,0,0-.54,2.1,2.28,2.28,0,0,0,1,1.7,4.33,4.33,0,0,0,2.47.09Z"/><path class="cls-3" d="M551.65,388.24l-.64-4.17-14,2.16-.53-3.42,14-2.15-.63-4.1,2.84-.44,1.79,11.69Z"/><path class="cls-3" d="M542,398.28l-.49-4.68-3.57-.55-.37-3.62L555.05,393l.32,3.13L539,403.21l-.38-3.66Zm2.44-4.23.33,3.17,5.89-2.21Z"/><path class="cls-3" d="M556.6,415.69l-17,.76L539.4,413l14.18-.63-.14-3.16-6.05,0a20,20,0,0,1-4.77-.47,5.07,5.07,0,0,1-2.64-1.44,4.4,4.4,0,0,1-1-2.72l0-.84,2.86-.13,0,.4a1.91,1.91,0,0,0,1.48,1.49,17.25,17.25,0,0,0,4.57.39l8.21-.15Z"/><path class="cls-3" d="M29.81,681.76l12.91,11.16-2.25,2.61-4.87-4.21a12.22,12.22,0,0,1-1.45,2.15,5.93,5.93,0,0,1-3.85,2.3,5.61,5.61,0,0,1-4.07-1.5l-4.13-3.58,2.26-2.62,4,3.46a3.59,3.59,0,0,0,2,1A2.22,2.22,0,0,0,32,691.6a11.59,11.59,0,0,0,1.46-2.15l-5.88-5.08Z"/><path class="cls-3" d="M45,679.6l-3.62,4,3.35,3,4.28-4.7,2.11,1.92-6.6,7.25L31.86,679.6l6.58-7.22,2.12,1.93L36.3,679l3,2.71,3.61-4Z"/><path class="cls-3" d="M50.4,676.07l4.25,4.25-2.44,2.43L40.15,670.68l4.11-4.1a5.3,5.3,0,0,1,4-1.75,5.66,5.66,0,0,1,4,1.82,5.32,5.32,0,0,1,1.75,3.85,5.68,5.68,0,0,1-1.89,4Zm-2-2,1.68-1.67a1.88,1.88,0,0,0,.62-1.53,2.85,2.85,0,0,0-.94-1.71,3.48,3.48,0,0,0-1.83-1,1.76,1.76,0,0,0-1.59.5l-1.7,1.7Z"/><path class="cls-3" d="M70.45,665.25l-2.52,2.32-5-5.36-3.74,3.45L64.19,671l-2.53,2.34L50.09,660.82l2.53-2.34,4.68,5.08L61,660.11,56.36,655l2.52-2.33Z"/><path class="cls-3" d="M67.59,645.23,70.22,643l11,13-2.63,2.23-7.31-8.62,3.48,11.87-2.64,2.24-11-13,2.64-2.24,7.31,8.62Z"/><path class="cls-3" d="M82.22,633.57,92.7,647,90,649.15,81.25,638l-2.49,1.94,3.53,4.91A20.56,20.56,0,0,1,84.67,649a5.17,5.17,0,0,1,.35,3,4.39,4.39,0,0,1-1.67,2.35l-.67.52-1.75-2.26.29-.27a1.92,1.92,0,0,0,.36-2.07,16.69,16.69,0,0,0-2.32-4l-4.87-6.62Z"/><path class="cls-3" d="M99.4,637.9l-3.82,2.73L96.86,644l-3,2.12-5.56-17,2.57-1.83,14.27,10.78-3,2.13Zm-4.88,0,2.6-1.86-4.83-4Z"/><path class="cls-3" d="M109.9,620.29a2.14,2.14,0,0,0-1.24-1,1.88,1.88,0,0,0-1.5.28,1.69,1.69,0,0,0-.79,1.15,2.07,2.07,0,0,0,.36,1.49l-2.92,1.84a4.76,4.76,0,0,1-.77-2.5,4.62,4.62,0,0,1,.68-2.46,5.8,5.8,0,0,1,1.92-1.93,5.72,5.72,0,0,1,4-1,4.58,4.58,0,0,1,3.12,2.26,4.08,4.08,0,0,1,.64,2.13,4.29,4.29,0,0,1-.55,2.16,3.81,3.81,0,0,1,2.32.3,4.5,4.5,0,0,1,1.86,1.76,4.58,4.58,0,0,1,.66,3.91A5.91,5.91,0,0,1,115,632a6.45,6.45,0,0,1-2.68,1,4.53,4.53,0,0,1-2.56-.4,4.9,4.9,0,0,1-2-1.87l2.92-1.85a2.23,2.23,0,0,0,1.27,1,1.85,1.85,0,0,0,1.54-.24,2.08,2.08,0,0,0,1-1.37,2.3,2.3,0,0,0-.37-1.67,2.84,2.84,0,0,0-1.44-1.33,1.81,1.81,0,0,0-1.54.29l-1.48.94-1.48-2.35,1.48-.94C110.62,622.52,110.71,621.57,109.9,620.29Z"/><path class="cls-3" d="M126.75,620.55l-4.07,2.36,1,3.48-3.16,1.82-3.93-17.43,2.73-1.58,13.19,12.07-3.18,1.85Zm-4.86-.5,2.76-1.6L120.22,614Z"/><path class="cls-3" d="M134.73,612.22l-1.33.7,3.25,6.16-3.05,1.61-7.95-15.1,3-1.61,3.18,6,1-.54-.56-7.42,3.71-1.95,0,9,8.35,5.9-3.63,1.91Z"/><path class="cls-3" d="M152.79,603.24a8,8,0,0,1,.83,5.51,6.31,6.31,0,0,1-8.13,3.9,7.83,7.83,0,0,1-3.77-4L140.46,606a8.35,8.35,0,0,1-.89-5.66,6.17,6.17,0,0,1,8.11-3.92,8.29,8.29,0,0,1,3.85,4.2Zm-4.35-1.09a7,7,0,0,0-2.08-2.81,2.42,2.42,0,0,0-3.68,1.71,6.51,6.51,0,0,0,.81,3.27l1.3,2.74a6.38,6.38,0,0,0,2,2.69,2.26,2.26,0,0,0,2.32.07,2.22,2.22,0,0,0,1.36-1.8,6.27,6.27,0,0,0-.78-3.19Z"/><path class="cls-3" d="M168.73,604l-3.16,1.35-2.87-6.72-4.67,2,2.87,6.71-3.17,1.36L151,593l3.17-1.36L156.9,598l4.68-2-2.71-6.34L162,588.3Z"/><path class="cls-3" d="M175.76,583l6.05,16-3.23,1.23-2.28-6a12.4,12.4,0,0,1-2.3,1.2,5.91,5.91,0,0,1-4.48.19,5.57,5.57,0,0,1-2.86-3.25l-1.94-5.12L168,586l1.88,4.94a3.44,3.44,0,0,0,1.24,1.82,2.15,2.15,0,0,0,1.92,0,11.19,11.19,0,0,0,2.3-1.19l-2.75-7.27Z"/><path class="cls-3" d="M186.61,579.36l3.27-1.09,5.38,16.19L192,595.55l-3.56-10.72-1.21,12.31-3.28,1.09L178.56,582l3.28-1.09,3.56,10.74Z"/><path class="cls-3" d="M204.55,574l4.68,16.4-3.32,1L202,577.72l-3,.87,1.44,5.87a20.65,20.65,0,0,1,.65,4.75,5.11,5.11,0,0,1-.79,2.9,4.41,4.41,0,0,1-2.43,1.56l-.81.23-.78-2.75.37-.14a1.9,1.9,0,0,0,1.1-1.79,16.47,16.47,0,0,0-.67-4.53l-2.05-8Z"/><path class="cls-3" d="M215.71,571.25l3.35-.8,4,16.58-3.35.81-2.65-11L214.82,589l-3.36.81-4-16.59,3.36-.81,2.65,11Z"/><path class="cls-3" d="M235.63,578.7a6.44,6.44,0,0,1-.75,4.66,5.84,5.84,0,0,1-3.89,2.3,5.37,5.37,0,0,1-4.72-1,8.35,8.35,0,0,1-2.57-5l-.56-2.82a8.21,8.21,0,0,1,.5-5.62,6.29,6.29,0,0,1,8.43-2,7.09,7.09,0,0,1,2.49,4.07l-3.39.67a4.56,4.56,0,0,0-1-2.33,2.17,2.17,0,0,0-2-.31,2.09,2.09,0,0,0-1.73,1.33,6.81,6.81,0,0,0,0,3.24l.63,3.16a7.44,7.44,0,0,0,1.24,3.31,2.09,2.09,0,0,0,2.1.55,2.23,2.23,0,0,0,1.71-1,4.37,4.37,0,0,0,.11-2.47Z"/><path class="cls-3" d="M240.21,572.63l2-.32a5.72,5.72,0,0,1,4.31.81,5.19,5.19,0,0,1,2.13,3.64,5.37,5.37,0,0,1-.86,4.15,5.45,5.45,0,0,1-3.67,2.17l-5.62.89-2.68-16.85,3.42-.54Zm.45,2.83.82,5.15,2.06-.33a1.92,1.92,0,0,0,1.45-1,3.11,3.11,0,0,0,.27-2,2.77,2.77,0,0,0-.85-1.7,2,2,0,0,0-1.67-.45Z"/><path class="cls-3" d="M78.69,703l11,6.53-6.37-11,3.2-3.16,12,12.16L96,709.9l-3.24-3.29L88,701.32l5.8,10.75-1.67,1.65-10.66-6,5.22,4.84,3.24,3.29-2.46,2.42-12-12.16Z"/><path class="cls-3" d="M104.12,697.79l-3.52,3.11,1.63,3.22-2.73,2.41-7.3-16.32,2.36-2.08,15.32,9.23-2.76,2.44Zm-4.86.46,2.39-2.11-5.22-3.5Z"/><path class="cls-3" d="M110.33,688.07l-1.16.94,4.36,5.42-2.69,2.16L100.15,683.3l2.68-2.16,4.28,5.31.9-.72-2-7.18,3.26-2.63,1.73,8.81,9.34,4.19-3.2,2.58Z"/><path class="cls-3" d="M123.84,677.23l-4.32,3.19,2.69,3.64,5.11-3.77,1.7,2.3-7.89,5.82L111,674.67l7.87-5.8,1.7,2.31-5.09,3.76,2.39,3.24,4.32-3.18Z"/><path class="cls-3" d="M131.78,663.57l-3.5,2.36,7.93,11.77-2.87,1.93-7.93-11.77L122,670.18l-1.6-2.38,9.8-6.61Z"/><path class="cls-3" d="M152.1,661.24a6.35,6.35,0,0,1,.83,4.64,5.78,5.78,0,0,1-2.91,3.45,5.39,5.39,0,0,1-4.79.62,8.54,8.54,0,0,1-4.09-3.9l-1.45-2.48a8.22,8.22,0,0,1-1.38-5.48,6.31,6.31,0,0,1,7.29-4.69,7,7,0,0,1,3.69,3l-3,1.75a4.56,4.56,0,0,0-1.74-1.86,2.2,2.2,0,0,0-2,.36,2.09,2.09,0,0,0-1.19,1.83,6.73,6.73,0,0,0,1.08,3l1.64,2.78A7.39,7.39,0,0,0,146.4,667a2.06,2.06,0,0,0,2.16-.17,2.23,2.23,0,0,0,1.28-1.52,4.24,4.24,0,0,0-.71-2.36Z"/><path class="cls-3" d="M154.49,654l1.8-.94a5.7,5.7,0,0,1,4.34-.6,5.23,5.23,0,0,1,3.18,2.78,5.27,5.27,0,0,1-2.31,7.44l-5.05,2.61-7.86-15.14,3.07-1.59Zm1.31,2.53,2.4,4.63,1.85-1a1.91,1.91,0,0,0,1.07-1.4,3.12,3.12,0,0,0-.38-2,2.72,2.72,0,0,0-1.34-1.34,2,2,0,0,0-1.73.09Zm14.4,1.63-3.06,1.58-7.85-15.14,3.06-1.59Z"/><path class="cls-3" d="M173,650.29l2.47,5.47-3.14,1.42-7-15.54,5.29-2.4a5.28,5.28,0,0,1,4.33-.23A5.63,5.63,0,0,1,178,642.1a5.29,5.29,0,0,1,.28,4.22,5.71,5.71,0,0,1-3.16,3Zm-1.19-2.61,2.16-1a1.86,1.86,0,0,0,1.12-1.21,2.84,2.84,0,0,0-.28-1.93,3.39,3.39,0,0,0-1.34-1.63,1.75,1.75,0,0,0-1.66-.09l-2.19,1Z"/><path class="cls-3" d="M193,640.82a8,8,0,0,1,.46,5.55A5.6,5.6,0,0,1,190,649.8a5.67,5.67,0,0,1-4.89-.08,7.84,7.84,0,0,1-3.49-4.29l-1.07-2.71A8.38,8.38,0,0,1,180,637a6.17,6.17,0,0,1,8.37-3.36,8.26,8.26,0,0,1,3.55,4.45Zm-4.27-1.38a6.93,6.93,0,0,0-1.88-3,2.19,2.19,0,0,0-2.31-.3,2.21,2.21,0,0,0-1.48,1.76,6.66,6.66,0,0,0,.58,3.32l1.12,2.82a6.47,6.47,0,0,0,1.84,2.82,2.28,2.28,0,0,0,2.31.22,2.21,2.21,0,0,0,1.48-1.7,6.25,6.25,0,0,0-.57-3.24Z"/><path class="cls-3" d="M197.54,646.62,192,630.48l5-1.71a6.09,6.09,0,0,1,4.23-.2,4.32,4.32,0,0,1,2.44,2.85,4.11,4.11,0,0,1,.19,2.3,3.42,3.42,0,0,1-1,1.81,3,3,0,0,1,2.1.67,4.43,4.43,0,0,1,1.38,2.11,4.85,4.85,0,0,1-.07,4,5.61,5.61,0,0,1-3.33,2.48Zm0-10.51,1.7-.58a1.82,1.82,0,0,0,1.23-2.64,2.43,2.43,0,0,0-1-1.43,2,2,0,0,0-1.61,0l-1.72.6Zm.82,2.37,1.48,4.31,2.08-.71a1.74,1.74,0,0,0,1.15-1,2.47,2.47,0,0,0-.08-1.7q-.75-2.18-2.34-1.68Z"/><path class="cls-3" d="M216.73,636.78l-4.51,1.32.1,3.61-3.49,1,.32-17.87,3-.89,9.94,14.87-3.53,1Zm-4.6-1.65,3.06-.89L212,628.85Z"/><path class="cls-3" d="M229.28,622.47l-4.09,1,3.42,13.77-3.35.84-3.43-13.77-4,1-.7-2.79,11.48-2.85Z"/><path class="cls-3" d="M72.54,815.09l-.64,1.36,6.3,3-1.47,3.12-15.44-7.27,1.47-3.12,6.17,2.91.5-1-4.91-5.59,1.79-3.8,5.41,7.16,10.22-.31-1.74,3.71Z"/><path class="cls-3" d="M83.13,801.94l-2.24,4.13,2.64,2.47-1.73,3.2-12.48-12.8,1.5-2.77,17.56,3.39-1.75,3.23Zm-4.41,2.11,1.52-2.81-6.11-1.48Z"/><path class="cls-3" d="M95.26,788.41l-1.81,2.94-12.08-7.46-2.66,4.31,12.08,7.45L89,798.59l-14.52-9,6.28-10.17Z"/><path class="cls-3" d="M91.85,776.65,87,770.43l2.11-3,8.57,11.68a6.88,6.88,0,0,1,1.32,3,3.56,3.56,0,0,1-.61,2.27l-.22.31-.5.64-2.38-1.59a2.79,2.79,0,0,0,.47-.59,1.49,1.49,0,0,0,.33-1,2.66,2.66,0,0,0-.75-1.23l-.41-.49-12.82-3,2.12-3Z"/><path class="cls-3" d="M97.79,756.17l13.43,10.53-2.13,2.71-5.06-4a12.69,12.69,0,0,1-1.35,2.22,5.94,5.94,0,0,1-3.74,2.48,5.55,5.55,0,0,1-4.13-1.31l-4.3-3.37,2.13-2.73L96.8,766a3.56,3.56,0,0,0,2,.92,2.21,2.21,0,0,0,1.63-1,11.82,11.82,0,0,0,1.35-2.22l-6.11-4.79Z"/><path class="cls-3" d="M105.4,747.41l2.29-2.58,12.78,11.3-2.28,2.58-8.47-7.48,5.14,11.25-2.29,2.59-12.78-11.3,2.28-2.59,8.48,7.49Z"/><path class="cls-3" d="M130.46,746,128,748.43l-5.18-5.15-3.59,3.61,5.18,5.15L122,754.48l-12.1-12,2.43-2.44,4.9,4.87,3.58-3.61-4.89-4.86,2.42-2.44Z"/><path class="cls-3" d="M136.39,731.22a8,8,0,0,1,2.35,5.06,5.61,5.61,0,0,1-2.1,4.42,5.67,5.67,0,0,1-4.62,1.6,7.89,7.89,0,0,1-4.75-2.82l-1.94-2.17a8.37,8.37,0,0,1-2.44-5.18,6.15,6.15,0,0,1,6.69-6,8.2,8.2,0,0,1,4.87,2.95Zm-4.48.17a7,7,0,0,0-2.78-2.12,2.41,2.41,0,0,0-3,2.68,6.51,6.51,0,0,0,1.69,2.91l2,2.26a6.28,6.28,0,0,0,2.69,2,2.27,2.27,0,0,0,2.25-.58,2.19,2.19,0,0,0,.8-2.11,6.19,6.19,0,0,0-1.64-2.85Z"/><path class="cls-3" d="M152.06,719a7.89,7.89,0,0,1,1.93,5.22,5.58,5.58,0,0,1-2.44,4.24,5.69,5.69,0,0,1-4.73,1.23,7.85,7.85,0,0,1-4.51-3.19l-1.76-2.33a8.37,8.37,0,0,1-2-5.36,6.15,6.15,0,0,1,7.15-5.47,8.25,8.25,0,0,1,4.62,3.33Zm-4.48-.19a7,7,0,0,0-2.6-2.34,2.42,2.42,0,0,0-3.26,2.42,6.69,6.69,0,0,0,1.45,3l1.83,2.42a6.36,6.36,0,0,0,2.53,2.22,2.25,2.25,0,0,0,2.28-.4,2.2,2.2,0,0,0,1-2,6.24,6.24,0,0,0-1.41-3Z"/><path class="cls-3" d="M164.33,712.22a6.38,6.38,0,0,1,1.1,4.58,5.8,5.8,0,0,1-2.7,3.63,5.36,5.36,0,0,1-4.74.9,8.45,8.45,0,0,1-4.31-3.65l-1.61-2.38a8.21,8.21,0,0,1-1.7-5.38,6.29,6.29,0,0,1,7-5.13,7.08,7.08,0,0,1,3.87,2.79l-2.87,1.93a4.58,4.58,0,0,0-1.85-1.75,2.2,2.2,0,0,0-1.93.47,2.1,2.1,0,0,0-1.09,1.9,6.92,6.92,0,0,0,1.27,3l1.8,2.67a7.38,7.38,0,0,0,2.43,2.58,2.09,2.09,0,0,0,2.14-.3,2.25,2.25,0,0,0,1.19-1.6,4.28,4.28,0,0,0-.85-2.31Z"/><path class="cls-3" d="M170.83,698.37l-3.61,2.17,7.3,12.17-3,1.78-7.31-12.17-3.55,2.14L159.22,702l10.14-6.08Z"/><path class="cls-3" d="M177.43,698.47l1.81-.93a5.7,5.7,0,0,1,4.34-.6,5.18,5.18,0,0,1,3.17,2.79,5.41,5.41,0,0,1,.5,4.21,5.5,5.5,0,0,1-2.81,3.22l-5,2.61-7.86-15.15,3.07-1.59Zm1.32,2.54,2.4,4.63,1.85-1a1.89,1.89,0,0,0,1.06-1.4,3.06,3.06,0,0,0-.38-2,2.7,2.7,0,0,0-1.33-1.34,2,2,0,0,0-1.73.09Zm14.4,1.63-3.06,1.59-7.85-15.15,3.06-1.59Z"/><path class="cls-3" d="M199.49,681.23l6.83,15.64-3.17,1.38-5.68-13-2.9,1.27,2.21,5.63a20.29,20.29,0,0,1,1.28,4.62,5.08,5.08,0,0,1-.4,3,4.38,4.38,0,0,1-2.2,1.87l-.77.33-1.15-2.62.36-.19a1.87,1.87,0,0,0,.85-1.91,16.28,16.28,0,0,0-1.27-4.4l-3.08-7.62Z"/><path class="cls-4" d="M324.93,741l-5.38-42.32L332.63,697c4.41-.56,7.9,0,10.44,1.67s4.06,4.41,4.55,8.21a10.55,10.55,0,0,1-.72,5.73,8.52,8.52,0,0,1-3.46,3.9,7.43,7.43,0,0,1,4.8,2.71,11.17,11.17,0,0,1,2.31,5.86q.78,6.16-2.2,9.73t-9.41,4.39Zm5.41-25.7,4.45-.57c3.35-.43,4.81-2.37,4.37-5.84a6.06,6.06,0,0,0-1.69-4,5,5,0,0,0-3.94-.77l-4.53.58Zm.8,6.22,1.43,11.3,5.47-.69a4.32,4.32,0,0,0,3.3-1.87A6.15,6.15,0,0,0,342,726q-.72-5.7-4.87-5.32Z"/><path class="cls-4" d="M382.15,712.49l-3.6,1,4.89,16.71-8.27,2.41-12-40.93,8.26-2.42,4.8,16.36,2.78-.81,2.32-18.45,10.07-2.95-4.43,22,17.54,18.61L394.69,727Z"/><path class="cls-4" d="M429.84,694.55q3.33,7.91,1.44,13.86t-8.53,8.75q-6.62,2.79-12.22.05t-8.95-10.51L398.74,700q-3.42-8.1-1.59-14.23t8.51-9q6.55-2.76,12.22.11T427,687.83Zm-10.75-3.22q-2.23-5.33-4.84-7.28a6.06,6.06,0,0,0-9.41,3.86c-.3,2.09.24,4.84,1.64,8.26l2.95,7c1.45,3.44,3,5.75,4.75,7a5.66,5.66,0,0,0,5.78.44,5.54,5.54,0,0,0,3.61-4.34q.49-3-1.59-8.06Z"/><path class="cls-4" d="M448.48,655.31l21.14,37.05-7.5,4.28-17.59-30.82-6.87,3.92,7,13.42a51.12,51.12,0,0,1,4.41,11.13,12.72,12.72,0,0,1-.2,7.52,10.9,10.9,0,0,1-5,5.23l-1.84,1-3.54-6.21.82-.57q2.19-1.62,1.63-5c-.38-2.25-1.82-5.78-4.35-10.59l-9.69-18.12Z"/><path class="cls-4" d="M484.31,659.23l-10.85,7.89,6.65,9.15L493,666.92l4.21,5.78-19.8,14.42-25.11-34.49L472,638.25l4.22,5.8-12.79,9.31,5.93,8.15,10.85-7.9Z"/><path class="cls-4" d="M514.71,638.24q4.65,5.63,4.36,11t-5.4,9.93Q508.3,664,502.25,663t-12-7.49l-4.81-5.32q-5.89-6.53-6.13-12.73t5-11q5.17-4.66,10.47-4.21t10.56,5.55L499,633.65c-2.08-2.18-3.81-3.41-5.21-3.69s-2.94.35-4.62,1.87-2.38,3.23-2,5.07,1.78,4.14,4.21,6.92l5.4,6c2.84,3.14,5.14,5,6.91,5.52s3.5,0,5.21-1.51,2.47-3,2.37-4.37-1.08-3.2-2.93-5.42Z"/><path class="cls-4" d="M530.38,614.54l-9,10,8.43,7.55,10.59-11.83,5.33,4.77-16.34,18.24L497.66,614.8,514,596.6l5.35,4.79-10.56,11.79,7.51,6.72,9-10Z"/><path class="cls-4" d="M409.34,649.37,406,651l7.72,15.59L406,670.45l-18.93-38.23,7.72-3.82,7.57,15.28,2.6-1.29L404,623.82l9.4-4.65-.53,22.43,20.51,15.28-9.19,4.55Z"/><path class="cls-4" d="M450.53,634.88l-9.69,6.63,3,8.49-7.52,5.15-13.08-42.74,6.51-4.45,35.15,27.64-7.59,5.19Zm-12.2-.35,6.58-4.5L433,619.72Z"/><path class="cls-4" d="M467.74,609.81,465,612.33l11.71,12.87-6.37,5.8L441.6,599.46l6.37-5.8,11.47,12.6,2.15-2-6-17.6,7.76-7.06L469,601.36l23.92,9-7.58,6.9Z"/><path class="cls-4" d="M492.92,554.15l-9.22,12.21,6.5,4.9,3.07-4.07q3.9-5.16,9.15-6A13,13,0,0,1,512.58,564a13.51,13.51,0,0,1,5.66,9,13.77,13.77,0,0,1-2.87,10.29l-8.56,11.34-34-25.7,14.42-19.1Zm3,21.42,10.4,7.85,3.15-4.16a4.74,4.74,0,0,0,.88-4.3,7.64,7.64,0,0,0-3-4.08,7,7,0,0,0-4.47-1.6,4.91,4.91,0,0,0-3.79,2.08Z"/><path class="cls-4" d="M522.59,537.63l-6.69,11.64,9.8,5.63,7.92-13.76,6.19,3.56L527.6,565.93l-37-21.26,12.18-21.18,6.22,3.57-7.89,13.72,8.74,5,6.69-11.63Z"/><path class="cls-4" d="M515.22,493.87,554.7,510l-3.27,8-32.84-13.44-3,7.32,13.76,6.27a50.16,50.16,0,0,1,10.33,6.05,12.7,12.7,0,0,1,4.48,6,10.85,10.85,0,0,1-.69,7.18l-.8,1.95-6.62-2.71.3-1q.72-2.61-1.8-4.93t-9.94-5.67l-18.8-8.29Z"/><path class="cls-4" d="M543.88,484.21l-.91,3.64,16.87,4.25-2.1,8.35L516.37,490l2.11-8.35L535,485.84l.71-2.81L521,471.68l2.56-10.17,16.71,15,24.94-5.68-2.5,9.94Z"/><path class="cls-4" d="M559.63,443.47l-1.26,11.68,8.43,3.21-1,9.06-41-17.84.85-7.84L569.54,433l-1,9.15Zm-8.2,9,.86-7.92-15.55,2.33Z"/><path class="cls-3" d="M303.59,222.32l-1.5,0-.22,6.95-3.44-.11.54-17.05,3.44.11L302.2,219l1.15,0,3.19-6.72,4.19.13-4.42,7.81,4.34,9.26-4.1-.13Z"/><path class="cls-3" d="M317.66,220.71l3-7.32,3.69.37-6,13.18a7,7,0,0,1-2,2.62,3.54,3.54,0,0,1-2.27.57l-.38,0-.81-.13.23-2.85a3,3,0,0,0,.75.12,1.49,1.49,0,0,0,1-.19,2.72,2.72,0,0,0,.71-1.25l.22-.6-3.64-12.65,3.67.37Z"/><path class="cls-3" d="M338.52,216.09l-2.87,16.82-3.4-.58,1.08-6.34a12,12,0,0,1-2.59-.13,6,6,0,0,1-4-2.11,5.58,5.58,0,0,1-.82-4.25l.92-5.39,3.41.58-.89,5.21a3.52,3.52,0,0,0,.14,2.2,2.23,2.23,0,0,0,1.68.94,11.6,11.6,0,0,0,2.59.13l1.31-7.66Z"/><path class="cls-3" d="M346.7,232l-4.57-1.13L340.41,234l-3.54-.88,9.28-15.28,3.06.76,1.1,17.85-3.57-.88Zm-3.15-3.74,3.1.77-.09-6.29Z"/><path class="cls-3" d="M367.59,242.36l-3.24-1.16,4.78-13.36-4.76-1.71-4.79,13.37-3.24-1.17,5.75-16.06,11.25,4Z"/><path class="cls-3" d="M375.17,239.08l-2.42,5.49-3.15-1.39,6.87-15.61,5.32,2.34a5.34,5.34,0,0,1,3.07,3.06,5.7,5.7,0,0,1-.27,4.34,5.29,5.29,0,0,1-3,3,5.67,5.67,0,0,1-4.36-.33Zm1.16-2.63,2.16,1a1.9,1.9,0,0,0,1.66,0,2.87,2.87,0,0,0,1.25-1.5,3.41,3.41,0,0,0,.31-2.08,1.77,1.77,0,0,0-1-1.3l-2.2-1Z"/><path class="cls-3" d="M388.56,248.24l-4.18-2.14L382,248.79l-3.24-1.66,12.53-12.75,2.8,1.43-3,17.64-3.28-1.68Zm-2.2-4.35,2.83,1.45,1.36-6.14Z"/><path class="cls-3" d="M391.94,254l8.8-14.62,4.52,2.72a6.07,6.07,0,0,1,2.86,3.11,4.31,4.31,0,0,1-.61,3.7,4,4,0,0,1-1.64,1.62,3.34,3.34,0,0,1-2.05.37,3,3,0,0,1,.83,2,4.48,4.48,0,0,1-.73,2.42,4.89,4.89,0,0,1-3.1,2.51,5.64,5.64,0,0,1-4-1Zm6.78-4.58-2.35,3.9,1.88,1.14a1.7,1.7,0,0,0,1.5.23,2.46,2.46,0,0,0,1.26-1.14q1.19-2-.21-2.88Zm1.29-2.15,1.54.92a1.82,1.82,0,0,0,2.82-.75,2.42,2.42,0,0,0,.45-1.67,2,2,0,0,0-1-1.21l-1.57-.95Z"/><path class="cls-3" d="M416.79,261.83a8,8,0,0,1-4.39,3.44,5.6,5.6,0,0,1-4.78-1,5.68,5.68,0,0,1-2.62-4.13,7.85,7.85,0,0,1,1.66-5.27l1.67-2.39a8.35,8.35,0,0,1,4.48-3.56,6.15,6.15,0,0,1,7.4,5.14,8.21,8.21,0,0,1-1.75,5.41Zm-1.2-4.32a7,7,0,0,0,1.43-3.19,2.43,2.43,0,0,0-3.31-2.37,6.65,6.65,0,0,0-2.44,2.31l-1.74,2.49a6.3,6.3,0,0,0-1.35,3.09,2.27,2.27,0,0,0,1.08,2.05,2.24,2.24,0,0,0,2.24.3,6.22,6.22,0,0,0,2.39-2.26Z"/><path class="cls-3" d="M422.5,266.43l-1.17-.95L417,270.89l-2.68-2.16L425,255.46l2.68,2.17-4.29,5.3.9.73,6.59-3.44,3.27,2.64-8.24,3.56-2.13,10-3.19-2.58Z"/><path class="cls-3" d="M382.72,604.07a8,8,0,0,1,.62,5.54,6.33,6.33,0,0,1-8.28,3.58,7.87,7.87,0,0,1-3.61-4.19l-1.15-2.68a8.41,8.41,0,0,1-.67-5.69,6.16,6.16,0,0,1,8.27-3.58,8.22,8.22,0,0,1,3.67,4.34Zm-4.3-1.26a7,7,0,0,0-2-2.9,2.42,2.42,0,0,0-3.75,1.57,6.6,6.6,0,0,0,.68,3.3l1.19,2.79a6.4,6.4,0,0,0,1.92,2.77,2.29,2.29,0,0,0,2.31.16,2.19,2.19,0,0,0,1.43-1.75,6.18,6.18,0,0,0-.65-3.22Z"/><path class="cls-3" d="M390.74,592,387,593.87l6.42,12.66-3.09,1.56-6.41-12.66-3.7,1.88-1.3-2.56,10.55-5.35Z"/><path class="cls-3" d="M399.4,603.38l-8.7-14.68,4.53-2.69a6.09,6.09,0,0,1,4.1-1,4.39,4.39,0,0,1,3,2.29,4.24,4.24,0,0,1,.64,2.22,3.42,3.42,0,0,1-.65,2,3,3,0,0,1,2.2.23,4.63,4.63,0,0,1,1.78,1.79,4.84,4.84,0,0,1,.73,3.92,5.61,5.61,0,0,1-2.75,3.11Zm-2.1-10.3,1.54-.91a1.83,1.83,0,0,0,.68-2.84,2.47,2.47,0,0,0-1.25-1.2,2,2,0,0,0-1.57.35l-1.58.93Zm1.28,2.16,2.32,3.92,1.9-1.12a1.73,1.73,0,0,0,.91-1.22,2.44,2.44,0,0,0-.41-1.64c-.78-1.32-1.66-1.71-2.63-1.18Z"/><path class="cls-3" d="M411.56,575.3l9.7,14-2.84,2-8.07-11.67-2.6,1.8,3.24,5.1a19.89,19.89,0,0,1,2.14,4.29,5,5,0,0,1,.19,3,4.35,4.35,0,0,1-1.8,2.25l-.69.48-1.63-2.35.31-.26a1.89,1.89,0,0,0,.47-2,16.44,16.44,0,0,0-2.1-4.07l-4.48-6.89Z"/><path class="cls-3" d="M426.25,576l-4.2,3.34,2.81,3.54,5-3.95,1.77,2.24-7.67,6.09-10.61-13.36,7.66-6.08,1.78,2.25L417.82,574l2.5,3.16,4.21-3.34Z"/><path class="cls-3" d="M432.57,571.08l-1.12,1,4.67,5.17-2.56,2.31-11.43-12.67,2.56-2.31,4.56,5.06.87-.77-2.37-7,3.11-2.81,2.23,8.69,9.55,3.66-3,2.75Z"/><path class="cls-3" d="M440,549.58l12.29,11.83-2.39,2.49-10.23-9.84-2.19,2.28,4.19,4.36a20.62,20.62,0,0,1,3,3.77,5.13,5.13,0,0,1,.77,2.91,4.39,4.39,0,0,1-1.31,2.57l-.59.6-2.06-2,.25-.31a1.89,1.89,0,0,0,.06-2.1,16.52,16.52,0,0,0-2.86-3.58l-5.76-5.85Z"/><path class="cls-3" d="M457.2,550.21l-3,3.62,2.11,2.93-2.33,2.8-9.72-15,2-2.43,16.56,6.77-2.35,2.83Zm-4.74,1.21,2-2.46-5.7-2.66Z"/><path class="cls-3" d="M466.09,534.65a6.38,6.38,0,0,1,2.63,3.91,5.78,5.78,0,0,1-1.27,4.34,5.37,5.37,0,0,1-4.14,2.49,8.48,8.48,0,0,1-5.31-1.92l-2.33-1.68a8.26,8.26,0,0,1-3.47-4.46,6.32,6.32,0,0,1,4.79-7.24,7.12,7.12,0,0,1,4.59,1.28l-2,2.81a4.65,4.65,0,0,0-2.34-1,2.22,2.22,0,0,0-1.65,1.12,2.1,2.1,0,0,0-.36,2.16,6.82,6.82,0,0,0,2.22,2.35l2.62,1.88a7.42,7.42,0,0,0,3.17,1.58,2.1,2.1,0,0,0,1.91-1,2.28,2.28,0,0,0,.56-1.91,4.43,4.43,0,0,0-1.61-1.87Z"/><path class="cls-3" d="M464.73,527l1.07-1.73a5.74,5.74,0,0,1,3.43-2.73,5.22,5.22,0,0,1,4.15.77,5.42,5.42,0,0,1,2.58,3.37,5.5,5.5,0,0,1-.77,4.2l-3,4.83-14.49-9,1.82-2.94Zm2.43,1.51,4.42,2.75,1.11-1.77a1.89,1.89,0,0,0,.19-1.75,3.05,3.05,0,0,0-1.34-1.51,2.77,2.77,0,0,0-1.84-.48,2,2,0,0,0-1.43,1Z"/><path class="cls-3" d="M110.47,846.75l-6.21-4.92,1.36-3.45,11,9.39a7,7,0,0,1,2,2.62,3.52,3.52,0,0,1-.07,2.35l-.14.35-.34.75-2.69-1a3.06,3.06,0,0,0,.33-.69,1.47,1.47,0,0,0,.09-1,2.67,2.67,0,0,0-1-1l-.51-.38-13.17,0,1.36-3.43Z"/><path class="cls-3" d="M111.74,825.42l15.39,7.37-1.49,3.1-5.8-2.77a11.54,11.54,0,0,1-.84,2.45,5.87,5.87,0,0,1-3.11,3.23,5.54,5.54,0,0,1-4.31-.37l-4.94-2.37,1.5-3.11,4.76,2.28a3.51,3.51,0,0,0,2.16.46,2.18,2.18,0,0,0,1.36-1.35,11.68,11.68,0,0,0,.84-2.46l-7-3.35Z"/><path class="cls-3" d="M129.25,821.9,126.91,826l2.58,2.53-1.82,3.16-12.15-13.11,1.57-2.74,17.47,3.83-1.83,3.2Zm-4.46,2,1.59-2.77-6.07-1.64Z"/><path class="cls-3" d="M145,804.65l-2,2.81-11.53-8.27-3,4.12L140,811.57l-2,2.8-13.87-9.93,7-9.72Z"/><path class="cls-3" d="M143.89,796.46l4.62,3.83-2.2,2.66-13.14-10.89,3.71-4.48a5.31,5.31,0,0,1,3.79-2.1,5.62,5.62,0,0,1,4.1,1.44,5.34,5.34,0,0,1,2.1,3.67,5.69,5.69,0,0,1-1.52,4.11Zm-2.21-1.83,1.51-1.82a1.84,1.84,0,0,0,.47-1.58,2.8,2.8,0,0,0-1.1-1.61,3.33,3.33,0,0,0-1.91-.88,1.75,1.75,0,0,0-1.53.65l-1.54,1.85Z"/><path class="cls-3" d="M156.37,786.09l-3.21,3.44,1.93,3.05-2.49,2.66-8.83-15.54,2.15-2.3,16.13,7.72-2.51,2.69Zm-4.8.93,2.18-2.33-5.54-3Z"/><path class="cls-3" d="M162.83,784.42,151.18,772l3.85-3.6a6.11,6.11,0,0,1,3.78-1.91,4.32,4.32,0,0,1,3.39,1.6,4.23,4.23,0,0,1,1.11,2,3.33,3.33,0,0,1-.21,2.07,3,3,0,0,1,2.19-.24,4.53,4.53,0,0,1,2.13,1.36,4.85,4.85,0,0,1,1.56,3.67,5.6,5.6,0,0,1-2,3.62Zm-4.26-9.6,1.31-1.23a1.82,1.82,0,0,0,0-2.91,2.37,2.37,0,0,0-1.47-.9,2,2,0,0,0-1.46.67l-1.34,1.25Zm1.71,1.83,3.11,3.33,1.61-1.5a1.78,1.78,0,0,0,.64-1.38,2.47,2.47,0,0,0-.76-1.52c-1-1.12-2-1.31-2.83-.59Z"/><path class="cls-3" d="M177.18,762.66a8,8,0,0,1,2.11,5.16,6.31,6.31,0,0,1-7,5.7,7.8,7.8,0,0,1-4.61-3l-1.84-2.27a8.34,8.34,0,0,1-2.2-5.28,6.17,6.17,0,0,1,7-5.72,8.27,8.27,0,0,1,4.72,3.18Zm-4.48,0a7.18,7.18,0,0,0-2.68-2.25,2.43,2.43,0,0,0-3.18,2.54,6.66,6.66,0,0,0,1.55,3l1.92,2.36a6.36,6.36,0,0,0,2.6,2.14,2.28,2.28,0,0,0,2.27-.48,2.22,2.22,0,0,0,.9-2.07,6.26,6.26,0,0,0-1.51-2.92Z"/><path class="cls-3" d="M183.15,758.43l-1.23.87,4,5.69-2.82,2-9.82-14,2.82-2,3.93,5.57L181,756l-1.49-7.29,3.43-2.41,1.16,8.9,9,4.78-3.36,2.36Z"/><path class="cls-3" d="M377.5,308.84l-2.67-1.7,2.25-3.54-6.8-4.34L368,302.79,365.28,301l3.63-6,1,.61a4.67,4.67,0,0,0,2.19-1.24,20.59,20.59,0,0,0,2.67-3.06l4.69-6.46,8.27,5.27-7.64,12,1.5.95ZM373,297.6l4.17,2.66,6.09-9.56L380.64,289l-2.76,3.81A16.79,16.79,0,0,1,373,297.6Z"/><path class="cls-3" d="M392.24,305.71,388,302.42,385.23,306l5,3.89-1.75,2.26-7.75-6,10.45-13.49,7.73,6-1.76,2.27-5-3.87-2.46,3.19,4.24,3.28Z"/><path class="cls-3" d="M398.25,321.06l-2.53-2.35,9.64-10.41-3.72-3.44L392,315.28l-2.52-2.34,11.58-12.53,8.78,8.12Z"/><path class="cls-3" d="M406.4,321.06l-4.47,4-2.3-2.57,12.71-11.37,3.88,4.33a5.31,5.31,0,0,1,1.52,4.05,5.64,5.64,0,0,1-2,3.84,5.29,5.29,0,0,1-3.95,1.54,5.68,5.68,0,0,1-3.83-2.11Zm2.14-1.91,1.58,1.76a1.88,1.88,0,0,0,1.49.71,2.91,2.91,0,0,0,1.76-.85,3.43,3.43,0,0,0,1.15-1.77,1.75,1.75,0,0,0-.42-1.61l-1.6-1.79Z"/><path class="cls-3" d="M419.36,334.81l-3.23-4.29-3.61,2.73,3.82,5.07L414.05,340l-5.89-7.83L421.79,322l5.88,7.8-2.29,1.73-3.81-5.05-3.22,2.42,3.23,4.29Z"/><path class="cls-3" d="M425.75,347.86a6.41,6.41,0,0,1-4.62,1A5.76,5.76,0,0,1,417.6,346a5.36,5.36,0,0,1-.75-4.77,8.46,8.46,0,0,1,3.78-4.19l2.43-1.52A8.25,8.25,0,0,1,428.5,334a6.3,6.3,0,0,1,4.9,7.16,7.06,7.06,0,0,1-2.92,3.77L428.65,342a4.66,4.66,0,0,0,1.81-1.8,2.19,2.19,0,0,0-.41-1.95,2.09,2.09,0,0,0-1.86-1.14,6.81,6.81,0,0,0-3,1.17L422.44,340a7.44,7.44,0,0,0-2.66,2.34,2.09,2.09,0,0,0,.24,2.15,2.27,2.27,0,0,0,1.55,1.24,4.32,4.32,0,0,0,2.35-.78Z"/><path class="cls-3" d="M431.87,359.81a6.33,6.33,0,0,1-4.68.54,5.8,5.8,0,0,1-3.27-3.13,5.36,5.36,0,0,1-.3-4.81,8.4,8.4,0,0,1,4.14-3.83l2.57-1.3a8.17,8.17,0,0,1,5.55-1,5.44,5.44,0,0,1,3.7,3.09,5.5,5.5,0,0,1,.53,4.48,7.08,7.08,0,0,1-3.25,3.49l-1.57-3.08a4.66,4.66,0,0,0,2-1.62,2.22,2.22,0,0,0-.24-2,2.1,2.1,0,0,0-1.75-1.31,6.76,6.76,0,0,0-3.11.9l-2.87,1.45a7.43,7.43,0,0,0-2.86,2.09,2.09,2.09,0,0,0,0,2.17c.41.81.89,1.27,1.44,1.37a4.33,4.33,0,0,0,2.4-.56Z"/><path class="cls-3" d="M446.27,365.11l1.26,3.21-15.88,6.24-1.26-3.21,10.51-4.13-12.35-.54-1.27-3.22,15.88-6.25,1.27,3.22-10.53,4.14Z"/><path class="cls-3" d="M434,382.56l5.89-1.72-.5-1.73-6.6-.7-1-3.57,7.93.84a5,5,0,0,1,3.64-3.26,5.13,5.13,0,0,1,4.15.27,5.59,5.59,0,0,1,2.44,3.49l1.44,4.92L435,385.88Zm10-6.75a3.34,3.34,0,0,0-1.83,1.06,1.86,1.86,0,0,0-.18,1.69l.45,1.53,5.15-1.51-.48-1.64C446.81,375.69,445.77,375.31,444.06,375.81Z"/><path class="cls-3" d="M311.32,579.2l-3.42.17-.36-7.29-5.08.25.35,7.29-3.44.17-.83-17,3.44-.17.34,6.89,5.08-.25-.34-6.89,3.43-.17Z"/><path class="cls-3" d="M325.78,570.17a8,8,0,0,1-.82,5.51A6.31,6.31,0,0,1,316,577a7.87,7.87,0,0,1-2.42-5l-.42-2.89a8.36,8.36,0,0,1,.8-5.67,6.18,6.18,0,0,1,8.92-1.35,8.29,8.29,0,0,1,2.44,5.14ZM322,567.84a7,7,0,0,0-1.16-3.3,2.42,2.42,0,0,0-4,.56,6.62,6.62,0,0,0-.19,3.36l.44,3a6.43,6.43,0,0,0,1.14,3.17,2.3,2.3,0,0,0,2.2.75,2.23,2.23,0,0,0,1.83-1.32,6.3,6.3,0,0,0,.19-3.28Z"/><path class="cls-3" d="M333,565.93l.44-7.91,3.59-.88-1.28,14.43a7,7,0,0,1-1,3.13,3.48,3.48,0,0,1-2,1.3l-.37.08-.81.15-.73-2.76a3.08,3.08,0,0,0,.75-.14,1.42,1.42,0,0,0,.89-.52,2.68,2.68,0,0,0,.25-1.41l0-.64L325.14,560l3.58-.87Z"/><path class="cls-3" d="M349.63,555.89l-4,1.36,4.58,13.43-3.27,1.12-4.58-13.44-3.93,1.34-.92-2.71,11.19-3.82Z"/><path class="cls-3" d="M359.76,551.46l-5.6,2.47,1.32,3,1.86-.82a5.68,5.68,0,0,1,4.37-.32,5.18,5.18,0,0,1,3,3,5.41,5.41,0,0,1,.23,4.23,5.53,5.53,0,0,1-3,3l-5.2,2.29-6.88-15.62,8.77-3.86Zm-3.13,8.06,2.1,4.78,1.91-.84a1.91,1.91,0,0,0,1.15-1.34,3.07,3.07,0,0,0-.25-2,2.79,2.79,0,0,0-1.25-1.43,2,2,0,0,0-1.73,0Z"/><path class="cls-3" d="M369.33,551.79,367.71,544l3.25-1.77,2.46,14.28a6.93,6.93,0,0,1-.16,3.28,3.53,3.53,0,0,1-1.56,1.75l-.33.18-.74.36-1.42-2.49a3.07,3.07,0,0,0,.69-.32,1.51,1.51,0,0,0,.73-.73,2.71,2.71,0,0,0-.12-1.43l-.16-.63-10.13-8.39,3.24-1.77Z"/><path class="cls-3" d="M381.61,547.33l-1.25.83,3.86,5.79-2.87,1.91-9.46-14.2,2.87-1.91,3.78,5.68,1-.65-1.31-7.32,3.49-2.32.94,8.92,8.91,5-3.41,2.27Z"/><path class="cls-3" d="M396.43,537.42l3.94,4.53-2.6,2.26-11.19-12.88,4.38-3.81a5.31,5.31,0,0,1,4.08-1.46,5.58,5.58,0,0,1,3.81,2.09,5.27,5.27,0,0,1,1.48,4,5.7,5.7,0,0,1-2.16,3.81Zm-1.88-2.17,1.79-1.55a1.84,1.84,0,0,0,.72-1.48,2.84,2.84,0,0,0-.82-1.77,3.36,3.36,0,0,0-1.75-1.18,1.76,1.76,0,0,0-1.62.39l-1.81,1.58Z"/><path class="cls-3" d="M410.2,527.87l-3.29,3.36,1.86,3.1-2.55,2.6-8.46-15.75,2.21-2.25L415.91,527l-2.57,2.63Zm-4.81.82,2.23-2.28-5.46-3.12Z"/><path class="cls-3" d="M412.17,512.1a2.1,2.1,0,0,0-1.49-.55,1.87,1.87,0,0,0-1.33.74,1.63,1.63,0,0,0-.38,1.34,2.06,2.06,0,0,0,.8,1.3l-2.17,2.67a4.71,4.71,0,0,1-1.53-2.12,4.63,4.63,0,0,1-.13-2.56,5.66,5.66,0,0,1,1.2-2.43,5.72,5.72,0,0,1,3.49-2.28,4.56,4.56,0,0,1,3.67,1.16,4,4,0,0,1,1.29,1.81,4.31,4.31,0,0,1,.16,2.23,3.85,3.85,0,0,1,2.3-.46,5.14,5.14,0,0,1,4.19,4.58,6,6,0,0,1-1.53,4,6.46,6.46,0,0,1-2.23,1.78,4.48,4.48,0,0,1-2.55.43,4.87,4.87,0,0,1-2.5-1.13l2.19-2.68a2.18,2.18,0,0,0,1.51.52,1.79,1.79,0,0,0,1.38-.72,2,2,0,0,0,.51-1.61,2.2,2.2,0,0,0-.87-1.46,2.86,2.86,0,0,0-1.79-.81,1.82,1.82,0,0,0-1.37.77L413.88,518l-2.15-1.75,1.11-1.36C413.57,514,413.34,513.05,412.17,512.1Z"/><path class="cls-3" d="M423,508.23l5,3.36L426,514.45l-14.13-9.56,3.26-4.81a5.33,5.33,0,0,1,3.56-2.47,5.66,5.66,0,0,1,4.22,1,5.31,5.31,0,0,1,2.45,3.45,5.7,5.7,0,0,1-1.11,4.23Zm-2.38-1.61,1.33-2a1.84,1.84,0,0,0,.32-1.62,2.83,2.83,0,0,0-1.25-1.5,3.45,3.45,0,0,0-2-.68,1.77,1.77,0,0,0-1.47.8l-1.34,2Z"/><path class="cls-3" d="M437,496.86l-5.37-3-.88,1.58,4.14,5.19-1.8,3.24-5-6.23a5,5,0,0,1-4.88-.29,5.19,5.19,0,0,1-2.72-3.15,5.55,5.55,0,0,1,.77-4.19l2.48-4.48,14.92,8.3Zm-11.85-2.4a3.38,3.38,0,0,0,2,.57,1.9,1.9,0,0,0,1.32-1.07l.77-1.39L424.63,490l-.83,1.5Q422.86,493.17,425.19,494.46Z"/><path class="cls-3" d="M449.67,479.92l-1.27,2.89-3.84-1.69-3.25,7.4,3.83,1.68-1.31,3-6.52-2.66.46-1a4.88,4.88,0,0,0-1.57-2,20.67,20.67,0,0,0-3.43-2.17l-7.1-3.64,3.95-9,13,5.71.71-1.62Zm-10.42,6.17,2-4.53L430.87,477l-1.25,2.83,4.19,2.15A16.69,16.69,0,0,1,439.25,486.09Z"/><path class="cls-3" d="M433.16,462.25l1.06-3.28,16.24,5.26-1.07,3.28L438.65,464l9.19,8.27-1.06,3.29-16.23-5.26,1.06-3.29,10.76,3.49Z"/><path class="cls-3" d="M437.33,445.25,454,448.89l-.73,3.37-13.87-3-.67,3.09,5.85,1.52a19.69,19.69,0,0,1,4.49,1.67,5,5,0,0,1,2.18,2.07,4.32,4.32,0,0,1,.22,2.87l-.18.83-2.79-.62.05-.39a1.9,1.9,0,0,0-1.05-1.82,16.39,16.39,0,0,0-4.31-1.55l-8-2Z"/><path class="cls-3" d="M450.33,433.17a6.39,6.39,0,0,1,4.19,2.16,5.84,5.84,0,0,1,1,4.41,5.39,5.39,0,0,1-2.43,4.18,8.44,8.44,0,0,1-5.58.87l-2.85-.34a8.19,8.19,0,0,1-5.18-2.24,6.3,6.3,0,0,1,.69-8.64,7.13,7.13,0,0,1,4.64-1.1l-.41,3.44a4.56,4.56,0,0,0-2.54.25,2.17,2.17,0,0,0-.9,1.77,2.08,2.08,0,0,0,.72,2.06,6.69,6.69,0,0,0,3.08,1l3.2.39a7.49,7.49,0,0,0,3.54-.15,2.12,2.12,0,0,0,1.18-1.82,2.24,2.24,0,0,0-.44-1.94,4.22,4.22,0,0,0-2.3-.87Z"/><path class="cls-3" d="M456.35,424.63l-6.14-.2-.06,1.8,6.06,2.73-.13,3.71-7.27-3.27a5,5,0,0,1-4.48,2,5.12,5.12,0,0,1-3.85-1.55,5.59,5.59,0,0,1-1.24-4.08l.17-5.12,17,.57Zm-11.63,3.29a3.36,3.36,0,0,0,2.07-.44,1.89,1.89,0,0,0,.69-1.55l0-1.59-5.36-.18-.06,1.71C442.07,427.18,442.94,427.86,444.72,427.92Z"/><path class="cls-3" d="M162,838.26l14.9,8.31-1.69,3-12.39-6.92-1.54,2.77,5.17,3.15a20.69,20.69,0,0,1,3.81,2.89,5,5,0,0,1,1.48,2.62,4.32,4.32,0,0,1-.61,2.81l-.41.74-2.5-1.39.16-.37a1.88,1.88,0,0,0-.47-2,16.93,16.93,0,0,0-3.68-2.73l-7.07-4.2Z"/><path class="cls-3" d="M170.9,835.87l1.16-1.69a5.72,5.72,0,0,1,3.55-2.56,5.18,5.18,0,0,1,4.11,1,5.41,5.41,0,0,1,2.42,3.48,5.51,5.51,0,0,1-1,4.16L178,844.91l-14.06-9.67,1.95-2.85Zm2.36,1.61,4.3,3,1.18-1.72A1.92,1.92,0,0,0,179,837a3.15,3.15,0,0,0-1.27-1.58,2.77,2.77,0,0,0-1.82-.55,2,2,0,0,0-1.47.9Z"/><path class="cls-3" d="M182.88,826.43l-1,1.16,5.36,4.43-2.19,2.66L171.94,823.8l2.2-2.66,5.26,4.35.74-.89L176.77,818l2.68-3.24,3.46,8.28,10,2.24-2.62,3.16Z"/><path class="cls-3" d="M196.52,811.74a8,8,0,0,1,2.63,4.91,5.6,5.6,0,0,1-1.83,4.54,5.68,5.68,0,0,1-4.51,1.87,7.86,7.86,0,0,1-4.91-2.54l-2.07-2.06a8.4,8.4,0,0,1-2.74-5,6.17,6.17,0,0,1,6.33-6.42,8.32,8.32,0,0,1,5,2.66Zm-4.47.43a7,7,0,0,0-2.89-1.95,2.42,2.42,0,0,0-2.9,2.85,6.57,6.57,0,0,0,1.86,2.81l2.15,2.14a6.5,6.5,0,0,0,2.81,1.86,2.28,2.28,0,0,0,2.21-.72A2.22,2.22,0,0,0,196,817a6.32,6.32,0,0,0-1.81-2.74Z"/><path class="cls-3" d="M199.91,795.79l10,8-4.82-11.81,3.61-2.69,10.21,13.67L216.11,805l-2.76-3.7-4-5.89,4.29,11.44-1.87,1.4L202,800.89l4.51,5.5,2.77,3.7-2.76,2.07L196.3,798.49Z"/><path class="cls-3" d="M227.26,789.83a7.93,7.93,0,0,1,1.32,5.42,6.31,6.31,0,0,1-7.75,4.6,7.87,7.87,0,0,1-4.12-3.68l-1.48-2.51a8.4,8.4,0,0,1-1.4-5.56,6.18,6.18,0,0,1,7.74-4.62,8.34,8.34,0,0,1,4.21,3.84Zm-4.43-.7a7,7,0,0,0-2.31-2.62,2.42,2.42,0,0,0-3.52,2,6.61,6.61,0,0,0,1.09,3.19l1.55,2.61a6.32,6.32,0,0,0,2.25,2.5,2.26,2.26,0,0,0,2.32-.13,2.21,2.21,0,0,0,1.19-1.92,6.23,6.23,0,0,0-1.06-3.11Z"/><path class="cls-3" d="M240.68,783.61l-1.48.66L242,790.6l-3.15,1.4-2.81-6.33-1.54.69.36,7.42L231,795.52l.13-10.29-6.89-5.37,3.91-1.75,5.33,5.14,1.28-.58-2.78-6.26,3.14-1.4,2.79,6.26,1.24-.55-.33-7.35,3.91-1.74-.56,8.64,7.66,6.87-3.91,1.74Z"/><path class="cls-3" d="M261.85,783.66l-3.28,1-2.15-7-4.86,1.5,2.15,7-3.29,1-5-16.3,3.29-1,2,6.6,4.86-1.5-2-6.6,3.28-1Z"/><path class="cls-3" d="M274.1,773.93a7.9,7.9,0,0,1-.52,5.54,6.33,6.33,0,0,1-8.83,1.82,7.83,7.83,0,0,1-2.69-4.83l-.58-2.86a8.38,8.38,0,0,1,.5-5.7,6.15,6.15,0,0,1,8.82-1.83,8.22,8.22,0,0,1,2.72,5Zm-4-2.11a7.05,7.05,0,0,0-1.33-3.24,2.19,2.19,0,0,0-2.23-.69,2.22,2.22,0,0,0-1.77,1.46,6.73,6.73,0,0,0,0,3.37l.6,3a6.29,6.29,0,0,0,1.32,3.09,2.5,2.5,0,0,0,4-.78,6.28,6.28,0,0,0,0-3.29Z"/><path class="cls-3" d="M109.27,67.73l2.3-5.86h3.94l-4,8.46,4.1,8.6h-4l-2.34-6-2.33,6h-4l4.1-8.6-4-8.46h4Z"/><path class="cls-3" d="M129.07,71.94a8,8,0,0,1-1.62,5.33,5.62,5.62,0,0,1-4.51,1.9,5.7,5.7,0,0,1-4.51-1.88A7.85,7.85,0,0,1,116.77,72V69.1a8.38,8.38,0,0,1,1.63-5.49,6.18,6.18,0,0,1,9,0A8.29,8.29,0,0,1,129.07,69Zm-3.45-2.86a7,7,0,0,0-.66-3.44,2.43,2.43,0,0,0-4.07,0,6.78,6.78,0,0,0-.68,3.3v3a6.35,6.35,0,0,0,.67,3.29,2.27,2.27,0,0,0,2.06,1.07,2.22,2.22,0,0,0,2-1,6.23,6.23,0,0,0,.67-3.22Z"/><path class="cls-3" d="M143.45,61.87V78.93H140V72.5a12.18,12.18,0,0,1-2.58.3,6,6,0,0,1-4.26-1.4,5.58,5.58,0,0,1-1.52-4.06V61.87h3.46v5.28a3.52,3.52,0,0,0,.51,2.15,2.18,2.18,0,0,0,1.81.64,11.76,11.76,0,0,0,2.58-.3V61.87Z"/><path class="cls-3" d="M155,71.55h-5.37v4.52H156v2.86h-9.79V61.87H156v2.87h-6.33v4H155Z"/><path class="cls-3" d="M169.28,64.74h-4.22V78.93H161.6V64.74h-4.14V61.87h11.82Z"/><path class="cls-3" d="M182.5,73.25a6.41,6.41,0,0,1-1.64,4.42,5.8,5.8,0,0,1-4.27,1.5,5.36,5.36,0,0,1-4.43-1.91,8.42,8.42,0,0,1-1.54-5.43V69a8.24,8.24,0,0,1,1.59-5.42,6.33,6.33,0,0,1,8.67-.35,7.12,7.12,0,0,1,1.64,4.48h-3.45a4.69,4.69,0,0,0-.56-2.49,2.19,2.19,0,0,0-1.87-.69,2.12,2.12,0,0,0-2,1,6.91,6.91,0,0,0-.61,3.18v3.23a7.41,7.41,0,0,0,.57,3.49,2.1,2.1,0,0,0,2,1,2.27,2.27,0,0,0,1.88-.66,4.39,4.39,0,0,0,.58-2.4Z"/><path class="cls-3" d="M191,78.93V72.79h-1.8l-2.52,6.14h-3.72l3-7.38a5,5,0,0,1-2.11-4.41,5.16,5.16,0,0,1,1.42-3.9,5.61,5.61,0,0,1,4-1.37h5.12V78.93Zm-3.66-11.52a3.32,3.32,0,0,0,.5,2.06,1.87,1.87,0,0,0,1.57.64H191V64.74h-1.71Q187.32,64.74,187.32,67.41Z"/><path class="cls-3" d="M214.64,78.93H211.2V64.74h-5.06V78.93h-3.45V61.87h11.95Z"/><path class="cls-3" d="M229.39,61.87V78.93h-3.46V64.74h-3.17l-.23,6.05a20.29,20.29,0,0,1-.67,4.74,5.13,5.13,0,0,1-1.56,2.57,4.36,4.36,0,0,1-2.76.83h-.85V76.07l.4,0a1.92,1.92,0,0,0,1.56-1.41,17,17,0,0,0,.59-4.55l.22-8.21Z"/><path class="cls-3" d="M240.52,75.44h-4.7l-.91,3.49h-3.65l5.33-17.06h3.16l5.36,17.06h-3.68Zm-4-2.87h3.19l-1.6-6.08Z"/><path class="cls-3" d="M251.67,72h-1.5v7h-3.44V61.87h3.44v6.82h1.16l3-6.82h4.2l-4.18,7.94L259,78.93h-4.1Z"/><path class="cls-3" d="M268.39,75.44h-4.7l-.92,3.49h-3.64l5.33-17.06h3.15L273,78.93H269.3Zm-3.95-2.87h3.18L266,66.49Z"/><path class="cls-3" d="M284.22,64.74H280V78.93h-3.46V64.74h-4.15V61.87h11.83Z"/><path class="cls-3" d="M289.82,68h2A5.71,5.71,0,0,1,296,69.47a5.17,5.17,0,0,1,1.54,3.93,5.41,5.41,0,0,1-1.5,4,5.5,5.5,0,0,1-4,1.56h-5.69V61.87h3.46Zm0,2.86v5.21h2.09a1.88,1.88,0,0,0,1.58-.75,3.09,3.09,0,0,0,.58-1.94,2.76,2.76,0,0,0-.57-1.81,1.92,1.92,0,0,0-1.57-.71Z"/><path class="cls-3" d="M48.93,113.19a5.45,5.45,0,0,1,4.4,2A7.68,7.68,0,0,1,55,120.29a7.51,7.51,0,0,1-1.66,5,5.52,5.52,0,0,1-4.41,2v2.18H45.62v-2.18a5.66,5.66,0,0,1-5.35-3.34,8.2,8.2,0,0,1-.76-3.6,7.74,7.74,0,0,1,1.67-5.13,5.52,5.52,0,0,1,4.44-2V111h3.31Zm-3.48,2.94a2.25,2.25,0,0,0-2,1.12,5.6,5.6,0,0,0-.72,3.07,5.12,5.12,0,0,0,.72,2.9,2.28,2.28,0,0,0,2,1.08h.15v-8.17Zm3.48,0v8.17h.17A2.22,2.22,0,0,0,51,123.22a5.23,5.23,0,0,0,.71-2.93,5.56,5.56,0,0,0-.71-3,2.23,2.23,0,0,0-2-1.12Z"/><path class="cls-3" d="M69.28,121.74a8,8,0,0,1-1.62,5.33,5.62,5.62,0,0,1-4.5,1.9,5.7,5.7,0,0,1-4.52-1.88A7.9,7.9,0,0,1,57,121.82V118.9a8.38,8.38,0,0,1,1.63-5.49,6.18,6.18,0,0,1,9,0,8.29,8.29,0,0,1,1.66,5.45Zm-3.45-2.86a7,7,0,0,0-.66-3.44,2.43,2.43,0,0,0-4.07,0,6.68,6.68,0,0,0-.67,3.3v3a6.36,6.36,0,0,0,.66,3.29,2.28,2.28,0,0,0,2.07,1.07,2.22,2.22,0,0,0,2-1,6.23,6.23,0,0,0,.67-3.22Z"/><path class="cls-3" d="M81.81,114.54H77.59v14.19H74.14V114.54H70v-2.87H81.81Z"/><path class="cls-3" d="M95.48,121.74a7.94,7.94,0,0,1-1.63,5.33,6.31,6.31,0,0,1-9,0,7.85,7.85,0,0,1-1.67-5.27V118.9a8.38,8.38,0,0,1,1.63-5.49,6.18,6.18,0,0,1,9,0,8.29,8.29,0,0,1,1.67,5.45ZM92,118.88a7,7,0,0,0-.66-3.44,2.42,2.42,0,0,0-4.06,0,6.56,6.56,0,0,0-.68,3.3v3a6.36,6.36,0,0,0,.66,3.29,2.28,2.28,0,0,0,2.07,1.07,2.21,2.21,0,0,0,2-1,6.23,6.23,0,0,0,.67-3.22Z"/><path class="cls-3" d="M101.41,111.67v14.2h3.46v-14.2h3.45v14.2h3.42v-14.2h3.45v17.06H98V111.67Z"/><path class="cls-3" d="M129.94,121.74a8,8,0,0,1-1.62,5.33,6.33,6.33,0,0,1-9,0,7.85,7.85,0,0,1-1.66-5.27V118.9a8.38,8.38,0,0,1,1.63-5.49,5.51,5.51,0,0,1,4.52-2,5.58,5.58,0,0,1,4.49,1.93,8.29,8.29,0,0,1,1.66,5.45Zm-3.46-2.86a7,7,0,0,0-.65-3.44,2.43,2.43,0,0,0-4.07,0,6.67,6.67,0,0,0-.68,3.3v3a6.25,6.25,0,0,0,.67,3.29,2.26,2.26,0,0,0,2.06,1.07,2.22,2.22,0,0,0,2-1,6.25,6.25,0,0,0,.66-3.22Z"/><path class="cls-3" d="M144.39,128.73h-3.45V114.54h-5.06v14.19h-3.44V111.67h11.95Z"/><path class="cls-3" d="M164.27,123.05a6.41,6.41,0,0,1-1.65,4.42,5.78,5.78,0,0,1-4.26,1.5,5.39,5.39,0,0,1-4.44-1.91,8.48,8.48,0,0,1-1.54-5.43v-2.87a8.19,8.19,0,0,1,1.6-5.42,6.31,6.31,0,0,1,8.66-.35,7,7,0,0,1,1.65,4.48h-3.46a4.59,4.59,0,0,0-.56-2.49,2.16,2.16,0,0,0-1.86-.69,2.09,2.09,0,0,0-2,1,6.78,6.78,0,0,0-.61,3.18v3.23a7.44,7.44,0,0,0,.57,3.49,2.1,2.1,0,0,0,2,1,2.21,2.21,0,0,0,1.87-.67,4.32,4.32,0,0,0,.59-2.39Z"/><path class="cls-3" d="M178.35,111.67v17.06h-3.46V114.54h-3.16l-.23,6a20.22,20.22,0,0,1-.68,4.74,5,5,0,0,1-1.56,2.57,4.32,4.32,0,0,1-2.76.83h-.84v-2.86l.4,0a1.91,1.91,0,0,0,1.55-1.41,16.54,16.54,0,0,0,.59-4.55l.23-8.21Z"/><path class="cls-3" d="M193.14,121.74a8,8,0,0,1-1.62,5.33,6.33,6.33,0,0,1-9,0,7.85,7.85,0,0,1-1.66-5.27V118.9a8.43,8.43,0,0,1,1.62-5.49,6.19,6.19,0,0,1,9,0,8.34,8.34,0,0,1,1.66,5.45Zm-3.46-2.86a7.13,7.13,0,0,0-.65-3.44,2.43,2.43,0,0,0-4.07,0,6.67,6.67,0,0,0-.68,3.3v3A6.25,6.25,0,0,0,185,125,2.26,2.26,0,0,0,187,126.1a2.22,2.22,0,0,0,2-1,6.25,6.25,0,0,0,.66-3.22Z"/><path class="cls-3" d="M200.11,111.67,203.34,124l3.21-12.34h4.5v17.06h-3.46v-4.62l.32-7.11-3.41,11.73h-2.35L198.74,117l.32,7.11v4.62h-3.45V111.67Z"/><path class="cls-3" d="M222.17,125.24h-4.7l-.92,3.49h-3.64l5.33-17.06h3.15l5.37,17.06h-3.68Zm-3.95-2.87h3.19l-1.6-6.08Z"/><path class="cls-3" d="M240.52,111.67v17.06h-3.46V114.54H233.9l-.24,6a19.77,19.77,0,0,1-.67,4.74,5.13,5.13,0,0,1-1.56,2.57,4.32,4.32,0,0,1-2.76.83h-.84v-2.86l.4,0a1.92,1.92,0,0,0,1.55-1.41,16.54,16.54,0,0,0,.59-4.55l.22-8.21Z"/><path class="cls-3" d="M254.86,123.05a6.36,6.36,0,0,1-1.64,4.42A5.79,5.79,0,0,1,249,129a5.39,5.39,0,0,1-4.44-1.91,8.42,8.42,0,0,1-1.54-5.43v-2.87a8.24,8.24,0,0,1,1.59-5.42,6.33,6.33,0,0,1,8.67-.35,7.16,7.16,0,0,1,1.65,4.48h-3.46a4.59,4.59,0,0,0-.56-2.49,2.19,2.19,0,0,0-1.87-.69,2.09,2.09,0,0,0-1.95,1,6.66,6.66,0,0,0-.61,3.18v3.23a7.44,7.44,0,0,0,.57,3.49,2.07,2.07,0,0,0,2,1,2.22,2.22,0,0,0,1.87-.67,4.32,4.32,0,0,0,.59-2.39Z"/><path class="cls-3" d="M263.35,128.73v-6.14h-1.81L259,128.73h-3.71l3-7.38a5,5,0,0,1-2.11-4.41,5.16,5.16,0,0,1,1.43-3.9,5.59,5.59,0,0,1,4-1.37h5.12v17.06Zm-3.67-11.52a3.39,3.39,0,0,0,.5,2.06,1.9,1.9,0,0,0,1.57.64h1.6v-5.37h-1.71C260.33,114.54,259.68,115.43,259.68,117.21Z"/><path class="cls-3" d="M8.24,166.17a2.1,2.1,0,0,0-.53-1.5,1.79,1.79,0,0,0-1.41-.56,1.66,1.66,0,0,0-1.28.54,2.08,2.08,0,0,0-.5,1.45H1.08a4.68,4.68,0,0,1,.68-2.53,4.6,4.6,0,0,1,1.89-1.71,5.77,5.77,0,0,1,2.65-.61,5.74,5.74,0,0,1,4,1.27,4.55,4.55,0,0,1,1.42,3.58,4,4,0,0,1-.59,2.14,4.26,4.26,0,0,1-1.62,1.53,3.74,3.74,0,0,1,1.8,1.49,5.14,5.14,0,0,1-.9,6.15,5.94,5.94,0,0,1-4.08,1.34,6.34,6.34,0,0,1-2.79-.59,4.64,4.64,0,0,1-1.95-1.71,5,5,0,0,1-.7-2.65H4.32a2.24,2.24,0,0,0,.55,1.5,1.85,1.85,0,0,0,1.43.62,2.06,2.06,0,0,0,1.57-.62,2.26,2.26,0,0,0,.59-1.61,2.86,2.86,0,0,0-.51-1.9,1.83,1.83,0,0,0-1.46-.57H4.74v-2.78H6.5C7.66,168.43,8.24,167.68,8.24,166.17Z"/><path class="cls-3" d="M22.54,175H17.85l-.92,3.49H13.29l5.33-17.06h3.15l5.37,17.06H23.46Zm-3.94-2.87h3.18l-1.59-6.08Z"/><path class="cls-3" d="M28.73,178.53V161.47H34a6.11,6.11,0,0,1,4.06,1.19,4.34,4.34,0,0,1,1.38,3.49,4.2,4.2,0,0,1-.57,2.23,3.32,3.32,0,0,1-1.57,1.37,3,3,0,0,1,1.77,1.32,4.57,4.57,0,0,1,.62,2.45,4.88,4.88,0,0,1-1.36,3.75,5.64,5.64,0,0,1-4,1.26Zm3.45-9.92H34a1.83,1.83,0,0,0,2-2.1,2.43,2.43,0,0,0-.47-1.67,2,2,0,0,0-1.52-.5H32.18Zm0,2.5v4.56h2.2a1.74,1.74,0,0,0,1.41-.57,2.48,2.48,0,0,0,.48-1.63c0-1.53-.56-2.32-1.67-2.36Z"/><path class="cls-3" d="M50.34,175h-4.7l-.91,3.49H41.08l5.34-17.06h3.15l5.37,17.06H51.26Zm-4-2.87h3.19L48,166.09Z"/><path class="cls-3" d="M68.69,161.47v17.06H65.24V164.34H62.07l-.23,6a20.22,20.22,0,0,1-.68,4.74,5,5,0,0,1-1.56,2.57,4.31,4.31,0,0,1-2.75.83H56v-2.86l.4,0A1.9,1.9,0,0,0,58,174.23a16.15,16.15,0,0,0,.59-4.55l.23-8.21Z"/><path class="cls-3" d="M79.83,161.47h3.44v17.06H79.83v-11.3l-5,11.3H71.34V161.47H74.8v11.31Z"/><path class="cls-3" d="M98.18,161.47v17.06H94.72V164.34H91.56l-.24,6a20.29,20.29,0,0,1-.67,4.74,5.13,5.13,0,0,1-1.56,2.57,4.32,4.32,0,0,1-2.76.83h-.84v-2.86l.39,0a1.92,1.92,0,0,0,1.56-1.41,17,17,0,0,0,.59-4.55l.22-8.21Z"/><path class="cls-3" d="M109.31,161.47h3.45v17.06h-3.45v-11.3l-5,11.3h-3.45V161.47h3.45v11.31Z"/><path class="cls-3" d="M130.59,164.34h-6.12v3.26h2a5.73,5.73,0,0,1,4.13,1.47,5.2,5.2,0,0,1,1.53,3.93,5.41,5.41,0,0,1-1.5,4,5.48,5.48,0,0,1-4,1.56H121V161.47h9.57Zm-6.12,6.12v5.21h2.09a1.91,1.91,0,0,0,1.59-.75,3.15,3.15,0,0,0,.58-1.94,2.74,2.74,0,0,0-.57-1.81,1.94,1.94,0,0,0-1.58-.71Z"/><path class="cls-3" d="M139.31,169.05l2.3-7.58h3.7l-4.68,13.71a7,7,0,0,1-1.71,2.8,3.55,3.55,0,0,1-2.21.8h-.38l-.82-.05-.06-2.86a3.35,3.35,0,0,0,.77,0,1.52,1.52,0,0,0,1-.29,2.81,2.81,0,0,0,.58-1.32l.16-.62-4.87-12.22h3.69Z"/><path class="cls-3" d="M151.64,161.47l3.22,12.34,3.21-12.34h4.5v17.06h-3.46v-4.62l.32-7.11L156,178.53h-2.34l-3.41-11.73.31,7.11v4.62h-3.44V161.47Z"/><path class="cls-3" d="M173.69,175H169l-.91,3.49h-3.64l5.33-17.06h3.15l5.37,17.06h-3.68Zm-3.95-2.87h3.19l-1.59-6.08Z"/><path class="cls-3" d="M189.49,164.34h-6.13v14.19h-3.44V161.47h9.57Z"/><path class="cls-3" d="M197.35,175h-4.7l-.91,3.49H188.1l5.33-17.06h3.15L202,178.53h-3.68Zm-3.95-2.87h3.19L195,166.09Z"/><path class="cls-3" d="M208,161.47l3.22,12.34,3.21-12.34H219v17.06h-3.45v-4.62l.31-7.11-3.41,11.73h-2.34l-3.41-11.73.32,7.11v4.62h-3.45V161.47Z"/><path class="cls-3" d="M230.1,161.47h3.44v17.06H230.1v-11.3l-5,11.3h-3.46V161.47h3.46v11.31Z"/><path class="cls-3" d="M32.67,217.34a2.12,2.12,0,0,0-.52-1.5,1.84,1.84,0,0,0-1.41-.56,1.64,1.64,0,0,0-1.28.55,2.05,2.05,0,0,0-.5,1.44H25.51A4.63,4.63,0,0,1,28.09,213a5.9,5.9,0,0,1,2.65-.61,5.79,5.79,0,0,1,4,1.27,4.55,4.55,0,0,1,1.42,3.58,4,4,0,0,1-.59,2.14,4.19,4.19,0,0,1-1.62,1.53,3.81,3.81,0,0,1,1.8,1.5,4.56,4.56,0,0,1,.63,2.49,4.61,4.61,0,0,1-1.53,3.65,5.94,5.94,0,0,1-4.08,1.35,6.34,6.34,0,0,1-2.79-.6A4.58,4.58,0,0,1,26,227.62a4.91,4.91,0,0,1-.7-2.65h3.46a2.15,2.15,0,0,0,.55,1.5,1.81,1.81,0,0,0,1.43.62,2,2,0,0,0,1.57-.62,2.24,2.24,0,0,0,.59-1.6,2.82,2.82,0,0,0-.51-1.9,1.83,1.83,0,0,0-1.46-.57H29.18v-2.78h1.76C32.1,219.61,32.67,218.85,32.67,217.34Z"/><path class="cls-3" d="M47,226.22h-4.7l-.91,3.49H37.73l5.33-17.06h3.15l5.37,17.06H47.9ZM43,223.34h3.19l-1.59-6.08Z"/><path class="cls-3" d="M62.73,215.52H56.62v3.25h2a5.71,5.71,0,0,1,4.12,1.47,5.24,5.24,0,0,1,1.54,3.94,5.38,5.38,0,0,1-1.5,4,5.51,5.51,0,0,1-4,1.57H53.16V212.65h9.57Zm-6.11,6.11v5.22H58.7a1.89,1.89,0,0,0,1.59-.76,3.07,3.07,0,0,0,.58-1.94,2.78,2.78,0,0,0-.57-1.81,2,2,0,0,0-1.57-.71Z"/><path class="cls-3" d="M69.76,218.77h2a5.72,5.72,0,0,1,4.13,1.47,5.23,5.23,0,0,1,1.53,3.94,5.38,5.38,0,0,1-1.5,4,5.49,5.49,0,0,1-4,1.57H66.31V212.65h3.45Zm0,2.86v5.22h2.09a1.89,1.89,0,0,0,1.59-.76,3.07,3.07,0,0,0,.58-1.94,2.78,2.78,0,0,0-.57-1.81,2,2,0,0,0-1.58-.71Zm12,8.08H78.35V212.65H81.8Z"/><path class="cls-3" d="M96.73,212.65v17.06H93.27V215.52H90.11l-.24,6a19.61,19.61,0,0,1-.67,4.74,5.1,5.1,0,0,1-1.56,2.58,4.38,4.38,0,0,1-2.76.83H84v-2.86l.4,0A1.88,1.88,0,0,0,86,225.4a16.45,16.45,0,0,0,.59-4.54l.22-8.21Z"/><path class="cls-3" d="M107.86,226.22h-4.7l-.91,3.49H98.6l5.34-17.06h3.15l5.37,17.06h-3.68Zm-4-2.88h3.19l-1.59-6.08Z"/><path class="cls-3" d="M131.15,224a6.43,6.43,0,0,1-1.64,4.42,5.8,5.8,0,0,1-4.27,1.5,5.35,5.35,0,0,1-4.43-1.9,8.42,8.42,0,0,1-1.55-5.43v-2.88a8.24,8.24,0,0,1,1.6-5.42,6.3,6.3,0,0,1,8.66-.34,7,7,0,0,1,1.65,4.48h-3.46a4.56,4.56,0,0,0-.55-2.49,2.2,2.2,0,0,0-1.87-.69,2.09,2.09,0,0,0-2,1,6.85,6.85,0,0,0-.61,3.18v3.22a7.39,7.39,0,0,0,.57,3.49,2.08,2.08,0,0,0,1.95,1,2.27,2.27,0,0,0,1.88-.66,4.34,4.34,0,0,0,.58-2.4Z"/><path class="cls-3" d="M145.28,222.71a8,8,0,0,1-1.62,5.33,5.61,5.61,0,0,1-4.51,1.9,5.68,5.68,0,0,1-4.51-1.88,7.83,7.83,0,0,1-1.66-5.27v-2.91a8.4,8.4,0,0,1,1.62-5.49,6.17,6.17,0,0,1,9,0,8.31,8.31,0,0,1,1.66,5.44Zm-3.46-2.86a7.08,7.08,0,0,0-.65-3.43,2.42,2.42,0,0,0-4.07,0,6.67,6.67,0,0,0-.68,3.3v3a6.31,6.31,0,0,0,.67,3.3,2.25,2.25,0,0,0,2.06,1.06,2.2,2.2,0,0,0,2-1,6.21,6.21,0,0,0,.66-3.21Z"/><path class="cls-3" d="M152.84,218.5l2.3-5.85h3.94l-4,8.46,4.1,8.6h-4l-2.34-6-2.33,6h-4l4.1-8.6-4-8.46h3.95Z"/><path class="cls-3" d="M164.37,223.71v6h-3.45V212.65h5.82a5.31,5.31,0,0,1,4,1.57,5.6,5.6,0,0,1,1.51,4.07,5.26,5.26,0,0,1-1.49,4,5.65,5.65,0,0,1-4.12,1.46Zm0-2.87h2.37a1.88,1.88,0,0,0,1.52-.65,2.84,2.84,0,0,0,.54-1.87,3.4,3.4,0,0,0-.55-2,1.76,1.76,0,0,0-1.48-.76h-2.4Z"/><path class="cls-3" d="M180.64,226.22h-4.7l-.92,3.49h-3.64l5.33-17.06h3.15l5.37,17.06h-3.68Zm-3.95-2.88h3.18l-1.59-6.08Z"/><path class="cls-3" d="M198.79,229.71h-3.44v-7.3h-5.08v7.3h-3.45V212.65h3.45v6.9h5.08v-6.9h3.44Z"/><path class="cls-3" d="M209.91,212.65h3.44v17.06h-3.44v-11.3l-5,11.3h-3.46V212.65h3.46V224Z"/><path class="cls-3" d="M226.81,215.52h-4.22v14.19h-3.46V215.52H215v-2.87h11.83Z"/><path class="cls-3" d="M232.41,218.77h2a5.71,5.71,0,0,1,4.12,1.47,5.2,5.2,0,0,1,1.54,3.94,5.38,5.38,0,0,1-1.5,4,5.5,5.5,0,0,1-4,1.57H229V212.65h3.46Zm0,2.86v5.22h2.09a1.86,1.86,0,0,0,1.58-.76,3.07,3.07,0,0,0,.58-1.94,2.78,2.78,0,0,0-.57-1.81,2,2,0,0,0-1.57-.71Z"/><path class="cls-3" d="M253.71,224a6.34,6.34,0,0,1-1.64,4.42,5.78,5.78,0,0,1-4.26,1.5,5.38,5.38,0,0,1-4.44-1.9,8.42,8.42,0,0,1-1.54-5.43v-2.88a8.24,8.24,0,0,1,1.59-5.42,6.31,6.31,0,0,1,8.67-.34,7.1,7.1,0,0,1,1.65,4.48h-3.46a4.54,4.54,0,0,0-.56-2.49,2.19,2.19,0,0,0-1.87-.69,2.07,2.07,0,0,0-1.95,1,6.6,6.6,0,0,0-.61,3.18v3.22a7.39,7.39,0,0,0,.57,3.49,2.08,2.08,0,0,0,1.95,1,2.25,2.25,0,0,0,1.87-.66,4.33,4.33,0,0,0,.59-2.4Z"/><path class="cls-3" d="M262.2,229.71v-6.14h-1.81l-2.52,6.14h-3.71l3-7.39a5,5,0,0,1-2.11-4.4,5.15,5.15,0,0,1,1.43-3.9,5.55,5.55,0,0,1,4-1.37h5.13v17.06Zm-3.67-11.52a3.35,3.35,0,0,0,.5,2.05,1.87,1.87,0,0,0,1.57.64h1.6v-5.36h-1.71C259.18,215.52,258.53,216.41,258.53,218.19Z"/><path class="cls-3" d="M107.89,279.78h-3.43v-7.3H99.37v7.3H95.93V262.72h3.44v6.9h5.09v-6.9h3.43Z"/><path class="cls-3" d="M119.47,272.4H114.1v4.52h6.36v2.86h-9.8V262.72h9.77v2.87H114.1v4h5.37Z"/><path class="cls-3" d="M139.53,274.1a6.36,6.36,0,0,1-1.64,4.42,5.78,5.78,0,0,1-4.26,1.5,5.39,5.39,0,0,1-4.44-1.91,8.48,8.48,0,0,1-1.54-5.43v-2.87a8.19,8.19,0,0,1,1.6-5.42,6.29,6.29,0,0,1,8.66-.35,7,7,0,0,1,1.65,4.48H136.1a4.59,4.59,0,0,0-.56-2.49,2.18,2.18,0,0,0-1.86-.69,2.09,2.09,0,0,0-2,1,6.78,6.78,0,0,0-.61,3.18v3.23a7.44,7.44,0,0,0,.57,3.49,2.1,2.1,0,0,0,1.95,1,2.22,2.22,0,0,0,1.87-.67,4.32,4.32,0,0,0,.59-2.39Z"/><path class="cls-3" d="M153.63,279.78h-3.44V265.59h-5.07v14.19h-3.44V262.72h11.95Z"/><path class="cls-3" d="M164.55,276.29h-4.7l-.91,3.49H155.3l5.33-17.06h3.15l5.37,17.06h-3.68Zm-4-2.87h3.19l-1.59-6.08Z"/><path class="cls-3" d="M182.91,262.72v17.06h-3.46V265.59h-3.17l-.23,6.05a20.29,20.29,0,0,1-.67,4.74,5.13,5.13,0,0,1-1.56,2.57,4.36,4.36,0,0,1-2.76.83h-.85v-2.86l.4,0a1.92,1.92,0,0,0,1.56-1.41,17,17,0,0,0,.59-4.55l.22-8.21Z"/><path class="cls-3" d="M191.21,279.78V262.72h5.28a6.11,6.11,0,0,1,4.06,1.19,4.35,4.35,0,0,1,1.39,3.49,4.12,4.12,0,0,1-.58,2.23,3.27,3.27,0,0,1-1.57,1.37,3,3,0,0,1,1.77,1.32,4.48,4.48,0,0,1,.62,2.45,4.88,4.88,0,0,1-1.36,3.75,5.64,5.64,0,0,1-4,1.26Zm3.45-9.92h1.79a1.83,1.83,0,0,0,2-2.1,2.43,2.43,0,0,0-.47-1.67,2,2,0,0,0-1.52-.5h-1.83Zm0,2.5v4.56h2.2a1.74,1.74,0,0,0,1.41-.57,2.48,2.48,0,0,0,.48-1.63c0-1.53-.56-2.32-1.66-2.36Z"/><path class="cls-3" d="M216.25,274.1a6.41,6.41,0,0,1-1.65,4.42,5.76,5.76,0,0,1-4.26,1.5,5.39,5.39,0,0,1-4.44-1.91,8.48,8.48,0,0,1-1.54-5.43v-2.87a8.19,8.19,0,0,1,1.6-5.42,6.29,6.29,0,0,1,8.66-.35,7,7,0,0,1,1.65,4.48h-3.46a4.61,4.61,0,0,0-.55-2.49,2.2,2.2,0,0,0-1.87-.69,2.09,2.09,0,0,0-2,1,6.78,6.78,0,0,0-.61,3.18v3.23a7.44,7.44,0,0,0,.57,3.49,2.1,2.1,0,0,0,2,1,2.21,2.21,0,0,0,1.87-.67,4.32,4.32,0,0,0,.59-2.39Z"/><path class="cls-3" d="M235.56,272.79a8,8,0,0,1-1.62,5.33,6.34,6.34,0,0,1-9,.07,7.8,7.8,0,0,1-1.71-5.18h-1.37v6.77h-3.44V262.72h3.44v7.52h1.37v-.31a9.9,9.9,0,0,1,.74-4,5.48,5.48,0,0,1,2.12-2.57,6,6,0,0,1,3.3-.89,5.57,5.57,0,0,1,4.48,1.94,8.29,8.29,0,0,1,1.67,5.45Zm-3.46-2.86a7,7,0,0,0-.66-3.44,2.17,2.17,0,0,0-2-1.12,2.21,2.21,0,0,0-2,1.08,6.56,6.56,0,0,0-.68,3.3v3a6.25,6.25,0,0,0,.67,3.29,2.26,2.26,0,0,0,2.06,1.07,2.2,2.2,0,0,0,2-1,6.23,6.23,0,0,0,.67-3.22Z"/><path class="cls-3" d="M255.46,279.78H252v-7.3h-5.08v7.3h-3.45V262.72h3.45v6.9H252v-6.9h3.44Z"/><path class="cls-3" d="M270.23,272.79a8,8,0,0,1-1.62,5.33,5.62,5.62,0,0,1-4.51,1.9,5.7,5.7,0,0,1-4.51-1.88,7.85,7.85,0,0,1-1.66-5.27V270a8.38,8.38,0,0,1,1.63-5.49,6.16,6.16,0,0,1,9,0,8.29,8.29,0,0,1,1.66,5.45Zm-3.45-2.86a7,7,0,0,0-.66-3.44,2.43,2.43,0,0,0-4.07,0,6.78,6.78,0,0,0-.68,3.3v3a6.35,6.35,0,0,0,.67,3.29,2.28,2.28,0,0,0,2.06,1.07,2.22,2.22,0,0,0,2-1,6.23,6.23,0,0,0,.67-3.22Z"/><path class="cls-3" d="M284.61,262.72v17.06h-3.44v-6.43a12.18,12.18,0,0,1-2.58.3,5.92,5.92,0,0,1-4.25-1.4,5.54,5.54,0,0,1-1.53-4.06v-5.47h3.46V268a3.52,3.52,0,0,0,.51,2.15,2.18,2.18,0,0,0,1.81.64,11.69,11.69,0,0,0,2.58-.3v-7.77Z"/><path class="cls-3" d="M290.82,268.85h2a5.73,5.73,0,0,1,4.13,1.47,5.2,5.2,0,0,1,1.53,3.93,5.41,5.41,0,0,1-1.5,4,5.48,5.48,0,0,1-4,1.56h-5.68V262.72h3.45Zm0,2.86v5.21h2.09a1.91,1.91,0,0,0,1.59-.75,3.15,3.15,0,0,0,.58-1.94,2.74,2.74,0,0,0-.57-1.81,2,2,0,0,0-1.58-.71Z"/><path class="cls-4" d="M512.8,775.07V785H512v-9.24h-4.2l-.24,4.12a16.69,16.69,0,0,1-.42,3.21,2.89,2.89,0,0,1-.8,1.45,2.18,2.18,0,0,1-1.42.46h-.36v-.7h.28a1.43,1.43,0,0,0,1.06-.44,3.14,3.14,0,0,0,.55-1.33,20.67,20.67,0,0,0,.3-2.85l.25-4.62Z"/><path class="cls-4" d="M518,785.16a3.18,3.18,0,0,1-2.89-1.76,4.11,4.11,0,0,1-.43-1.86v-.3a4.3,4.3,0,0,1,.42-1.92,3.21,3.21,0,0,1,1.15-1.34,2.82,2.82,0,0,1,1.6-.49,2.66,2.66,0,0,1,2.14.92,3.75,3.75,0,0,1,.79,2.51v.46h-5.28v.16a3.1,3.1,0,0,0,.72,2.09,2.28,2.28,0,0,0,1.81.84,2.44,2.44,0,0,0,2.08-1l.51.39A3,3,0,0,1,518,785.16Zm-.15-7a2.06,2.06,0,0,0-1.56.67,3.13,3.13,0,0,0-.76,1.82H520v-.09a2.63,2.63,0,0,0-.61-1.73A1.86,1.86,0,0,0,517.86,778.19Z"/><path class="cls-4" d="M525.36,778.12a3,3,0,0,1,2.28.92,3.39,3.39,0,0,1,.88,2.43v.18a4.11,4.11,0,0,1-.4,1.81,3,3,0,0,1-1.15,1.25,3.27,3.27,0,0,1-1.72.45,3.08,3.08,0,0,1-2.37-1,3.66,3.66,0,0,1-.91-2.6v-.65a6.78,6.78,0,0,1,.88-3.67,3.46,3.46,0,0,1,2.49-1.64,3.73,3.73,0,0,0,1.43-.45.86.86,0,0,0,.41-.76h.71a1.74,1.74,0,0,1-.24,1,1.66,1.66,0,0,1-.72.6,6,6,0,0,1-1.46.39,3,3,0,0,0-1.82,1,4.05,4.05,0,0,0-.89,2.09,3.43,3.43,0,0,1,1.1-.93A3.19,3.19,0,0,1,525.36,778.12Zm-2.57,3.36v.17a3,3,0,0,0,.68,2,2.25,2.25,0,0,0,1.78.78,2.21,2.21,0,0,0,1.78-.79,3.15,3.15,0,0,0,.67-2.08v-.17a2.69,2.69,0,0,0-.68-1.89,2.32,2.32,0,0,0-1.78-.73,2.27,2.27,0,0,0-1.78.74A2.8,2.8,0,0,0,522.79,781.48Z"/><path class="cls-4" d="M533,785.16a3.21,3.21,0,0,1-2.9-1.76,4.1,4.1,0,0,1-.42-1.86v-.3a4.43,4.43,0,0,1,.41-1.92A3.23,3.23,0,0,1,531.2,778a2.79,2.79,0,0,1,1.6-.49,2.64,2.64,0,0,1,2.13.92,3.7,3.7,0,0,1,.79,2.51v.46h-5.28v.16a3.06,3.06,0,0,0,.73,2.09,2.28,2.28,0,0,0,1.81.84,2.67,2.67,0,0,0,1.16-.24,2.61,2.61,0,0,0,.91-.77l.51.39A3,3,0,0,1,533,785.16Zm-.15-7a2,2,0,0,0-1.56.67,3.13,3.13,0,0,0-.77,1.82h4.44v-.09a2.69,2.69,0,0,0-.61-1.73A1.86,1.86,0,0,0,532.8,778.19Z"/><path class="cls-4" d="M537.14,784.33l.37-.47a6.43,6.43,0,0,0,1-3.42l.13-2.82H543v6.71h.76v2.87H543V785h-5.56v2.18h-.79v-2.87Zm1,0h4.08v-5.94h-2.76l-.09,1.92A6.76,6.76,0,0,1,538.09,784.33Z"/><path class="cls-4" d="M548.2,785.16a3.22,3.22,0,0,1-1.7-.47,3.16,3.16,0,0,1-1.19-1.29,4.1,4.1,0,0,1-.42-1.86v-.3a4.43,4.43,0,0,1,.41-1.92,3.28,3.28,0,0,1,1.15-1.34,2.84,2.84,0,0,1,1.6-.49,2.66,2.66,0,0,1,2.14.92,3.7,3.7,0,0,1,.79,2.51v.46H545.7v.16a3.1,3.1,0,0,0,.72,2.09,2.3,2.3,0,0,0,1.82.84,2.67,2.67,0,0,0,1.16-.24,2.61,2.61,0,0,0,.91-.77l.51.39A3,3,0,0,1,548.2,785.16Zm-.15-7a2,2,0,0,0-1.55.67,3.13,3.13,0,0,0-.77,1.82h4.44v-.09a2.74,2.74,0,0,0-.61-1.73A1.9,1.9,0,0,0,548.05,778.19Z"/><path class="cls-4" d="M552.66,785v-7.4h2.72a3.88,3.88,0,0,1,2.16.51,1.65,1.65,0,0,1,.75,1.47,1.55,1.55,0,0,1-.34,1,1.86,1.86,0,0,1-1,.63,2,2,0,0,1,1.17.62,1.66,1.66,0,0,1,.44,1.13,1.79,1.79,0,0,1-.72,1.52,3.42,3.42,0,0,1-2,.53Zm.81-4.09h2.08c1.28,0,1.92-.45,1.92-1.31a1.06,1.06,0,0,0-.53-1,3.2,3.2,0,0,0-1.56-.31h-1.91Zm0,.69v2.72h2.38a2.4,2.4,0,0,0,1.42-.36,1.18,1.18,0,0,0,.5-1,1.16,1.16,0,0,0-.5-1,2.4,2.4,0,0,0-1.42-.36Z"/><path class="cls-4" d="M565.07,785a3.75,3.75,0,0,1-.16-1,2.84,2.84,0,0,1-1.1.86,3.23,3.23,0,0,1-1.41.31,2.45,2.45,0,0,1-1.72-.6,1.91,1.91,0,0,1-.66-1.5,2,2,0,0,1,.9-1.71,4.28,4.28,0,0,1,2.5-.63h1.48v-.84a1.65,1.65,0,0,0-.48-1.25,2.06,2.06,0,0,0-1.43-.45,2.22,2.22,0,0,0-1.41.44,1.29,1.29,0,0,0-.57,1h-.82a1.93,1.93,0,0,1,.82-1.53,3.17,3.17,0,0,1,2-.64,2.82,2.82,0,0,1,2,.62,2.21,2.21,0,0,1,.74,1.72v3.5a4.39,4.39,0,0,0,.22,1.61V785Zm-2.57-.59A2.77,2.77,0,0,0,564,784a2.29,2.29,0,0,0,.94-1.06v-1.63h-1.46a3.67,3.67,0,0,0-1.91.45,1.35,1.35,0,0,0-.69,1.19,1.3,1.3,0,0,0,.46,1A1.72,1.72,0,0,0,562.5,784.43Z"/><path class="cls-4" d="M567.73,786.88l-.49-.35a2.94,2.94,0,0,0,.64-1.73v-1.06h.8v.85A2.93,2.93,0,0,1,567.73,786.88Z"/><path class="cls-4" d="M579,780.41a3.15,3.15,0,0,1-1.09,1,3,3,0,0,1-1.41.35,2.54,2.54,0,0,1-1.49-.44,2.81,2.81,0,0,1-1-1.21,3.9,3.9,0,0,1-.35-1.69,4.08,4.08,0,0,1,.38-1.79,3,3,0,0,1,1-1.25,3.07,3.07,0,0,1,3.91.6,4.72,4.72,0,0,1,.83,3v.74a6.09,6.09,0,0,1-1.15,4,4.31,4.31,0,0,1-3.51,1.36H575v-.71h.29a3.62,3.62,0,0,0,2.71-1A4.3,4.3,0,0,0,579,780.41Zm-2.39.64a2.39,2.39,0,0,0,1.47-.49,2.68,2.68,0,0,0,.93-1.26v-.47a3.84,3.84,0,0,0-.64-2.35,2,2,0,0,0-1.7-.84,1.93,1.93,0,0,0-1.59.78,3,3,0,0,0-.63,2,3,3,0,0,0,.6,1.9A1.89,1.89,0,0,0,576.57,781.05Z"/><path class="cls-4" d="M553.47,801.82h-6.24v-.63l3.41-3.87a8.91,8.91,0,0,0,1.18-1.61,2.68,2.68,0,0,0,.33-1.24,1.92,1.92,0,0,0-2.08-2,2.13,2.13,0,0,0-1.62.64,2.29,2.29,0,0,0-.62,1.67H547a3.15,3.15,0,0,1,.38-1.53,2.9,2.9,0,0,1,1.08-1.09,3.24,3.24,0,0,1,1.6-.39,3,3,0,0,1,2.14.72,2.55,2.55,0,0,1,.77,1.95,3.32,3.32,0,0,1-.44,1.53A11.23,11.23,0,0,1,551,798l-2.77,3.14h5.23Z"/><path class="cls-4" d="M561,797.67a5.48,5.48,0,0,1-.77,3.2A2.61,2.61,0,0,1,558,802a2.66,2.66,0,0,1-2.27-1.07,5.33,5.33,0,0,1-.8-3.12V796a5.41,5.41,0,0,1,.78-3.18,2.61,2.61,0,0,1,2.27-1.08,2.66,2.66,0,0,1,2.26,1,5.17,5.17,0,0,1,.8,3.08Zm-.82-1.78a4.92,4.92,0,0,0-.55-2.59,2.07,2.07,0,0,0-3.36,0,4.76,4.76,0,0,0-.57,2.53v2a4.83,4.83,0,0,0,.58,2.61,2,2,0,0,0,3.33,0,4.81,4.81,0,0,0,.57-2.59Z"/><path class="cls-4" d="M562.81,801.33a.59.59,0,0,1,.15-.41.55.55,0,0,1,.43-.17.58.58,0,0,1,.43.17.59.59,0,0,1,.15.41.53.53,0,0,1-.15.39.57.57,0,0,1-.43.16.54.54,0,0,1-.43-.16A.53.53,0,0,1,562.81,801.33Z"/><path class="cls-4" d="M569.9,801.82h-.82v-9l-2.71,1v-.77l3.39-1.26h.14Z"/><path class="cls-4" d="M577.66,801.82h-.82v-9l-2.71,1v-.77l3.39-1.26h.14Z"/><path class="cls-4" d="M444,810.51h-4.32v1.58h1.24a5.06,5.06,0,0,1,2.09.41,3.24,3.24,0,0,1,1.4,1.13,3.16,3.16,0,0,1-.6,4.08,4.41,4.41,0,0,1-2.93.91h-3.61v-10H444Zm-4.32,3.43v2.84h1.23a1.61,1.61,0,0,0,1.16-.41,1.4,1.4,0,0,0,.43-1.06,1.26,1.26,0,0,0-.42-1,1.69,1.69,0,0,0-1.18-.38Z"/><path class="cls-4" d="M449.49,818.76a3.79,3.79,0,0,1-2.76-1,3.49,3.49,0,0,1-1.05-2.64v-.19a4.53,4.53,0,0,1,.42-2,3.1,3.1,0,0,1,1.23-1.35,3.73,3.73,0,0,1,1.91-.47,3.18,3.18,0,0,1,2.46,1,3.79,3.79,0,0,1,.9,2.69v.9H448a1.78,1.78,0,0,0,.54,1,1.65,1.65,0,0,0,1.08.35,2.07,2.07,0,0,0,1.71-.76l1.06,1.24a3,3,0,0,1-1.22.95A4.24,4.24,0,0,1,449.49,818.76Zm-.26-5.89c-.68,0-1.08.44-1.21,1.34h2.33V814a1.16,1.16,0,0,0-.28-.86A1.14,1.14,0,0,0,449.23,812.87Z"/><path class="cls-4" d="M456.66,817a1.05,1.05,0,0,0,.75-.26,1,1,0,0,0,.26-.74h2.16a2.57,2.57,0,0,1-.87,2,3.24,3.24,0,0,1-2.25.78,3.3,3.3,0,0,1-2.54-1,4,4,0,0,1-.93-2.81v-.09a4.58,4.58,0,0,1,.41-2,3.08,3.08,0,0,1,1.2-1.32,3.52,3.52,0,0,1,1.84-.46,3.21,3.21,0,0,1,2.29.8,2.81,2.81,0,0,1,.85,2.17h-2.16a1.27,1.27,0,0,0-.28-.89,1,1,0,0,0-.75-.3q-.9,0-1.05,1.14a8.31,8.31,0,0,0,0,1,3.12,3.12,0,0,0,.27,1.54A.92.92,0,0,0,456.66,817Z"/><path class="cls-4" d="M467.42,818.62H465.1V813h-2v5.62h-2.3v-7.39h6.66Z"/><path class="cls-4" d="M475.26,811.23v7.39H473V813h-1.38l-.12,2.27a4.81,4.81,0,0,1-.76,2.51,2.18,2.18,0,0,1-1.86.84h-.73l0-1.76.24,0a.85.85,0,0,0,.68-.61,5.51,5.51,0,0,0,.29-1.69l.14-3.3Z"/><path class="cls-4" d="M480.68,818.62a2.52,2.52,0,0,1-.22-.66,2.15,2.15,0,0,1-1.78.8,2.61,2.61,0,0,1-1.77-.63,2,2,0,0,1-.74-1.59,2.07,2.07,0,0,1,.89-1.82,4.57,4.57,0,0,1,2.59-.62h.71v-.39c0-.68-.3-1-.88-1a.72.72,0,0,0-.82.81h-2.31a2.07,2.07,0,0,1,.91-1.74,3.83,3.83,0,0,1,2.33-.67,3.37,3.37,0,0,1,2.24.69,2.44,2.44,0,0,1,.84,1.89V817a3.38,3.38,0,0,0,.31,1.56v.11Zm-1.44-1.5a1.23,1.23,0,0,0,.71-.19,1.14,1.14,0,0,0,.41-.41v-1.19h-.67c-.8,0-1.21.36-1.21,1.08a.64.64,0,0,0,.22.51A.77.77,0,0,0,479.24,817.12Z"/><path class="cls-4" d="M490.31,813H488v5.63h-2.32V813h-2.29v-1.76h6.94Z"/><path class="cls-4" d="M497.75,818.62h-2.31v-2.73h-2v2.73h-2.31v-7.39h2.31v2.88h2v-2.88h2.31Z"/><path class="cls-4" d="M501.49,813.26h1.18a4.55,4.55,0,0,1,1.8.33,2.59,2.59,0,0,1,1.19.95,2.47,2.47,0,0,1,.41,1.43,2.3,2.3,0,0,1-.92,1.92,4,4,0,0,1-2.53.73h-3.45v-7.39h2.32Zm0,1.77v1.83h1.17a1.27,1.27,0,0,0,.82-.24.8.8,0,0,0,.3-.66.89.89,0,0,0-.27-.67,1.2,1.2,0,0,0-.85-.26Zm8,3.59h-2.32v-7.39h2.32Z"/><path class="cls-4" d="M515.25,811.23h2.32v7.39h-2.32v-4.3l-2,4.3h-2.31v-7.39h2.31v4.29Zm1.57-3.12a1.9,1.9,0,0,1-.69,1.52,3.21,3.21,0,0,1-3.68,0,1.9,1.9,0,0,1-.69-1.52h1.57a.83.83,0,0,0,.25.64,1,1,0,0,0,.71.23,1,1,0,0,0,.7-.23.79.79,0,0,0,.25-.64Z"/><path class="cls-4" d="M522.44,818.62v-7.39h3.17a4.22,4.22,0,0,1,2.34.53,1.73,1.73,0,0,1,.81,1.54,1.35,1.35,0,0,1-.36.92,2.21,2.21,0,0,1-1,.62,2.63,2.63,0,0,1,1.36.59,1.4,1.4,0,0,1,.48,1.08,1.75,1.75,0,0,1-.79,1.57,4,4,0,0,1-2.27.54Zm2.31-4.43h1a.86.86,0,0,0,.58-.15.48.48,0,0,0,.17-.41.59.59,0,0,0-.2-.5,1.19,1.19,0,0,0-.64-.14h-.86Zm0,1.42v1.25h1.35a1,1,0,0,0,.61-.15.57.57,0,0,0,.19-.46c0-.41-.24-.63-.71-.64Z"/><path class="cls-4" d="M529.86,814.86a4.37,4.37,0,0,1,.43-2,3.11,3.11,0,0,1,1.23-1.33,3.74,3.74,0,0,1,1.9-.46,3.39,3.39,0,0,1,2.62,1,4,4,0,0,1,1,2.8V815a3.81,3.81,0,0,1-1,2.74,3.39,3.39,0,0,1-2.6,1,3.43,3.43,0,0,1-2.53-1,3.68,3.68,0,0,1-1-2.56Zm2.3.14a2.79,2.79,0,0,0,.32,1.5,1.07,1.07,0,0,0,.95.48q1.23,0,1.26-1.89v-.23c0-1.33-.42-2-1.27-2s-1.19.57-1.25,1.71Z"/><path class="cls-4" d="M544.88,815a4.44,4.44,0,0,1-.78,2.75,2.49,2.49,0,0,1-2.1,1,2.13,2.13,0,0,1-1.67-.75v3.46H538V811.23h2.15l.07.68a2.11,2.11,0,0,1,1.74-.82,2.5,2.5,0,0,1,2.13,1,4.53,4.53,0,0,1,.76,2.77Zm-2.31-.15c0-1.31-.38-2-1.15-2a1.08,1.08,0,0,0-1.09.58v2.92a1.12,1.12,0,0,0,1.11.61c.73,0,1.11-.63,1.13-1.9Z"/><path class="cls-4" d="M549,816h-.69v2.58H546v-7.39h2.31v2.65H549l1.17-2.65h3L551,814.64h0l2.38,4h-3.13Z"/><path class="cls-4" d="M556.17,811.23v5.61h1.74v-5.61h2.31v5.61H562v-5.61h2.31v7.39H553.87v-7.39Z"/><path class="cls-4" d="M565.32,814.86a4.37,4.37,0,0,1,.43-2,3.13,3.13,0,0,1,1.24-1.33,3.73,3.73,0,0,1,1.89-.46,3.39,3.39,0,0,1,2.62,1,3.93,3.93,0,0,1,1,2.8V815a3.81,3.81,0,0,1-1,2.74,3.4,3.4,0,0,1-2.6,1,3.46,3.46,0,0,1-2.54-1,3.67,3.67,0,0,1-1-2.56Zm2.3.14a2.69,2.69,0,0,0,.33,1.5,1.06,1.06,0,0,0,.95.48c.82,0,1.24-.63,1.25-1.89v-.23c0-1.33-.42-2-1.27-2s-1.18.57-1.25,1.71Z"/><path class="cls-4" d="M580.09,818.62h-2.32V813h-2v5.62h-2.3v-7.39h6.66Z"/><path class="cls-4" d="M562.29,733.9a9.59,9.59,0,0,0-9,12.85,5.53,5.53,0,0,1,4.08-1.73c4.66,0,4.66,4.57,9.32,4.57a5.56,5.56,0,0,0,4.13-1.77,9.58,9.58,0,0,0-8.53-13.92Z"/><path class="cls-5" d="M562.29,753.05a9.56,9.56,0,0,0,8.53-5.23,5.56,5.56,0,0,1-4.13,1.77c-4.66,0-4.66-4.57-9.32-4.57a5.53,5.53,0,0,0-4.08,1.73A9.57,9.57,0,0,0,562.29,753.05Z"/><path class="cls-6" d="M553.29,746.75a5.53,5.53,0,0,1,4.08-1.73c4.66,0,4.66,4.57,9.32,4.57a5.56,5.56,0,0,0,4.13-1.77,9.6,9.6,0,0,0-.55-9.64,4.4,4.4,0,0,0-3.87-1.92c-5.14,0-5,4.6-9.44,4.6a6.12,6.12,0,0,1-3.41-1.29h0a9.68,9.68,0,0,0-.25,7.17Z"/><path class="cls-4" d="M548.84,765.25a3.47,3.47,0,0,1-1.24-.22,2.48,2.48,0,0,1-.94-.65,3.15,3.15,0,0,1-.6-1.07,4.87,4.87,0,0,1-.21-1.51,5,5,0,0,1,.21-1.51,3.46,3.46,0,0,1,.6-1.11,2.45,2.45,0,0,1,.94-.68,3.08,3.08,0,0,1,1.24-.23,2.85,2.85,0,0,1,1.55.38,2.58,2.58,0,0,1,1,1.2l-1.26.66a1.51,1.51,0,0,0-.42-.68,1.22,1.22,0,0,0-.84-.26,1.36,1.36,0,0,0-1,.42,1.74,1.74,0,0,0-.39,1.22v1.09a1.74,1.74,0,0,0,.39,1.22,1.36,1.36,0,0,0,1,.42,1.24,1.24,0,0,0,.86-.29,1.79,1.79,0,0,0,.48-.71l1.2.69a3,3,0,0,1-1,1.2A2.7,2.7,0,0,1,548.84,765.25Z"/><path class="cls-4" d="M555.44,764.69H555a2.94,2.94,0,0,1-1.17-.23,2.64,2.64,0,0,1-.92-.61,2.85,2.85,0,0,1-.59-.92,3.28,3.28,0,0,1,0-2.31,2.66,2.66,0,0,1,.58-.92,2.56,2.56,0,0,1,.91-.63,3,3,0,0,1,1.19-.22h.4V758h1.48v.87h.4a3,3,0,0,1,1.19.22,2.56,2.56,0,0,1,.91.63,2.66,2.66,0,0,1,.58.92,3.28,3.28,0,0,1,0,2.31,2.85,2.85,0,0,1-.59.92,2.64,2.64,0,0,1-.92.61,2.94,2.94,0,0,1-1.17.23h-.4v.87h-1.48Zm0-1.21v-3.43H555a1.48,1.48,0,0,0-.63.12,1.11,1.11,0,0,0-.43.3,1.25,1.25,0,0,0-.24.44,1.69,1.69,0,0,0-.08.56v.6a1.51,1.51,0,0,0,.34,1,1.31,1.31,0,0,0,1,.4Zm1.86,0a1.31,1.31,0,0,0,1-.4,1.51,1.51,0,0,0,.34-1v-.6a1.69,1.69,0,0,0-.08-.56,1.25,1.25,0,0,0-.24-.44,1.08,1.08,0,0,0-.44-.3,1.46,1.46,0,0,0-.62-.12h-.42v3.43Z"/><path class="cls-4" d="M561.54,765.13v-6.75h4.59v1.31H563v1.37h2.68v1.31H563v1.46h3.12v1.3Z"/><path class="cls-4" d="M567.65,765.13v-6.75h3.19a2.08,2.08,0,0,1,.85.16,1.83,1.83,0,0,1,.64.44,2,2,0,0,1,.42.68,2.84,2.84,0,0,1,0,1.76,1.91,1.91,0,0,1-.42.67,1.85,1.85,0,0,1-.64.45,2.26,2.26,0,0,1-.85.15h-1.72v2.44Zm1.47-3.71h1.55a.73.73,0,0,0,.51-.17.62.62,0,0,0,.19-.5v-.42a.62.62,0,0,0-.19-.5.69.69,0,0,0-.51-.17h-1.55Z"/><path class="cls-4" d="M577.69,765.13l-.49-1.6H575l-.48,1.6H573l2.22-6.75H577l2.19,6.75Zm-1.6-5.41H576l-.74,2.56h1.54Z"/></g><g id="Layer_2" data-name="Layer 2"><path class="cls-7" d="M329.51,523.73s-17.77,30.62-35.73,30.2c0,0-2.42-2.78-1.22-4.92s2.83-3.41,3.42-3,4.07.66,6.9-2.74,12-13.49,11.58-14.46,3.77-7.9,3.77-7.9l10.55-2Z"/><path class="cls-8" d="M353.42,480.17s8.42,1.69,14-3.76,6.61-6.34,3.44-13.3a17.34,17.34,0,0,0-9.46-9s11.48,7.41,16.72,3.07-.76-6.79-1.34-6.43-15.94.81-19.27-2.4-3.68,4.54-3.32,4.91,3.93,13.19,3.93,13.19Z"/><path class="cls-4" d="M348.57,452.21s-11.08-.71-14,13.82.53,20.45.76,21.07,1.1,14.58-6.86,17.38c-4.66,1.64-6.65.94-7.51.08a4.57,4.57,0,0,0-3.54-1.28,14.85,14.85,0,0,0-6.32,1.62c-3.42,2.05-6.48,9.68-5.27,11.78a14.07,14.07,0,0,1,1,2.33,4.59,4.59,0,0,1-.48,4c-.88,1.37-1.77,3.38-.74,4.91,1.49,2.2,8.1,1,9.92.68a4.48,4.48,0,0,0,.88-.27l9.89-4.18a4.61,4.61,0,0,1,4.9.81,11,11,0,0,1,2.69,3.75c1.79,4.15-1.33,14.21-7,16.18S323,550,323,550s.57,2.62,5.45.11,15.78-13.69,16.72-21.53a22.54,22.54,0,0,0-.08-7.42,4.67,4.67,0,0,1,1.15-4.29c2.56-2.65,6.66-7.76,7.76-14.26,1.64-9.65,2.83-24.52,4.32-25.07s-13.26,2.75-16.83-3.28.47-20,4.83-21.44A8.29,8.29,0,0,1,348.57,452.21Z"/><path class="cls-3" d="M314.53,512.59c.81,1.26,1.68,2.15.41,3s-1.65-.39-2.46-1.65-1.74-2.12-.47-2.93S313.72,511.32,314.53,512.59Z"/><path class="cls-4" d="M345.92,454.09s9.75-91.81,70.83-80.09c0,0,19.55,10.89,1.54,23.66s-43.94,18.53-65.06,51.22c0,0-3.18,4.56-2.18,6.43S345.92,454.09,345.92,454.09Z"/><path class="cls-9" d="M343.77,454.68a7,7,0,0,1,5.57-2.22c3.08.16,8.48,2.78,11.59,6.2,5,5.47,2.37,16.14-2.05,18.57s-13.9,3.31-17.66-2.72C339.05,471,337.58,461.47,343.77,454.68Z"/><path class="cls-4" d="M319.8,505.16s1.28-6.64.36-7.71c-1.6-1.86-4.7,2.1-5,3.15a35.74,35.74,0,0,0-.61,4.08Z"/><rect x="290.21" y="412.38" width="57.13" height="5.71" transform="translate(-92.32 91.14) rotate(-14.23)"/><rect x="247.19" y="456.77" width="85.2" height="5.71" transform="translate(-220.14 647.28) rotate(-77.97)"/><rect class="cls-4" x="292.92" y="302.75" width="9.42" height="3.96" rx="1.72" transform="translate(-9.13 600.27) rotate(-89.61)"/><path class="cls-4" d="M410.37,422.7a1.45,1.45,0,0,1-1.48-1.62v-.83a1.34,1.34,0,0,1,1.45-1.51l6,0c.95,0,2,.53,2,1.48V421a1.91,1.91,0,0,1-2,1.65Z"/><rect class="cls-4" x="295.64" y="531.96" width="3.96" height="9.42" rx="1.72" transform="translate(-0.91 0.5) rotate(-0.1)"/><rect class="cls-4" x="176.95" y="418.72" width="9.42" height="3.96" rx="1.72"/><path class="cls-4" d="M199.42,362.2a1.54,1.54,0,0,0-2.11.56h0a1.54,1.54,0,0,0,.55,2.12l4,2.34a1.55,1.55,0,0,0,2.12-.56h0a1.55,1.55,0,0,0-.56-2.12Z"/><path class="cls-4" d="M241.8,320.92a1.55,1.55,0,0,0-2.11-.55h0a1.55,1.55,0,0,0-.56,2.12l2.35,4a1.55,1.55,0,0,0,2.12.56h0a1.56,1.56,0,0,0,.55-2.12Z"/><path class="cls-4" d="M356.13,322.48a1.53,1.53,0,0,0-.58-2.11h0a1.53,1.53,0,0,0-2.11.58l-2.3,4a1.55,1.55,0,0,0,.58,2.11h0a1.55,1.55,0,0,0,2.11-.58Z"/><path class="cls-4" d="M397.41,365a1.56,1.56,0,0,0,.61-2.11h0a1.55,1.55,0,0,0-2.1-.61l-4.08,2.23a1.55,1.55,0,0,0-.61,2.11h0a1.55,1.55,0,0,0,2.1.61Z"/><path class="cls-4" d="M395.84,479.2a1.55,1.55,0,0,0,2.12-.57h0a1.54,1.54,0,0,0-.56-2.11l-4-2.34a1.55,1.55,0,0,0-2.12.57h0a1.55,1.55,0,0,0,.56,2.12Z"/><path class="cls-4" d="M353.42,520.47a1.55,1.55,0,0,0,2.12.56h0a1.55,1.55,0,0,0,.56-2.12l-2.34-4a1.54,1.54,0,0,0-2.11-.56h0a1.55,1.55,0,0,0-.57,2.12Z"/><path class="cls-4" d="M239.18,518.88a1.55,1.55,0,0,0,.55,2.12h0a1.55,1.55,0,0,0,2.12-.55l2.36-4a1.54,1.54,0,0,0-.55-2.12h0a1.54,1.54,0,0,0-2.12.55Z"/><path class="cls-4" d="M197.85,476.51a1.55,1.55,0,0,0-.56,2.12h0a1.55,1.55,0,0,0,2.11.57l4-2.33a1.54,1.54,0,0,0,.57-2.11h0a1.54,1.54,0,0,0-2.11-.57Z"/><rect class="cls-10" x="252.66" y="331.3" width="3.59" height="136.97" transform="translate(-216.56 452.01) rotate(-63.85)"/><path d="M297.56,432a11.08,11.08,0,1,1,11.15-11A11.09,11.09,0,0,1,297.56,432Z"/></g></svg>