<svg xmlns="http://www.w3.org/2000/svg" viewBox="0 0 595.28 841.89"><defs><style>.cls-1{fill:#fd0079;}.cls-2{fill:none;stroke:#f7beff;stroke-width:25px;}.cls-2,.cls-30{stroke-miterlimit:10;}.cls-3{font-size:24px;}.cls-29,.cls-3{fill:#231f20;}.cls-3,.cls-4{font-family:RobotoCondensed-Bold, Roboto Condensed;}.cls-24,.cls-3,.cls-4{font-weight:700;}.cls-4{font-size:60px;}.cls-18,.cls-21,.cls-24,.cls-30,.cls-4{fill:#fff;}.cls-5{letter-spacing:-0.01em;}.cls-6{letter-spacing:0.01em;}.cls-7{letter-spacing:-0.01em;}.cls-8{letter-spacing:0.01em;}.cls-9{letter-spacing:-0.06em;}.cls-10{letter-spacing:0.01em;}.cls-11{letter-spacing:-0.04em;}.cls-12{letter-spacing:0.01em;}.cls-13{letter-spacing:-0.01em;}.cls-14{letter-spacing:-0.1em;}.cls-15{letter-spacing:-0.01em;}.cls-16{letter-spacing:-0.09em;}.cls-17{letter-spacing:-0.01em;}.cls-18{font-size:14px;font-family:Roboto-Light, Roboto;font-weight:300;}.cls-19{font-family:Roboto-Black, Roboto;font-weight:800;}.cls-20{letter-spacing:-0.01em;}.cls-22{fill:#2556a2;}.cls-23{fill:#83aedd;}.cls-24{font-size:9.67px;font-family:IBMPlexSans-Bold, IBM Plex Sans;letter-spacing:0.01em;}.cls-25{letter-spacing:0.03em;}.cls-26{letter-spacing:-0.05em;}.cls-27{fill:#898b8d;}.cls-28{fill:#aaabb0;}.cls-30{stroke:#fff;}.cls-31{fill:#d8d9da;}</style></defs><title>4</title><g id="Layer_3" data-name="Layer 3"><rect class="cls-1" width="595.4" height="841.89"/><path class="cls-2" d="M297.64,570.92c-193.74,0-351.29,156.53-351.29,350"/><path class="cls-2" d="M647.87,420.94c0-193.43-156.77-350.53-350.51-350.53"/><path class="cls-2" d="M297.29,770.9c193.74,0,350.52-156.52,350.52-350"/><line class="cls-2" x1="297.64" y1="120.5" y2="120.5"/><path class="cls-2" d="M297.64,621C131.57,621-3.57,755.08-3.57,920.88"/><path class="cls-2" d="M597.8,420.94C597.24,255.62,463.36,120.5,297.64,120.5"/><path class="cls-2" d="M297.64,670.91c-138.39,0-251.14,111.8-251.14,250"/><path class="cls-2" d="M547.72,420.94c0-138.16-112-250.38-250.36-250.38"/><line class="cls-2" x1="297.64" y1="220.65" y2="220.65"/><path class="cls-2" d="M297.64,720.9c-110.71,0-201.07,89.44-201.07,200"/><path class="cls-2" d="M497.65,420.94c0-110.53-89.31-200.28-200-200.28"/><path class="cls-2" d="M297.64,621a199.84,199.84,0,0,0,200-200"/><line class="cls-2" x1="297.64" y1="270.72" y2="270.72"/><path class="cls-2" d="M297.29,770.9c-83,0-150.64,67.08-150.64,150"/><path class="cls-2" d="M447.58,420.36A149.49,149.49,0,0,0,297.67,270.69"/><path class="cls-2" d="M297.64,570.92c83,0,149.94-67.79,149.94-150.69"/><line class="cls-2" x1="297.64" y1="170.58" y2="170.58"/><line class="cls-2" x1="299.45" y1="170.58" x2="297.64" y2="170.58"/><line class="cls-2" x1="297.64" y1="70.43" y2="70.43"/><line class="cls-2" x1="299.45" y1="70.43" x2="297.64" y2="70.43"/></g><g id="Layer_1" data-name="Layer 1"><text class="cls-3" transform="translate(465.79 123.11) rotate(30.74)">П</text><text class="cls-3" transform="translate(478.21 130.62) rotate(32.19)">Р</text><text class="cls-3" transform="matrix(0.82, 0.58, -0.58, 0.82, 489.36, 137.73)">О</text><text class="cls-3" transform="translate(500.91 145.9) rotate(37.53)">К</text><text class="cls-3" transform="matrix(0.77, 0.64, -0.64, 0.77, 511.38, 153.93)">Р</text><text class="cls-3" transform="translate(520.08 161.11) rotate(41.68)">А</text><text class="cls-3" transform="matrix(0.72, 0.69, -0.69, 0.72, 530.35, 170.24)">С</text><text class="cls-3" transform="matrix(0.69, 0.72, -0.72, 0.69, 539.74, 179.28)">Т</text><text class="cls-3" transform="translate(548.57 188.42) rotate(48.35)">И</text><text class="cls-3" transform="translate(558.01 199.02) rotate(50.76)">Н</text><text class="cls-3" transform="translate(567.23 210.31) rotate(53.18)">А</text><text class="cls-3" transform="matrix(0.56, 0.83, -0.83, 0.56, 575.62, 221.47)">Ц</text><text class="cls-3" transform="translate(584.43 234.4) rotate(58.2)">И</text><text class="cls-3" transform="translate(591.9 246.47) rotate(60.42)">Я</text><text class="cls-3" transform="matrix(0.99, -0.17, 0.17, 0.99, 350.84, 776.15)">П</text><text class="cls-3" transform="matrix(0.98, -0.21, 0.21, 0.98, 365.75, 773.58)">Р</text><text class="cls-3" transform="translate(379.43 770.66) rotate(-14.35)">О</text><text class="cls-3" transform="translate(393.79 766.98) rotate(-16.73)">П</text><text class="cls-3" transform="matrix(0.95, -0.33, 0.33, 0.95, 408.24, 762.61)">У</text><text class="cls-3" transform="translate(420.81 758.29) rotate(-21.15)">С</text><text class="cls-3" transform="translate(433.53 753.36) rotate(-23.27)">Т</text><text class="cls-3" transform="translate(445.82 748.08) rotate(-25.51)">И</text><text class="cls-3" transform="translate(459.46 741.56) rotate(-27.93)">Л</text><text class="cls-3" transform="translate(472.97 734.38) rotate(-30.34)">А</text><text class="cls-3" transform="translate(485.53 726.95) rotate(-31.96)"> </text><text class="cls-3" transform="matrix(0.83, -0.55, 0.55, 0.83, 490.47, 723.96)">Д</text><text class="cls-3" transform="matrix(0.81, -0.59, 0.59, 0.81, 503.83, 714.99)">Е</text><text class="cls-3" transform="translate(513.64 707.92) rotate(-38.2)">Д</text><text class="cls-3" transform="matrix(0.76, -0.65, 0.65, 0.76, 526.44, 697.81)">Л</text><text class="cls-3" transform="translate(538.04 687.8) rotate(-43.17)">А</text><text class="cls-3" transform="matrix(0.7, -0.71, 0.71, 0.7, 548.75, 677.75)">Й</text><text class="cls-3" transform="matrix(0.67, -0.74, 0.74, 0.67, 559.18, 667.11)">Н</text><text/><text class="cls-3" transform="matrix(0.96, 0.28, -0.28, 0.96, 373.36, 138.96)">Н</text><text class="cls-3" transform="translate(387.11 143.04) rotate(18.93)">Е</text><text class="cls-3" transform="translate(398.01 146.82) rotate(20.57)"> </text><text class="cls-3" transform="translate(402.93 148.53) rotate(22.82)">М</text><text class="cls-3" transform="translate(419.26 155.44) rotate(25.94)">О</text><text class="cls-3" transform="translate(431.94 161.64) rotate(28.46)">Г</text><text class="cls-3" transform="translate(441.96 167.04) rotate(30.85)">У</text><text class="cls-3" transform="translate(453.04 173.72) rotate(32.65)"> </text><text class="cls-3" transform="translate(457.5 176.5) rotate(34.5)">Р</text><text class="cls-3" transform="matrix(0.8, 0.6, -0.6, 0.8, 466.81, 182.83)">А</text><text class="cls-3" transform="matrix(0.77, 0.64, -0.64, 0.77, 477.97, 191.18)">Б</text><text class="cls-3" transform="matrix(0.74, 0.67, -0.67, 0.74, 487.8, 199.23)">О</text><text class="cls-3" transform="translate(497.56 208.02) rotate(44.51)">Т</text><text class="cls-3" transform="translate(505.63 215.88) rotate(46.85)">А</text><text class="cls-3" transform="matrix(0.65, 0.76, -0.76, 0.65, 514.24, 225.03)">Т</text><text class="cls-3" transform="translate(522.64 234.75) rotate(51.72)">Ь</text><text class="cls-3" transform="matrix(0.48, 0.88, -0.88, 0.48, 549.7, 273.46)">О</text><text class="cls-3" transform="translate(556.53 285.79) rotate(63.88)">П</text><text class="cls-3" transform="translate(562.85 298.67) rotate(66.64)">А</text><text class="cls-3" transform="translate(568.37 311.47) rotate(69.24)">З</text><text class="cls-3" transform="translate(572.87 323.23) rotate(71.97)">Д</text><text class="cls-3" transform="matrix(0.26, 0.97, -0.97, 0.26, 577.64, 337.72)">Ы</text><text class="cls-3" transform="translate(582.15 355) rotate(78.24)">В</text><text class="cls-3" transform="translate(584.83 367.78) rotate(80.89)">А</text><text class="cls-3" transform="matrix(0.1, 0.99, -0.99, 0.1, 587.11, 381.45)">Ю</text><text class="cls-3" transform="matrix(0.99, 0.12, -0.12, 0.99, 319.17, 180.06)">У</text><text class="cls-3" transform="matrix(0.99, 0.17, -0.17, 0.99, 331.59, 181.48)">С</text><text class="cls-3" transform="translate(344.34 183.62) rotate(12.58)">Т</text><text class="cls-3" transform="translate(355.27 186) rotate(15.38)">А</text><text class="cls-3" transform="translate(368.8 189.71) rotate(18.77)">Л</text><text class="cls-3" transform="translate(382.42 194.43) rotate(21.11)"> </text><text class="cls-3" transform="matrix(0.92, 0.4, -0.4, 0.92, 387.3, 196.21)">О</text><text class="cls-3" transform="matrix(0.9, 0.44, -0.44, 0.9, 399.28, 201.38)">Т</text><text class="cls-3" transform="translate(410.03 206.76) rotate(28.33)"> </text><text class="cls-3" transform="matrix(0.86, 0.51, -0.51, 0.86, 414.66, 209.16)">Р</text><text class="cls-3" transform="matrix(0.83, 0.55, -0.55, 0.83, 426.02, 215.86)">У</text><text class="cls-3" transform="translate(436.83 223.04) rotate(36.69)">Т</text><text class="cls-3" transform="translate(446.94 230.53) rotate(39.85)">И</text><text class="cls-3" transform="translate(457.72 239.51) rotate(43.19)">Н</text><text class="cls-3" transform="translate(468.12 249.17) rotate(46.96)">Ы</text><text class="cls-3" transform="translate(529.92 353.38) rotate(75.32)">У</text><text class="cls-3" transform="translate(533.11 365.47) rotate(78.3)">С</text><text class="cls-3" transform="translate(535.74 378.12) rotate(81.26)">Т</text><text class="cls-3" transform="translate(537.5 389.17) rotate(84.07)">А</text><text class="cls-3" transform="translate(538.96 403.12) rotate(87.46)">Л</text><text class="cls-3" transform="matrix(0.65, -0.76, 0.76, 0.65, 34.03, 702.97)">Ч</text><text class="cls-3" transform="matrix(0.67, -0.74, 0.74, 0.67, 43.55, 692.1)">Е</text><text class="cls-3" transform="matrix(0.71, -0.71, 0.71, 0.71, 51.24, 683.72)">Р</text><text class="cls-3" transform="translate(60.65 674.29) rotate(-42.7)">Н</text><text class="cls-3" transform="translate(71.22 664.53) rotate(-40.32)">И</text><text class="cls-3" transform="translate(82.17 655.22) rotate(-37.9)">Л</text><text class="cls-3" transform="translate(93.68 646.27) rotate(-35.48)">А</text><text class="cls-3" transform="matrix(0.83, -0.56, 0.56, 0.83, 105.2, 638.13)"> </text><text class="cls-3" transform="translate(109.58 635.13) rotate(-32.33)">З</text><text class="cls-3" transform="translate(120.26 628.34) rotate(-30.08)">А</text><text class="cls-3" transform="translate(132.36 621.34) rotate(-27.78)">К</text><text class="cls-3" transform="translate(143.73 615.32) rotate(-25.53)">О</text><text class="cls-3" transform="matrix(0.92, -0.39, 0.39, 0.92, 156.47, 609.23)">Н</text><text class="cls-3" transform="matrix(0.94, -0.35, 0.35, 0.94, 169.39, 603.69)">Ч</text><text class="cls-3" transform="translate(182.76 598.62) rotate(-18.37)">И</text><text class="cls-3" transform="translate(196.41 594.08) rotate(-15.94)">Л</text><text class="cls-3" transform="matrix(0.97, -0.23, 0.23, 0.97, 210.25, 590.12)">И</text><text class="cls-3" transform="translate(224.04 586.8) rotate(-11.24)">С</text><text class="cls-3" transform="translate(237.17 584.19) rotate(-9.04)">Ь</text><text class="cls-3" transform="translate(86.48 719.27) rotate(-44.57)">М</text><text class="cls-3" transform="translate(99.31 706.7) rotate(-41.46)">А</text><text class="cls-3" transform="translate(109.76 697.47) rotate(-38.82)">К</text><text class="cls-3" transform="translate(120.03 689.22) rotate(-36.41)">Е</text><text class="cls-3" transform="matrix(0.83, -0.56, 0.56, 0.83, 129.41, 682.28)">Т</text><text class="cls-3" transform="matrix(0.84, -0.53, 0.53, 0.84, 139.44, 675.57)"> </text><text class="cls-3" transform="translate(143.84 672.7) rotate(-30.5)">С</text><text class="cls-3" transform="matrix(0.89, -0.46, 0.46, 0.89, 155.2, 665.92)">Ы</text><text class="cls-3" transform="translate(171.07 657.75) rotate(-24.35)">Р</text><text class="cls-3" transform="translate(183.15 652.26) rotate(-21.65)">О</text><text class="cls-3" transform="matrix(0.95, -0.33, 0.33, 0.95, 196.24, 647.06)">В</text><text class="cls-3" transform="translate(208.58 642.8) rotate(-16.32)">А</text><text class="cls-3" transform="translate(220.65 639.25) rotate(-13.97)">Т</text><text class="cls-3" transform="translate(76.13 823.79) rotate(-64.77)">К</text><text class="cls-3" transform="matrix(0.48, -0.88, 0.88, 0.48, 81.68, 811.97)">А</text><text class="cls-3" transform="matrix(0.53, -0.85, 0.85, 0.53, 88.24, 799.77)">П</text><text class="cls-3" transform="translate(95.76 787.62) rotate(-55.1)">У</text><text class="cls-3" transform="matrix(0.62, -0.79, 0.79, 0.62, 103.02, 777.15)">Ч</text><text class="cls-3" transform="translate(111.75 766) rotate(-48.53)">И</text><text class="cls-3" transform="matrix(0.71, -0.71, 0.71, 0.71, 121.05, 755.45)">Н</text><text class="cls-3" transform="matrix(0.75, -0.67, 0.67, 0.75, 131.08, 745.36)">О</text><text class="cls-3" transform="translate(141.68 735.99) rotate(-39.48)"> </text><text class="cls-3" transform="matrix(0.8, -0.6, 0.6, 0.8, 145.63, 732.62)">О</text><text class="cls-3" transform="matrix(0.83, -0.56, 0.56, 0.83, 156.77, 724.16)">С</text><text class="cls-3" transform="translate(167.49 716.93) rotate(-30.97)">Т</text><text class="cls-3" transform="translate(178.15 710.42) rotate(-27.4)">Ы</text><text class="cls-3" transform="translate(194.1 702.2) rotate(-23.59)">Л</text><text class="cls-4" transform="translate(321.53 741.4) rotate(-7.25)">В</text><text class="cls-4" transform="matrix(0.98, -0.2, 0.2, 0.98, 356.51, 736.49)"> </text><text class="cls-4" transform="translate(371.83 733.64) rotate(-16.32)">К</text><text class="cls-4" transform="translate(405.81 723.67) rotate(-22.88)">О</text><text class="cls-4" transform="translate(440.67 708.88) rotate(-29.71)">Л</text><text class="cls-4" transform="matrix(0.81, -0.59, 0.59, 0.81, 474.58, 689.13)">Е</text><text class="cls-4" transform="translate(500.24 670.47) rotate(-42.11)">С</text><text class="cls-4" transform="translate(527.15 645.81) rotate(-48.15)">Е</text><text class="cls-4" transform="translate(402.85 671.99) rotate(-26.34)">К</text><text class="cls-4" transform="translate(435.82 655.51) rotate(-34.36)">А</text><text class="cls-4" transform="translate(467.74 633.34) rotate(-42.32)">К</text><text class="cls-4" transform="matrix(0.67, -0.74, 0.74, 0.67, 493.85, 608.81)"> </text><text class="cls-4" transform="matrix(0.6, -0.8, 0.8, 0.6, 504.77, 597.34)">Б</text><text class="cls-4" transform="translate(525.89 568.91) rotate(-60.09)">Е</text><text class="cls-4" transform="translate(542.07 540.89) rotate(-67.74)">Л</text><text class="cls-4" transform="translate(556.89 503.83) rotate(-75.86)">К</text><text class="cls-4" transform="matrix(0.11, -0.99, 0.99, 0.11, 565.75, 468.06)">А</text><text class="cls-3" transform="translate(297.03 229.08) rotate(1.82)">К</text><text class="cls-3" transform="translate(309.99 229.48) rotate(5.67)">У</text><text class="cls-3" transform="translate(322.56 230.68) rotate(9.68)">Ч</text><text class="cls-3" transform="translate(336.62 233.07) rotate(13.92)">А</text><text class="cls-3" transform="translate(350.09 236.51) rotate(16.78)"> </text><text class="cls-3" transform="matrix(0.94, 0.34, -0.34, 0.94, 355.02, 237.86)">П</text><text class="cls-3" transform="matrix(0.92, 0.4, -0.4, 0.92, 368.34, 242.63)">Р</text><text class="cls-3" transform="translate(378.5 247.01) rotate(27.13)">А</text><text class="cls-3" transform="matrix(0.86, 0.52, -0.52, 0.86, 390.77, 253.29)">В</text><text class="cls-3" transform="matrix(0.82, 0.57, -0.57, 0.82, 401.81, 259.89)">О</text><text class="cls-3" transform="translate(413.19 267.85) rotate(38.97)">К</text><text class="cls-3" transform="matrix(0.92, -0.39, 0.39, 0.92, 373.19, 615.78)">О</text><text class="cls-3" transform="translate(386.08 610.24) rotate(-26.87)">Т</text><text class="cls-3" transform="matrix(0.86, -0.51, 0.51, 0.86, 398.22, 604.07)">В</text><text class="cls-3" transform="translate(410.29 596.92) rotate(-34.66)">Л</text><text class="cls-3" transform="matrix(0.78, -0.62, 0.62, 0.78, 422.87, 588.14)">Е</text><text class="cls-3" transform="translate(432.52 580.49) rotate(-42.05)">К</text><text class="cls-3" transform="translate(443.02 571.02) rotate(-46.09)">Л</text><text class="cls-3" transform="translate(453.81 559.76) rotate(-50.31)">А</text><text class="cls-3" transform="matrix(0.58, -0.81, 0.81, 0.58, 463.15, 548.47)">С</text><text class="cls-3" transform="matrix(0.53, -0.85, 0.85, 0.53, 471.47, 536.86)">Ь</text><text class="cls-3" transform="translate(478.55 525.28) rotate(-60.82)"> </text><text class="cls-3" transform="matrix(0.3, -0.95, 0.95, 0.3, 112.87, 868.87)">К</text><text class="cls-3" transform="matrix(0.37, -0.93, 0.93, 0.37, 116.8, 856.52)">У</text><text class="cls-3" transform="translate(121.4 844.76) rotate(-64.42)">Ч</text><text class="cls-3" transform="matrix(0.5, -0.87, 0.87, 0.5, 127.55, 831.89)">А</text><text class="cls-3" transform="translate(134.55 819.88) rotate(-57.32)"> </text><text class="cls-3" transform="matrix(0.58, -0.81, 0.81, 0.58, 137.2, 815.51)">П</text><text class="cls-3" transform="translate(145.43 804) rotate(-50.34)">Р</text><text class="cls-3" transform="translate(152.43 795.43) rotate(-46.97)">А</text><text class="cls-3" transform="matrix(0.73, -0.68, 0.68, 0.73, 161.83, 785.36)">В</text><text class="cls-3" transform="matrix(0.78, -0.63, 0.63, 0.78, 171.21, 776.53)">О</text><text class="cls-3" transform="translate(181.97 767.78) rotate(-35.13)">К</text><text class="cls-3" transform="matrix(0.84, 0.54, -0.54, 0.84, 367.07, 297.22)">Д</text><text class="cls-3" transform="matrix(0.79, 0.61, -0.61, 0.79, 379.67, 305.31)">Е</text><text class="cls-3" transform="matrix(0.73, 0.68, -0.68, 0.73, 388.45, 311.99)">П</text><text class="cls-3" transform="matrix(0.67, 0.75, -0.75, 0.67, 398.71, 321.47)">Р</text><text class="cls-3" transform="matrix(0.6, 0.8, -0.8, 0.6, 407.33, 331.12)">Е</text><text class="cls-3" transform="matrix(0.53, 0.85, -0.85, 0.53, 414.06, 339.92)">С</text><text class="cls-3" transform="translate(420.95 350.85) rotate(63.12)">С</text><text class="cls-3" transform="translate(426.83 362.3) rotate(68.53)">И</text><text class="cls-3" transform="translate(431.86 375.13) rotate(73.73)">Я</text><text class="cls-3" transform="translate(298 579.85) rotate(-2.8)">Н</text><text class="cls-3" transform="translate(313.57 579.05) rotate(-8.41)">О</text><text class="cls-3" transform="matrix(0.97, -0.24, 0.24, 0.97, 328.68, 576.74)">У</text><text class="cls-3" transform="translate(342.45 573.33) rotate(-18.82)">Т</text><text class="cls-3" transform="matrix(0.92, -0.4, 0.4, 0.92, 355.47, 568.85)">Б</text><text class="cls-3" transform="translate(367.93 563.35) rotate(-28.6)">У</text><text class="cls-3" transform="translate(380.19 556.64) rotate(-33.67)">К</text><text class="cls-3" transform="matrix(0.8, -0.61, 0.61, 0.8, 391.84, 548.7)"> </text><text class="cls-3" transform="translate(396.74 545.11) rotate(-41)">Р</text><text class="cls-3" transform="matrix(0.7, -0.71, 0.71, 0.7, 406.04, 537.12)">А</text><text class="cls-3" transform="translate(416.58 526.27) rotate(-50.83)">З</text><text class="cls-3" transform="translate(425.25 515.59) rotate(-55.93)">Р</text><text class="cls-3" transform="matrix(0.49, -0.87, 0.87, 0.49, 433.28, 503.62)">Я</text><text class="cls-3" transform="translate(439.78 491.99) rotate(-66.29)">Д</text><text class="cls-3" transform="matrix(0.31, -0.95, 0.95, 0.31, 446.39, 476.76)">И</text><text class="cls-3" transform="translate(451.16 461.92) rotate(-77.68)">Л</text><text class="cls-3" transform="translate(454.42 446.69) rotate(-83.1)">С</text><text class="cls-3" transform="translate(456.09 432.36) rotate(-88.1)">Я</text><text class="cls-3" transform="matrix(0.23, -0.97, 0.97, 0.23, 158.25, 894.83)">С</text><text class="cls-3" transform="translate(161.21 882.23) rotate(-71.47)">К</text><text class="cls-3" transform="translate(165.08 870.45) rotate(-66.29)">О</text><text class="cls-3" transform="translate(170.39 858.21) rotate(-60.85)">Л</text><text class="cls-3" transform="translate(177.19 846.03) rotate(-55.51)">Ь</text><text class="cls-3" transform="translate(184.2 835.75) rotate(-50.38)">К</text><text class="cls-3" transform="translate(192.04 826.16) rotate(-45.14)">О</text><text class="cls-3" transform="translate(201.95 816.39) rotate(-41.3)"> </text><text class="cls-3" transform="translate(205.42 812.98) rotate(-36.77)">М</text><text class="cls-3" transform="translate(219.3 802.67) rotate(-30.6)">О</text><text class="cls-3" transform="translate(230.6 795.68) rotate(-23.99)">Ж</text><text class="cls-3" transform="translate(249.11 787.59) rotate(-17.13)">Н</text><text class="cls-3" transform="translate(262.39 783.45) rotate(-11.52)">О</text><text class="cls-3" transform="translate(102.55 78.93)"><tspan class="cls-5">Х</tspan><tspan x="13.14" y="0">ОЧ</tspan><tspan class="cls-6" x="42.29" y="0">Е</tspan><tspan class="cls-7" x="54.3" y="0">Т</tspan><tspan x="67.01" y="0">СЯ П</tspan><tspan class="cls-8" x="113.5" y="0">Л</tspan><tspan x="128.45" y="0">АК</tspan><tspan class="cls-9" x="156.32" y="0">А</tspan><tspan class="cls-10" x="169.24" y="0">Т</tspan><tspan x="182.45" y="0">Ь</tspan></text><text class="cls-3" transform="translate(38.55 128.73)">Ф<tspan class="cls-11" x="17.36" y="0">О</tspan><tspan class="cls-7" x="30.84" y="0">Т</tspan><tspan x="43.55" y="0">ОШОП СЛО</tspan><tspan class="cls-8" x="155.7" y="0">М</tspan><tspan class="cls-12" x="174.11" y="0">А</tspan><tspan x="188.64" y="0">ЛСЯ</tspan></text><text class="cls-3" transform="translate(0.03 178.53)">ЗАВ<tspan class="cls-12" x="40.79" y="0">А</tspan><tspan x="55.32" y="0">Л</tspan><tspan class="cls-12" x="70.07" y="0">И</tspan><tspan x="84.81" y="0">ЛИ </tspan><tspan class="cls-13" x="119.63" y="0">Б</tspan><tspan x="132.52" y="0">У</tspan><tspan class="cls-8" x="145.73" y="0">М</tspan><tspan x="164.14" y="0">А</tspan><tspan class="cls-14" x="178.48" y="0">Г</tspan><tspan x="187.8" y="0">АМИ</tspan></text><text class="cls-3" transform="translate(24.47 229.71)">ЗАБ<tspan class="cls-12" x="40.43" y="0">Ы</tspan><tspan class="cls-8" x="58.92" y="0">Л</tspan><tspan x="73.88" y="0">А С</tspan><tspan class="cls-15" x="107.43" y="0">О</tspan><tspan x="121.65" y="0">Х</tspan><tspan class="cls-16" x="135.08" y="0">Р</tspan><tspan x="146.65" y="0">АН</tspan><tspan class="cls-17" x="175.71" y="0">И</tspan><tspan class="cls-10" x="189.91" y="0">Т</tspan><tspan x="203.12" y="0">ЬСЯ</tspan></text><text class="cls-3" transform="translate(94.56 279.78)">НЕ СП<tspan class="cls-12" x="60.48" y="0">А</tspan><tspan x="75.01" y="0">Л ВСЮ НОЧЬ</tspan></text><text class="cls-18" transform="translate(504.25 785.02)">Лебедева, 9<tspan x="42.05" y="16.8">20.11</tspan><tspan class="cls-19"><tspan x="-67.73" y="33.6">Беспл</tspan><tspan class="cls-20" x="-28.38" y="33.6">а</tspan><tspan x="-21.06" y="33.6">тный воркшоп</tspan></tspan></text><path class="cls-21" d="M562.29,733.9a9.59,9.59,0,0,0-9,12.85,5.53,5.53,0,0,1,4.08-1.73c4.66,0,4.66,4.57,9.32,4.57a5.56,5.56,0,0,0,4.13-1.77,9.58,9.58,0,0,0-8.53-13.92Z"/><path class="cls-22" d="M562.29,753.05a9.56,9.56,0,0,0,8.53-5.23,5.56,5.56,0,0,1-4.13,1.77c-4.66,0-4.66-4.57-9.32-4.57a5.53,5.53,0,0,0-4.08,1.73A9.57,9.57,0,0,0,562.29,753.05Z"/><path class="cls-23" d="M553.29,746.75a5.53,5.53,0,0,1,4.08-1.73c4.66,0,4.66,4.57,9.32,4.57a5.56,5.56,0,0,0,4.13-1.77,9.6,9.6,0,0,0-.55-9.64,4.4,4.4,0,0,0-3.87-1.92c-5.14,0-5,4.6-9.44,4.6a6.12,6.12,0,0,1-3.41-1.29h0a9.68,9.68,0,0,0-.25,7.17Z"/><text class="cls-24" transform="translate(545.37 765.13)">С<tspan class="cls-25" x="6.44" y="0">ФЕ</tspan><tspan class="cls-26" x="21.54" y="0">Р</tspan><tspan class="cls-25" x="27.42" y="0">А</tspan></text></g><g id="Layer_2" data-name="Layer 2"><path class="cls-27" d="M329.51,523.73s-17.77,30.62-35.73,30.2c0,0-2.42-2.78-1.22-4.92s2.83-3.41,3.42-3,4.07.66,6.9-2.74,12-13.49,11.58-14.46,3.77-7.9,3.77-7.9l10.55-2Z"/><path class="cls-28" d="M353.42,480.17s8.42,1.69,14-3.76,6.61-6.34,3.44-13.3a17.34,17.34,0,0,0-9.46-9s11.48,7.41,16.72,3.07-.76-6.79-1.34-6.43-15.94.81-19.27-2.4-3.68,4.54-3.32,4.91,3.93,13.19,3.93,13.19Z"/><path class="cls-21" d="M348.57,452.21s-11.08-.71-14,13.82.53,20.45.76,21.07,1.1,14.58-6.86,17.38c-4.66,1.64-6.65.94-7.51.08a4.57,4.57,0,0,0-3.54-1.28,14.85,14.85,0,0,0-6.32,1.62c-3.42,2.05-6.48,9.68-5.27,11.78a14.07,14.07,0,0,1,1,2.33,4.59,4.59,0,0,1-.48,4c-.88,1.37-1.77,3.38-.74,4.91,1.49,2.2,8.1,1,9.92.68a4.48,4.48,0,0,0,.88-.27l9.89-4.18a4.61,4.61,0,0,1,4.9.81,11,11,0,0,1,2.69,3.75c1.79,4.15-1.33,14.21-7,16.18S323,550,323,550s.57,2.62,5.45.11,15.78-13.69,16.72-21.53a22.54,22.54,0,0,0-.08-7.42,4.67,4.67,0,0,1,1.15-4.29c2.56-2.65,6.66-7.76,7.76-14.26,1.64-9.65,2.83-24.52,4.32-25.07s-13.26,2.75-16.83-3.28.47-20,4.83-21.44A8.29,8.29,0,0,1,348.57,452.21Z"/><path class="cls-29" d="M314.53,512.59c.81,1.26,1.68,2.15.41,3s-1.65-.39-2.46-1.65-1.74-2.12-.47-2.93S313.72,511.32,314.53,512.59Z"/><path class="cls-21" d="M345.92,454.09s9.75-91.81,70.83-80.09c0,0,19.55,10.89,1.54,23.66s-43.94,18.53-65.06,51.22c0,0-3.18,4.56-2.18,6.43S345.92,454.09,345.92,454.09Z"/><path class="cls-30" d="M343.77,454.68a7,7,0,0,1,5.57-2.22c3.08.16,8.48,2.78,11.59,6.2,5,5.47,2.37,16.14-2.05,18.57s-13.9,3.31-17.66-2.72C339.05,471,337.58,461.47,343.77,454.68Z"/><path class="cls-21" d="M319.8,505.16s1.28-6.64.36-7.71c-1.6-1.86-4.7,2.1-5,3.15a35.74,35.74,0,0,0-.61,4.08Z"/><rect x="290.21" y="412.38" width="57.13" height="5.71" transform="translate(-92.32 91.14) rotate(-14.23)"/><rect x="247.19" y="456.77" width="85.2" height="5.71" transform="translate(-220.14 647.28) rotate(-77.97)"/><rect class="cls-21" x="292.92" y="302.75" width="9.42" height="3.96" rx="1.72" transform="translate(-9.13 600.27) rotate(-89.61)"/><path class="cls-21" d="M410.37,422.7a1.45,1.45,0,0,1-1.48-1.62v-.83a1.34,1.34,0,0,1,1.45-1.51l6,0c.95,0,2,.53,2,1.48V421a1.91,1.91,0,0,1-2,1.65Z"/><rect class="cls-21" x="295.64" y="531.96" width="3.96" height="9.42" rx="1.72" transform="translate(-0.91 0.5) rotate(-0.1)"/><rect class="cls-21" x="176.95" y="418.72" width="9.42" height="3.96" rx="1.72"/><path class="cls-21" d="M199.42,362.2a1.54,1.54,0,0,0-2.11.56h0a1.54,1.54,0,0,0,.55,2.12l4,2.34a1.55,1.55,0,0,0,2.12-.56h0a1.55,1.55,0,0,0-.56-2.12Z"/><path class="cls-21" d="M241.8,320.92a1.55,1.55,0,0,0-2.11-.55h0a1.55,1.55,0,0,0-.56,2.12l2.35,4a1.55,1.55,0,0,0,2.12.56h0a1.56,1.56,0,0,0,.55-2.12Z"/><path class="cls-21" d="M356.13,322.48a1.53,1.53,0,0,0-.58-2.11h0a1.53,1.53,0,0,0-2.11.58l-2.3,4a1.55,1.55,0,0,0,.58,2.11h0a1.55,1.55,0,0,0,2.11-.58Z"/><path class="cls-21" d="M397.41,365a1.56,1.56,0,0,0,.61-2.11h0a1.55,1.55,0,0,0-2.1-.61l-4.08,2.23a1.55,1.55,0,0,0-.61,2.11h0a1.55,1.55,0,0,0,2.1.61Z"/><path class="cls-21" d="M395.84,479.2a1.55,1.55,0,0,0,2.12-.57h0a1.54,1.54,0,0,0-.56-2.11l-4-2.34a1.55,1.55,0,0,0-2.12.57h0a1.55,1.55,0,0,0,.56,2.12Z"/><path class="cls-21" d="M353.42,520.47a1.55,1.55,0,0,0,2.12.56h0a1.55,1.55,0,0,0,.56-2.12l-2.34-4a1.54,1.54,0,0,0-2.11-.56h0a1.55,1.55,0,0,0-.57,2.12Z"/><path class="cls-21" d="M239.18,518.88a1.55,1.55,0,0,0,.55,2.12h0a1.55,1.55,0,0,0,2.12-.55l2.36-4a1.54,1.54,0,0,0-.55-2.12h0a1.54,1.54,0,0,0-2.12.55Z"/><path class="cls-21" d="M197.85,476.51a1.55,1.55,0,0,0-.56,2.12h0a1.55,1.55,0,0,0,2.11.57l4-2.33a1.54,1.54,0,0,0,.57-2.11h0a1.54,1.54,0,0,0-2.11-.57Z"/><rect class="cls-31" x="252.66" y="331.3" width="3.59" height="136.97" transform="translate(-216.56 452.01) rotate(-63.85)"/><path d="M297.56,432a11.08,11.08,0,1,1,11.15-11A11.09,11.09,0,0,1,297.56,432Z"/></g></svg>