<svg xmlns="http://www.w3.org/2000/svg" viewBox="0 0 595.28 841.89"><defs><style>.cls-1{fill:#0037ff;}.cls-2{fill:#a0e0f9;}.cls-3{fill:#231f20;}.cls-11,.cls-4{fill:#fff;}.cls-5{fill:#9fdff8;}.cls-6{fill:#2556a2;}.cls-7{fill:#83aedd;}.cls-8{fill:#d8d9da;}.cls-9{fill:#898b8d;}.cls-10{fill:#aaabb0;}.cls-11{stroke:#fff;stroke-miterlimit:10;}</style></defs><title>5</title><g id="Layer_3" data-name="Layer 3"><rect class="cls-1" width="595.28" height="841.89"/><path class="cls-2" d="M297.64,783.87A363,363,0,0,1,41.28,164.26,361.08,361.08,0,0,1,297.64,58V83A335.07,335.07,0,0,0,59,181.93C-4.73,245.72-39.81,330.6-39.81,421S-4.73,596.17,59,660a337.4,337.4,0,0,0,477.33,0c63.71-63.79,98.79-148.67,98.79-239h25A362.11,362.11,0,0,1,297.64,783.87Z"/><path class="cls-2" d="M296.57,733.81A313,313,0,0,1,76.64,199.67a310.25,310.25,0,0,1,221-91.59H595.28v25H297.64A288,288,0,0,0,94,624.23a285.45,285.45,0,0,0,202.64,84.58Z"/><path class="cls-2" d="M297.64,683.75A262.93,262.93,0,0,1,112,235.08a260.56,260.56,0,0,1,185.64-76.94v25a237.81,237.81,0,0,0,0,475.61Z"/><path class="cls-2" d="M297.64,633.69a212.75,212.75,0,0,1,0-425.49H595.28v25H297.64A187.85,187.85,0,1,0,485.11,421h25A212.48,212.48,0,0,1,297.64,633.69Z"/><path class="cls-2" d="M297.64,583.63a162.69,162.69,0,0,1,0-325.37H595.28v25H297.64A137.76,137.76,0,1,0,435.12,421h25A162.5,162.5,0,0,1,297.64,583.63Z"/><rect class="cls-2" x="295.83" y="158.14" width="299.45" height="25"/><rect class="cls-2" x="295.83" y="58.02" width="299.45" height="25"/></g><g id="Layer_1" data-name="Layer 1"><path class="cls-3" d="M138.63,118.07l-3,1.66-6.82-12.45-4.44,2.43,6.82,12.45-3,1.66-8.21-15,10.49-5.74Z"/><path class="cls-3" d="M148.43,105.36a7.9,7.9,0,0,1,.91,5.49,5.63,5.63,0,0,1-3.19,3.71,5.7,5.7,0,0,1-4.88.31,7.87,7.87,0,0,1-3.83-4l-1.29-2.62a8.38,8.38,0,0,1-1-5.64,6.16,6.16,0,0,1,8.06-4,8.22,8.22,0,0,1,3.91,4.14Zm-4.36-1a7.06,7.06,0,0,0-2.12-2.79,2.43,2.43,0,0,0-3.66,1.77,6.6,6.6,0,0,0,.86,3.26l1.34,2.72a6.42,6.42,0,0,0,2.06,2.66,2.29,2.29,0,0,0,2.32,0,2.21,2.21,0,0,0,1.34-1.82,6.28,6.28,0,0,0-.83-3.18Z"/><path class="cls-3" d="M164.4,105.87l-3.15,1.4-5.75-13-4.63,2,5.76,13-3.15,1.4-6.92-15.6,10.92-4.85Z"/><path class="cls-3" d="M172.93,98.7l-4.37,1.73L169,104l-3.39,1.34-1.3-17.83,2.93-1.16,11.26,13.9-3.43,1.35Zm-4.73-1.22,3-1.17-3.72-5.07Z"/><path class="cls-3" d="M185.57,79.74l5.58,16.12L187.89,97l-4.65-13.41-3,1L182,90.41a20,20,0,0,1,.91,4.7,5,5,0,0,1-.63,2.94A4.31,4.31,0,0,1,180,99.74l-.8.28-.94-2.7.37-.17a1.89,1.89,0,0,0,1-1.84,16.62,16.62,0,0,0-.92-4.48L176.19,83Z"/><path class="cls-3" d="M198.62,93.53,194,77.12,199,75.67a6.12,6.12,0,0,1,4.23,0,4.33,4.33,0,0,1,2.29,3,4.15,4.15,0,0,1,.06,2.31,3.45,3.45,0,0,1-1.13,1.75,3,3,0,0,1,2.06.78,4.46,4.46,0,0,1,1.26,2.18,4.86,4.86,0,0,1-.28,4,5.63,5.63,0,0,1-3.46,2.3Zm.6-10.49,1.73-.49A1.82,1.82,0,0,0,202.32,80a2.42,2.42,0,0,0-.9-1.48,2,2,0,0,0-1.6-.06l-1.76.49Zm.69,2.41,1.25,4.38,2.12-.6a1.72,1.72,0,0,0,1.19-.94,2.48,2.48,0,0,0,0-1.69c-.42-1.48-1.17-2.08-2.25-1.81Z"/><path class="cls-3" d="M228.17,86l-3.36.75-3.1-13.85-4.94,1.11,3.1,13.85-3.36.75L212.77,72l11.67-2.61Z"/><path class="cls-3" d="M232.88,79,234,85l-3.39.61-3.06-16.78,5.72-1a5.33,5.33,0,0,1,4.25.83,5.6,5.6,0,0,1,2.21,3.74,5.28,5.28,0,0,1-.75,4.16,5.64,5.64,0,0,1-3.8,2.17Zm-.51-2.82,2.33-.43a1.88,1.88,0,0,0,1.38-.9,2.82,2.82,0,0,0,.19-1.94,3.39,3.39,0,0,0-.9-1.91,1.77,1.77,0,0,0-1.59-.49l-2.36.43Z"/><path class="cls-3" d="M254.57,74.62a8,8,0,0,1-.87,5.51,5.61,5.61,0,0,1-4.2,2.51,5.7,5.7,0,0,1-4.73-1.24,7.88,7.88,0,0,1-2.38-5l-.4-2.89a8.41,8.41,0,0,1,.84-5.67,6.18,6.18,0,0,1,8.92-1.29,8.25,8.25,0,0,1,2.41,5.16Zm-3.83-2.35A7.07,7.07,0,0,0,249.62,69a2.43,2.43,0,0,0-4,.53,6.7,6.7,0,0,0-.21,3.36l.42,3A6.38,6.38,0,0,0,246.91,79a2.26,2.26,0,0,0,2.19.76,2.19,2.19,0,0,0,1.84-1.3,6.24,6.24,0,0,0,.22-3.28Z"/><path class="cls-3" d="M265.76,66.23l-6.09.62.33,3.24,2-.21a5.74,5.74,0,0,1,4.25,1.05,5.17,5.17,0,0,1,1.92,3.76,5.4,5.4,0,0,1-1.09,4.1,5.51,5.51,0,0,1-3.8,1.95l-5.65.57-1.71-17,9.52-1Zm-5.47,6.7.52,5.19,2.08-.21a1.9,1.9,0,0,0,1.5-.91,3.12,3.12,0,0,0,.38-2,2.74,2.74,0,0,0-.74-1.74,1.94,1.94,0,0,0-1.64-.55Z"/><path class="cls-3" d="M274.93,72.81l-1.49.09.43,6.95-3.43.22-1.07-17,3.43-.22.43,6.81,1.16-.07,2.53-7,4.19-.26-3.67,8.19,5.21,8.81-4.1.26Z"/><path class="cls-3" d="M288.75,69.68,290.86,62l3.7-.1-4.33,13.83a6.93,6.93,0,0,1-1.65,2.84,3.44,3.44,0,0,1-2.18.85H286l-.82,0-.13-2.86a3.18,3.18,0,0,0,.76,0,1.44,1.44,0,0,0,1-.32,2.66,2.66,0,0,0,.55-1.33l.15-.62-5.18-12.1,3.69-.09Z"/><path class="cls-3" d="M187.94,756.53l-1.83,5.72-3.28-1L188,745l5.54,1.77a5.31,5.31,0,0,1,3.36,2.72,5.65,5.65,0,0,1,.19,4.35,5.25,5.25,0,0,1-2.62,3.32,5.63,5.63,0,0,1-4.37.12Zm.88-2.73,2.25.72a1.88,1.88,0,0,0,1.65-.15,2.87,2.87,0,0,0,1.08-1.62,3.44,3.44,0,0,0,.1-2.11,1.79,1.79,0,0,0-1.17-1.18l-2.29-.73Z"/><path class="cls-3" d="M202.93,763.66l-4.52-1.28-1.83,3.11-3.51-1,9.77-15,3,.86.52,17.88-3.54-1Zm-3-3.84,3.07.87.12-6.29Z"/><path class="cls-3" d="M220.88,757.17l-5.95-1.44-.76,3.17,2,.48a5.67,5.67,0,0,1,3.66,2.39,5.21,5.21,0,0,1,.58,4.19,5.26,5.26,0,0,1-6.62,4.09l-5.53-1.33,4-16.59,9.31,2.24Zm-7.38,4.51-1.23,5.07,2,.49a1.93,1.93,0,0,0,1.72-.36,3.09,3.09,0,0,0,1-1.76,2.73,2.73,0,0,0-.13-1.89,2,2,0,0,0-1.36-1.06Z"/><path class="cls-3" d="M234.5,767.32a8,8,0,0,1-2.64,4.91,6.31,6.31,0,0,1-8.84-1.75,7.8,7.8,0,0,1-.6-5.49l.57-2.86a8.42,8.42,0,0,1,2.67-5.07,6.17,6.17,0,0,1,8.85,1.73,8.31,8.31,0,0,1,.56,5.67Zm-2.83-3.48a7.07,7.07,0,0,0,0-3.5,2.42,2.42,0,0,0-4-.83,6.57,6.57,0,0,0-1.31,3.1l-.6,3a6.33,6.33,0,0,0,0,3.36,2.26,2.26,0,0,0,1.82,1.44,2.19,2.19,0,0,0,2.16-.62,6.14,6.14,0,0,0,1.29-3Z"/><path class="cls-3" d="M248.06,762.24l-4.16-.67-2.28,14-3.41-.56,2.28-14-4.1-.66.46-2.84,11.67,1.9Z"/><path class="cls-3" d="M255.18,773.93l-4.66-.59-1.35,3.35-3.61-.46L253,760l3.13.4L259.3,778l-3.65-.47Zm-3.56-3.34,3.16.4-.81-6.23Z"/><path class="cls-3" d="M274.79,762.19l-1.44,17-3.44-.29,1.19-14.14-3.15-.27-.74,6a20.73,20.73,0,0,1-1.07,4.66,5.1,5.1,0,0,1-1.77,2.43,4.33,4.33,0,0,1-2.82.6l-.84-.07.24-2.85h.4A1.9,1.9,0,0,0,263,774a16.29,16.29,0,0,0,1-4.47l.92-8.17Z"/><path class="cls-3" d="M294.11,780l-3.43-.1.19-7.29-5.08-.14-.2,7.3-3.44-.09.45-17.06,3.45.09-.19,6.9,5.09.14.18-6.9,3.43.09Z"/><path class="cls-3" d="M305.53,776.4l-4.7.07L300,780l-3.65.06,5.07-17.14,3.16,0,5.62,17-3.68,0Zm-4-2.82,3.18,0L303,767.48Z"/><path class="cls-3" d="M326.26,783.11l-3.16.19-.24-4.19-8.06.47.24,4.18-3.25.19-.6-7,1.13-.06a4.7,4.7,0,0,0,1.06-2.3,21.27,21.27,0,0,0,.37-4.05v-8l9.79-.57.84,14.18,1.76-.11ZM316,776.65l4.94-.29L320.29,765l-3.08.19v4.7A16.77,16.77,0,0,1,316,776.65Z"/><path class="cls-3" d="M348.16,780.72l-3.14.38-.5-4.16-8,1,.5,4.15-3.24.39-1-7,1.13-.14a4.8,4.8,0,0,0,.91-2.35,21,21,0,0,0,.13-4.06l-.47-8,9.73-1.17,1.69,14.1,1.76-.21Zm-10.62-5.83,4.92-.59-1.35-11.25-3.07.37.27,4.7A16.56,16.56,0,0,1,337.54,774.89Z"/><path class="cls-3" d="M357.58,767.49l-5.3.85.71,4.47,6.27-1,.45,2.83L350,776.17l-2.69-16.84,9.65-1.55.45,2.84-6.25,1,.64,4,5.3-.85Z"/><path class="cls-3" d="M376.23,775.67l-3.1.62-.83-4.12-7.91,1.59.82,4.1-3.19.64-1.57-6.87,1.11-.22a4.77,4.77,0,0,0,.73-2.41,20.89,20.89,0,0,0-.2-4.06L361,757l9.62-1.93L373.41,769l1.73-.35Zm-11-5,4.85-1-2.23-11.11-3,.61.65,4.66A16.82,16.82,0,0,1,365.19,770.68Z"/><path class="cls-3" d="M385.49,751.52l4.08,16.57-3.35.83-3.4-13.78-3.07.76,1.22,5.92a20.82,20.82,0,0,1,.48,4.77,5.07,5.07,0,0,1-.9,2.87,4.39,4.39,0,0,1-2.48,1.47l-.82.2-.68-2.78.38-.13a1.91,1.91,0,0,0,1.17-1.74,16.47,16.47,0,0,0-.52-4.55l-1.75-8Z"/><path class="cls-3" d="M399.66,761.57l-4.51,1.32.1,3.61-3.5,1,.33-17.87,3-.89L405,763.64l-3.53,1Zm-4.6-1.64,3.06-.9-3.24-5.39Z"/><path class="cls-3" d="M409.36,744.19l3.26-1.1,5.46,16.16-3.26,1.1-3.62-10.7L410.05,762l-3.27,1.11-5.46-16.16,3.27-1.11,3.62,10.71Zm0-4.77a3.15,3.15,0,0,1-.25,2.75,5,5,0,0,1-5.6,1.89,3.14,3.14,0,0,1-1.86-2l2.3-.78a1.44,1.44,0,0,0,.77.93,2,2,0,0,0,2.28-.77,1.44,1.44,0,0,0,0-1.21Z"/><path class="cls-3" d="M432.16,753.9l-3.2,1.23-2.63-6.81-4.75,1.83,2.63,6.81L421,758.2l-6.13-15.92,3.21-1.24,2.49,6.44,4.74-1.83-2.48-6.44L426,738Z"/><path class="cls-3" d="M441.31,746.18,437,748.06l.56,3.56-3.35,1.46L432.3,735.3l2.89-1.25,11.73,13.5L443.54,749Zm-4.77-1.06,2.93-1.27-3.89-4.94Z"/><path class="cls-3" d="M445.26,729.43l8.33,9.65L451,726.59l4-2,7.53,15.32-3.11,1.52-2-4.14-2.86-6.52,2.12,12-2.1,1-8.24-9,3.42,6.24,2,4.15-3.09,1.52-7.53-15.32Z"/><path class="cls-3" d="M464.47,719.43l3-1.66,8.24,14.94-3,1.66-5.45-9.89,1.05,12.32-3,1.67L457,723.53l3-1.67,5.46,9.9Z"/><path class="cls-4" d="M321.25,742l-4.83-42.38,13.09-1.5q6.64-.75,10.43,1.8t4.44,8.27a10.5,10.5,0,0,1-.8,5.72,8.41,8.41,0,0,1-3.51,3.85,7.45,7.45,0,0,1,4.77,2.78,11.26,11.26,0,0,1,2.24,5.89q.71,6.16-2.33,9.7t-9.47,4.27ZM327,716.38l4.45-.51c3.36-.39,4.84-2.31,4.44-5.79a6,6,0,0,0-1.63-4,5,5,0,0,0-3.93-.82l-4.54.52Zm.71,6.23L329,733.93l5.47-.63a4.29,4.29,0,0,0,3.33-1.82,6.21,6.21,0,0,0,.74-4.18q-.66-5.71-4.81-5.38Z"/><path class="cls-4" d="M378.83,714.25l-3.61,1L379.9,732l-8.29,2.32-11.49-41.08,8.3-2.32L373,707.36l2.79-.78,2.55-18.42,10.1-2.82-4.7,21.93,17.31,18.83-9.87,2.76Z"/><path class="cls-4" d="M426.73,696.9q3.24,8,1.27,13.87t-8.64,8.65q-6.64,2.72-12.22-.1t-8.82-10.62l-2.76-6.76q-3.31-8.13-1.41-14.25t8.61-8.83q6.6-2.7,12.22.25t9,11ZM416,693.54q-2.19-5.34-4.76-7.33a6.06,6.06,0,0,0-9.46,3.74c-.33,2.09.19,4.85,1.54,8.28l2.87,7c1.4,3.45,3,5.79,4.66,7a5.64,5.64,0,0,0,5.77.51,5.52,5.52,0,0,0,3.66-4.29c.36-2-.13-4.71-1.49-8.08Z"/><path class="cls-4" d="M445.87,657.88l20.68,37.31L459,699.38l-17.2-31-6.92,3.83,6.82,13.51A50.29,50.29,0,0,1,446,696.87a12.69,12.69,0,0,1-.29,7.51,10.89,10.89,0,0,1-5,5.17l-1.84,1-3.47-6.25.83-.56q2.2-1.59,1.68-5c-.34-2.26-1.74-5.8-4.21-10.65l-9.46-18.23Z"/><path class="cls-4" d="M481.65,662.25,470.7,670l6.54,9.23,13-9.18,4.13,5.83-20,14.16-24.67-34.8,19.94-14.13,4.15,5.86-12.91,9.15,5.83,8.22,10.95-7.76Z"/><path class="cls-4" d="M512.3,641.65q4.59,5.69,4.23,11T511,662.51q-5.43,4.79-11.46,3.76t-11.87-7.64l-4.75-5.39q-5.81-6.59-6-12.8t5.16-10.89q5.24-4.6,10.52-4.08t10.49,5.68l-6.48,5.71q-3.07-3.3-5.16-3.75c-1.4-.3-2.94.31-4.64,1.8s-2.43,3.21-2.08,5.05,1.72,4.17,4.12,7l5.32,6q4.2,4.77,6.84,5.61t5.23-1.44c1.7-1.5,2.51-2.94,2.42-4.34s-1-3.22-2.86-5.47Z"/><path class="cls-4" d="M528.28,618.16,519.2,628l8.33,7.65L538.27,624l5.26,4.84-16.57,18L495.55,618l16.53-18,5.29,4.86-10.7,11.65,7.42,6.82,9.08-9.88Z"/><path class="cls-3" d="M74.58,239.24l-1.93,2.5-3.32-2.56-4.94,6.38,3.31,2.56-2,2.58L60,246.54l.7-.9a4.79,4.79,0,0,0-1-2.3,20.88,20.88,0,0,0-2.81-2.94l-6-5.25,6-7.75,11.24,8.68,1.08-1.4ZM63,242.71l3-3.91-9-6.93-1.89,2.44,3.55,3.1A16.89,16.89,0,0,1,63,242.71Z"/><path class="cls-3" d="M75.09,226.82,72,230.39l2.06,3-2.37,2.77L62.23,221l2.05-2.4,16.45,7-2.39,2.79ZM70.34,228l2.07-2.42-5.65-2.74Z"/><path class="cls-3" d="M81.56,224.73,69.13,213.05l3.61-3.85a6.1,6.1,0,0,1,3.64-2.14,4.38,4.38,0,0,1,3.5,1.37,4.21,4.21,0,0,1,1.23,2,3.36,3.36,0,0,1-.07,2.08,3,3,0,0,1,2.17-.39,4.54,4.54,0,0,1,2.21,1.22,4.88,4.88,0,0,1,1.79,3.57,5.54,5.54,0,0,1-1.78,3.74Zm-4.87-9.31,1.22-1.3a1.83,1.83,0,0,0-.14-2.92,2.43,2.43,0,0,0-1.53-.8,2,2,0,0,0-1.41.77l-1.25,1.33Zm1.82,1.72,3.33,3.12,1.51-1.6a1.74,1.74,0,0,0,.54-1.42,2.48,2.48,0,0,0-.86-1.47c-1.11-1.05-2.07-1.18-2.85-.4Z"/><path class="cls-3" d="M89.26,206.78l-1.08,1.05,4.86,5-2.47,2.4L78.67,203l2.47-2.4,4.76,4.89.83-.81-2.63-7,3-2.92,2.55,8.6,9.69,3.3-2.94,2.86Z"/><path class="cls-3" d="M103.79,198.08l-3.52,3.12,1.64,3.22-2.73,2.42-7.33-16.31,2.36-2.09,15.33,9.21-2.75,2.44Zm-4.86.47,2.39-2.11-5.23-3.5Z"/><path class="cls-3" d="M114.63,193.5,104.16,180l4.17-3.23a6.1,6.1,0,0,1,3.94-1.55,4.33,4.33,0,0,1,3.23,1.9,4.22,4.22,0,0,1,.92,2.12,3.39,3.39,0,0,1-.4,2.05,3,3,0,0,1,2.21,0,4.52,4.52,0,0,1,2,1.54,4.9,4.9,0,0,1,1.22,3.8,5.67,5.67,0,0,1-2.35,3.43Zm-3.37-9.95,1.42-1.1a1.82,1.82,0,0,0,.31-2.9,2.41,2.41,0,0,0-1.39-1,2,2,0,0,0-1.51.54l-1.44,1.12Zm1.54,2,2.8,3.6,1.73-1.35a1.71,1.71,0,0,0,.76-1.32,2.44,2.44,0,0,0-.62-1.58c-.93-1.21-1.85-1.49-2.75-.84Z"/><path class="cls-3" d="M123.54,165.69l9.53,8.48-4.18-12,3.74-2.5,9.47,14.19-2.87,1.92-2.57-3.84L133,165.8l3.67,11.65-2,1.3-9.34-7.86,4.21,5.74,2.56,3.84-2.87,1.91-9.47-14.19Z"/><path class="cls-3" d="M147.92,161.77l-4.61,2.75,2.32,3.88,5.46-3.25,1.46,2.45-8.41,5L135.39,158l8.4-5,1.47,2.47-5.44,3.24,2.07,3.46,4.61-2.75Z"/><path class="cls-3" d="M157.14,149l-3.71,2,6.75,12.48-3.05,1.64-6.75-12.48-3.65,2-1.36-2.52,10.4-5.63Z"/><path class="cls-3" d="M165.8,153.81l2.61,5.4-3.1,1.5-7.44-15.35,5.23-2.54a5.34,5.34,0,0,1,4.32-.34,5.61,5.61,0,0,1,3.13,3,5.27,5.27,0,0,1,.39,4.21,5.63,5.63,0,0,1-3.08,3.11Zm-1.26-2.58,2.13-1a1.93,1.93,0,0,0,1.1-1.25,2.88,2.88,0,0,0-.34-1.92,3.34,3.34,0,0,0-1.38-1.59,1.77,1.77,0,0,0-1.66-.05l-2.17,1.05Z"/><path class="cls-3" d="M185.55,143.82a7.94,7.94,0,0,1,.6,5.54,6.31,6.31,0,0,1-8.28,3.56,7.82,7.82,0,0,1-3.6-4.19l-1.15-2.68a8.4,8.4,0,0,1-.66-5.69,6.16,6.16,0,0,1,8.27-3.57,8.29,8.29,0,0,1,3.67,4.35Zm-4.31-1.27a7,7,0,0,0-2-2.9,2.42,2.42,0,0,0-3.75,1.56,6.57,6.57,0,0,0,.67,3.3l1.19,2.79a6.35,6.35,0,0,0,1.91,2.77,2.28,2.28,0,0,0,2.32.17,2.23,2.23,0,0,0,1.43-1.74,6.26,6.26,0,0,0-.65-3.22Z"/><path class="cls-3" d="M94.05,630.27l-12.13,12-2.43-2.45,4.58-4.52a11.73,11.73,0,0,1-2-1.62,5.89,5.89,0,0,1-2-4,5.59,5.59,0,0,1,1.81-3.94l3.9-3.84,2.43,2.46-3.76,3.71a3.54,3.54,0,0,0-1.17,1.87,2.18,2.18,0,0,0,.82,1.74,10.87,10.87,0,0,0,2,1.62l5.53-5.46Z"/><path class="cls-3" d="M92.74,647.56l-3.47-3.18-3,2-2.69-2.46,15.47-9,2.32,2.13-7.58,16.21-2.71-2.49Zm-1-4.79,2.35,2.16,2.93-5.56Z"/><path class="cls-3" d="M107.59,657.4a6.35,6.35,0,0,1-4.09,2.34,5.79,5.79,0,0,1-4.23-1.59,5.35,5.35,0,0,1-2.18-4.3,8.4,8.4,0,0,1,2.3-5.16l1.84-2.2a8.28,8.28,0,0,1,4.7-3.14,6.32,6.32,0,0,1,6.87,5.3,7.1,7.1,0,0,1-1.61,4.49l-2.65-2.22a4.54,4.54,0,0,0,1.17-2.27,2.2,2.2,0,0,0-1-1.72,2.09,2.09,0,0,0-2.12-.51,6.64,6.64,0,0,0-2.51,2L102,650.94a7.47,7.47,0,0,0-1.81,3,2.09,2.09,0,0,0,.89,2,2.26,2.26,0,0,0,1.87.69,4.3,4.3,0,0,0,2-1.46Z"/><path class="cls-3" d="M120.09,673.89l-2.78-2,8.37-11.46-4.09-3-8.37,11.46-2.78-2,10.06-13.77,9.66,7.05Z"/><path class="cls-3" d="M139.09,666.06,142,668l-9.39,14.25-2.87-1.9,6.21-9.43-10.41,6.67-2.89-1.91L132,661.4l2.88,1.9-6.22,9.44Z"/><path class="cls-3" d="M143.08,680.42l-1.29-.77-3.55,6-3-1.75L144,669.2l3,1.76-3.48,5.87,1,.59,6-4.35,3.6,2.14-7.64,4.7-.66,10.21L142.27,688Z"/><path class="cls-3" d="M43.62,413.36a2.16,2.16,0,0,0-1.52.49,1.84,1.84,0,0,0-.59,1.4,1.63,1.63,0,0,0,.52,1.29,2.08,2.08,0,0,0,1.43.54l-.08,3.44a4.59,4.59,0,0,1-4.18-2.67,5.82,5.82,0,0,1-.55-2.67A5.74,5.74,0,0,1,40,411.25a4.54,4.54,0,0,1,3.61-1.34,4,4,0,0,1,2.13.64,4.25,4.25,0,0,1,1.49,1.65,3.87,3.87,0,0,1,1.54-1.77,4.54,4.54,0,0,1,2.5-.57,4.6,4.6,0,0,1,3.62,1.61,6,6,0,0,1,1.26,4.11,6.44,6.44,0,0,1-.67,2.78,4.5,4.5,0,0,1-1.75,1.91,4.89,4.89,0,0,1-2.66.64l.07-3.46a2.22,2.22,0,0,0,1.52-.52,1.8,1.8,0,0,0,.65-1.41,2.07,2.07,0,0,0-.59-1.59,2.24,2.24,0,0,0-1.59-.62,2.91,2.91,0,0,0-1.91.46,1.83,1.83,0,0,0-.6,1.45l0,1.75-2.78-.06,0-1.76C45.87,414,45.12,413.4,43.62,413.36Z"/><path class="cls-3" d="M53.29,399.54l-.36,4.69,3.41,1.18L56.06,409l-16.6-6.62.24-3.14,17.42-4-.28,3.67Zm-3.16,3.72.24-3.18-6.19,1.13Z"/><path class="cls-3" d="M44.47,382.77l-.8,6.06,3.23.43.27-2a5.69,5.69,0,0,1,2-3.9,5.21,5.21,0,0,1,4.09-1A5.26,5.26,0,0,1,58,388.48l-.74,5.64-16.92-2.23,1.25-9.5Zm5.27,6.86,5.17.69.27-2.07a1.87,1.87,0,0,0-.54-1.67,3,3,0,0,0-1.85-.83,2.78,2.78,0,0,0-1.87.32,2,2,0,0,0-.91,1.47Z"/><path class="cls-3" d="M48.86,376.11l.4-2a5.71,5.71,0,0,1,2.24-3.76,5.22,5.22,0,0,1,4.15-.75,5.41,5.41,0,0,1,3.6,2.24A5.47,5.47,0,0,1,60,376l-1.09,5.57-16.75-3.28.67-3.4Zm13-9.7-.66,3.38-16.74-3.28.66-3.39ZM51.67,376.67l5.12,1,.4-2.05a1.89,1.89,0,0,0-.44-1.7A3,3,0,0,0,55,373a2.67,2.67,0,0,0-1.88.21,1.92,1.92,0,0,0-1,1.41Z"/><path class="cls-3" d="M49.12,348.12l16.48,4.41-.89,3.34L51,352.2l-.82,3.06L56,357.05a20.3,20.3,0,0,1,4.41,1.87,5.14,5.14,0,0,1,2.08,2.17,4.36,4.36,0,0,1,.09,2.88l-.22.82-2.76-.74.07-.4a1.91,1.91,0,0,0-1-1.86,16.33,16.33,0,0,0-4.24-1.74l-7.88-2.34Z"/><path class="cls-3" d="M76.41,333.82l-1.07,3-3.94-1.42L68.67,343l3.93,1.41-1.1,3.07-6.69-2.2.39-1.07a4.75,4.75,0,0,0-1.7-1.87,20.28,20.28,0,0,0-3.58-1.93l-7.32-3.14L55.91,328l13.37,4.79.6-1.66Zm-10,6.88,1.67-4.65-10.67-3.83-1,2.91L60.74,337A17,17,0,0,1,66.45,340.7Z"/><path class="cls-3" d="M71.26,317.43A8,8,0,0,1,75.53,321a6.33,6.33,0,0,1-3.53,8.3,7.88,7.88,0,0,1-5.5-.54l-2.69-1.15a8.36,8.36,0,0,1-4.4-3.66,6.17,6.17,0,0,1,3.51-8.3,8.34,8.34,0,0,1,5.66.61Zm-4,2.06a6.91,6.91,0,0,0-3.41-.75,2.42,2.42,0,0,0-1.64,3.72A6.59,6.59,0,0,0,65,324.38l2.79,1.2a6.41,6.41,0,0,0,3.29.68,2.26,2.26,0,0,0,1.79-1.48,2.2,2.2,0,0,0-.17-2.25A6.24,6.24,0,0,0,70,320.65Z"/><path class="cls-3" d="M65.29,306.67l12.46,2.72-9.54-8.45,2-4,15.22,7.73-1.57,3.08-4.12-2.09-6.2-3.5,8.92,8.35-1.06,2.09-12-2.27,6.49,2.94L80,315.34l-1.56,3.07-15.22-7.73Z"/><path class="cls-3" d="M87.82,293.8l-2.4,4L88,300.41l-1.86,3.13L74.15,290.25l1.61-2.72,17.41,4.1-1.88,3.17Zm-4.48,1.93L85,293l-6-1.74Z"/><path class="cls-3" d="M93.91,278.16l-.86,1.22,5.69,4-2,2.82-14-9.83,2-2.81,5.58,3.92.67-.94-3.87-6.36,2.41-3.42,4.1,8,10.12,1.46-2.36,3.35Z"/><path class="cls-3" d="M106.05,262.09a8,8,0,0,1,3.18,4.58,6.33,6.33,0,0,1-5.58,7.09,7.82,7.82,0,0,1-5.16-2L96.2,270a8.44,8.44,0,0,1-3.3-4.68,6.16,6.16,0,0,1,5.55-7.1,8.25,8.25,0,0,1,5.31,2.07Zm-4.39,1a7,7,0,0,0-3.1-1.62A2.42,2.42,0,0,0,96,264.59a6.64,6.64,0,0,0,2.17,2.58l2.38,1.88a6.39,6.39,0,0,0,3,1.52,2.28,2.28,0,0,0,2.11-1,2.22,2.22,0,0,0,.43-2.22,6.29,6.29,0,0,0-2.11-2.52Z"/><path class="cls-3" d="M102.38,250.91l10.52,9.54,2.33-2.57-10.52-9.54,2.31-2.55,10.52,9.54,2.3-2.53-10.52-9.54,2.32-2.56,12.63,11.47-11.58,12.77-12.64-11.47Z"/><path class="cls-3" d="M127.08,239.23,123.23,243l3.15,3.25,4.55-4.43,2,2.05-7,6.83L114,238.43l7-6.81,2,2.06-4.54,4.41,2.81,2.89,3.85-3.74Z"/><path class="cls-3" d="M131.82,222.07,143,234.92l-2.6,2.27-9.34-10.68-2.38,2.08,3.8,4.71a20.13,20.13,0,0,1,2.61,4,5,5,0,0,1,.52,3,4.32,4.32,0,0,1-1.53,2.45l-.63.55-1.88-2.15.27-.29a1.87,1.87,0,0,0,.24-2.08,16.06,16.06,0,0,0-2.54-3.81l-5.24-6.34Z"/><path class="cls-3" d="M133.23,217.6a1.37,1.37,0,0,1-.28-1.13,1.63,1.63,0,0,1,.64-1.05,1.67,1.67,0,0,1,1.17-.38,1.39,1.39,0,0,1,1,.55,1.36,1.36,0,0,1,.27,1.12,1.63,1.63,0,0,1-.64,1,1.67,1.67,0,0,1-1.17.38A1.37,1.37,0,0,1,133.23,217.6Zm14,4.61L143,225.53l2.79,3.55,5-3.92,1.77,2.25-7.71,6.05L134.33,220l7.69-6,1.77,2.26-5,3.91,2.49,3.17,4.22-3.31Zm-9.5-8.15a1.36,1.36,0,0,1-.28-1.12,1.69,1.69,0,0,1,.65-1.05,1.64,1.64,0,0,1,1.17-.38,1.37,1.37,0,0,1,1,.54,1.39,1.39,0,0,1,.29,1.1,1.79,1.79,0,0,1-1.85,1.45A1.38,1.38,0,0,1,137.74,214.06Z"/><path class="cls-3" d="M153.86,217.92l-1.22.87,4,5.68-2.82,2L144,212.53l2.81-2,3.94,5.57.94-.67-1.51-7.28,3.43-2.42,1.17,8.89,9.05,4.77-3.35,2.37Z"/><path class="cls-3" d="M78.8,559.55,77,556.6l12.15-7.32-2.61-4.34-12.15,7.32-1.78-3,14.61-8.8,6.17,10.24Z"/><path class="cls-3" d="M87.48,561.76l-5,3.38-2-2.85,14.1-9.61,3.27,4.8a5.33,5.33,0,0,1,1,4.22,5.64,5.64,0,0,1-2.52,3.54,5.26,5.26,0,0,1-4.11,1,5.62,5.62,0,0,1-3.52-2.58Zm2.37-1.62,1.34,2a1.87,1.87,0,0,0,1.39.9,2.89,2.89,0,0,0,1.85-.61,3.44,3.44,0,0,0,1.37-1.6,1.78,1.78,0,0,0-.2-1.66l-1.35-2Z"/><path class="cls-3" d="M101.48,579.18a7.9,7.9,0,0,1-5.22,2A5.6,5.6,0,0,1,92,578.73,5.69,5.69,0,0,1,90.76,574a7.77,7.77,0,0,1,3.16-4.52l2.31-1.78a8.39,8.39,0,0,1,5.35-2.05,6.17,6.17,0,0,1,5.52,7.12,8.27,8.27,0,0,1-3.31,4.64Zm.16-4.48a7,7,0,0,0,2.32-2.61,2.19,2.19,0,0,0-.34-2.3,2.21,2.21,0,0,0-2.1-.95,6.59,6.59,0,0,0-3,1.47l-2.41,1.85a6.23,6.23,0,0,0-2.2,2.54,2.49,2.49,0,0,0,2.45,3.24,6.26,6.26,0,0,0,3-1.43Z"/><path class="cls-3" d="M109.67,590.78a6.36,6.36,0,0,1-4.42,1.64,5.78,5.78,0,0,1-3.92-2.25,5.37,5.37,0,0,1-1.45-4.6,8.46,8.46,0,0,1,3.11-4.72l2.17-1.87a8.21,8.21,0,0,1,5.15-2.33,5.44,5.44,0,0,1,4.33,2.11,5.52,5.52,0,0,1,1.59,4.23,7.09,7.09,0,0,1-2.32,4.17l-2.26-2.62a4.66,4.66,0,0,0,1.53-2,2.21,2.21,0,0,0-.7-1.86,2.08,2.08,0,0,0-2-.85,6.77,6.77,0,0,0-2.81,1.61l-2.44,2.1a7.34,7.34,0,0,0-2.28,2.72,2.07,2.07,0,0,0,.56,2.09,2.23,2.23,0,0,0,1.72,1,4.39,4.39,0,0,0,2.2-1.12Z"/><path class="cls-3" d="M115.45,605l-2.39-2.47,10.21-9.86-3.52-3.64-10.21,9.85-2.39-2.47,12.28-11.86,8.3,8.6Z"/><path class="cls-3" d="M126.15,610.28l-3.45-3.18-3,1.94L117,606.57l15.49-8.92,2.31,2.14L127.16,616l-2.71-2.5Zm-1-4.78,2.35,2.16,3-5.55Z"/><path class="cls-3" d="M149,611.84,138.16,625l-2.68-2.2,9-11-2.45-2-4,4.53a20.29,20.29,0,0,1-3.53,3.24,5,5,0,0,1-2.83,1,4.34,4.34,0,0,1-2.66-1.1l-.66-.54,1.82-2.21.33.22a1.89,1.89,0,0,0,2.09-.1,16.54,16.54,0,0,0,3.34-3.14l5.38-6.21Z"/><path class="cls-3" d="M161.29,624.26l-5-3.51-1.87,2.68,1.67,1.16a5.68,5.68,0,0,1,2.54,3.57,5.17,5.17,0,0,1-1,4.1,5.4,5.4,0,0,1-3.5,2.4,5.47,5.47,0,0,1-4.15-1l-4.66-3.25,9.76-14,7.85,5.48Zm-8.52,1.51-3,4.28,1.71,1.19a1.89,1.89,0,0,0,1.74.29,3.08,3.08,0,0,0,1.58-1.26,2.72,2.72,0,0,0,.57-1.81,1.92,1.92,0,0,0-.89-1.48Z"/><path class="cls-3" d="M165.89,632.79l6-5.21,3.15,1.95-11.23,9.17a6.86,6.86,0,0,1-2.93,1.46,3.46,3.46,0,0,1-2.3-.49l-.32-.2-.67-.47,1.46-2.46a3.31,3.31,0,0,0,.62.45,1.46,1.46,0,0,0,1,.27,2.73,2.73,0,0,0,1.19-.81l.46-.44,2.33-13,3.14,2Z"/><path class="cls-3" d="M177.06,655l-2.77-1.52,2-3.68-7.07-3.89-2,3.66L164.36,648l3.24-6.26,1,.55a4.73,4.73,0,0,0,2.11-1.38,20.22,20.22,0,0,0,2.48-3.23l4.26-6.74,8.59,4.74-6.85,12.44,1.55.85ZM171.84,644l4.33,2.39,5.47-9.93L178.93,635l-2.52,4A16.67,16.67,0,0,1,171.84,644Z"/><path class="cls-3" d="M196.27,640.6l3.12,1.48-7.31,15.41L189,656l4.83-10.21-9.38,8.06-3.12-1.49L188.61,637l3.12,1.48-4.84,10.22Z"/><path class="cls-3" d="M212.71,647.53l-6.38,15.82-3.21-1.29,5.31-13.16-2.93-1.19L203,653.24a20.35,20.35,0,0,1-2.4,4.14,5.08,5.08,0,0,1-2.41,1.8,4.33,4.33,0,0,1-2.87-.26l-.78-.31,1.07-2.65.38.11a1.89,1.89,0,0,0,2-.73,16.61,16.61,0,0,0,2.25-4l3.27-7.54Z"/><path class="cls-3" d="M216.18,655.22l1.93.65a5.74,5.74,0,0,1,3.44,2.72,5.24,5.24,0,0,1,.19,4.22,5.39,5.39,0,0,1-2.7,3.27,5.46,5.46,0,0,1-4.26.21l-5.38-1.83,5.47-16.16,3.28,1.11Zm-.92,2.71-1.67,4.94,2,.67a1.93,1.93,0,0,0,1.75-.21,3,3,0,0,0,1.17-1.65,2.83,2.83,0,0,0,.05-1.9,2,2,0,0,0-1.27-1.18Z"/><path class="cls-3" d="M233.88,672l-3.31-.91,2-7-4.91-1.36-2,7-3.32-.93,4.57-16.44,3.32.92-1.85,6.66,4.9,1.36,1.85-6.66,3.31.92Z"/><path class="cls-3" d="M248.82,657.84l3.37.73-3.59,16.68-3.37-.73,2.38-11-7.29,10-3.38-.73,3.58-16.68,3.38.73-2.37,11.05Z"/><path class="cls-3" d="M257.75,669.71l-1.48-.23-1.08,6.88-3.4-.54L254.43,659l3.41.53-1.06,6.74,1.15.18,4-6.28,4.15.65L260.7,668l3.18,9.73-4.06-.64Z"/><path class="cls-4" d="M416.31,645.88,413,647.65,421.2,663l-7.6,4.06-20.09-37.64,7.6-4,8,15L411.7,639l-1.49-18.53,9.25-4.93.15,22.43,21,14.64-9.05,4.83Z"/><path class="cls-4" d="M457.06,630.15l-9.5,6.92,3.3,8.4-7.37,5.36-14.34-42.32,6.37-4.64,36,26.58-7.43,5.41Zm-12.21,0,6.44-4.69-12.17-9.94Z"/><path class="cls-4" d="M473.5,604.59l-2.69,2.61,12.09,12.51-6.2,6L447.06,595l6.2-6,11.85,12.26,2.08-2-6.52-17.41,7.55-7.28,6.3,21.53,24.18,8.33-7.37,7.12Z"/><path class="cls-4" d="M496.94,548.19l-8.82,12.49,6.65,4.7,2.94-4.16q3.74-5.29,9-6.3a12.94,12.94,0,0,1,10.24,2.54,13.45,13.45,0,0,1,5.94,8.78,13.72,13.72,0,0,1-2.54,10.37l-8.19,11.6L477.27,563.6l13.81-19.55Zm3.67,21.32L511.25,577l3-4.26a4.73,4.73,0,0,0,.75-4.33,7.68,7.68,0,0,0-3.12-4,7,7,0,0,0-4.52-1.46,4.91,4.91,0,0,0-3.72,2.2Z"/><path class="cls-4" d="M526.08,530.75l-6.32,11.84,10,5.33,7.49-14,6.3,3.37L532,558.88l-37.62-20.1,11.52-21.55,6.33,3.38-7.46,14,8.89,4.74L520,527.48Z"/><path class="cls-4" d="M517.37,487.24l40,14.93-3,8.1-33.24-12.42-2.77,7.41,14,5.84a50.41,50.41,0,0,1,10.51,5.72,12.78,12.78,0,0,1,4.66,5.9,10.86,10.86,0,0,1-.47,7.2l-.74,2-6.69-2.5.26-1q.65-2.64-1.94-4.88t-10.12-5.36l-19-7.71Z"/><path class="cls-4" d="M545.72,476.69l-.8,3.66,17,3.73-1.85,8.41-41.67-9.12,1.85-8.41,16.65,3.64.62-2.83-15.07-10.89,2.24-10.24,17.18,14.43,24.74-6.46-2.19,10Z"/><path class="cls-4" d="M560.17,435.46l-.89,11.71,8.53,2.94-.69,9.09L525.6,442.66l.6-7.86,43.55-10.13-.7,9.17Zm-7.9,9.29.6-7.94-15.46,2.81Z"/><path class="cls-3" d="M89.27,436.54l-.16-3.43,7.3-.34-.24-5.08-7.3.34-.16-3.44,17.05-.8.16,3.44-6.9.33.24,5.08,6.9-.33.16,3.43Z"/><path class="cls-3" d="M97.91,447.78l-.6-5.34-4.5.51.72,6.31-2.84.33-1.1-9.74,17-1.92,1.1,9.71-2.85.33-.71-6.29-4,.45.6,5.33Z"/><path class="cls-3" d="M89.36,466.34l-.57-3.11,4.13-.76-1.46-7.94-4.11.76-.59-3.21,6.89-1.45.21,1.11a4.69,4.69,0,0,0,2.4.77,21,21,0,0,0,4.07-.13l7.91-1,1.77,9.65-14,2.56.32,1.74Zm5.17-10.95.89,4.86,11.14-2-.55-3-4.68.57A16.84,16.84,0,0,1,94.53,455.39Z"/><path class="cls-3" d="M103.86,477.81a7.91,7.91,0,0,1-5.56-.22,5.63,5.63,0,0,1-3-3.88,5.71,5.71,0,0,1,.68-4.84,7.81,7.81,0,0,1,4.68-2.94l2.82-.74a8.47,8.47,0,0,1,5.73.19,6.16,6.16,0,0,1,2.3,8.71,8.26,8.26,0,0,1-4.84,3Zm1.9-4.06a7.09,7.09,0,0,0,3.16-1.5,2.43,2.43,0,0,0-1-3.95,6.64,6.64,0,0,0-3.36.18l-2.94.76a6.46,6.46,0,0,0-3,1.48,2.25,2.25,0,0,0-.5,2.26,2.22,2.22,0,0,0,1.51,1.68,6.19,6.19,0,0,0,3.28-.16Z"/><path class="cls-3" d="M107.07,491.65a6.41,6.41,0,0,1-4.71-.14A5.8,5.8,0,0,1,99.58,488a5.37,5.37,0,0,1,.39-4.82,8.39,8.39,0,0,1,4.65-3.19l2.72-.92a8.23,8.23,0,0,1,5.65-.22,6.29,6.29,0,0,1,3.09,8.1,7,7,0,0,1-3.72,3l-1.1-3.27a4.59,4.59,0,0,0,2.18-1.33,2.2,2.2,0,0,0,.06-2,2.1,2.1,0,0,0-1.55-1.54,6.68,6.68,0,0,0-3.2.44l-3.06,1a7.44,7.44,0,0,0-3.13,1.65,2.07,2.07,0,0,0-.27,2.15,2.27,2.27,0,0,0,1.22,1.57,4.46,4.46,0,0,0,2.46-.21Z"/><path class="cls-3" d="M114.05,495l.81,1.88a5.7,5.7,0,0,1,.27,4.37,5.22,5.22,0,0,1-3,3,5.42,5.42,0,0,1-4.24.18,5.49,5.49,0,0,1-3-3l-2.24-5.22,15.69-6.72,1.36,3.18Zm-2.62,1.13-4.8,2,.82,1.92a1.91,1.91,0,0,0,1.32,1.16,3.07,3.07,0,0,0,2-.23,2.74,2.74,0,0,0,1.45-1.24,2,2,0,0,0,0-1.72Zm-2.69,14.24-1.35-3.17,15.68-6.72,1.36,3.17Z"/><path class="cls-3" d="M115.91,524.08,114.29,521l12.55-6.64-2.37-4.47-12.54,6.64-1.62-3,15.08-8L131,516.09Z"/><path class="cls-3" d="M118.13,344.08l-1.79,4.35,2.88,2.18-1.4,3.36-13.73-11.44,1.2-2.91,17.82,1.55-1.4,3.4ZM114,346.64l1.22-2.95-6.23-.85Z"/><path class="cls-3" d="M123.58,340.27l-15.27-7.6,2.35-4.72a6.06,6.06,0,0,1,2.87-3.1,4.3,4.3,0,0,1,3.74.31,4.22,4.22,0,0,1,1.75,1.51,3.34,3.34,0,0,1,.52,2,3,3,0,0,1,2-1,4.51,4.51,0,0,1,2.47.53,4.88,4.88,0,0,1,2.75,2.89,5.63,5.63,0,0,1-.63,4.11Zm-7.35-7.5.8-1.61a1.82,1.82,0,0,0-1-2.75,2.41,2.41,0,0,0-1.69-.32,2,2,0,0,0-1.13,1.14l-.82,1.64Zm2.25,1.11,4.08,2,1-2a1.73,1.73,0,0,0,.11-1.51,2.48,2.48,0,0,0-1.24-1.16c-1.37-.68-2.33-.53-2.85.44Z"/><path class="cls-3" d="M122.54,312.34,120.42,316l12.27,7.14-1.74,3L118.68,319l-2.08,3.59-2.48-1.44,5.94-10.23Z"/><path class="cls-3" d="M136.3,304.71a7.91,7.91,0,0,1,3.51,4.33,6.33,6.33,0,0,1-5,7.48,7.87,7.87,0,0,1-5.3-1.57l-2.42-1.63a8.47,8.47,0,0,1-3.64-4.43,6.17,6.17,0,0,1,5-7.48,8.24,8.24,0,0,1,5.44,1.66ZM132,306a7.09,7.09,0,0,0-3.22-1.38,2.43,2.43,0,0,0-2.31,3.35,6.68,6.68,0,0,0,2.36,2.41l2.51,1.7a6.32,6.32,0,0,0,3.11,1.29,2.25,2.25,0,0,0,2-1.11,2.21,2.21,0,0,0,.26-2.24,6.16,6.16,0,0,0-2.29-2.36Z"/><path class="cls-3" d="M138,290.83l-3.77,4.82,2.57,2,1.25-1.61a5.72,5.72,0,0,1,3.7-2.34,5.22,5.22,0,0,1,4.05,1.21,5.44,5.44,0,0,1,2.2,3.63,5.5,5.5,0,0,1-1.22,4.09l-3.5,4.48-13.44-10.51,5.9-7.54Zm1.05,8.59,4.11,3.21,1.28-1.64a1.88,1.88,0,0,0,.39-1.72,3.14,3.14,0,0,0-1.17-1.65,2.78,2.78,0,0,0-1.78-.66,2,2,0,0,0-1.53.8Z"/><path class="cls-3" d="M147.41,287.08l-4.13-6.76,2.47-2.76,7.12,12.61a7.09,7.09,0,0,1,.95,3.15,3.54,3.54,0,0,1-.88,2.18l-.25.28-.58.58-2.17-1.86a4,4,0,0,0,.54-.54,1.45,1.45,0,0,0,.44-.93,2.77,2.77,0,0,0-.59-1.31l-.36-.53-12.37-4.5,2.46-2.76Z"/><path class="cls-3" d="M163.44,276.06a6.32,6.32,0,0,1,1.93,4.3,5.81,5.81,0,0,1-2,4.06,5.41,5.41,0,0,1-4.5,1.75,8.43,8.43,0,0,1-4.9-2.8l-2-2a8.26,8.26,0,0,1-2.66-5,6.3,6.3,0,0,1,5.94-6.32,7.16,7.16,0,0,1,4.31,2l-2.47,2.42a4.62,4.62,0,0,0-2.14-1.38,2.16,2.16,0,0,0-1.81.82,2.08,2.08,0,0,0-.72,2.06,6.77,6.77,0,0,0,1.8,2.7l2.26,2.3a7.46,7.46,0,0,0,2.85,2.09,2.12,2.12,0,0,0,2.06-.69,2.29,2.29,0,0,0,.87-1.79,4.45,4.45,0,0,0-1.26-2.12Z"/><path class="cls-3" d="M177.48,262.61a8,8,0,0,1,2.07,5.18,6.34,6.34,0,0,1-7,5.64,7.81,7.81,0,0,1-4.59-3.07l-1.83-2.28a8.38,8.38,0,0,1-2.15-5.3,6.15,6.15,0,0,1,7-5.66,8.31,8.31,0,0,1,4.7,3.21Zm-4.48-.07a6.9,6.9,0,0,0-2.66-2.27,2.18,2.18,0,0,0-2.3.39,2.21,2.21,0,0,0-.9,2.11,6.64,6.64,0,0,0,1.53,3l1.9,2.37a6.26,6.26,0,0,0,2.58,2.16,2.25,2.25,0,0,0,2.27-.46,2.21,2.21,0,0,0,.92-2.06,6.26,6.26,0,0,0-1.49-2.93Z"/><path class="cls-3" d="M193.21,260l-2.83,2-8.11-11.65-4.16,2.9,8.12,11.64-2.83,2-9.75-14,9.8-6.83Z"/><path class="cls-3" d="M201.76,246.74a8,8,0,0,1,1.33,5.41,6.34,6.34,0,0,1-7.75,4.62,7.87,7.87,0,0,1-4.12-3.68l-1.49-2.51a8.44,8.44,0,0,1-1.4-5.55,6.16,6.16,0,0,1,7.73-4.63,8.24,8.24,0,0,1,4.21,3.83Zm-4.43-.7a7,7,0,0,0-2.32-2.61,2.18,2.18,0,0,0-2.33.07,2.22,2.22,0,0,0-1.19,2,6.76,6.76,0,0,0,1.1,3.18l1.55,2.61a6.47,6.47,0,0,0,2.26,2.5,2.27,2.27,0,0,0,2.32-.15,2.18,2.18,0,0,0,1.19-1.91,6.23,6.23,0,0,0-1.07-3.11Z"/><path class="cls-3" d="M207.55,237.75a2.14,2.14,0,0,0-1.14-1.1,1.84,1.84,0,0,0-1.51.13,1.65,1.65,0,0,0-.9,1.07,2,2,0,0,0,.2,1.51l-3.07,1.55a4.69,4.69,0,0,1-.53-2.56,4.62,4.62,0,0,1,.92-2.38,5.66,5.66,0,0,1,2.09-1.74,5.75,5.75,0,0,1,4.11-.65,4.54,4.54,0,0,1,2.89,2.56,4,4,0,0,1,.43,2.17,4.19,4.19,0,0,1-.76,2.1,3.75,3.75,0,0,1,2.28.52,4.59,4.59,0,0,1,1.69,1.94,4.67,4.67,0,0,1,.28,4,6,6,0,0,1-3,3,6.32,6.32,0,0,1-2.76.73,4.57,4.57,0,0,1-2.51-.65,4.92,4.92,0,0,1-1.82-2.06l3.09-1.55a2.15,2.15,0,0,0,1.17,1.09,1.77,1.77,0,0,0,1.55-.09,2.05,2.05,0,0,0,1.13-1.26,2.29,2.29,0,0,0-.2-1.7,2.93,2.93,0,0,0-1.31-1.47,1.83,1.83,0,0,0-1.56.15l-1.56.79-1.25-2.48,1.57-.79C208.06,240,208.23,239.1,207.55,237.75Z"/><path class="cls-3" d="M232.32,244.94l-2.92,1.21-1.62-3.87-7.45,3.11,1.61,3.86-3,1.25-2.88-6.43,1-.44a4.73,4.73,0,0,0,.23-2.51,20,20,0,0,0-1-3.94l-2.61-7.53,9-3.77L228.25,239l1.64-.68Zm-11.8-2.73,4.56-1.9-4.35-10.46L217.87,231l1.55,4.44A16.89,16.89,0,0,1,220.52,242.21Z"/><path class="cls-3" d="M238.88,234.69l-4.46,1.47.22,3.6-3.46,1.14L230.91,223l3-1,10.43,14.53-3.49,1.15Zm-4.65-1.5,3-1-3.42-5.28Z"/><path class="cls-3" d="M253,216.83l4.13,16.56-3.36.83-3.43-13.77-3.07.77,1.24,5.92a20.29,20.29,0,0,1,.49,4.76,5.18,5.18,0,0,1-.89,2.88,4.43,4.43,0,0,1-2.48,1.47l-.82.2-.69-2.77.38-.13a1.91,1.91,0,0,0,1.16-1.75,16.51,16.51,0,0,0-.52-4.55l-1.77-8Z"/><path class="cls-3" d="M205.29,608.4l-3-1.61,3.41-6.45-4.5-2.38-3.41,6.46-3-1.61,8-15.09,3,1.61-3.22,6.1,4.5,2.38,3.22-6.1,3,1.6Z"/><path class="cls-3" d="M219.37,606.66l-4.91-2.19-1.84,4.14,5.8,2.58-1.16,2.61-8.95-4,6.95-15.58,8.93,4L223,600.83l-5.78-2.57-1.64,3.68,4.9,2.18Z"/><path class="cls-3" d="M237.75,615.2a6.38,6.38,0,0,1-3,3.65,5.81,5.81,0,0,1-4.52,0,5.35,5.35,0,0,1-3.58-3.23A8.39,8.39,0,0,1,227,610l.93-2.72a8.18,8.18,0,0,1,3.26-4.62,6.3,6.3,0,0,1,8.31,2.48,7,7,0,0,1,.11,4.76l-3.27-1.11a4.65,4.65,0,0,0,.28-2.54A2.21,2.21,0,0,0,235,605a2.09,2.09,0,0,0-2.16.28,6.83,6.83,0,0,0-1.61,2.82l-1,3a7.44,7.44,0,0,0-.59,3.49,2.08,2.08,0,0,0,1.54,1.52,2.23,2.23,0,0,0,2,0,4.33,4.33,0,0,0,1.33-2.08Z"/><path class="cls-3" d="M250.11,624.42l-3.33-.88,3.62-13.72-4.89-1.29-3.63,13.72-3.33-.88,4.36-16.5,11.55,3Z"/><path class="cls-3" d="M262.09,623.24l-4.61-.87-1.55,3.26-3.58-.67,8.39-15.79,3.1.59L266,627.52l-3.61-.68Zm-3.35-3.55,3.14.59-.45-6.28Z"/><path class="cls-3" d="M282.16,612.23l-1.91,17-3.44-.39,1.59-14.1-3.14-.36-.91,6a20.58,20.58,0,0,1-1.2,4.64,5.14,5.14,0,0,1-1.84,2.38,4.41,4.41,0,0,1-2.84.52l-.84-.1.33-2.84h.39a1.89,1.89,0,0,0,1.71-1.23,16.55,16.55,0,0,0,1.09-4.45l1.15-8.13Z"/><path class="cls-3" d="M289.37,629.74l.25-17.07,5.27.08a6.07,6.07,0,0,1,4,1.25,4.32,4.32,0,0,1,1.34,3.51,4.07,4.07,0,0,1-.61,2.22,3.32,3.32,0,0,1-1.59,1.35,3,3,0,0,1,1.76,1.35,4.56,4.56,0,0,1,.58,2.45,4.85,4.85,0,0,1-1.42,3.73,5.64,5.64,0,0,1-4,1.21Zm3.55-7.37-.06,4.56,2.2,0a1.7,1.7,0,0,0,1.41-.56,2.41,2.41,0,0,0,.51-1.62c0-1.53-.52-2.32-1.63-2.38Zm0-2.51,1.79,0c1.35,0,2-.67,2.06-2.07a2.39,2.39,0,0,0-.45-1.67,2,2,0,0,0-1.51-.53l-1.83,0Z"/><path class="cls-3" d="M314.67,623.53a6.38,6.38,0,0,1-1.41,4.5,5.76,5.76,0,0,1-4.18,1.73,5.4,5.4,0,0,1-4.53-1.66,8.52,8.52,0,0,1-1.83-5.35l-.15-2.86a8.21,8.21,0,0,1,1.3-5.5,5.46,5.46,0,0,1,4.32-2.14,5.53,5.53,0,0,1,4.32,1.33,7.17,7.17,0,0,1,1.88,4.38l-3.45.19a4.69,4.69,0,0,0-.69-2.46,2.2,2.2,0,0,0-1.91-.58,2.08,2.08,0,0,0-1.9,1.07,6.91,6.91,0,0,0-.44,3.21l.18,3.21a7.45,7.45,0,0,0,.75,3.46,2.09,2.09,0,0,0,2,.84,2.23,2.23,0,0,0,1.84-.76,4.28,4.28,0,0,0,.45-2.42Z"/><path class="cls-3" d="M333.89,619.75a8,8,0,0,1-.88,5.51,5.6,5.6,0,0,1-4.2,2.49,5.69,5.69,0,0,1-4.68-1.2,7.72,7.72,0,0,1-2.4-4.89l-1.36.18.93,6.71-3.41.47-2.34-16.9,3.42-.47,1,7.45,1.36-.18-.05-.32a10,10,0,0,1,.18-4.05,5.56,5.56,0,0,1,1.76-2.83,6,6,0,0,1,3.14-1.33,5.57,5.57,0,0,1,4.71,1.31,8.24,8.24,0,0,1,2.39,5.16Zm-3.81-2.36a7.11,7.11,0,0,0-1.12-3.31,2.43,2.43,0,0,0-4,.52,6.66,6.66,0,0,0-.22,3.36l.41,3a6.39,6.39,0,0,0,1.12,3.18,2.26,2.26,0,0,0,2.19.77,2.21,2.21,0,0,0,1.84-1.3,6.24,6.24,0,0,0,.22-3.28Z"/><path class="cls-3" d="M355.14,621.84l-3.33.85L350,615.62l-4.93,1.26,1.82,7.08-3.34.85-4.24-16.52,3.33-.86,1.72,6.69,4.93-1.27-1.72-6.68,3.33-.86Z"/><path class="cls-3" d="M367.57,610.4a8,8,0,0,1,.16,5.57,5.58,5.58,0,0,1-3.66,3.24,5.68,5.68,0,0,1-4.88-.34,7.87,7.87,0,0,1-3.26-4.46l-.93-2.77a8.42,8.42,0,0,1-.21-5.72,6.16,6.16,0,0,1,8.53-2.91,8.25,8.25,0,0,1,3.32,4.63Zm-4.19-1.61a7,7,0,0,0-1.72-3A2.41,2.41,0,0,0,357.8,607a6.63,6.63,0,0,0,.4,3.34l1,2.88a6.38,6.38,0,0,0,1.69,2.91,2.25,2.25,0,0,0,2.29.35,2.22,2.22,0,0,0,1.57-1.62,6.3,6.3,0,0,0-.39-3.26Z"/><path class="cls-3" d="M377.05,595.6l6.6,15.73-3.17,1.33L378,606.73a12.15,12.15,0,0,1-2.26,1.28,5.9,5.9,0,0,1-4.47.35,5.54,5.54,0,0,1-3-3.15l-2.12-5,3.19-1.34,2,4.87a3.55,3.55,0,0,0,1.3,1.78,2.19,2.19,0,0,0,1.92-.1,12,12,0,0,0,2.26-1.29l-3-7.16Z"/><path class="cls-3" d="M384.87,598.58l1.83-.92a5.66,5.66,0,0,1,4.34-.54,5.15,5.15,0,0,1,3.14,2.82,5.39,5.39,0,0,1,.45,4.21,5.49,5.49,0,0,1-2.85,3.19l-5.07,2.55L379,594.66l3.09-1.56Zm1.29,2.55,2.35,4.66,1.86-.94a1.92,1.92,0,0,0,1.08-1.39,3.08,3.08,0,0,0-.36-2,2.78,2.78,0,0,0-1.32-1.36,2,2,0,0,0-1.73.08Z"/><path class="cls-3" d="M155.9,427.31l-17.06,0v-3.46l14.19,0v-3.17l-6-.22a20.37,20.37,0,0,1-4.74-.66,5.17,5.17,0,0,1-2.58-1.56,4.32,4.32,0,0,1-.84-2.75v-.85h2.86l0,.4a1.88,1.88,0,0,0,1.41,1.55,16.52,16.52,0,0,0,4.54.59l8.22.2Z"/><path class="cls-3" d="M156.84,437.55l.34,3.43-17,1.71-.34-3.43,11.24-1.13-11.74-3.87-.35-3.44,17-1.71.34,3.44-11.25,1.13Z"/><path class="cls-3" d="M157.75,451.94a5.47,5.47,0,0,1-1,4.72,7.7,7.7,0,0,1-4.66,2.69,7.53,7.53,0,0,1-5.24-.6,5.49,5.49,0,0,1-2.82-3.92l-2.14.45-.68-3.23,2.14-.45a5.64,5.64,0,0,1,2.16-5.93,8.16,8.16,0,0,1,3.37-1.48,7.69,7.69,0,0,1,5.36.59,5.47,5.47,0,0,1,2.87,3.93l2.18-.46.68,3.24Zm-3.59-2.8a2.26,2.26,0,0,0-1.5-1.7,5.58,5.58,0,0,0-3.15-.07,5.15,5.15,0,0,0-2.7,1.3,2.28,2.28,0,0,0-.64,2.18l0,.14,8-1.67Zm.71,3.41-8,1.68,0,.17a2.22,2.22,0,0,0,1.46,1.67,5.26,5.26,0,0,0,3,.1,5.75,5.75,0,0,0,2.84-1.32,2.25,2.25,0,0,0,.68-2.16Z"/><path class="cls-3" d="M161.6,470.31l-1.28-4L146.8,470.6l-1.05-3.29L159.27,463,158,459.05l2.74-.88,3.59,11.27Z"/><path class="cls-3" d="M165,483a2.09,2.09,0,0,0,1.15-1.09,1.85,1.85,0,0,0-.08-1.52,1.63,1.63,0,0,0-1-.94,2.08,2.08,0,0,0-1.53.14l-1.42-3.13a4.71,4.71,0,0,1,2.58-.42,4.55,4.55,0,0,1,2.34,1,6.47,6.47,0,0,1,2.14,6.29,4.55,4.55,0,0,1-2.67,2.78,4,4,0,0,1-2.19.35,4.2,4.2,0,0,1-2.06-.85,3.9,3.9,0,0,1-.61,2.27,5.19,5.19,0,0,1-6,1.72,5.93,5.93,0,0,1-2.92-3.15,6.33,6.33,0,0,1-.61-2.8,4.49,4.49,0,0,1,.75-2.47,4.87,4.87,0,0,1,2.12-1.74l1.43,3.15a2.17,2.17,0,0,0-1.13,1.12,1.82,1.82,0,0,0,0,1.56,2,2,0,0,0,1.22,1.17,2.22,2.22,0,0,0,1.7-.13,2.83,2.83,0,0,0,1.52-1.24,1.86,1.86,0,0,0-.08-1.57l-.73-1.59,2.53-1.15.73,1.6Q163,484,165,483Z"/><path class="cls-3" d="M163.82,499.75l-2.32-4.08-3.49.92-1.8-3.17,17.47-3.78,1.56,2.74-12.19,13.09-1.82-3.2Zm.55-4.85,1.57,2.77,4.5-4.39Z"/><path class="cls-3" d="M175.51,513.5a6.36,6.36,0,0,1-4.56,1.17,5.79,5.79,0,0,1-3.67-2.64,5.41,5.41,0,0,1-1-4.73,8.43,8.43,0,0,1,3.59-4.37l2.35-1.64a8.27,8.27,0,0,1,5.36-1.78,6.29,6.29,0,0,1,5.23,6.92,7.06,7.06,0,0,1-2.73,3.91l-2-2.84a4.59,4.59,0,0,0,1.73-1.88,2.23,2.23,0,0,0-.5-1.93,2.1,2.1,0,0,0-1.91-1.05,6.7,6.7,0,0,0-3,1.31l-2.65,1.84a7.45,7.45,0,0,0-2.54,2.46,2.06,2.06,0,0,0,.33,2.14,2.25,2.25,0,0,0,1.61,1.17,4.36,4.36,0,0,0,2.3-.89Z"/><path class="cls-3" d="M190.38,518.15l-2.69-3.25L176.78,524l-2.21-2.66,10.9-9.07-2.65-3.19,2.21-1.84,7.56,9.09Z"/><path class="cls-3" d="M188,527.43l-4.25,4.24-2.43-2.44,12.09-12,4.1,4.12a5.28,5.28,0,0,1,1.73,4,5.66,5.66,0,0,1-1.82,4,5.29,5.29,0,0,1-3.86,1.74,5.63,5.63,0,0,1-3.94-1.9Zm2-2,1.67,1.68a1.9,1.9,0,0,0,1.54.62,2.85,2.85,0,0,0,1.7-.94,3.37,3.37,0,0,0,1.06-1.83,1.78,1.78,0,0,0-.5-1.58l-1.7-1.71Z"/><path class="cls-3" d="M196.49,543.41l4-4.7-1.38-1.16-5.89,3.08-2.84-2.39,7.07-3.71a5,5,0,0,1,1.22-4.73,5.14,5.14,0,0,1,3.61-2.06,5.6,5.6,0,0,1,4,1.55l3.91,3.29-11,13.06Zm4.61-11.17a3.3,3.3,0,0,0-.93,1.89,1.83,1.83,0,0,0,.79,1.5l1.21,1,3.46-4.11-1.31-1.1C203.32,530.61,202.25,530.88,201.1,532.24Z"/><path class="cls-3" d="M221.43,540.63l-9.75,14-2.84-2L217,541l-2.6-1.81L210.71,544a20.06,20.06,0,0,1-3.26,3.5,5.07,5.07,0,0,1-2.75,1.22,4.35,4.35,0,0,1-2.74-.89l-.69-.49L202.9,545l.35.19a1.9,1.9,0,0,0,2.08-.27,16.41,16.41,0,0,0,3.08-3.38l4.88-6.62Z"/><path class="cls-3" d="M168.78,328l14.2,9.47-1.92,2.87-11.81-7.87-1.75,2.63,4.9,3.55a21,21,0,0,1,3.57,3.19,5.07,5.07,0,0,1,1.27,2.73,4.26,4.26,0,0,1-.84,2.75l-.46.71-2.38-1.59.19-.35a1.91,1.91,0,0,0-.31-2.08,17,17,0,0,0-3.45-3l-6.72-4.74Z"/><path class="cls-3" d="M176.21,318.61l2.18-2.67,13.21,10.8-2.17,2.67-8.75-7.15,5.56,11L184.06,336l-13.22-10.8L173,322.5l8.76,7.16Z"/><path class="cls-3" d="M188.26,308a5.48,5.48,0,0,1,4.53-1.68,7.58,7.58,0,0,1,4.78,2.46,7.45,7.45,0,0,1,2.34,4.73,5.48,5.48,0,0,1-1.76,4.48l1.54,1.55-2.35,2.33-1.54-1.55a5.63,5.63,0,0,1-6.15,1.4,8.35,8.35,0,0,1-3.07-2,7.68,7.68,0,0,1-2.42-4.82,5.52,5.52,0,0,1,1.75-4.55l-1.56-1.58,2.35-2.33Zm-.4,4.54a2.22,2.22,0,0,0-.62,2.18,5.69,5.69,0,0,0,1.64,2.69,5.27,5.27,0,0,0,2.56,1.56,2.28,2.28,0,0,0,2.18-.64l.11-.11L188,312.36Zm2.47-2.45,5.75,5.81.12-.13a2.2,2.2,0,0,0,.61-2.13,5.16,5.16,0,0,0-1.54-2.58,5.67,5.67,0,0,0-2.65-1.67,2.25,2.25,0,0,0-2.19.6Z"/><path class="cls-3" d="M204.35,295.88l-3.28,2.65L210,309.58l-2.69,2.17-8.91-11-3.23,2.6-1.81-2.23,9.2-7.43Z"/><path class="cls-3" d="M217.22,289.49a2.08,2.08,0,0,0-1.24-1,1.81,1.81,0,0,0-1.49.27,1.69,1.69,0,0,0-.8,1.14,2.07,2.07,0,0,0,.35,1.5l-2.92,1.83a4.69,4.69,0,0,1-.76-2.51,4.59,4.59,0,0,1,.69-2.46,6.51,6.51,0,0,1,5.95-2.95,4.54,4.54,0,0,1,3.11,2.27,4,4,0,0,1,.64,2.13,4.3,4.3,0,0,1-.56,2.16,3.8,3.8,0,0,1,2.32.3,4.59,4.59,0,0,1,1.86,1.77,4.66,4.66,0,0,1,.65,3.92,6,6,0,0,1-2.74,3.31,6.47,6.47,0,0,1-2.69,1,4.59,4.59,0,0,1-2.55-.42,4.82,4.82,0,0,1-2-1.87L218,298a2.23,2.23,0,0,0,1.27,1,1.81,1.81,0,0,0,1.54-.23,2.06,2.06,0,0,0,1-1.37,2.25,2.25,0,0,0-.36-1.67A3,3,0,0,0,220,294.4a1.88,1.88,0,0,0-1.55.3l-1.48.92-1.48-2.35,1.49-.93C217.94,291.72,218,290.77,217.22,289.49Z"/><path class="cls-3" d="M234.08,290.34l-4.19,2.13.76,3.53-3.25,1.65-3-17.63,2.81-1.43,12.51,12.79L236.48,293Zm-4.82-.77,2.84-1.44-4.17-4.71Z"/><path class="cls-3" d="M249,281.67a6.4,6.4,0,0,1,.1,4.71,5.78,5.78,0,0,1-3.42,3,5.37,5.37,0,0,1-4.82-.13,8.43,8.43,0,0,1-3.43-4.48l-1.06-2.67a8.2,8.2,0,0,1-.52-5.63,6.31,6.31,0,0,1,7.93-3.51,7.07,7.07,0,0,1,3.18,3.55l-3.21,1.28a4.52,4.52,0,0,0-1.44-2.11,2.17,2.17,0,0,0-2,.05,2.1,2.1,0,0,0-1.46,1.62,6.65,6.65,0,0,0,.61,3.18l1.18,3a7.44,7.44,0,0,0,1.82,3,2.08,2.08,0,0,0,2.16.17,2.28,2.28,0,0,0,1.5-1.31,4.34,4.34,0,0,0-.34-2.44Z"/><path class="cls-3" d="M258.59,269.88l-4,1.21,4.06,13.6-3.32,1-4-13.6-4,1.18-.82-2.75,11.33-3.38Z"/><path class="cls-3" d="M266,276.64l1.2,5.88-3.38.69-3.4-16.73,5.7-1.15a5.34,5.34,0,0,1,4.27.73,5.7,5.7,0,0,1,2.29,3.7,5.3,5.3,0,0,1-.67,4.18,5.67,5.67,0,0,1-3.76,2.24Zm-.57-2.81,2.32-.48a1.9,1.9,0,0,0,1.37-.93,2.93,2.93,0,0,0,.15-1.95,3.39,3.39,0,0,0-.94-1.88,1.79,1.79,0,0,0-1.6-.46l-2.36.48Z"/><path class="cls-3" d="M282.85,280l-.69-6.1-1.8.21-1.81,6.38-3.69.42,2.17-7.67a5,5,0,0,1-2.59-4.14,5.16,5.16,0,0,1,1-4,5.59,5.59,0,0,1,3.86-1.82l5.09-.58,1.93,16.95Zm-5-11a3.39,3.39,0,0,0,.74,2,1.88,1.88,0,0,0,1.63.46l1.58-.18-.6-5.34-1.7.2C278.25,266.26,277.7,267.22,277.9,269Z"/><path class="cls-3" d="M299.75,262.11l.41,17.06-3.46.08-.34-14.18-3.16.07-.09,6.05a20.25,20.25,0,0,1-.56,4.76,5.16,5.16,0,0,1-1.5,2.61,4.32,4.32,0,0,1-2.74.89l-.84,0-.07-2.86.4,0a1.91,1.91,0,0,0,1.52-1.45,16.93,16.93,0,0,0,.48-4.55l0-8.22Z"/><path class="cls-3" d="M320.05,572.53a6.35,6.35,0,0,1-1.16,4.56,5.72,5.72,0,0,1-4.08,1.95,5.33,5.33,0,0,1-4.61-1.42,8.39,8.39,0,0,1-2.12-5.23l-.3-2.85a8.17,8.17,0,0,1,1-5.56,6.31,6.31,0,0,1,8.58-1.28,7.1,7.1,0,0,1,2.11,4.28l-3.43.37a4.69,4.69,0,0,0-.82-2.42,2.18,2.18,0,0,0-1.93-.48,2.1,2.1,0,0,0-1.85,1.17,6.73,6.73,0,0,0-.26,3.23l.34,3.2a7.63,7.63,0,0,0,.94,3.42,2.11,2.11,0,0,0,2,.73,2.26,2.26,0,0,0,1.8-.86,4.36,4.36,0,0,0,.32-2.44Z"/><path class="cls-3" d="M330.71,568.75l-5.27,1,.87,4.44,6.23-1.22.55,2.81-9.61,1.87-3.27-16.74,9.59-1.88.55,2.82-6.21,1.21.77,4,5.27-1Z"/><path class="cls-3" d="M342.52,555.47l4.75,16.39-3.32,1L340,559.19l-3,.88,1.46,5.88a20.16,20.16,0,0,1,.67,4.74,5.11,5.11,0,0,1-.78,2.9,4.38,4.38,0,0,1-2.42,1.57l-.81.23-.8-2.74.37-.15a1.88,1.88,0,0,0,1.1-1.79,16.21,16.21,0,0,0-.69-4.52l-2.07-8Z"/><path class="cls-3" d="M360,551.49l-3.88,1.66,5.61,13-3.17,1.37-5.61-13-3.81,1.64L348,553.52l10.86-4.67Z"/><path class="cls-3" d="M372.26,552.66l-4.74,2.52,2.12,4,5.61-3,1.34,2.52-8.65,4.6-8-15.07,8.63-4.59,1.35,2.54-5.59,3,1.89,3.56,4.74-2.52Z"/><path class="cls-3" d="M379.73,536.54,389,550.87l-2.9,1.87-7.72-11.91-2.65,1.72,3.09,5.2a20.77,20.77,0,0,1,2,4.35,5.2,5.2,0,0,1,.09,3,4.38,4.38,0,0,1-1.87,2.2l-.71.45-1.55-2.4.32-.24a1.91,1.91,0,0,0,.53-2,16.62,16.62,0,0,0-2-4.13l-4.28-7Z"/><path class="cls-3" d="M394.28,537.51l-4.24,3.3,2.79,3.57,5-3.91,1.76,2.26-7.72,6-10.5-13.45,7.71-6,1.76,2.26-5,3.9,2.48,3.17,4.23-3.3Z"/><path class="cls-3" d="M397.6,523.51a5.43,5.43,0,0,1,4.56-1.59,7.63,7.63,0,0,1,4.73,2.55,7.52,7.52,0,0,1,2.25,4.78,5.52,5.52,0,0,1-1.85,4.45l1.5,1.58-2.4,2.28-1.5-1.58a5.94,5.94,0,0,1-2.94,1.59,5.88,5.88,0,0,1-3.24-.32,8.28,8.28,0,0,1-3-2.09,7.69,7.69,0,0,1-2.32-4.87,5.54,5.54,0,0,1,1.85-4.51l-1.54-1.61,2.4-2.28Zm-.49,4.53a2.22,2.22,0,0,0-.67,2.16,5.61,5.61,0,0,0,1.59,2.73,5.17,5.17,0,0,0,2.53,1.61,2.27,2.27,0,0,0,2.19-.6l.11-.1-5.63-5.92Zm2.52-2.4,5.62,5.92.13-.12a2.22,2.22,0,0,0,.66-2.12,5.29,5.29,0,0,0-1.5-2.61,5.67,5.67,0,0,0-2.61-1.72,2.23,2.23,0,0,0-2.2.55Z"/><path class="cls-3" d="M417.28,514.51a7.89,7.89,0,0,1,3,4.69,5.57,5.57,0,0,1-1.47,4.66,5.66,5.66,0,0,1-4.35,2.22,7.85,7.85,0,0,1-5.09-2.14l-2.23-1.89a8.44,8.44,0,0,1-3.13-4.8,6.18,6.18,0,0,1,5.81-6.89,8.33,8.33,0,0,1,5.23,2.26Zm-4.42.78a6.89,6.89,0,0,0-3-1.72,2.41,2.41,0,0,0-2.66,3.07,6.66,6.66,0,0,0,2.07,2.65l2.32,2a6.32,6.32,0,0,0,2.94,1.63,2.3,2.3,0,0,0,2.15-.89,2.2,2.2,0,0,0,.5-2.2,6.15,6.15,0,0,0-2-2.59Z"/><path class="cls-3" d="M431.44,506.58l-2,2.82-6-4.16-2.89,4.18,6,4.16-2,2.83-14-9.72,2-2.84,5.68,3.94,2.89-4.18-5.67-3.93,2-2.83Z"/><path class="cls-3" d="M405.2,71.94a8,8,0,0,1-1.62,5.33,6.33,6.33,0,0,1-9,0A7.85,7.85,0,0,1,392.9,72V69.1a8.43,8.43,0,0,1,1.62-5.49,6.19,6.19,0,0,1,9,0A8.34,8.34,0,0,1,405.2,69Zm-3.46-2.86a7.13,7.13,0,0,0-.65-3.44,2.43,2.43,0,0,0-4.07,0,6.67,6.67,0,0,0-.68,3.3v3a6.25,6.25,0,0,0,.67,3.29,2.26,2.26,0,0,0,2.06,1.07,2.22,2.22,0,0,0,2-1,6.25,6.25,0,0,0,.66-3.22Z"/><path class="cls-3" d="M419.65,78.93H416.2V64.74h-5.06V78.93H407.7V61.87h11.95Z"/><path class="cls-3" d="M434.44,71.94a8,8,0,0,1-1.62,5.33,6.33,6.33,0,0,1-9,0A7.85,7.85,0,0,1,422.13,72V69.1a8.44,8.44,0,0,1,1.63-5.49,6.18,6.18,0,0,1,9,0A8.29,8.29,0,0,1,434.44,69ZM431,69.08a7.13,7.13,0,0,0-.65-3.44,2.43,2.43,0,0,0-4.07,0,6.56,6.56,0,0,0-.68,3.3v3a6.25,6.25,0,0,0,.67,3.29,2.26,2.26,0,0,0,2.06,1.07,2.2,2.2,0,0,0,2-1A6.23,6.23,0,0,0,431,72Z"/><path class="cls-3" d="M443.74,66.57a2.09,2.09,0,0,0-.52-1.5,1.82,1.82,0,0,0-1.41-.56,1.66,1.66,0,0,0-1.28.54,2,2,0,0,0-.5,1.45h-3.45a4.68,4.68,0,0,1,.69-2.53,4.6,4.6,0,0,1,1.89-1.71,6.51,6.51,0,0,1,6.62.66,4.55,4.55,0,0,1,1.42,3.58,4.08,4.08,0,0,1-.59,2.14A4.41,4.41,0,0,1,445,70.17a3.74,3.74,0,0,1,1.8,1.49,5.18,5.18,0,0,1-.9,6.15,6,6,0,0,1-4.08,1.34,6.41,6.41,0,0,1-2.8-.59,4.55,4.55,0,0,1-1.94-1.71,4.88,4.88,0,0,1-.7-2.65h3.46a2.19,2.19,0,0,0,.55,1.5,1.83,1.83,0,0,0,1.43.62,2.06,2.06,0,0,0,1.57-.62,2.26,2.26,0,0,0,.59-1.61,2.86,2.86,0,0,0-.51-1.9,1.83,1.83,0,0,0-1.46-.57h-1.75V68.84H442C443.17,68.83,443.74,68.08,443.74,66.57Z"/><path class="cls-3" d="M463.57,83.13h-3.16v-4.2h-8.08v4.19h-3.25l-.19-7.05H450a4.73,4.73,0,0,0,1.19-2.22,20.91,20.91,0,0,0,.61-4l.48-8h9.81v14.2h1.77Zm-9.84-7.06h4.94V64.74h-3.09l-.28,4.7A16.89,16.89,0,0,1,453.73,76.07Z"/><path class="cls-3" d="M474,75.44h-4.7l-.92,3.49h-3.64l5.33-17.06h3.15l5.37,17.06h-3.68Zm-4-2.87h3.19l-1.6-6.08Z"/><path class="cls-3" d="M492.33,61.87V78.93h-3.46V64.74h-3.16l-.24,6.05a19.77,19.77,0,0,1-.67,4.74,5.13,5.13,0,0,1-1.56,2.57,4.32,4.32,0,0,1-2.76.83h-.84V76.07l.4,0a1.92,1.92,0,0,0,1.55-1.41,16.54,16.54,0,0,0,.59-4.55l.22-8.21Z"/><path class="cls-3" d="M512.6,78.93h-3.43v-7.3h-5.09v7.3h-3.44V61.87h3.44v6.9h5.09v-6.9h3.43Z"/><path class="cls-3" d="M523.72,75.44H519l-.91,3.49h-3.64l5.33-17.06H523l5.37,17.06h-3.68Zm-4-2.87H523l-1.59-6.08Z"/><path class="cls-3" d="M547.35,61.87V78.93H543.9V72.5a12,12,0,0,1-2.57.3,6,6,0,0,1-4.26-1.4,5.54,5.54,0,0,1-1.52-4.06V61.87H539v5.28a3.52,3.52,0,0,0,.51,2.15,2.21,2.21,0,0,0,1.82.64,11.6,11.6,0,0,0,2.57-.3V61.87Z"/><path class="cls-3" d="M558.47,75.44h-4.7l-.91,3.49h-3.65l5.33-17.06h3.16l5.36,17.06h-3.68Zm-4-2.87h3.19l-1.6-6.08Z"/><path class="cls-3" d="M576,73.25a6.45,6.45,0,0,1-1.64,4.42,5.8,5.8,0,0,1-4.27,1.5,5.36,5.36,0,0,1-4.43-1.91,8.42,8.42,0,0,1-1.55-5.43V69a8.24,8.24,0,0,1,1.6-5.42,6.31,6.31,0,0,1,8.66-.35A7.07,7.07,0,0,1,576,67.67h-3.46a4.61,4.61,0,0,0-.55-2.49,2.2,2.2,0,0,0-1.87-.69,2.11,2.11,0,0,0-2,1,6.91,6.91,0,0,0-.61,3.18v3.23a7.41,7.41,0,0,0,.57,3.49,2.1,2.1,0,0,0,2,1,2.27,2.27,0,0,0,1.88-.66,4.39,4.39,0,0,0,.58-2.4Z"/><path class="cls-3" d="M327.7,114.38h-6.13v14.19h-3.45V111.51h9.58Z"/><path class="cls-3" d="M341,121.57a8,8,0,0,1-1.62,5.33,5.59,5.59,0,0,1-4.5,1.9,5.67,5.67,0,0,1-4.52-1.88,7.88,7.88,0,0,1-1.66-5.27v-2.91a8.34,8.34,0,0,1,1.63-5.49,6.16,6.16,0,0,1,9,0,8.26,8.26,0,0,1,1.66,5.44Zm-3.45-2.86a7,7,0,0,0-.66-3.43,2.41,2.41,0,0,0-4.06,0,6.56,6.56,0,0,0-.68,3.3v3a6.43,6.43,0,0,0,.66,3.3,2.28,2.28,0,0,0,2.07,1.06,2.21,2.21,0,0,0,2-1,6.26,6.26,0,0,0,.67-3.22Z"/><path class="cls-3" d="M347,122.57v6h-3.44V111.51h5.81a5.33,5.33,0,0,1,4,1.57,5.63,5.63,0,0,1,1.5,4.07,5.26,5.26,0,0,1-1.49,4,5.67,5.67,0,0,1-4.12,1.45Zm0-2.87h2.37a1.87,1.87,0,0,0,1.52-.65,2.84,2.84,0,0,0,.54-1.87,3.35,3.35,0,0,0-.55-2,1.76,1.76,0,0,0-1.47-.77H347Z"/><path class="cls-3" d="M360.66,117.64h2a5.73,5.73,0,0,1,4.13,1.47,5.2,5.2,0,0,1,1.53,3.93,5.38,5.38,0,0,1-1.5,4,5.45,5.45,0,0,1-4,1.57h-5.68V111.51h3.45Zm0,2.85v5.22h2.09a1.89,1.89,0,0,0,1.59-.76,3.13,3.13,0,0,0,.58-1.94,2.78,2.78,0,0,0-.57-1.81,2,2,0,0,0-1.58-.71Zm12,8.08h-3.45V111.51h3.45Z"/><path class="cls-3" d="M394.66,132.76h-3.17v-4.19h-8.07v4.18h-3.26l-.19-7h1.14a4.63,4.63,0,0,0,1.18-2.23,19.92,19.92,0,0,0,.61-4l.48-7.95h9.81v14.2H395Zm-9.85-7h4.95V114.38h-3.09l-.29,4.7A16.55,16.55,0,0,1,384.81,125.71Z"/><path class="cls-3" d="M408.46,121.57a8,8,0,0,1-1.62,5.33,5.59,5.59,0,0,1-4.51,1.9,5.67,5.67,0,0,1-4.51-1.88,7.83,7.83,0,0,1-1.66-5.27v-2.91a8.34,8.34,0,0,1,1.63-5.49,6.16,6.16,0,0,1,9,0,8.26,8.26,0,0,1,1.66,5.44ZM405,118.71a7,7,0,0,0-.66-3.43,2.42,2.42,0,0,0-4.07,0,6.78,6.78,0,0,0-.68,3.3v3a6.41,6.41,0,0,0,.67,3.3,2.26,2.26,0,0,0,2.06,1.06,2.22,2.22,0,0,0,2-1,6.26,6.26,0,0,0,.67-3.22Z"/><path class="cls-3" d="M415.9,121.61h-1.5v7H411V111.51h3.44v6.82h1.16l3-6.82h4.19l-4.17,7.94,4.64,9.12h-4.1Z"/><path class="cls-3" d="M429.86,119.09l2.3-7.58h3.7l-4.67,13.71a7.06,7.06,0,0,1-1.72,2.8,3.47,3.47,0,0,1-2.21.79h-.38l-.82,0-.05-2.86a3.18,3.18,0,0,0,.76,0,1.43,1.43,0,0,0,1-.3,2.71,2.71,0,0,0,.58-1.31l.16-.62-4.87-12.22h3.69Z"/><path class="cls-3" d="M442.19,111.51l3.22,12.34,3.21-12.34h4.5v17.06h-3.45V124l.31-7.11-3.41,11.73h-2.34l-3.41-11.73.31,7.11v4.62h-3.44V111.51Z"/><path class="cls-3" d="M464.7,121.19h-5.37v4.52h6.36v2.86h-9.8V111.51h9.77v2.87h-6.33v4h5.37Z"/><path class="cls-3" d="M479.63,128.57H476.2v-7.3h-5.09v7.3h-3.44V111.51h3.44v6.9h5.09v-6.9h3.43Z"/><path class="cls-3" d="M493.11,114.38h-4.22v14.19h-3.46V114.38h-4.15v-2.87h11.83Z"/><path class="cls-3" d="M506.77,121.57a8,8,0,0,1-1.62,5.33,6.33,6.33,0,0,1-9,0,7.83,7.83,0,0,1-1.66-5.27v-2.91a8.34,8.34,0,0,1,1.63-5.49,5.52,5.52,0,0,1,4.52-2,5.59,5.59,0,0,1,4.49,1.94,8.26,8.26,0,0,1,1.66,5.44Zm-3.46-2.86a7,7,0,0,0-.65-3.43,2.42,2.42,0,0,0-4.07,0,6.67,6.67,0,0,0-.68,3.3v3a6.31,6.31,0,0,0,.67,3.3,2.26,2.26,0,0,0,2.06,1.06,2.22,2.22,0,0,0,2-1,6.27,6.27,0,0,0,.66-3.22Z"/><path class="cls-3" d="M509.24,128.57V111.51h5.28a6.05,6.05,0,0,1,4.06,1.19,4.34,4.34,0,0,1,1.39,3.48,4.13,4.13,0,0,1-.58,2.24,3.32,3.32,0,0,1-1.57,1.37,3,3,0,0,1,1.77,1.32,4.45,4.45,0,0,1,.62,2.44,4.85,4.85,0,0,1-1.36,3.75,5.59,5.59,0,0,1-4,1.27Zm3.45-9.93h1.79a1.82,1.82,0,0,0,2-2.09,2.43,2.43,0,0,0-.47-1.67,2,2,0,0,0-1.52-.5h-1.83Zm0,2.51v4.56h2.2a1.74,1.74,0,0,0,1.41-.57,2.49,2.49,0,0,0,.48-1.63c0-1.53-.56-2.32-1.66-2.36Z"/><path class="cls-3" d="M365.9,179.35h-3.44v-7.3h-5.08v7.3h-3.45V162.28h3.45v6.91h5.08v-6.91h3.44Z"/><path class="cls-3" d="M377,175.85h-4.7l-.91,3.5h-3.65l5.33-17.07h3.16l5.36,17.07h-3.68ZM373.07,173h3.19l-1.6-6.08Z"/><path class="cls-3" d="M397.09,183.54h-3.16v-4.19h-8.07v4.18H382.6l-.19-7h1.14a4.76,4.76,0,0,0,1.18-2.23,20.66,20.66,0,0,0,.61-4l.48-8h9.81v14.21h1.77Zm-9.84-7h4.95V165.16h-3.1l-.28,4.69A16.9,16.9,0,0,1,387.25,176.49Z"/><path class="cls-3" d="M410.9,172.35a8,8,0,0,1-1.62,5.33,5.62,5.62,0,0,1-4.51,1.9,5.68,5.68,0,0,1-4.51-1.88,7.83,7.83,0,0,1-1.67-5.27v-2.91a8.45,8.45,0,0,1,1.63-5.5,6.17,6.17,0,0,1,9,0,8.26,8.26,0,0,1,1.67,5.44Zm-3.46-2.86a7.08,7.08,0,0,0-.65-3.43,2.42,2.42,0,0,0-4.07,0,6.56,6.56,0,0,0-.68,3.3v3a6.31,6.31,0,0,0,.67,3.3,2.25,2.25,0,0,0,2.06,1.06,2.2,2.2,0,0,0,2-1,6.19,6.19,0,0,0,.67-3.21Z"/><path class="cls-3" d="M422.18,172h-5.36v4.53h6.35v2.86h-9.8V162.28h9.77v2.88h-6.32v4h5.36Z"/><path class="cls-3" d="M437.11,162.28v17.07h-3.45V165.16h-3.17l-.23,6a20.22,20.22,0,0,1-.68,4.74,5.09,5.09,0,0,1-1.55,2.58,4.42,4.42,0,0,1-2.76.83h-.85v-2.86l.4,0a1.87,1.87,0,0,0,1.55-1.41,16.07,16.07,0,0,0,.59-4.54l.23-8.22Z"/><path class="cls-3" d="M451.9,172.35a8,8,0,0,1-1.62,5.33,5.59,5.59,0,0,1-4.51,1.9,5.7,5.7,0,0,1-4.51-1.88,7.83,7.83,0,0,1-1.66-5.27v-2.91a8.39,8.39,0,0,1,1.63-5.5,6.17,6.17,0,0,1,9,0,8.26,8.26,0,0,1,1.66,5.44Zm-3.45-2.86a7,7,0,0,0-.66-3.43,2.42,2.42,0,0,0-4.07,0,6.78,6.78,0,0,0-.68,3.3v3a6.41,6.41,0,0,0,.67,3.3,2.26,2.26,0,0,0,2.06,1.06,2.22,2.22,0,0,0,2-1,6.3,6.3,0,0,0,.67-3.21Z"/><path class="cls-3" d="M391.67,229.77h-3.45V215.58h-5.06v14.19h-3.44V212.7h11.95Z"/><path class="cls-3" d="M406.46,222.77a8,8,0,0,1-1.62,5.33,5.62,5.62,0,0,1-4.51,1.9,5.68,5.68,0,0,1-4.51-1.88,7.83,7.83,0,0,1-1.67-5.27v-2.92a8.44,8.44,0,0,1,1.63-5.49,6.17,6.17,0,0,1,9,0,8.26,8.26,0,0,1,1.67,5.44ZM403,219.91a7.08,7.08,0,0,0-.65-3.43,2.42,2.42,0,0,0-4.07,0,6.67,6.67,0,0,0-.68,3.3v3a6.31,6.31,0,0,0,.67,3.3,2.25,2.25,0,0,0,2.06,1.06,2.2,2.2,0,0,0,2-1,6.19,6.19,0,0,0,.67-3.21Z"/><path class="cls-3" d="M420.53,212.7v17.07h-3.45V215.58h-3.17l-.23,6a20.22,20.22,0,0,1-.68,4.74,5,5,0,0,1-1.55,2.57,4.36,4.36,0,0,1-2.76.84h-.85v-2.86l.4,0a1.87,1.87,0,0,0,1.55-1.41,16.13,16.13,0,0,0,.59-4.54l.23-8.22Z"/><path class="cls-3" d="M428.7,220.29l2.3-7.59h3.7L430,226.42a7.13,7.13,0,0,1-1.72,2.8,3.52,3.52,0,0,1-2.21.79h-.38l-.82,0,0-2.86a3.47,3.47,0,0,0,.76,0,1.45,1.45,0,0,0,1-.29,2.71,2.71,0,0,0,.58-1.31l.16-.62-4.87-12.23h3.69Z"/><path class="cls-3" d="M448.44,212.7v17.07H445v-6.44a11.47,11.47,0,0,1-2.58.31,5.88,5.88,0,0,1-4.25-1.41,5.54,5.54,0,0,1-1.53-4V212.7h3.46V218a3.48,3.48,0,0,0,.51,2.14,2.19,2.19,0,0,0,1.81.65,11.08,11.08,0,0,0,2.58-.31V212.7Z"/><path class="cls-3" d="M459.56,212.7H463v17.07h-3.44v-11.3l-5,11.3h-3.46V212.7h3.46V224Z"/><path class="cls-3" d="M477.91,212.7v17.07h-3.46V215.58h-3.16l-.24,6a20.29,20.29,0,0,1-.67,4.74,5.09,5.09,0,0,1-1.56,2.57,4.33,4.33,0,0,1-2.76.84h-.84v-2.86l.4,0a1.89,1.89,0,0,0,1.55-1.41,16.92,16.92,0,0,0,.59-4.54l.22-8.22Z"/><path class="cls-3" d="M489,226.27h-4.7l-.91,3.5h-3.65l5.34-17.07h3.15l5.36,17.07H490Zm-4-2.87h3.19l-1.59-6.08Z"/><path class="cls-3" d="M500.76,229.77V212.7H506a6.09,6.09,0,0,1,4.06,1.19,4.34,4.34,0,0,1,1.39,3.49,4.24,4.24,0,0,1-.57,2.24,3.43,3.43,0,0,1-1.57,1.37,3,3,0,0,1,1.77,1.32,4.53,4.53,0,0,1,.62,2.44,4.86,4.86,0,0,1-1.37,3.75,5.63,5.63,0,0,1-3.95,1.27Zm3.45-9.93H506a1.83,1.83,0,0,0,2-2.1,2.42,2.42,0,0,0-.47-1.66,2,2,0,0,0-1.53-.5h-1.82Zm0,2.51v4.56h2.2a1.69,1.69,0,0,0,1.4-.58,2.46,2.46,0,0,0,.48-1.63c0-1.53-.55-2.31-1.66-2.35Z"/><path class="cls-3" d="M517.72,218.83h2a5.71,5.71,0,0,1,4.12,1.47,5.21,5.21,0,0,1,1.54,3.94,5.38,5.38,0,0,1-1.5,4,5.51,5.51,0,0,1-4,1.57h-5.68V212.7h3.46Zm0,2.86v5.22h2.08a1.89,1.89,0,0,0,1.59-.76,3.07,3.07,0,0,0,.58-1.94,2.78,2.78,0,0,0-.57-1.81,2,2,0,0,0-1.57-.71Zm12,8.08h-3.44V212.7h3.44Z"/><path class="cls-3" d="M542.13,215.58H536v14.19h-3.45V212.7h9.58Z"/><path class="cls-3" d="M555.47,222.77a8,8,0,0,1-1.62,5.33,5.59,5.59,0,0,1-4.5,1.9,5.7,5.7,0,0,1-4.52-1.88,7.88,7.88,0,0,1-1.66-5.27v-2.92a8.38,8.38,0,0,1,1.63-5.49,6.17,6.17,0,0,1,9,0,8.26,8.26,0,0,1,1.66,5.44ZM552,219.91a7,7,0,0,0-.66-3.43,2.42,2.42,0,0,0-4.07,0,6.68,6.68,0,0,0-.67,3.3v3a6.43,6.43,0,0,0,.66,3.3,2.28,2.28,0,0,0,2.07,1.06,2.22,2.22,0,0,0,2-1,6.19,6.19,0,0,0,.67-3.21Z"/><path class="cls-3" d="M558,229.77V212.7h5.27a6.09,6.09,0,0,1,4.06,1.19,4.34,4.34,0,0,1,1.39,3.49,4.24,4.24,0,0,1-.57,2.24,3.48,3.48,0,0,1-1.57,1.37,3,3,0,0,1,1.76,1.32,4.45,4.45,0,0,1,.63,2.44,4.86,4.86,0,0,1-1.37,3.75,5.63,5.63,0,0,1-3.95,1.27Zm3.44-9.93h1.8c1.35,0,2-.7,2-2.1a2.37,2.37,0,0,0-.47-1.66,2,2,0,0,0-1.52-.5h-1.83Zm0,2.51v4.56h2.21a1.71,1.71,0,0,0,1.4-.58,2.46,2.46,0,0,0,.48-1.63c0-1.53-.55-2.31-1.66-2.35Z"/><path class="cls-3" d="M583.42,222.77a8,8,0,0,1-1.62,5.33,5.59,5.59,0,0,1-4.51,1.9,5.7,5.7,0,0,1-4.51-1.88,7.83,7.83,0,0,1-1.66-5.27v-2.92a8.38,8.38,0,0,1,1.63-5.49,6.17,6.17,0,0,1,9,0,8.26,8.26,0,0,1,1.66,5.44ZM580,219.91a7,7,0,0,0-.66-3.43,2.42,2.42,0,0,0-4.07,0,6.78,6.78,0,0,0-.68,3.3v3a6.41,6.41,0,0,0,.67,3.3,2.27,2.27,0,0,0,2.06,1.06,2.22,2.22,0,0,0,2-1,6.19,6.19,0,0,0,.67-3.21Z"/><path class="cls-3" d="M589.34,223.77v6H585.9V212.7h5.81a5.37,5.37,0,0,1,4,1.57,5.67,5.67,0,0,1,1.5,4.08,5.25,5.25,0,0,1-1.49,4,5.63,5.63,0,0,1-4.12,1.46Zm0-2.87h2.37a1.87,1.87,0,0,0,1.52-.65,2.84,2.84,0,0,0,.54-1.87,3.38,3.38,0,0,0-.55-2,1.76,1.76,0,0,0-1.48-.76h-2.4Z"/><path class="cls-5" d="M444.38,355.71v10h-.84v-9.25h-4.21l-.23,4.12a16.45,16.45,0,0,1-.42,3.21,2.94,2.94,0,0,1-.81,1.46,2.19,2.19,0,0,1-1.41.46h-.36V365h.27a1.42,1.42,0,0,0,1.06-.45,3,3,0,0,0,.55-1.33,21.58,21.58,0,0,0,.31-2.84l.24-4.63Z"/><path class="cls-5" d="M449.59,365.8a3.22,3.22,0,0,1-1.71-.46,3.1,3.1,0,0,1-1.18-1.3,3.92,3.92,0,0,1-.43-1.86v-.29a4.3,4.3,0,0,1,.42-1.92,3.23,3.23,0,0,1,1.15-1.35,2.87,2.87,0,0,1,1.6-.49,2.67,2.67,0,0,1,2.13.92,3.73,3.73,0,0,1,.79,2.52V362h-5.28v.16a3.12,3.12,0,0,0,.73,2.1,2.3,2.3,0,0,0,1.81.83,2.64,2.64,0,0,0,1.16-.24,2.49,2.49,0,0,0,.91-.76l.52.39A3,3,0,0,1,449.59,365.8Zm-.15-7a2.05,2.05,0,0,0-1.56.68,3.11,3.11,0,0,0-.77,1.82h4.44v-.09a2.73,2.73,0,0,0-.61-1.74A1.86,1.86,0,0,0,449.44,358.83Z"/><path class="cls-5" d="M456.94,358.76a3,3,0,0,1,2.28.92,3.41,3.41,0,0,1,.87,2.44v.18a3.91,3.91,0,0,1-.4,1.8,2.92,2.92,0,0,1-1.15,1.26,3.32,3.32,0,0,1-1.71.44,3.07,3.07,0,0,1-2.37-1,3.65,3.65,0,0,1-.91-2.6v-.66a6.71,6.71,0,0,1,.88-3.67,3.52,3.52,0,0,1,2.49-1.64,4,4,0,0,0,1.43-.44.9.9,0,0,0,.41-.77h.7a1.83,1.83,0,0,1-.23.95,1.75,1.75,0,0,1-.72.61A5.64,5.64,0,0,1,457,357a3,3,0,0,0-1.81,1,4,4,0,0,0-.89,2.1,3.31,3.31,0,0,1,1.1-.93A3.08,3.08,0,0,1,456.94,358.76Zm-2.57,3.37v.17a3,3,0,0,0,.68,2,2.23,2.23,0,0,0,1.78.78,2.19,2.19,0,0,0,1.77-.79,3.05,3.05,0,0,0,.67-2.07v-.18a2.64,2.64,0,0,0-.68-1.89,2.33,2.33,0,0,0-1.78-.73,2.29,2.29,0,0,0-1.77.74A2.82,2.82,0,0,0,454.37,362.13Z"/><path class="cls-5" d="M464.52,365.8a3.19,3.19,0,0,1-1.7-.46,3.12,3.12,0,0,1-1.19-1.3,4,4,0,0,1-.42-1.86v-.29a4.43,4.43,0,0,1,.41-1.92,3.38,3.38,0,0,1,1.15-1.35,2.92,2.92,0,0,1,1.6-.49,2.69,2.69,0,0,1,2.14.92,3.73,3.73,0,0,1,.79,2.52V362H462v.16a3.11,3.11,0,0,0,.72,2.1,2.32,2.32,0,0,0,1.82.83,2.67,2.67,0,0,0,1.16-.24,2.57,2.57,0,0,0,.91-.76l.51.39A3,3,0,0,1,464.52,365.8Zm-.15-7a2,2,0,0,0-1.55.68,3.11,3.11,0,0,0-.77,1.82h4.44v-.09a2.79,2.79,0,0,0-.61-1.74A1.9,1.9,0,0,0,464.37,358.83Z"/><path class="cls-5" d="M468.72,365l.36-.48a6.19,6.19,0,0,0,1-3.41l.13-2.82h4.37V365h.77v2.86h-.82v-2.17H469v2.17h-.79V365Zm.94,0h4.09V359H471l-.09,1.92A6.81,6.81,0,0,1,469.66,365Z"/><path class="cls-5" d="M479.78,365.8a3.16,3.16,0,0,1-1.7-.46,3.12,3.12,0,0,1-1.19-1.3,4,4,0,0,1-.42-1.86v-.29a4.29,4.29,0,0,1,.41-1.92,3.38,3.38,0,0,1,1.15-1.35,2.9,2.9,0,0,1,1.6-.49,2.69,2.69,0,0,1,2.14.92,3.78,3.78,0,0,1,.79,2.52V362h-5.28v.16a3.11,3.11,0,0,0,.72,2.1,2.32,2.32,0,0,0,1.82.83,2.63,2.63,0,0,0,1.15-.24,2.6,2.6,0,0,0,.92-.76l.51.39A3,3,0,0,1,479.78,365.8Zm-.15-7a2,2,0,0,0-1.55.68,3,3,0,0,0-.77,1.82h4.43v-.09a2.68,2.68,0,0,0-.61-1.74A1.86,1.86,0,0,0,479.63,358.83Z"/><path class="cls-5" d="M484.24,365.67v-7.4H487a3.92,3.92,0,0,1,2.16.5,1.67,1.67,0,0,1,.75,1.48,1.57,1.57,0,0,1-.33,1,1.94,1.94,0,0,1-1,.64,2,2,0,0,1,1.17.62,1.64,1.64,0,0,1,.44,1.13,1.78,1.78,0,0,1-.72,1.51,3.35,3.35,0,0,1-2,.54Zm.81-4.09h2.07c1.29,0,1.93-.46,1.93-1.31a1.07,1.07,0,0,0-.53-1A3.13,3.13,0,0,0,487,359h-1.9Zm0,.68V365h2.37a2.52,2.52,0,0,0,1.43-.35,1.19,1.19,0,0,0,.49-1,1.16,1.16,0,0,0-.49-1,2.44,2.44,0,0,0-1.43-.36Z"/><path class="cls-5" d="M496.65,365.67a3.54,3.54,0,0,1-.16-1,2.77,2.77,0,0,1-1.1.87,3.37,3.37,0,0,1-1.41.3,2.47,2.47,0,0,1-1.73-.59,1.94,1.94,0,0,1-.66-1.5,2,2,0,0,1,.9-1.71,4.33,4.33,0,0,1,2.51-.63h1.48v-.84a1.61,1.61,0,0,0-.49-1.25,2,2,0,0,0-1.42-.46,2.27,2.27,0,0,0-1.42.44,1.3,1.3,0,0,0-.56,1.05h-.82a1.89,1.89,0,0,1,.82-1.53,3.18,3.18,0,0,1,2-.65,2.91,2.91,0,0,1,1.95.62,2.21,2.21,0,0,1,.73,1.73V364a4.3,4.3,0,0,0,.23,1.6v.09Zm-2.57-.59a2.69,2.69,0,0,0,1.46-.4,2.29,2.29,0,0,0,.94-1.06V362H495a3.68,3.68,0,0,0-1.92.44,1.35,1.35,0,0,0-.69,1.2,1.32,1.32,0,0,0,.47,1A1.73,1.73,0,0,0,494.08,365.08Z"/><path class="cls-5" d="M499.3,367.53l-.48-.36a3,3,0,0,0,.64-1.73v-1.06h.8v.86A3,3,0,0,1,499.3,367.53Z"/><path class="cls-5" d="M510.54,361.06a3.11,3.11,0,0,1-1.09,1,2.84,2.84,0,0,1-1.41.36,2.67,2.67,0,0,1-1.5-.44,2.92,2.92,0,0,1-1-1.21,4,4,0,0,1-.36-1.69,4.19,4.19,0,0,1,.38-1.79,3.07,3.07,0,0,1,1.06-1.26,2.88,2.88,0,0,1,1.57-.44,2.8,2.8,0,0,1,2.33,1.05,4.65,4.65,0,0,1,.84,3v.74a6.15,6.15,0,0,1-1.15,4.05,4.37,4.37,0,0,1-3.51,1.35h-.15V365h.28a3.64,3.64,0,0,0,2.72-1A4.37,4.37,0,0,0,510.54,361.06Zm-2.4.64a2.46,2.46,0,0,0,1.48-.49,2.67,2.67,0,0,0,.92-1.27v-.47a3.84,3.84,0,0,0-.63-2.35,2,2,0,0,0-1.7-.83,2,2,0,0,0-1.6.78,3.09,3.09,0,0,0-.62,2,3,3,0,0,0,.6,1.9A1.91,1.91,0,0,0,508.14,361.7Z"/><path class="cls-5" d="M443,382.47h-6.24v-.63l3.41-3.87a8.91,8.91,0,0,0,1.18-1.61,2.71,2.71,0,0,0,.33-1.24,2,2,0,0,0-.56-1.5,2.08,2.08,0,0,0-1.52-.55,2.14,2.14,0,0,0-1.62.65,2.26,2.26,0,0,0-.62,1.66h-.82a3.15,3.15,0,0,1,.38-1.53,2.8,2.8,0,0,1,1.08-1.08,3.24,3.24,0,0,1,1.6-.39,3.07,3.07,0,0,1,2.14.71,2.57,2.57,0,0,1,.76,2,3.3,3.3,0,0,1-.43,1.52,11.24,11.24,0,0,1-1.53,2.07l-2.77,3.14H443Z"/><path class="cls-5" d="M450.52,378.32a5.44,5.44,0,0,1-.77,3.19,2.6,2.6,0,0,1-2.28,1.09,2.63,2.63,0,0,1-2.26-1.07,5.3,5.3,0,0,1-.8-3.11v-1.78a5.49,5.49,0,0,1,.77-3.18,3,3,0,0,1,4.54,0,5.21,5.21,0,0,1,.8,3.07Zm-.82-1.79a4.85,4.85,0,0,0-.55-2.58,2.06,2.06,0,0,0-3.36,0,4.74,4.74,0,0,0-.57,2.52v2a4.79,4.79,0,0,0,.58,2.6,1.86,1.86,0,0,0,1.67.9,1.83,1.83,0,0,0,1.66-.88,4.79,4.79,0,0,0,.57-2.58Z"/><path class="cls-5" d="M452.33,382a.58.58,0,0,1,.16-.4.55.55,0,0,1,.43-.17.58.58,0,0,1,.43.17.57.57,0,0,1,.15.4.55.55,0,0,1-.15.4.61.61,0,0,1-.43.15.58.58,0,0,1-.43-.15A.56.56,0,0,1,452.33,382Z"/><path class="cls-5" d="M459.43,382.47h-.82v-9l-2.71,1v-.76l3.39-1.26h.14Z"/><path class="cls-5" d="M467.19,382.47h-.82v-9l-2.71,1v-.76l3.39-1.26h.14Z"/><path class="cls-5" d="M443.21,391h-4.44v1.92h1.6a4.27,4.27,0,0,1,2.78.85,2.83,2.83,0,0,1,1,2.3,2.94,2.94,0,0,1-1,2.33,4.12,4.12,0,0,1-2.72.89h-3.75v-10h6.52Zm-4.44,3.58v3.06h1.63a1.76,1.76,0,0,0,1.25-.43,1.47,1.47,0,0,0,.47-1.16,1.36,1.36,0,0,0-.45-1.07,1.82,1.82,0,0,0-1.22-.4Z"/><path class="cls-5" d="M448.76,399.4a3.64,3.64,0,0,1-2.65-1,3.57,3.57,0,0,1-1-2.66v-.19a4.45,4.45,0,0,1,.43-2,3.2,3.2,0,0,1,1.22-1.35,3.41,3.41,0,0,1,1.8-.48,3.07,3.07,0,0,1,2.39,1,3.89,3.89,0,0,1,.87,2.71v.81h-4.71a1.87,1.87,0,0,0,.58,1.16,1.71,1.71,0,0,0,1.22.44,2.1,2.1,0,0,0,1.78-.83l1,1.09a2.85,2.85,0,0,1-1.2,1A3.83,3.83,0,0,1,448.76,399.4Zm-.23-6.07a1.21,1.21,0,0,0-.95.4,2.07,2.07,0,0,0-.47,1.13h2.75v-.15a1.47,1.47,0,0,0-.36-1A1.26,1.26,0,0,0,448.53,393.33Z"/><path class="cls-5" d="M456,397.81a1.31,1.31,0,0,0,.89-.3,1,1,0,0,0,.35-.8h1.86a2.68,2.68,0,0,1-.41,1.38,2.76,2.76,0,0,1-1.11,1,3.46,3.46,0,0,1-1.55.34,3.22,3.22,0,0,1-2.5-1,4,4,0,0,1-.91-2.79v-.13a4,4,0,0,1,.9-2.73,3.18,3.18,0,0,1,2.5-1,3.12,3.12,0,0,1,2.22.79,2.78,2.78,0,0,1,.86,2.1h-1.86a1.32,1.32,0,0,0-.35-.93,1.33,1.33,0,0,0-1.95.14,3,3,0,0,0-.35,1.63v.21a3,3,0,0,0,.35,1.64A1.22,1.22,0,0,0,456,397.81Z"/><path class="cls-5" d="M466.66,399.27h-2v-5.81H462.2v5.81h-2v-7.4h6.44Z"/><path class="cls-5" d="M474.6,391.87v7.4h-2v-5.81h-1.74l-.12,2.29a5.23,5.23,0,0,1-.72,2.66,2.12,2.12,0,0,1-1.79.86h-.67l0-1.61.24,0a.9.9,0,0,0,.78-.63,6.22,6.22,0,0,0,.31-2l.14-3.14Z"/><path class="cls-5" d="M480.41,399.27a2.21,2.21,0,0,1-.2-.67,2.37,2.37,0,0,1-1.86.8,2.64,2.64,0,0,1-1.81-.63,2,2,0,0,1-.71-1.58,2.11,2.11,0,0,1,.87-1.81,4.26,4.26,0,0,1,2.52-.63h.91v-.43a1.26,1.26,0,0,0-.26-.82,1.07,1.07,0,0,0-.83-.3,1.18,1.18,0,0,0-.79.24.79.79,0,0,0-.28.65h-2a2,2,0,0,1,.4-1.19,2.73,2.73,0,0,1,1.12-.86,4.26,4.26,0,0,1,1.63-.31,3.23,3.23,0,0,1,2.17.69,2.42,2.42,0,0,1,.8,1.93v3.21a3.48,3.48,0,0,0,.3,1.59v.12Zm-1.63-1.38a1.66,1.66,0,0,0,.8-.19,1.32,1.32,0,0,0,.55-.52V395.9h-.74c-1,0-1.51.35-1.58,1v.12a.76.76,0,0,0,.26.6A1,1,0,0,0,478.78,397.89Z"/><path class="cls-5" d="M489.66,393.46h-2.37v5.81h-2v-5.81H483v-1.59h6.69Z"/><path class="cls-5" d="M497.06,399.27h-2v-2.84h-2.45v2.84h-2v-7.4h2v3h2.45v-3h2Z"/><path class="cls-5" d="M500.71,394h1.41a4,4,0,0,1,1.68.32,2.37,2.37,0,0,1,1.11.92,2.49,2.49,0,0,1,.39,1.39,2.3,2.3,0,0,1-.87,1.88,3.55,3.55,0,0,1-2.35.72h-3.36v-7.4h2Zm0,1.59v2.06h1.4a1.34,1.34,0,0,0,.9-.27,1,1,0,0,0,.31-.75,1,1,0,0,0-.3-.76,1.31,1.31,0,0,0-.91-.28Zm7.73,3.64h-2v-7.4h2Z"/><path class="cls-5" d="M514.64,391.87h2v7.4h-2V394.7l-2.48,4.57h-2v-7.4h2v4.56Zm1.16-3a1.84,1.84,0,0,1-.65,1.46,2.93,2.93,0,0,1-3.43,0,1.85,1.85,0,0,1-.65-1.47h1.4a.85.85,0,0,0,.26.66,1.14,1.14,0,0,0,1.4,0,.85.85,0,0,0,.25-.66Z"/><path class="cls-5" d="M521.74,399.27v-7.4h3.09a4.26,4.26,0,0,1,2.32.53,1.73,1.73,0,0,1,.8,1.54,1.4,1.4,0,0,1-.33.91,2.15,2.15,0,0,1-1,.63,2.44,2.44,0,0,1,1.25.59,1.47,1.47,0,0,1,.45,1.08,1.8,1.8,0,0,1-.78,1.58,3.89,3.89,0,0,1-2.25.54Zm2-4.4h1.22c.69,0,1-.23,1-.66a.65.65,0,0,0-.28-.58,1.78,1.78,0,0,0-.87-.17h-1.11Zm0,1.33v1.49h1.59c.7,0,1-.25,1-.73s-.33-.75-1-.76Z"/><path class="cls-5" d="M529.23,395.5a4.41,4.41,0,0,1,.42-2,3,3,0,0,1,1.22-1.33,3.52,3.52,0,0,1,1.85-.48,3.36,3.36,0,0,1,2.44.92,3.67,3.67,0,0,1,1.06,2.49v.5a3.86,3.86,0,0,1-1,2.74,3.7,3.7,0,0,1-5.1,0,3.92,3.92,0,0,1-.95-2.79Zm2,.14a2.72,2.72,0,0,0,.4,1.61,1.42,1.42,0,0,0,2.25,0,3,3,0,0,0,.41-1.76,2.7,2.7,0,0,0-.41-1.6,1.4,1.4,0,0,0-2.25,0A3,3,0,0,0,531.2,395.64Z"/><path class="cls-5" d="M544.11,395.64a4.43,4.43,0,0,1-.78,2.74,2.49,2.49,0,0,1-2.09,1,2.32,2.32,0,0,1-1.82-.78v3.49h-2V391.87h1.83l.07.73a2.31,2.31,0,0,1,1.87-.87,2.51,2.51,0,0,1,2.13,1,4.57,4.57,0,0,1,.76,2.78Zm-2-.15a3,3,0,0,0-.36-1.59,1.21,1.21,0,0,0-1.07-.56,1.31,1.31,0,0,0-1.28.71v3a1.33,1.33,0,0,0,1.3.73C541.66,397.81,542.13,397,542.13,395.49Z"/><path class="cls-5" d="M548.23,396.54h-.79v2.73h-2v-7.4h2v2.78h.7l1.61-2.78h2.5l-2.42,3.52,2.64,3.88h-2.63Z"/><path class="cls-5" d="M555.2,391.87v5.8h2v-5.8h2v5.8h2v-5.8h2v7.4h-10v-7.4Z"/><path class="cls-5" d="M564.49,395.5a4.28,4.28,0,0,1,.43-2,3,3,0,0,1,1.22-1.33,3.49,3.49,0,0,1,1.85-.48,3.38,3.38,0,0,1,2.44.92,3.72,3.72,0,0,1,1.06,2.49v.5a3.9,3.9,0,0,1-1,2.74,3.7,3.7,0,0,1-5.1,0,3.92,3.92,0,0,1-1-2.79Zm2,.14a2.79,2.79,0,0,0,.39,1.61,1.33,1.33,0,0,0,1.14.56,1.3,1.3,0,0,0,1.12-.55,3,3,0,0,0,.4-1.76,2.7,2.7,0,0,0-.4-1.6,1.41,1.41,0,0,0-2.26,0A3.13,3.13,0,0,0,566.47,395.64Z"/><path class="cls-5" d="M579.15,399.27h-2v-5.81h-2.48v5.81h-2v-7.4h6.43Z"/><path class="cls-3" d="M342.81,280.19h-3.43v-7.3h-5.09v7.3h-3.44V263.12h3.44V270h5.09v-6.91h3.43Z"/><path class="cls-3" d="M354.39,272.8H349v4.53h6.36v2.86h-9.8V263.12h9.77V266H349v4h5.37Z"/><path class="cls-3" d="M368.28,270.71l2.3-7.59h3.7l-4.68,13.71a7,7,0,0,1-1.71,2.81,3.54,3.54,0,0,1-2.21.79h-.38l-.82,0-.06-2.86a3.53,3.53,0,0,0,.76,0,1.43,1.43,0,0,0,1-.29,2.58,2.58,0,0,0,.58-1.31l.17-.62L362,263.12h3.7Z"/><path class="cls-3" d="M387.4,274.5a6.34,6.34,0,0,1-1.64,4.42,5.79,5.79,0,0,1-4.26,1.5,5.38,5.38,0,0,1-4.44-1.9,8.43,8.43,0,0,1-1.54-5.44v-2.87a8.24,8.24,0,0,1,1.59-5.42,6.31,6.31,0,0,1,8.67-.34,7.1,7.1,0,0,1,1.65,4.47H384a4.59,4.59,0,0,0-.56-2.49,2.21,2.21,0,0,0-1.87-.68,2.07,2.07,0,0,0-2,1,6.6,6.6,0,0,0-.61,3.18v3.22a7.39,7.39,0,0,0,.57,3.49,2.07,2.07,0,0,0,1.95.95,2.25,2.25,0,0,0,1.87-.66,4.33,4.33,0,0,0,.59-2.4Z"/><path class="cls-3" d="M401.5,280.19h-3.44V266H393v14.19h-3.44V263.12H401.5Z"/><path class="cls-3" d="M413.09,272.8h-5.37v4.53h6.36v2.86h-9.8V263.12h9.77V266h-6.33v4h5.37Z"/><path class="cls-3" d="M428,263.12v17.07h-3.46V266H421.4l-.23,6a20.22,20.22,0,0,1-.68,4.74,5,5,0,0,1-1.56,2.57,4.33,4.33,0,0,1-2.76.84h-.84v-2.86l.4,0a1.88,1.88,0,0,0,1.55-1.41,16.52,16.52,0,0,0,.59-4.54l.22-8.22Z"/><path class="cls-3" d="M448.29,280.19h-3.43v-7.3h-5.09v7.3h-3.44V263.12h3.44V270h5.09v-6.91h3.43Z"/><path class="cls-3" d="M459.42,276.69h-4.7l-.92,3.5h-3.64l5.33-17.07h3.15L464,280.19h-3.68Zm-3.95-2.87h3.18l-1.59-6.08Z"/><path class="cls-3" d="M471.13,280.19V263.12h5.28a6.11,6.11,0,0,1,4.06,1.19,4.38,4.38,0,0,1,1.39,3.49,4.15,4.15,0,0,1-.58,2.24,3.38,3.38,0,0,1-1.57,1.37,3,3,0,0,1,1.77,1.32,4.45,4.45,0,0,1,.62,2.44,4.85,4.85,0,0,1-1.36,3.75,5.64,5.64,0,0,1-4,1.27Zm3.45-9.93h1.79a1.83,1.83,0,0,0,2-2.1,2.4,2.4,0,0,0-.47-1.66,2,2,0,0,0-1.52-.5h-1.83Zm0,2.51v4.56h2.2a1.72,1.72,0,0,0,1.41-.58,2.46,2.46,0,0,0,.48-1.63c0-1.53-.56-2.31-1.67-2.35Z"/><path class="cls-3" d="M496.17,274.5a6.39,6.39,0,0,1-1.65,4.42,5.78,5.78,0,0,1-4.26,1.5,5.38,5.38,0,0,1-4.44-1.9,8.49,8.49,0,0,1-1.54-5.44v-2.87a8.19,8.19,0,0,1,1.6-5.42,6.3,6.3,0,0,1,8.66-.34,7,7,0,0,1,1.65,4.47h-3.46a4.59,4.59,0,0,0-.56-2.49,2.2,2.2,0,0,0-1.86-.68,2.08,2.08,0,0,0-2,1,6.72,6.72,0,0,0-.61,3.18v3.22a7.39,7.39,0,0,0,.57,3.49,2.08,2.08,0,0,0,1.95.95,2.24,2.24,0,0,0,1.87-.66,4.33,4.33,0,0,0,.59-2.4Z"/><path class="cls-3" d="M509,266h-4.22v14.19h-3.46V266h-4.15v-2.88H509Z"/><path class="cls-3" d="M514.42,274.19v6H511V263.12h5.81a5.37,5.37,0,0,1,4,1.57,5.67,5.67,0,0,1,1.5,4.08,5.25,5.25,0,0,1-1.49,4,5.63,5.63,0,0,1-4.12,1.46Zm0-2.87h2.37a1.87,1.87,0,0,0,1.52-.65,2.84,2.84,0,0,0,.54-1.87,3.38,3.38,0,0,0-.55-2,1.75,1.75,0,0,0-1.47-.76h-2.41Z"/><path class="cls-3" d="M533.44,272.8h-5.36v4.53h6.35v2.86h-9.8V263.12h9.77V266h-6.32v4h5.36Z"/><path class="cls-3" d="M548.31,263.12v17.07h-3.44v-6.44a11.61,11.61,0,0,1-2.58.31,5.88,5.88,0,0,1-4.25-1.41,5.54,5.54,0,0,1-1.53-4v-5.48H540v5.29a3.48,3.48,0,0,0,.51,2.14,2.19,2.19,0,0,0,1.81.65,11.08,11.08,0,0,0,2.58-.31v-7.77Z"/><path class="cls-3" d="M556.47,270.71l2.3-7.59h3.7l-4.68,13.71a7,7,0,0,1-1.71,2.81,3.54,3.54,0,0,1-2.21.79h-.38l-.82,0-.06-2.86a3.66,3.66,0,0,0,.77,0,1.46,1.46,0,0,0,1-.29A2.76,2.76,0,0,0,555,276l.16-.62-4.87-12.23h3.69Z"/><path class="cls-4" d="M453,314.75a9.59,9.59,0,0,0-9,12.85,5.53,5.53,0,0,1,4.08-1.73c4.66,0,4.66,4.57,9.32,4.57a5.56,5.56,0,0,0,4.13-1.77A9.56,9.56,0,0,0,453,314.75Z"/><path class="cls-6" d="M453,333.9a9.56,9.56,0,0,0,8.53-5.23,5.56,5.56,0,0,1-4.13,1.77c-4.66,0-4.66-4.57-9.32-4.57A5.53,5.53,0,0,0,444,327.6,9.57,9.57,0,0,0,453,333.9Z"/><path class="cls-7" d="M444,327.6a5.53,5.53,0,0,1,4.08-1.73c4.66,0,4.66,4.57,9.32,4.57a5.56,5.56,0,0,0,4.13-1.77A9.54,9.54,0,0,0,461,319a4.39,4.39,0,0,0-3.87-1.91c-5.14,0-5,4.59-9.44,4.59a6.12,6.12,0,0,1-3.41-1.29h0a9.68,9.68,0,0,0-.25,7.17Z"/><path class="cls-4" d="M439.56,346.1a3.26,3.26,0,0,1-1.24-.22,2.38,2.38,0,0,1-.94-.65,3.15,3.15,0,0,1-.6-1.07,4.85,4.85,0,0,1-.21-1.5,5,5,0,0,1,.21-1.52,3.46,3.46,0,0,1,.6-1.11,2.45,2.45,0,0,1,.94-.68,3.08,3.08,0,0,1,1.24-.23,2.85,2.85,0,0,1,1.55.38,2.58,2.58,0,0,1,1,1.2l-1.26.66a1.51,1.51,0,0,0-.42-.68,1.22,1.22,0,0,0-.84-.26,1.36,1.36,0,0,0-1,.42,1.75,1.75,0,0,0-.39,1.23v1.08a1.74,1.74,0,0,0,.39,1.22,1.36,1.36,0,0,0,1,.42,1.24,1.24,0,0,0,.86-.29,1.79,1.79,0,0,0,.48-.71l1.2.69a3,3,0,0,1-1,1.2A2.7,2.7,0,0,1,439.56,346.1Z"/><path class="cls-4" d="M446.16,345.54h-.4a2.94,2.94,0,0,1-1.17-.23,2.64,2.64,0,0,1-.92-.61,2.85,2.85,0,0,1-.59-.92,3.13,3.13,0,0,1-.21-1.15,3.06,3.06,0,0,1,.21-1.15,2.62,2.62,0,0,1,.58-.93,2.56,2.56,0,0,1,.91-.63,3,3,0,0,1,1.19-.22h.4v-.87h1.49v.87H448a3,3,0,0,1,1.19.22,2.56,2.56,0,0,1,.91.63,2.79,2.79,0,0,1,.59.93,3.27,3.27,0,0,1,.2,1.15,3.13,3.13,0,0,1-.21,1.15,2.85,2.85,0,0,1-.59.92,2.64,2.64,0,0,1-.92.61,2.94,2.94,0,0,1-1.17.23h-.39v.87h-1.49Zm0-1.21V340.9h-.42a1.48,1.48,0,0,0-.63.12,1,1,0,0,0-.42.3,1.12,1.12,0,0,0-.25.44,1.69,1.69,0,0,0-.08.56v.6a1.51,1.51,0,0,0,.34,1,1.31,1.31,0,0,0,1,.4Zm1.86,0a1.31,1.31,0,0,0,1-.4,1.51,1.51,0,0,0,.34-1v-.6a1.69,1.69,0,0,0-.08-.56,1.12,1.12,0,0,0-.67-.74,1.54,1.54,0,0,0-.63-.12h-.42v3.43Z"/><path class="cls-4" d="M452.26,346v-6.75h4.59v1.31h-3.12v1.37h2.68v1.31h-2.68v1.46h3.12V346Z"/><path class="cls-4" d="M458.37,346v-6.75h3.19a2.26,2.26,0,0,1,.85.16,1.83,1.83,0,0,1,.64.44,2,2,0,0,1,.42.68,2.84,2.84,0,0,1,0,1.76,2,2,0,0,1-.42.68,2,2,0,0,1-.64.44,2.26,2.26,0,0,1-.85.15h-1.72V346Zm1.47-3.71h1.55a.73.73,0,0,0,.51-.17.62.62,0,0,0,.19-.5v-.42a.62.62,0,0,0-.19-.5.69.69,0,0,0-.51-.17h-1.55Z"/><path class="cls-4" d="M468.41,346l-.49-1.6h-2.25l-.48,1.6H463.7l2.22-6.75h1.82l2.19,6.75Zm-1.6-5.41h-.05l-.74,2.56h1.55Z"/></g><g id="Layer_2" data-name="Layer 2"><rect x="257.21" y="435.44" width="57.13" height="5.71" transform="translate(-237.34 427.25) rotate(-55.69)"/><rect x="290.98" y="397.33" width="85.2" height="5.71" transform="translate(-154.47 217.88) rotate(-29.7)"/><rect class="cls-4" x="292.92" y="302.75" width="9.42" height="3.96" rx="1.72" transform="translate(-9.13 600.27) rotate(-89.61)"/><path class="cls-4" d="M410.37,422.7a1.45,1.45,0,0,1-1.48-1.62v-.83a1.34,1.34,0,0,1,1.45-1.51l6,0c.95,0,2,.53,2,1.48V421a1.91,1.91,0,0,1-2,1.65Z"/><rect class="cls-4" x="295.64" y="531.96" width="3.96" height="9.42" rx="1.72" transform="translate(-0.91 0.5) rotate(-0.1)"/><rect class="cls-4" x="176.95" y="418.72" width="9.42" height="3.96" rx="1.72"/><path class="cls-4" d="M199.42,362.2a1.54,1.54,0,0,0-2.11.56h0a1.54,1.54,0,0,0,.55,2.12l4,2.34a1.55,1.55,0,0,0,2.12-.56h0a1.55,1.55,0,0,0-.56-2.12Z"/><path class="cls-4" d="M241.8,320.92a1.55,1.55,0,0,0-2.11-.55h0a1.55,1.55,0,0,0-.56,2.12l2.35,4a1.55,1.55,0,0,0,2.12.56h0a1.56,1.56,0,0,0,.55-2.12Z"/><path class="cls-4" d="M356.13,322.48a1.53,1.53,0,0,0-.58-2.11h0a1.53,1.53,0,0,0-2.11.58l-2.3,4a1.55,1.55,0,0,0,.58,2.11h0a1.55,1.55,0,0,0,2.11-.58Z"/><path class="cls-4" d="M397.41,365a1.56,1.56,0,0,0,.61-2.11h0a1.55,1.55,0,0,0-2.1-.61l-4.08,2.23a1.55,1.55,0,0,0-.61,2.11h0a1.55,1.55,0,0,0,2.1.61Z"/><path class="cls-4" d="M395.84,479.2a1.55,1.55,0,0,0,2.12-.57h0a1.54,1.54,0,0,0-.56-2.11l-4-2.34a1.55,1.55,0,0,0-2.12.57h0a1.55,1.55,0,0,0,.56,2.12Z"/><path class="cls-4" d="M353.42,520.47a1.55,1.55,0,0,0,2.12.56h0a1.55,1.55,0,0,0,.56-2.12l-2.34-4a1.54,1.54,0,0,0-2.11-.56h0a1.55,1.55,0,0,0-.57,2.12Z"/><path class="cls-4" d="M239.18,518.88a1.55,1.55,0,0,0,.55,2.12h0a1.55,1.55,0,0,0,2.12-.55l2.36-4a1.54,1.54,0,0,0-.55-2.12h0a1.54,1.54,0,0,0-2.12.55Z"/><path class="cls-4" d="M197.85,476.51a1.55,1.55,0,0,0-.56,2.12h0a1.55,1.55,0,0,0,2.11.57l4-2.33a1.54,1.54,0,0,0,.57-2.11h0a1.54,1.54,0,0,0-2.11-.57Z"/><rect class="cls-8" x="252.66" y="331.3" width="3.59" height="136.97" transform="translate(-216.56 452.01) rotate(-63.85)"/><path d="M297.56,432a11.08,11.08,0,1,1,11.15-11A11.09,11.09,0,0,1,297.56,432Z"/><path class="cls-9" d="M261.56,516.48s-31.47,16.21-46.37,6.17c0,0-.54-3.65,1.63-4.8s4.21-1.34,4.48-.65,3.07,2.75,7.28,1.41,17.41-4.88,17.56-5.94,7.43-4.62,7.43-4.62l10,4Z"/><path class="cls-10" d="M305.19,492.69s6.17,6,13.8,4.36,9-1.77,10.07-9.33A17.34,17.34,0,0,0,326,475s5.67,12.43,12.42,11.6,3-6.13,2.34-6.14-13.85-7.91-14.94-12.41-5.54,1.84-5.44,2.35-3.8,13.23-3.8,13.23Z"/><path class="cls-4" d="M316.17,466.52s-8.95-6.57-19.28,4.07-10.57,17.5-10.71,18.15-6.94,12.87-15.15,10.95c-4.81-1.13-6.11-2.8-6.36-4a4.55,4.55,0,0,0-2.3-3,14.81,14.81,0,0,0-6.2-2c-4-.12-10.67,4.66-10.78,7.08a13.77,13.77,0,0,1-.38,2.53,4.56,4.56,0,0,1-2.58,3.14c-1.48.68-3.31,1.89-3.26,3.73.06,2.66,6.25,5.25,8,5.93a4.5,4.5,0,0,0,.89.24l10.58,1.81a4.61,4.61,0,0,1,3.69,3.32,10.88,10.88,0,0,1,.24,4.62c-.72,4.45-8.77,11.25-14.66,9.83s-6,2.22-6,2.22-.93,2.51,4.53,3,20.67-3,25.69-9.11a22.51,22.51,0,0,0,3.93-6.3,4.71,4.71,0,0,1,3.29-3c3.58-.85,9.79-2.94,14.22-7.82,6.58-7.25,15.6-19.13,17.15-18.79s-12.65-4.83-12.41-11.84,11.16-16.54,15.63-15.45A7.89,7.89,0,0,1,316.17,466.52Z"/><path class="cls-3" d="M255,499c0,1.5.25,2.72-1.25,2.72s-1.18-1.22-1.18-2.72-.32-2.72,1.18-2.72S255,497.52,255,499Z"/><path class="cls-4" d="M312.92,466.68s57.72-72.08,102.85-29.28c0,0,10.59,19.72-11.47,20.76s-47-8.08-82.41,8.06c0,0-5.13,2.14-5.3,4.25S312.92,466.68,312.92,466.68Z"/><path class="cls-11" d="M310.8,466a7,7,0,0,1,5.88,1.14c2.52,1.79,5.65,6.91,6.42,11.46,1.24,7.3-6.7,14.88-11.74,14.54s-13.48-4.7-13.4-11.81C298,477.24,301.92,468.39,310.8,466Z"/><path class="cls-4" d="M263.4,495.61s4.65-4.91,4.46-6.31c-.35-2.42-5.1-.76-5.92,0a36.85,36.85,0,0,0-2.72,3.1Z"/></g></svg>