<svg xmlns="http://www.w3.org/2000/svg" viewBox="0 0 595.28 841.89"><defs><style>.cls-1{fill:#0037ff;}.cls-2{fill:none;stroke:#a0e0f9;stroke-width:25px;}.cls-2,.cls-30{stroke-miterlimit:10;}.cls-3,.cls-5{font-size:24px;}.cls-29,.cls-3{fill:#231f20;}.cls-3,.cls-4,.cls-5{font-family:RobotoCondensed-Bold, Roboto Condensed;}.cls-17,.cls-23,.cls-3,.cls-4,.cls-5{font-weight:700;}.cls-4{font-size:60px;}.cls-20,.cls-23,.cls-30,.cls-4,.cls-5{fill:#fff;}.cls-6{letter-spacing:0.01em;}.cls-7{letter-spacing:0.01em;}.cls-8{letter-spacing:0.01em;}.cls-9{letter-spacing:-0.01em;}.cls-10{letter-spacing:-0.03em;}.cls-11{letter-spacing:-0.01em;}.cls-12{letter-spacing:-0.01em;}.cls-13{letter-spacing:-0.01em;}.cls-14{letter-spacing:0.01em;}.cls-15{letter-spacing:-0.02em;}.cls-16{font-size:14px;fill:#9fdff8;font-family:Roboto-Light, Roboto;font-weight:300;}.cls-17{font-family:Roboto-Bold, Roboto;}.cls-18{letter-spacing:-0.01em;}.cls-19{letter-spacing:-0.01em;}.cls-21{fill:#2556a2;}.cls-22{fill:#83aedd;}.cls-23{font-size:9.67px;font-family:IBMPlexSans-Bold, IBM Plex Sans;letter-spacing:0.01em;}.cls-24{letter-spacing:0.03em;}.cls-25{letter-spacing:-0.05em;}.cls-26{fill:#d8d9da;}.cls-27{fill:#898b8d;}.cls-28{fill:#aaabb0;}.cls-30{stroke:#fff;}</style></defs><title>5</title><g id="Layer_3" data-name="Layer 3"><rect class="cls-1" width="595.28" height="841.89"/><path class="cls-2" d="M647.59,421c0,193.69-156.52,350.42-350,350.42S-52.31,614.64-52.31,421s156.52-350.43,350-350.43"/><path class="cls-2" d="M296.61,721.31C131.29,720.75-2.32,586.62-2.32,421c0-166,134.16-300.37,300-300.37H595.28"/><path class="cls-2" d="M297.64,671.25c-138.17,0-250-112-250-250.3s111.8-250.31,250-250.31"/><path class="cls-2" d="M497.61,421c0,110.68-89.44,200.24-200,200.24s-200-89.56-200-200.24,89.44-200.25,200-200.25H595.28"/><path class="cls-2" d="M447.62,421a150,150,0,1,1-150-150.19H595.28"/><line class="cls-2" x1="295.83" y1="170.64" x2="595.28" y2="170.64"/><line class="cls-2" x1="295.83" y1="70.52" x2="595.28" y2="70.52"/></g><g id="Layer_1" data-name="Layer 1"><text class="cls-3" transform="translate(126.92 124.49) rotate(-28.73)">П</text><text class="cls-3" transform="translate(139.54 117.56) rotate(-26.33)">О</text><text class="cls-3" transform="matrix(0.91, -0.41, 0.41, 0.91, 152.2, 111.28)">П</text><text class="cls-3" transform="translate(165.36 105.44) rotate(-21.54)">А</text><text class="cls-3" transform="translate(178.55 100.23) rotate(-19.11)">Л</text><text class="cls-3" transform="translate(192.26 95.55) rotate(-17.44)"> </text><text class="cls-3" transform="translate(197.31 93.9) rotate(-15.87)">В</text><text class="cls-3" transform="translate(210.05 90.33) rotate(-14.31)"> </text><text class="cls-3" transform="translate(215.15 88.96) rotate(-12.64)">П</text><text class="cls-3" transform="translate(229.22 85.81) rotate(-10.31)">Р</text><text class="cls-3" transform="matrix(0.99, -0.14, 0.14, 0.99, 242.29, 83.41)">О</text><text class="cls-3" transform="translate(256.31 81.45) rotate(-5.76)">Б</text><text class="cls-3" transform="translate(269.04 80.15) rotate(-3.6)">К</text><text class="cls-3" transform="translate(282.23 79.32) rotate(-1.44)">У</text><text class="cls-3" transform="translate(181.53 760.78) rotate(17.74)">Р</text><text class="cls-3" transform="translate(192.82 764.43) rotate(15.79)">А</text><text class="cls-3" transform="matrix(0.97, 0.23, -0.23, 0.97, 206.92, 768.4)">Б</text><text class="cls-3" transform="matrix(0.98, 0.2, -0.2, 0.98, 220.01, 771.56)">О</text><text class="cls-3" transform="matrix(0.99, 0.16, -0.16, 0.99, 233.53, 774.26)">Т</text><text class="cls-3" transform="translate(245.3 776.2) rotate(7.22)">А</text><text class="cls-3" transform="translate(260.06 778.07) rotate(4.83)">Л</text><text class="cls-3" transform="translate(275 779.26) rotate(3.18)"> </text><text class="cls-3" transform="translate(280.78 779.64) rotate(1.53)">Н</text><text class="cls-3" transform="matrix(1, -0.02, 0.02, 1, 296.07, 780.03)">А</text><text class="cls-3" transform="translate(311.01 779.81) rotate(-3.36)">Д</text><text class="cls-3" transform="translate(326.97 778.79) rotate(-5.1)"> </text><text class="cls-3" transform="translate(332.73 778.35) rotate(-6.83)">Д</text><text class="cls-3" transform="matrix(0.99, -0.16, 0.16, 0.99, 348.69, 776.39)">Е</text><text class="cls-3" transform="matrix(0.98, -0.2, 0.2, 0.98, 360.66, 774.51)">Д</text><text class="cls-3" transform="translate(376.63 771.28) rotate(-13.87)">Л</text><text class="cls-3" transform="matrix(0.96, -0.28, 0.28, 0.96, 391.5, 767.59)">А</text><text class="cls-3" transform="matrix(0.95, -0.32, 0.32, 0.95, 405.6, 763.47)">Й</text><text class="cls-3" transform="translate(419.71 758.69) rotate(-21.08)">Н</text><text class="cls-3" transform="translate(433.98 753.18) rotate(-23.5)">А</text><text class="cls-3" transform="matrix(0.9, -0.44, 0.44, 0.9, 447.52, 747.33)">М</text><text class="cls-3" transform="translate(464.2 739.07) rotate(-28.88)">И</text><text class="cls-4" transform="translate(302.33 742.62) rotate(-2.03)"> </text><text class="cls-4" transform="matrix(0.99, -0.11, 0.11, 0.99, 317.85, 742.4)">В</text><text class="cls-4" transform="translate(352.91 737.93) rotate(-11.04)"> </text><text class="cls-4" transform="translate(368.25 735.28) rotate(-15.62)">К</text><text class="cls-4" transform="translate(402.34 725.72) rotate(-22.17)">О</text><text class="cls-4" transform="translate(437.39 711.35) rotate(-29)">Л</text><text class="cls-4" transform="matrix(0.82, -0.58, 0.58, 0.82, 471.55, 692.03)">Е</text><text class="cls-4" transform="matrix(0.75, -0.66, 0.66, 0.75, 497.43, 673.69)">С</text><text class="cls-4" transform="translate(524.64 649.39) rotate(-47.42)">Е</text><text class="cls-3" transform="translate(62.07 248.57) rotate(-52.28)">Д</text><text class="cls-3" transform="translate(71.55 236.32) rotate(-49.42)">А</text><text class="cls-3" transform="matrix(0.68, -0.73, 0.73, 0.68, 80.62, 225.73)">В</text><text class="cls-3" transform="translate(89.57 216.19) rotate(-44.21)">К</text><text class="cls-3" transform="matrix(0.75, -0.66, 0.66, 0.75, 98.99, 207.01)">А</text><text class="cls-3" transform="translate(109.54 197.74) rotate(-39.64)"> </text><text class="cls-3" transform="matrix(0.79, -0.61, 0.61, 0.79, 113.54, 194.34)">В</text><text class="cls-3" transform="translate(124.01 186.3) rotate(-35.99)"> </text><text class="cls-3" transform="translate(128.12 183.14) rotate(-33.71)">М</text><text class="cls-3" transform="translate(142.96 173.33) rotate(-30.83)">Е</text><text class="cls-3" transform="translate(152.96 167.34) rotate(-28.4)">Т</text><text class="cls-3" transform="matrix(0.9, -0.44, 0.44, 0.9, 164.08, 161.31)">Р</text><text class="cls-3" transform="translate(175.99 155.52) rotate(-23.16)">О</text><text class="cls-3" transform="translate(72.58 632.82) rotate(45.33)">Ч</text><text class="cls-3" transform="translate(83.36 643.7) rotate(42.52)">А</text><text class="cls-3" transform="matrix(0.77, 0.64, -0.64, 0.77, 94.02, 653.46)">С</text><text class="cls-3" transform="matrix(0.79, 0.62, -0.62, 0.79, 104.78, 662.37)"> </text><text class="cls-3" transform="translate(109.31 666.01) rotate(36.15)">П</text><text class="cls-3" transform="matrix(0.84, 0.55, -0.55, 0.84, 121.58, 674.96)">И</text><text class="cls-3" transform="matrix(0.86, 0.51, -0.51, 0.86, 134.08, 683.16)">К</text><text class="cls-3" transform="translate(55.79 421.85) rotate(-88.7)">З</text><text class="cls-3" transform="matrix(0.08, -1, 1, 0.08, 56.04, 409.3)">А</text><text class="cls-3" transform="translate(57.11 395.47) rotate(-82.49)">Б</text><text class="cls-3" transform="translate(58.66 382.99) rotate(-78.89)">Ы</text><text class="cls-3" transform="matrix(0.26, -0.97, 0.97, 0.26, 62.16, 365.41)">Л</text><text class="cls-3" transform="translate(65.95 351.54) rotate(-72.7)"> </text><text class="cls-3" transform="translate(67.38 346.55) rotate(-70.25)">Д</text><text class="cls-3" transform="translate(72.43 332.49) rotate(-66.83)">О</text><text class="cls-3" transform="translate(77.84 319.63) rotate(-63.07)">М</text><text class="cls-3" transform="matrix(0.51, -0.86, 0.86, 0.51, 85.96, 303.76)">А</text><text class="cls-3" transform="matrix(0.54, -0.84, 0.84, 0.54, 93.19, 291.76)"> </text><text class="cls-3" transform="matrix(0.58, -0.82, 0.82, 0.58, 95.95, 287.35)">К</text><text class="cls-3" transform="translate(103.25 276.93) rotate(-51.72)">О</text><text class="cls-3" transform="translate(111.77 265.95) rotate(-47.79)">Ш</text><text class="cls-3" transform="translate(124.92 251.62) rotate(-44.17)">Е</text><text class="cls-3" transform="matrix(0.75, -0.66, 0.66, 0.75, 133, 243.7)">Л</text><text class="cls-3" transform="matrix(0.79, -0.62, 0.62, 0.79, 143.79, 234.31)">Ё</text><text class="cls-3" transform="translate(152.7 227.27) rotate(-35.24)">К</text><text class="cls-5" transform="translate(58.42 321.71) rotate(111.92)"> </text><text class="cls-5" transform="matrix(-0.35, 0.94, -0.94, -0.35, 56.28, 327.02)"> </text><text class="cls-5" transform="translate(54.26 332.39) rotate(109.37)"> </text><text class="cls-5" transform="translate(52.37 337.79) rotate(108.09)"> </text><text class="cls-5" transform="translate(50.59 343.22) rotate(106.82)"> </text><text class="cls-5" transform="matrix(-0.27, 0.96, -0.96, -0.27, 48.94, 348.71)"> </text><text class="cls-5" transform="translate(47.41 354.22) rotate(104.26)"> </text><text class="cls-5" transform="matrix(-0.22, 0.97, -0.97, -0.22, 46, 359.75)"> </text><text class="cls-5" transform="matrix(-0.2, 0.98, -0.98, -0.2, 44.72, 365.33)"> </text><text class="cls-5" transform="matrix(-0.18, 0.98, -0.98, -0.18, 43.56, 370.94)"> </text><text class="cls-5" transform="translate(42.52 376.56) rotate(99.18)"> </text><text class="cls-5" transform="translate(41.61 382.22) rotate(97.91)"> </text><text class="cls-5" transform="translate(40.83 387.87) rotate(96.65)"> </text><text class="cls-5" transform="translate(40.17 393.56) rotate(95.38)"> </text><text class="cls-5" transform="translate(39.63 399.26) rotate(94.12)"> </text><text class="cls-5" transform="translate(39.22 404.97) rotate(92.87)"> </text><text class="cls-5" transform="matrix(-0.03, 1, -1, -0.03, 38.94, 410.66)"> </text><text class="cls-5" transform="translate(38.78 416.38) rotate(90.38)"> </text><text class="cls-5" transform="translate(38.71 422.2) rotate(88.48)"> </text><text class="cls-5" transform="translate(38.83 427.81) rotate(87.9)"> </text><text class="cls-5" transform="matrix(0.06, 1, -1, 0.06, 39.04, 433.52)"> </text><text class="cls-5" transform="translate(39.38 439.22) rotate(85.41)"> </text><text class="cls-5" transform="translate(39.84 444.95) rotate(84.15)"> </text><text class="cls-5" transform="translate(40.42 450.63) rotate(82.89)"> </text><text class="cls-5" transform="translate(41.13 456.3) rotate(81.63)"> </text><text class="cls-5" transform="translate(41.97 461.96) rotate(80.36)"> </text><text class="cls-5" transform="translate(42.93 467.61) rotate(79.09)"> </text><text class="cls-5" transform="matrix(0.21, 0.98, -0.98, 0.21, 44.01, 473.21)"> </text><text class="cls-5" transform="matrix(0.23, 0.97, -0.97, 0.23, 45.22, 478.82)"> </text><text class="cls-5" transform="translate(46.55 484.36) rotate(75.28)"> </text><text class="cls-5" transform="translate(48.01 489.9) rotate(74)"> </text><text class="cls-5" transform="translate(49.59 495.41) rotate(72.72)"> </text><text class="cls-5" transform="translate(51.29 500.87) rotate(71.45)"> </text><text class="cls-5" transform="translate(53.11 506.28) rotate(70.18)"> </text><text class="cls-5" transform="translate(55.05 511.66) rotate(68.9)"> </text><text class="cls-5" transform="translate(57.12 517.01) rotate(67.62)"> </text><text class="cls-5" transform="translate(59.3 522.3) rotate(66.35)"> </text><text class="cls-5" transform="translate(61.6 527.55) rotate(65.07)"> </text><text class="cls-5" transform="translate(64 532.71) rotate(63.81)"> </text><text class="cls-5" transform="matrix(0.46, 0.89, -0.89, 0.46, 66.54, 537.86)"> </text><text class="cls-5" transform="translate(69.17 542.92) rotate(61.26)"> </text><text class="cls-3" transform="matrix(0.52, 0.86, -0.86, 0.52, 71.92, 548.12)">П</text><text class="cls-3" transform="translate(79.81 561.16) rotate(55.68)">Р</text><text class="cls-3" transform="matrix(0.61, 0.79, -0.79, 0.61, 87.78, 572.83)">О</text><text class="cls-3" transform="translate(96.92 584.69) rotate(49.25)">С</text><text class="cls-3" transform="matrix(0.69, 0.72, -0.72, 0.69, 106.18, 595.44)">П</text><text class="cls-3" transform="translate(116.79 606.4) rotate(42.7)">А</text><text class="cls-3" transform="translate(127.84 616.58) rotate(39.34)">Л</text><text class="cls-3" transform="translate(139.58 626.07) rotate(37.03)"> </text><text class="cls-3" transform="translate(144.2 629.64) rotate(34.9)">Б</text><text class="cls-3" transform="matrix(0.85, 0.53, -0.53, 0.85, 155.14, 637.26)">У</text><text class="cls-3" transform="translate(165.91 644.03) rotate(28.84)">Д</text><text class="cls-3" transform="translate(180.18 651.85) rotate(25.36)">И</text><text class="cls-3" transform="translate(193.96 658.37) rotate(21.95)">Л</text><text class="cls-3" transform="translate(208.11 664.03) rotate(18.73)">Ь</text><text class="cls-3" transform="translate(221.03 668.42) rotate(15.51)">Н</text><text class="cls-3" transform="translate(235.72 672.48) rotate(12.14)">И</text><text class="cls-3" transform="matrix(0.99, 0.15, -0.15, 0.99, 250.41, 675.61)">К</text><text class="cls-5" transform="translate(264.12 677.67) rotate(6.73)"> </text><text class="cls-5" transform="translate(269.81 678.34) rotate(5.47)"> </text><text class="cls-5" transform="matrix(1, 0.07, -0.07, 1, 275.51, 678.89)"> </text><text class="cls-5" transform="translate(281.19 679.3) rotate(2.96)"> </text><text class="cls-5" transform="matrix(1, 0.03, -0.03, 1, 286.9, 679.6)"> </text><text class="cls-5" transform="translate(292.62 679.76) rotate(0.47)"> </text><text class="cls-5" transform="matrix(1, -0.03, 0.03, 1, 298.46, 679.84)"> </text><text class="cls-5" transform="translate(304.06 679.73) rotate(-2.01)"> </text><text class="cls-5" transform="matrix(1, -0.06, 0.06, 1, 309.77, 679.53)"> </text><text class="cls-5" transform="translate(315.47 679.2) rotate(-4.51)"> </text><text class="cls-5" transform="translate(321.17 678.75) rotate(-5.76)"> </text><text class="cls-5" transform="translate(326.88 678.17) rotate(-7.03)"> </text><text class="cls-5" transform="matrix(0.99, -0.14, 0.14, 0.99, 332.56, 677.47)"> </text><text class="cls-5" transform="matrix(0.99, -0.17, 0.17, 0.99, 338.2, 676.65)"> </text><text class="cls-5" transform="translate(343.84 675.69) rotate(-10.82)"> </text><text class="cls-5" transform="matrix(0.98, -0.21, 0.21, 0.98, 349.45, 674.62)"> </text><text class="cls-5" transform="translate(355.06 673.42) rotate(-13.36)"> </text><text class="cls-5" transform="translate(360.63 672.09) rotate(-14.64)"> </text><text class="cls-5" transform="translate(366.15 670.65) rotate(-15.91)"> </text><text class="cls-5" transform="translate(371.66 669.07) rotate(-17.19)"> </text><text class="cls-5" transform="translate(377.13 667.38) rotate(-18.46)"> </text><text class="cls-5" transform="translate(382.54 665.57) rotate(-19.74)"> </text><text class="cls-5" transform="matrix(0.93, -0.36, 0.36, 0.93, 387.95, 663.63)"> </text><text class="cls-5" transform="translate(393.28 661.58) rotate(-22.29)"> </text><text class="cls-5" transform="translate(398.57 659.41) rotate(-23.56)"> </text><text class="cls-4" transform="matrix(0.88, -0.47, 0.47, 0.88, 410.52, 668.7)">К</text><text class="cls-4" transform="matrix(0.81, -0.59, 0.59, 0.81, 442.97, 651.21)">А</text><text class="cls-4" transform="translate(474.2 628.12) rotate(-44.02)">К</text><text class="cls-4" transform="translate(499.58 602.8) rotate(-49.45)"> </text><text class="cls-4" transform="matrix(0.58, -0.82, 0.82, 0.58, 510.15, 590.99)">Б</text><text class="cls-4" transform="translate(530.36 561.91) rotate(-61.88)">Е</text><text class="cls-4" transform="translate(545.66 533.4) rotate(-69.51)">Л</text><text class="cls-4" transform="translate(559.33 495.89) rotate(-77.66)">К</text><text class="cls-4" transform="translate(567.07 459.84) rotate(-85.63)">А</text><text class="cls-4" transform="translate(569.35 421.88) rotate(-91.52)"> </text><text class="cls-3" transform="translate(88.65 423.22) rotate(87.32)">Н</text><text class="cls-3" transform="translate(89.43 438.49) rotate(83.54)">Е</text><text class="cls-3" transform="matrix(0.18, 0.98, -0.98, 0.18, 90.78, 450.8)">Д</text><text class="cls-3" transform="translate(93.72 466.63) rotate(75.39)">О</text><text class="cls-3" transform="translate(97.55 481.21) rotate(71.38)">С</text><text class="cls-3" transform="translate(102.09 494.87) rotate(66.81)">Ы</text><text class="cls-3" transform="translate(109.66 512.28) rotate(62.09)">П</text><text class="cls-3" transform="matrix(0.38, -0.92, 0.92, 0.38, 117.73, 354.21)">А</text><text class="cls-3" transform="matrix(0.45, -0.9, 0.9, 0.45, 122.97, 341.5)">В</text><text class="cls-3" transform="matrix(0.5, -0.86, 0.86, 0.5, 128.57, 330.21)">Т</text><text class="cls-3" transform="translate(134.61 319.71) rotate(-55.96)">О</text><text class="cls-3" transform="translate(142.4 308.19) rotate(-51.98)">Б</text><text class="cls-3" transform="translate(149.99 298.44) rotate(-48.26)">У</text><text class="cls-3" transform="matrix(0.71, -0.7, 0.7, 0.71, 158.2, 289.18)">С</text><text class="cls-3" transform="translate(167.73 279.94) rotate(-41.79)"> </text><text class="cls-3" transform="translate(171.4 276.43) rotate(-38.66)">О</text><text class="cls-3" transform="matrix(0.82, -0.57, 0.57, 0.82, 182.25, 267.67)">П</text><text class="cls-3" transform="translate(193.83 259.58) rotate(-30.7)">О</text><text class="cls-3" transform="matrix(0.89, -0.45, 0.45, 0.89, 205.79, 252.49)">З</text><text class="cls-3" transform="translate(216.82 246.85) rotate(-22.61)">Д</text><text class="cls-3" transform="matrix(0.95, -0.31, 0.31, 0.95, 230.93, 240.98)">А</text><text class="cls-3" transform="translate(244.14 236.61) rotate(-13.98)">Л</text><text class="cls-3" transform="translate(193.5 602.17) rotate(27.84)">Н</text><text class="cls-3" transform="matrix(0.91, 0.41, -0.41, 0.91, 207.06, 609.25)">Е</text><text class="cls-3" transform="matrix(0.93, 0.37, -0.37, 0.93, 218.17, 614.13)"> </text><text class="cls-3" transform="translate(223.67 616.4) rotate(18.84)">С</text><text class="cls-3" transform="matrix(0.97, 0.26, -0.26, 0.97, 237.2, 621.01)">П</text><text class="cls-3" transform="matrix(0.98, 0.18, -0.18, 0.98, 252.1, 624.91)">А</text><text class="cls-3" transform="matrix(0.99, 0.11, -0.11, 0.99, 266.99, 627.69)">Л</text><text class="cls-3" transform="matrix(1, 0.06, -0.06, 1, 282.07, 629.26)"> </text><text class="cls-3" transform="translate(288 629.72) rotate(0.83)">В</text><text class="cls-3" transform="translate(302.05 629.9) rotate(-3.07)">С</text><text class="cls-3" transform="translate(316.46 629.22) rotate(-7.86)">Ю</text><text class="cls-3" transform="translate(336.35 626.24) rotate(-11.47)"> </text><text class="cls-3" transform="translate(342.22 625.15) rotate(-14.39)">Н</text><text class="cls-3" transform="translate(357.12 621.3) rotate(-18.6)">О</text><text class="cls-3" transform="translate(371.41 616.47) rotate(-22.77)">Ч</text><text class="cls-3" transform="translate(385.49 610.51) rotate(-26.74)">Ь</text><text class="cls-3" transform="translate(138.81 414.01) rotate(89.88)">Л</text><text class="cls-3" transform="translate(138.89 429.58) rotate(84.27)">И</text><text class="cls-3" transform="translate(140.41 444.98) rotate(78.14)">Ф</text><text class="cls-3" transform="translate(144.31 462.79) rotate(72.31)">Т</text><text class="cls-3" transform="translate(148.3 474.98) rotate(69.04)"> </text><text class="cls-3" transform="translate(150.38 480.67) rotate(65.53)">З</text><text class="cls-3" transform="translate(156.09 493.2) rotate(60.42)">А</text><text class="cls-3" transform="matrix(0.57, 0.82, -0.82, 0.57, 163.46, 506.12)">С</text><text class="cls-3" transform="translate(171.53 517.68) rotate(50.23)">Т</text><text class="cls-3" transform="matrix(0.71, 0.71, -0.71, 0.71, 180.36, 528.26)">Р</text><text class="cls-3" transform="matrix(0.77, 0.64, -0.64, 0.77, 190.58, 538.43)">Я</text><text class="cls-3" transform="translate(200.74 547) rotate(34.86)">Л</text><text class="cls-3" transform="translate(213.42 555.62) rotate(30.98)"> </text><text class="cls-3" transform="translate(218.44 558.63) rotate(28.87)"> </text><text class="cls-3" transform="translate(223.54 561.44) rotate(26.77)"> </text><text class="cls-3" transform="translate(228.78 564.08) rotate(24.66)"> </text><text class="cls-3" transform="matrix(0.92, 0.38, -0.38, 0.92, 234.09, 566.5)"> </text><text class="cls-3" transform="translate(239.47 568.74) rotate(20.46)"> </text><text class="cls-3" transform="translate(244.97 570.78) rotate(18.36)"> </text><text class="cls-3" transform="translate(250.5 572.61) rotate(16.26)"> </text><text class="cls-3" transform="translate(256.12 574.24) rotate(14.16)"> </text><text class="cls-3" transform="translate(261.78 575.66) rotate(12.06)"> </text><text class="cls-3" transform="matrix(0.98, 0.17, -0.17, 0.98, 267.52, 576.88)"> </text><text class="cls-3" transform="translate(273.27 577.89) rotate(7.84)"> </text><text class="cls-3" transform="translate(279.07 578.68) rotate(5.74)"> </text><text class="cls-3" transform="translate(284.87 579.26) rotate(3.63)"> </text><text class="cls-3" transform="translate(290.73 579.62) rotate(1.51)"> </text><text class="cls-3" transform="translate(296.55 579.77) rotate(-0.6)"> </text><text class="cls-3" transform="translate(302.42 579.7) rotate(-2.73)"> </text><text class="cls-3" transform="translate(308.23 579.42) rotate(-4.84)"> </text><text class="cls-3" transform="translate(314.09 578.92) rotate(-6.98)"> </text><text class="cls-3" transform="translate(319.88 578.21) rotate(-9.1)"> </text><text class="cls-3" transform="translate(325.66 577.27) rotate(-11.23)"> </text><text class="cls-3" transform="translate(331.38 576.13) rotate(-13.34)"> </text><text class="cls-3" transform="translate(337.07 574.78) rotate(-15.47)"> </text><text class="cls-3" transform="translate(342.71 573.21) rotate(-17.59)"> </text><text class="cls-3" transform="translate(348.29 571.43) rotate(-19.7)"> </text><text class="cls-3" transform="matrix(0.93, -0.37, 0.37, 0.93, 353.78, 569.46)"> </text><text class="cls-3" transform="matrix(0.91, -0.4, 0.4, 0.91, 359.19, 567.29)"> </text><text class="cls-3" transform="translate(364.54 564.92) rotate(-25.97)"> </text><text class="cls-3" transform="translate(369.86 562.33) rotate(-28.39)"> </text><text class="cls-3" transform="translate(374.95 559.6) rotate(-30.11)"> </text><text class="cls-3" transform="matrix(0.55, -0.83, 0.83, 0.55, 175.58, 348.54)">Л</text><text class="cls-3" transform="translate(183.27 336.94) rotate(-50.74)">И</text><text class="cls-3" transform="matrix(0.71, -0.7, 0.7, 0.71, 191.81, 326.3)">Ф</text><text class="cls-3" transform="translate(203.6 314.73) rotate(-38.92)">Т</text><text class="cls-3" transform="matrix(0.81, -0.58, 0.58, 0.81, 212.85, 307.35)"> </text><text class="cls-3" transform="matrix(0.85, -0.53, 0.53, 0.85, 216.85, 304.32)">З</text><text class="cls-3" transform="translate(227.18 297.76) rotate(-26.9)">А</text><text class="cls-3" transform="translate(239.02 291.72) rotate(-21.62)">С</text><text class="cls-3" transform="translate(250.75 287.03) rotate(-16.61)">Т</text><text class="cls-3" transform="translate(262.51 283.48) rotate(-11.49)">Р</text><text class="cls-3" transform="translate(275.17 280.9) rotate(-6.49)">Я</text><text class="cls-3" transform="translate(286.82 279.49) rotate(-1.36)">Л</text><text class="cls-3" transform="translate(301 279.29) rotate(2.43)"> </text><text class="cls-3" transform="translate(306.23 279.5) rotate(4.52)"> </text><text class="cls-3" transform="translate(311.44 279.91) rotate(6.62)"> </text><text class="cls-3" transform="translate(316.62 280.5) rotate(8.73)"> </text><text class="cls-3" transform="matrix(0.98, 0.19, -0.19, 0.98, 321.77, 281.29)"> </text><text class="cls-3" transform="matrix(0.97, 0.22, -0.22, 0.97, 326.88, 282.26)"> </text><text class="cls-3" transform="translate(331.98 283.43) rotate(15.09)"> </text><text class="cls-3" transform="translate(337.01 284.78) rotate(17.21)"> </text><text class="cls-3" transform="translate(342 286.32) rotate(19.34)"> </text><text class="cls-3" transform="matrix(0.93, 0.37, -0.37, 0.93, 346.92, 288.04)"> </text><text class="cls-3" transform="translate(351.77 289.94) rotate(23.58)"> </text><text class="cls-3" transform="translate(356.57 292.03) rotate(25.71)"> </text><text class="cls-3" transform="translate(361.26 294.28) rotate(27.83)"> </text><text class="cls-3" transform="translate(365.88 296.71) rotate(29.94)"> </text><text class="cls-3" transform="matrix(0.85, 0.53, -0.53, 0.85, 370.41, 299.32)"> </text><text class="cls-3" transform="translate(374.82 302.07) rotate(34.16)"> </text><text class="cls-3" transform="translate(379.14 305) rotate(36.27)"> </text><text class="cls-3" transform="matrix(0.78, 0.62, -0.62, 0.78, 383.37, 308.09)"> </text><text class="cls-3" transform="matrix(0.76, 0.65, -0.65, 0.76, 387.46, 311.32)"> </text><text class="cls-3" transform="matrix(0.74, 0.68, -0.68, 0.74, 391.42, 314.7)"> </text><text class="cls-3" transform="matrix(0.71, 0.7, -0.7, 0.71, 395.28, 318.23)"> </text><text class="cls-3" transform="translate(399 321.9) rotate(46.78)"> </text><text class="cls-3" transform="translate(402.57 325.69) rotate(48.88)"> </text><text class="cls-3" transform="matrix(0.63, 0.78, -0.78, 0.63, 406, 329.62)"> </text><text class="cls-3" transform="matrix(0.6, 0.8, -0.8, 0.6, 409.3, 333.68)"> </text><text class="cls-3" transform="translate(412.44 337.85) rotate(55.19)"> </text><text class="cls-3" transform="translate(415.43 342.13) rotate(57.31)"> </text><text class="cls-3" transform="matrix(0.51, 0.86, -0.86, 0.51, 418.24, 346.51)"> </text><text class="cls-3" transform="translate(420.9 351) rotate(61.53)"> </text><text class="cls-3" transform="translate(423.4 355.59) rotate(63.65)"> </text><text class="cls-3" transform="translate(307.79 579.56) rotate(-6.15)">С</text><text class="cls-3" transform="matrix(0.98, -0.19, 0.19, 0.98, 322.13, 577.95)">Е</text><text class="cls-3" transform="translate(334.46 575.57) rotate(-16.14)">Л</text><text class="cls-3" transform="matrix(0.94, -0.34, 0.34, 0.94, 349.12, 571.15)"> </text><text class="cls-3" transform="matrix(0.92, -0.4, 0.4, 0.92, 354.16, 569.43)">Т</text><text class="cls-3" transform="matrix(0.88, -0.47, 0.47, 0.88, 366.73, 563.96)">Е</text><text class="cls-3" transform="matrix(0.84, -0.54, 0.54, 0.84, 377.81, 558.11)">Л</text><text class="cls-3" transform="matrix(0.79, -0.62, 0.62, 0.79, 390.79, 549.6)">Е</text><text class="cls-3" transform="translate(400.78 541.92) rotate(-43.53)">Ф</text><text class="cls-3" transform="translate(413.95 529.24) rotate(-49.66)">О</text><text class="cls-3" transform="translate(423.84 517.54) rotate(-55.26)">Н</text><text class="cls-3" transform="translate(432.42 504.85) rotate(-59.14)"> </text><text class="cls-3" transform="translate(386.29 78.93)"><tspan xml:space="preserve"> ОПОЗ</tspan><tspan class="cls-6" x="62.25" y="0">Д</tspan><tspan class="cls-7" x="78.18" y="0">А</tspan><tspan x="92.71" y="0">Л </tspan><tspan class="cls-8" x="112.98" y="0">Н</tspan><tspan x="127.92" y="0">А </tspan><tspan class="cls-8" x="147.79" y="0">Ч</tspan><tspan class="cls-9" x="162.67" y="0">А</tspan><tspan x="176.75" y="0">С</tspan></text><text class="cls-3" transform="translate(316.72 128.57)"><tspan class="cls-10">Г</tspan><tspan x="10.95" y="0">ОРЫ </tspan><tspan class="cls-11" x="62.91" y="0">Д</tspan><tspan x="78.36" y="0">ОКУМЕ</tspan><tspan class="cls-12" x="149.58" y="0">Н</tspan><tspan class="cls-13" x="163.97" y="0">Т</tspan><tspan x="176.67" y="0">ОВ</tspan></text><text class="cls-3" transform="translate(352.56 179.35)"><tspan class="cls-8">Н</tspan><tspan class="cls-14" x="14.94" y="0">А</tspan><tspan class="cls-11" x="29.5" y="0">Д</tspan><tspan x="44.95" y="0">ОЕЛО</tspan></text><text class="cls-3" transform="translate(378.32 229.77)">П<tspan class="cls-15" x="14.75" y="0">О</tspan><tspan x="28.88" y="0">ЛУЧ</tspan><tspan class="cls-7" x="71.51" y="0">И</tspan><tspan class="cls-8" x="86.25" y="0">Л</tspan><tspan x="101.2" y="0">А ВЫ</tspan><tspan class="cls-10" x="152.82" y="0">Г</tspan><tspan x="163.77" y="0">ОВОР</tspan></text><text class="cls-16" transform="translate(435.83 365.67)">Лебедева, 9<tspan x="0" y="16.8">20.11</tspan><tspan class="cls-17"><tspan x="0" y="33.6">Беспл</tspan><tspan class="cls-18" x="39.54" y="33.6">а</tspan><tspan x="46.94" y="33.6">тный воркшоп</tspan></tspan></text><text class="cls-3" transform="translate(329.48 280.19)">НЕ <tspan class="cls-19" x="32.04" y="0">У</tspan><tspan x="44.99" y="0">СПЕЛ </tspan><tspan class="cls-8" x="105.48" y="0">Н</tspan><tspan x="120.42" y="0">А В</tspan><tspan class="cls-12" x="153.75" y="0">С</tspan><tspan x="167.1" y="0">ТРЕЧУ</tspan></text><path class="cls-20" d="M453,314.75a9.59,9.59,0,0,0-9,12.85,5.53,5.53,0,0,1,4.08-1.73c4.66,0,4.66,4.57,9.32,4.57a5.56,5.56,0,0,0,4.13-1.77A9.56,9.56,0,0,0,453,314.75Z"/><path class="cls-21" d="M453,333.9a9.56,9.56,0,0,0,8.53-5.23,5.56,5.56,0,0,1-4.13,1.77c-4.66,0-4.66-4.57-9.32-4.57A5.53,5.53,0,0,0,444,327.6,9.57,9.57,0,0,0,453,333.9Z"/><path class="cls-22" d="M444,327.6a5.53,5.53,0,0,1,4.08-1.73c4.66,0,4.66,4.57,9.32,4.57a5.56,5.56,0,0,0,4.13-1.77A9.54,9.54,0,0,0,461,319a4.39,4.39,0,0,0-3.87-1.91c-5.14,0-5,4.59-9.44,4.59a6.12,6.12,0,0,1-3.41-1.29h0a9.68,9.68,0,0,0-.25,7.17Z"/><text class="cls-23" transform="translate(436.09 345.98)">С<tspan class="cls-24" x="6.44" y="0">ФЕ</tspan><tspan class="cls-25" x="21.54" y="0">Р</tspan><tspan class="cls-24" x="27.42" y="0">А</tspan></text></g><g id="Layer_2" data-name="Layer 2"><rect x="257.21" y="435.44" width="57.13" height="5.71" transform="translate(-237.34 427.25) rotate(-55.69)"/><rect x="290.98" y="397.33" width="85.2" height="5.71" transform="translate(-154.47 217.88) rotate(-29.7)"/><rect class="cls-20" x="292.92" y="302.75" width="9.42" height="3.96" rx="1.72" transform="translate(-9.13 600.27) rotate(-89.61)"/><path class="cls-20" d="M410.37,422.7a1.45,1.45,0,0,1-1.48-1.62v-.83a1.34,1.34,0,0,1,1.45-1.51l6,0c.95,0,2,.53,2,1.48V421a1.91,1.91,0,0,1-2,1.65Z"/><rect class="cls-20" x="295.64" y="531.96" width="3.96" height="9.42" rx="1.72" transform="translate(-0.91 0.5) rotate(-0.1)"/><rect class="cls-20" x="176.95" y="418.72" width="9.42" height="3.96" rx="1.72"/><path class="cls-20" d="M199.42,362.2a1.54,1.54,0,0,0-2.11.56h0a1.54,1.54,0,0,0,.55,2.12l4,2.34a1.55,1.55,0,0,0,2.12-.56h0a1.55,1.55,0,0,0-.56-2.12Z"/><path class="cls-20" d="M241.8,320.92a1.55,1.55,0,0,0-2.11-.55h0a1.55,1.55,0,0,0-.56,2.12l2.35,4a1.55,1.55,0,0,0,2.12.56h0a1.56,1.56,0,0,0,.55-2.12Z"/><path class="cls-20" d="M356.13,322.48a1.53,1.53,0,0,0-.58-2.11h0a1.53,1.53,0,0,0-2.11.58l-2.3,4a1.55,1.55,0,0,0,.58,2.11h0a1.55,1.55,0,0,0,2.11-.58Z"/><path class="cls-20" d="M397.41,365a1.56,1.56,0,0,0,.61-2.11h0a1.55,1.55,0,0,0-2.1-.61l-4.08,2.23a1.55,1.55,0,0,0-.61,2.11h0a1.55,1.55,0,0,0,2.1.61Z"/><path class="cls-20" d="M395.84,479.2a1.55,1.55,0,0,0,2.12-.57h0a1.54,1.54,0,0,0-.56-2.11l-4-2.34a1.55,1.55,0,0,0-2.12.57h0a1.55,1.55,0,0,0,.56,2.12Z"/><path class="cls-20" d="M353.42,520.47a1.55,1.55,0,0,0,2.12.56h0a1.55,1.55,0,0,0,.56-2.12l-2.34-4a1.54,1.54,0,0,0-2.11-.56h0a1.55,1.55,0,0,0-.57,2.12Z"/><path class="cls-20" d="M239.18,518.88a1.55,1.55,0,0,0,.55,2.12h0a1.55,1.55,0,0,0,2.12-.55l2.36-4a1.54,1.54,0,0,0-.55-2.12h0a1.54,1.54,0,0,0-2.12.55Z"/><path class="cls-20" d="M197.85,476.51a1.55,1.55,0,0,0-.56,2.12h0a1.55,1.55,0,0,0,2.11.57l4-2.33a1.54,1.54,0,0,0,.57-2.11h0a1.54,1.54,0,0,0-2.11-.57Z"/><rect class="cls-26" x="252.66" y="331.3" width="3.59" height="136.97" transform="translate(-216.56 452.01) rotate(-63.85)"/><path d="M297.56,432a11.08,11.08,0,1,1,11.15-11A11.09,11.09,0,0,1,297.56,432Z"/><path class="cls-27" d="M261.56,516.48s-31.47,16.21-46.37,6.17c0,0-.54-3.65,1.63-4.8s4.21-1.34,4.48-.65,3.07,2.75,7.28,1.41,17.41-4.88,17.56-5.94,7.43-4.62,7.43-4.62l10,4Z"/><path class="cls-28" d="M305.19,492.69s6.17,6,13.8,4.36,9-1.77,10.07-9.33A17.34,17.34,0,0,0,326,475s5.67,12.43,12.42,11.6,3-6.13,2.34-6.14-13.85-7.91-14.94-12.41-5.54,1.84-5.44,2.35-3.8,13.23-3.8,13.23Z"/><path class="cls-20" d="M316.17,466.52s-8.95-6.57-19.28,4.07-10.57,17.5-10.71,18.15-6.94,12.87-15.15,10.95c-4.81-1.13-6.11-2.8-6.36-4a4.55,4.55,0,0,0-2.3-3,14.81,14.81,0,0,0-6.2-2c-4-.12-10.67,4.66-10.78,7.08a13.77,13.77,0,0,1-.38,2.53,4.56,4.56,0,0,1-2.58,3.14c-1.48.68-3.31,1.89-3.26,3.73.06,2.66,6.25,5.25,8,5.93a4.5,4.5,0,0,0,.89.24l10.58,1.81a4.61,4.61,0,0,1,3.69,3.32,10.88,10.88,0,0,1,.24,4.62c-.72,4.45-8.77,11.25-14.66,9.83s-6,2.22-6,2.22-.93,2.51,4.53,3,20.67-3,25.69-9.11a22.51,22.51,0,0,0,3.93-6.3,4.71,4.71,0,0,1,3.29-3c3.58-.85,9.79-2.94,14.22-7.82,6.58-7.25,15.6-19.13,17.15-18.79s-12.65-4.83-12.41-11.84,11.16-16.54,15.63-15.45A7.89,7.89,0,0,1,316.17,466.52Z"/><path class="cls-29" d="M255,499c0,1.5.25,2.72-1.25,2.72s-1.18-1.22-1.18-2.72-.32-2.72,1.18-2.72S255,497.52,255,499Z"/><path class="cls-20" d="M312.92,466.68s57.72-72.08,102.85-29.28c0,0,10.59,19.72-11.47,20.76s-47-8.08-82.41,8.06c0,0-5.13,2.14-5.3,4.25S312.92,466.68,312.92,466.68Z"/><path class="cls-30" d="M310.8,466a7,7,0,0,1,5.88,1.14c2.52,1.79,5.65,6.91,6.42,11.46,1.24,7.3-6.7,14.88-11.74,14.54s-13.48-4.7-13.4-11.81C298,477.24,301.92,468.39,310.8,466Z"/><path class="cls-20" d="M263.4,495.61s4.65-4.91,4.46-6.31c-.35-2.42-5.1-.76-5.92,0a36.85,36.85,0,0,0-2.72,3.1Z"/></g></svg>