<svg xmlns="http://www.w3.org/2000/svg" viewBox="0 0 595.28 841.89"><defs><style>.cls-1{fill:#f15d22;}.cls-2,.cls-21{fill:none;}.cls-2{stroke:#fddac5;stroke-width:25px;}.cls-2,.cls-33{stroke-miterlimit:10;}.cls-3{font-size:24px;}.cls-3,.cls-32{fill:#231f20;}.cls-3,.cls-4{font-family:RobotoCondensed-Bold, Roboto Condensed;}.cls-15,.cls-25,.cls-3,.cls-4{font-weight:700;}.cls-4{font-size:60px;}.cls-22,.cls-25,.cls-33,.cls-4{fill:#fff;}.cls-5{letter-spacing:-0.09em;}.cls-6{letter-spacing:-0.03em;}.cls-7{letter-spacing:-0.01em;}.cls-8{letter-spacing:-0.01em;}.cls-9{letter-spacing:-0.01em;}.cls-10{letter-spacing:-0.02em;}.cls-11{letter-spacing:0.01em;}.cls-12{letter-spacing:-0.06em;}.cls-13{letter-spacing:0.01em;}.cls-14{font-size:14px;fill:#fddac5;font-family:Roboto-Light, Roboto;font-weight:300;}.cls-15{font-family:Roboto-Bold, Roboto;}.cls-16{letter-spacing:-0.01em;}.cls-17{letter-spacing:0.01em;}.cls-18{letter-spacing:-0.02em;}.cls-19{letter-spacing:0.01em;}.cls-20{letter-spacing:-0.04em;}.cls-23{fill:#2556a2;}.cls-24{fill:#83aedd;}.cls-25{font-size:9.67px;font-family:IBMPlexSans-Bold, IBM Plex Sans;letter-spacing:0.01em;}.cls-26{letter-spacing:0.03em;}.cls-27{letter-spacing:-0.05em;}.cls-28{fill:#010101;}.cls-29{fill:#d8d9d9;}.cls-30{fill:#898b8d;}.cls-31{fill:#abacb1;}.cls-33{stroke:#fff;}</style></defs><title>6</title><g id="Layer_3" data-name="Layer 3"><rect class="cls-1" width="597.6" height="841.89"/><path class="cls-2" d="M297.64,671.26c-138.17,0-250-112-250-250.3s111.8-250.31,250-250.31"/><polyline class="cls-2" points="597.09 671.25 297.64 671.25 300.62 671.25"/><path class="cls-2" d="M644.59,417.05v3.24c0-193.43-156.73-350-350.42-350"/><path class="cls-2" d="M297.64,571.14a150.19,150.19,0,0,1,0-300.37"/><polyline class="cls-2" points="597.09 571.13 297.64 571.13 300.62 571.13"/><path class="cls-2" d="M494.36,417.45v3.23c0-110.53-89.56-200-200.24-200"/><path class="cls-2" d="M296.61,721.32C131.28,720.76-2.32,586.63-2.32,421c0-166,134.16-300.37,300-300.37"/><polyline class="cls-2" points="597.09 721.31 296.61 721.31 299.59 721.31"/><path class="cls-2" d="M444.3,417.45v3.23a150,150,0,0,0-150.18-150"/><path class="cls-2" d="M297.64,771.38C104.21,771.38-52.31,614.65-52.31,421s156.52-350.43,350-350.43"/><polyline class="cls-2" points="597.09 771.37 297.64 771.37 300.62 771.37"/><path class="cls-2" d="M297.64,621.2c-110.53,0-200-89.56-200-200.24s89.45-200.25,200-200.25"/><polyline class="cls-2" points="597.09 621.19 297.64 621.19 300.62 621.19"/></g><g id="Layer_1" data-name="Layer 1"><text class="cls-3" transform="matrix(0.76, 0.65, -0.65, 0.76, 58.23, 688.67)">П</text><text class="cls-3" transform="translate(69.72 698.47) rotate(38.42)">Е</text><text class="cls-3" transform="translate(79.18 705.98) rotate(36.35)">Р</text><text class="cls-3" transform="translate(90.42 714.23) rotate(34.28)">Е</text><text class="cls-3" transform="matrix(0.85, 0.53, -0.53, 0.85, 100.41, 721.05)">Х</text><text class="cls-3" transform="translate(111.8 728.24) rotate(30)">О</text><text class="cls-3" transform="translate(124.3 735.47) rotate(27.6)">Д</text><text class="cls-3" transform="translate(138.52 742.81) rotate(25.87)"> </text><text class="cls-3" transform="translate(143.68 745.36) rotate(24.36)">З</text><text class="cls-3" transform="translate(155.82 750.87) rotate(22.14)">А</text><text class="cls-3" transform="matrix(0.94, 0.34, -0.34, 0.94, 169.42, 756.39)">К</text><text class="cls-3" transform="matrix(0.95, 0.3, -0.3, 0.95, 182.46, 761.09)">Р</text><text class="cls-3" transform="translate(195.84 765.4) rotate(15.04)">Ы</text><text class="cls-3" transform="translate(214.11 770.25) rotate(12.3)">Л</text><text class="cls-3" transform="translate(228.86 773.45) rotate(9.9)">И</text><text class="cls-3" transform="translate(78.17 158.56) rotate(-38.96)">Е</text><text class="cls-3" transform="matrix(0.81, -0.59, 0.59, 0.81, 86.94, 151.31)">Щ</text><text class="cls-3" transform="translate(104.02 138.92) rotate(-33.49)">Ё</text><text class="cls-3" transform="matrix(0.85, -0.53, 0.53, 0.85, 113.67, 132.58)"> </text><text class="cls-3" transform="translate(118.13 129.72) rotate(-30.5)">К</text><text class="cls-3" transform="matrix(0.88, -0.47, 0.47, 0.88, 129.51, 123.01)">У</text><text class="cls-3" transform="matrix(0.9, -0.44, 0.44, 0.9, 140.83, 116.89)">Ч</text><text class="cls-3" transform="translate(153.9 110.52) rotate(-23.58)">А</text><text class="cls-3" transform="translate(166.83 104.94) rotate(-21.94)"> </text><text class="cls-3" transform="translate(171.71 102.89) rotate(-20.19)">Д</text><text class="cls-3" transform="matrix(0.95, -0.31, 0.31, 0.95, 186.16, 97.61)">Е</text><text class="cls-3" transform="translate(197.04 94.03) rotate(-15.7)">Д</text><text class="cls-3" transform="matrix(0.97, -0.23, 0.23, 0.97, 212.02, 89.83)">Л</text><text class="cls-3" transform="translate(226.24 86.5) rotate(-10.83)">А</text><text class="cls-3" transform="translate(239.98 83.86) rotate(-8.52)">Й</text><text class="cls-3" transform="matrix(0.99, -0.11, 0.11, 0.99, 254.02, 81.75)">Н</text><text class="cls-3" transform="matrix(1, -0.07, 0.07, 1, 268.3, 80.2)">О</text><text class="cls-3" transform="translate(282.43 79.27) rotate(-1.51)">В</text><text class="cls-3" transform="matrix(0.96, 0.27, -0.27, 0.96, 381.48, 89.85)">С</text><text class="cls-3" transform="translate(394.34 93.42) rotate(17.91)">О</text><text class="cls-3" transform="matrix(0.94, 0.35, -0.35, 0.94, 407.8, 97.76)">Н</text><text class="cls-3" transform="translate(421.35 102.85) rotate(21.98)"> </text><text class="cls-3" transform="translate(426.26 104.74) rotate(23.73)">Д</text><text class="cls-3" transform="translate(440.49 111) rotate(26.27)">Л</text><text class="cls-3" transform="matrix(0.88, 0.48, -0.48, 0.88, 453.42, 117.4)">Я</text><text class="cls-3" transform="matrix(0.87, 0.5, -0.5, 0.87, 464.2, 123.31)"> </text><text class="cls-3" transform="matrix(0.85, 0.52, -0.52, 0.85, 468.82, 125.91)">С</text><text class="cls-3" transform="matrix(0.83, 0.56, -0.56, 0.83, 480.2, 132.88)">Л</text><text class="cls-3" transform="translate(492.29 141.02) rotate(36.33)">А</text><text class="cls-3" transform="translate(503.57 149.32) rotate(38.57)">Б</text><text class="cls-3" transform="matrix(0.76, 0.65, -0.65, 0.76, 513.57, 157.27)">А</text><text class="cls-3" transform="matrix(0.73, 0.68, -0.68, 0.73, 524.17, 166.42)">К</text><text class="cls-3" transform="matrix(0.7, 0.71, -0.71, 0.7, 533.58, 175.14)">О</text><text class="cls-3" transform="translate(543.55 185.23) rotate(47.47)">В</text><text class="cls-4" transform="translate(348.4 146.02) rotate(13.87)">К</text><text class="cls-4" transform="translate(378.95 153.36) rotate(20.49)">А</text><text class="cls-4" transform="matrix(0.89, 0.46, -0.46, 0.89, 410.26, 164.97)">К</text><text class="cls-4" transform="matrix(0.85, 0.53, -0.53, 0.85, 438.7, 179.93)"> </text><text class="cls-4" transform="matrix(0.81, 0.59, -0.59, 0.81, 449.28, 185.98)">Б</text><text class="cls-4" transform="translate(473.96 204.02) rotate(42.17)">Е</text><text class="cls-4" transform="translate(494.3 221.99) rotate(48.48)">Л</text><text class="cls-4" transform="translate(517.14 247.71) rotate(55.2)">К</text><text class="cls-4" transform="translate(535.24 273.41) rotate(61.82)">А</text><text class="cls-3" transform="matrix(0.52, 0.86, -0.86, 0.52, 29.36, 574.48)">Д</text><text class="cls-3" transform="translate(37.87 588.48) rotate(55.91)">А</text><text class="cls-3" transform="translate(46.14 600.68) rotate(53.24)">В</text><text class="cls-3" transform="matrix(0.63, 0.77, -0.77, 0.63, 54.43, 611.76)">К</text><text class="cls-3" transform="matrix(0.67, 0.74, -0.74, 0.67, 63.27, 622.54)">А</text><text class="cls-3" transform="matrix(0.69, 0.72, -0.72, 0.69, 73.11, 633.34)"> </text><text class="cls-3" transform="matrix(0.72, 0.7, -0.7, 0.72, 77.1, 637.57)">В</text><text class="cls-3" transform="translate(86.98 647.09) rotate(42.43)"> </text><text class="cls-3" transform="translate(91.24 651.15) rotate(40.16)">М</text><text class="cls-3" transform="translate(105.53 663.09) rotate(37.3)">Е</text><text class="cls-3" transform="translate(115.38 670.59) rotate(34.89)">Т</text><text class="cls-3" transform="matrix(0.84, 0.54, -0.54, 0.84, 126.37, 678.25)">Р</text><text class="cls-3" transform="translate(138.25 685.78) rotate(29.68)">О</text><text class="cls-3" transform="matrix(0.02, -1, 1, 0.02, 5.8, 421.73)">Р</text><text class="cls-3" transform="translate(5.97 410.5) rotate(-86.62)">А</text><text class="cls-3" transform="matrix(0.1, -0.99, 0.99, 0.1, 6.8, 396.56)">Б</text><text class="cls-3" transform="translate(8.1 383.92) rotate(-81.4)">О</text><text class="cls-3" transform="matrix(0.19, -0.98, 0.98, 0.19, 10.05, 370.95)">Т</text><text class="cls-3" transform="matrix(0.23, -0.97, 0.97, 0.23, 12.16, 359.86)">А</text><text class="cls-3" transform="matrix(0.58, -0.81, 0.81, 0.58, 56.28, 256.64)">С</text><text class="cls-3" transform="translate(63.99 245.84) rotate(-51.7)">Н</text><text class="cls-3" transform="matrix(0.66, -0.75, 0.75, 0.66, 72.99, 234.44)">А</text><text class="cls-3" transform="translate(82.29 223.89) rotate(-47.01)"> </text><text class="cls-3" transform="matrix(0.71, -0.71, 0.71, 0.71, 85.81, 219.99)">Н</text><text class="cls-3" transform="matrix(0.74, -0.67, 0.67, 0.74, 95.91, 209.85)">И</text><text class="cls-3" transform="translate(106.5 200.3) rotate(-40.39)"> </text><text class="cls-3" transform="translate(110.47 196.84) rotate(-38.58)">В</text><text class="cls-3" transform="matrix(0.8, -0.6, 0.6, 0.8, 120.82, 188.65)"> </text><text class="cls-3" transform="matrix(0.82, -0.57, 0.57, 0.82, 124.98, 185.45)">О</text><text class="cls-3" transform="translate(136.18 177.61) rotate(-32.04)">Д</text><text class="cls-3" transform="translate(149.14 169.49) rotate(-29.12)">Н</text><text class="cls-3" transform="translate(161.67 162.51) rotate(-26.31)">О</text><text class="cls-3" transform="translate(174.21 156.24) rotate(-23.17)">М</text><text class="cls-3" transform="matrix(0.93, -0.36, 0.36, 0.93, 190.68, 149.32)"> </text><text class="cls-3" transform="translate(195.6 147.39) rotate(-19.23)">Г</text><text class="cls-3" transform="translate(205.12 144) rotate(-16.94)">Л</text><text class="cls-3" transform="translate(219.01 139.77) rotate(-14.12)">А</text><text class="cls-3" transform="translate(232.54 136.37) rotate(-11.53)">З</text><text class="cls-3" transform="matrix(0.99, -0.16, 0.16, 0.99, 244.76, 133.87)">У</text><text class="cls-3" transform="matrix(0.29, -0.96, 0.96, 0.29, 64.12, 357.78)">Ч</text><text class="cls-3" transform="matrix(0.34, -0.94, 0.94, 0.34, 68.14, 344.49)">Т</text><text class="cls-3" transform="translate(72.27 332.94) rotate(-67.05)">О</text><text class="cls-3" transform="translate(77.86 319.96) rotate(-64.76)"> </text><text class="cls-3" transform="translate(80.01 315.2) rotate(-62.58)">В</text><text class="cls-3" transform="translate(86.12 303.58) rotate(-60.39)"> </text><text class="cls-3" transform="translate(88.63 299.01) rotate(-58.2)">Х</text><text class="cls-3" transform="matrix(0.57, -0.82, 0.82, 0.57, 95.27, 288.22)">О</text><text class="cls-3" transform="translate(103.06 277.02) rotate(-51.77)">Л</text><text class="cls-3" transform="matrix(0.66, -0.75, 0.75, 0.66, 111.87, 265.83)">О</text><text class="cls-3" transform="matrix(0.71, -0.71, 0.71, 0.71, 120.87, 255.62)">Д</text><text class="cls-3" transform="translate(131.63 244.85) rotate(-41.55)">И</text><text class="cls-3" transform="matrix(0.79, -0.62, 0.62, 0.79, 142.27, 235.41)">Л</text><text class="cls-3" transform="translate(153.5 226.59) rotate(-34.98)">Ь</text><text class="cls-3" transform="matrix(0.85, -0.53, 0.53, 0.85, 163.9, 219.27)">Н</text><text class="cls-3" transform="matrix(0.88, -0.48, 0.48, 0.88, 175.99, 211.76)">И</text><text class="cls-3" transform="translate(188.35 205.06) rotate(-25.27)">К</text><text class="cls-3" transform="translate(200.23 199.47) rotate(-22.37)">Е</text><text class="cls-3" transform="translate(210.76 195.14) rotate(-19.8)">?</text><text class="cls-3" transform="translate(120.47 609.85) rotate(41.58)">П</text><text class="cls-3" transform="matrix(0.79, 0.62, -0.62, 0.79, 131.9, 619.97)">О</text><text class="cls-3" transform="translate(143.66 629.23) rotate(34.93)">П</text><text class="cls-3" transform="translate(156.18 637.95) rotate(31.59)">А</text><text class="cls-3" transform="translate(169.01 645.82) rotate(28.19)">Л</text><text class="cls-3" transform="matrix(0.9, 0.44, -0.44, 0.9, 182.35, 652.86)"> </text><text class="cls-3" transform="translate(187.6 655.48) rotate(23.66)">В</text><text class="cls-3" transform="translate(200.27 660.94) rotate(21.47)"> </text><text class="cls-3" transform="translate(205.71 663.18) rotate(19.15)">Ч</text><text class="cls-3" transform="translate(220.24 668.19) rotate(15.77)">А</text><text class="cls-3" transform="translate(234.26 672.14) rotate(12.61)">С</text><text class="cls-3" transform="matrix(0.98, 0.18, -0.18, 0.98, 247.95, 675.11)"> </text><text class="cls-3" transform="matrix(0.99, 0.14, -0.14, 0.99, 253.72, 676.26)">П</text><text class="cls-3" transform="translate(268.83 678.39) rotate(4.75)">И</text><text class="cls-3" transform="translate(283.8 679.61) rotate(1.55)">К</text><text class="cls-3" transform="translate(38.69 421.01) rotate(88.41)">П</text><text class="cls-3" transform="translate(39.13 436.27) rotate(85.09)">О</text><text class="cls-3" transform="matrix(0.14, 0.99, -0.99, 0.14, 40.32, 450.14)">Т</text><text class="cls-3" transform="translate(42.1 463.18) rotate(79.1)">О</text><text class="cls-3" transform="matrix(0.25, 0.97, -0.97, 0.25, 44.9, 477.96)">М</text><text class="cls-3" transform="matrix(0.3, 0.95, -0.95, 0.3, 49.77, 495.92)"> </text><text class="cls-3" transform="translate(51.45 501.56) rotate(70.29)">О</text><text class="cls-3" transform="matrix(0.39, 0.92, -0.92, 0.39, 56.15, 514.66)">Т</text><text class="cls-3" transform="matrix(0.43, 0.9, -0.9, 0.43, 60.93, 526.26)">Д</text><text class="cls-3" transform="translate(67.9 540.65) rotate(60.85)">О</text><text class="cls-3" transform="matrix(0.53, 0.85, -0.85, 0.53, 75.06, 553.46)">Х</text><text class="cls-3" transform="matrix(0.58, 0.81, -0.81, 0.58, 82.5, 565.23)">Н</text><text class="cls-3" transform="translate(91.36 577.59) rotate(51.31)">У</text><text class="cls-4" transform="translate(301.7 191.35) rotate(5.14)">В</text><text class="cls-4" transform="matrix(0.98, 0.18, -0.18, 0.98, 333.19, 194.56)"> </text><text class="cls-4" transform="translate(344.94 196.16) rotate(16.04)">К</text><text class="cls-4" transform="translate(373.94 204.14) rotate(23.9)">О</text><text class="cls-4" transform="translate(403.62 216.97) rotate(32.09)">Л</text><text class="cls-4" transform="matrix(0.77, 0.64, -0.64, 0.77, 432.46, 235.13)">Е</text><text class="cls-4" transform="matrix(0.68, 0.73, -0.73, 0.68, 453.28, 251.98)">С</text><text class="cls-4" transform="matrix(0.59, 0.81, -0.81, 0.59, 474.84, 275.02)">Е</text><text class="cls-3" transform="translate(296.21 230.37) rotate(2.13)">С</text><text class="cls-3" transform="matrix(0.99, 0.1, -0.1, 0.99, 309, 230.82)">Т</text><text class="cls-3" transform="matrix(0.99, 0.17, -0.17, 0.99, 321.4, 232.07)">Р</text><text class="cls-3" transform="translate(332.31 233.85) rotate(13.14)">А</text><text class="cls-3" transform="matrix(0.95, 0.31, -0.31, 0.95, 345.61, 236.8)">Ш</text><text class="cls-3" transform="translate(363.88 242.85) rotate(23.06)">Н</text><text class="cls-3" transform="matrix(0.89, 0.46, -0.46, 0.89, 377.08, 248.46)">А</text><text class="cls-3" transform="matrix(0.86, 0.52, -0.52, 0.86, 389.3, 254.75)">Я</text><text class="cls-3" transform="matrix(0.83, 0.55, -0.55, 0.83, 399.67, 261.08)"> </text><text class="cls-3" transform="matrix(0.81, 0.59, -0.59, 0.81, 404.01, 263.84)">Б</text><text class="cls-3" transform="translate(414.16 271.27) rotate(39.75)">Е</text><text class="cls-3" transform="translate(422.84 278.42) rotate(43.41)">С</text><text class="cls-3" transform="translate(432.37 287.41) rotate(47.35)">С</text><text class="cls-3" transform="matrix(0.62, 0.78, -0.78, 0.62, 441.26, 297.01)">О</text><text class="cls-3" transform="translate(449.93 307.84) rotate(55.61)">Н</text><text class="cls-3" transform="matrix(0.5, 0.86, -0.86, 0.5, 457.92, 319.47)">Н</text><text class="cls-3" transform="translate(465.03 331.66) rotate(64.04)">И</text><text class="cls-3" transform="translate(471.16 344.13) rotate(68.4)">Ц</text><text class="cls-3" transform="translate(476.88 358.63) rotate(72.78)">А</text><text class="cls-3" transform="translate(121.7 344.12) rotate(-64.08)">Д</text><text class="cls-3" transform="translate(128.18 330.76) rotate(-59.82)">О</text><text class="cls-3" transform="translate(135.01 318.81) rotate(-55.12)">М</text><text class="cls-3" transform="matrix(0.64, -0.77, 0.77, 0.64, 145.2, 304.29)">А</text><text class="cls-3" transform="matrix(0.7, -0.71, 0.71, 0.7, 153.77, 293.71)">Ш</text><text class="cls-3" transform="matrix(0.76, -0.65, 0.65, 0.76, 167.36, 280.07)">К</text><text class="cls-3" transform="matrix(0.8, -0.61, 0.61, 0.8, 177.27, 271.61)">А</text><text class="cls-3" transform="translate(88.91 430.01) rotate(85.46)">П</text><text class="cls-3" transform="translate(90.16 445.35) rotate(81.28)">О</text><text class="cls-3" transform="matrix(0.22, 0.98, -0.98, 0.22, 92.48, 460.22)">З</text><text class="cls-3" transform="translate(95.43 473.52) rotate(73.27)">Д</text><text class="cls-3" transform="translate(100.19 489.2) rotate(68.93)">Н</text><text class="cls-3" transform="translate(105.74 503.53) rotate(64.77)">О</text><text class="cls-3" transform="matrix(0.47, 0.88, -0.88, 0.47, 112.21, 516.96)"> </text><text class="cls-3" transform="matrix(0.51, 0.86, -0.86, 0.51, 114.93, 522.24)">В</text><text class="cls-3" transform="matrix(0.57, 0.82, -0.82, 0.57, 122.14, 534.25)">Е</text><text class="cls-3" transform="matrix(0.62, 0.79, -0.79, 0.62, 129.09, 544.42)">Р</text><text class="cls-3" transform="translate(137.89 555.64) rotate(47.84)">Н</text><text class="cls-3" transform="translate(148.23 566.98) rotate(43.8)">У</text><text class="cls-3" transform="translate(157.72 576.12) rotate(39.96)">Л</text><text class="cls-3" transform="matrix(0.81, 0.59, -0.59, 0.81, 169.51, 585.95)">С</text><text class="cls-3" transform="translate(181.08 594.27) rotate(32.15)">Я</text><text class="cls-3" transform="translate(159.77 500.11) rotate(57.52)">Л</text><text class="cls-3" transform="translate(168.17 513.22) rotate(51.91)">И</text><text class="cls-3" transform="matrix(0.7, 0.72, -0.72, 0.7, 177.69, 525.41)">Ф</text><text class="cls-3" transform="translate(190.52 538.37) rotate(39.95)">Т</text><text class="cls-3" transform="translate(200.42 546.53) rotate(36.68)"> </text><text class="cls-3" transform="translate(205.22 550.23) rotate(33.18)">З</text><text class="cls-3" transform="matrix(0.88, 0.47, -0.47, 0.88, 216.75, 557.76)">А</text><text class="cls-3" transform="translate(229.89 564.72) rotate(22.85)">С</text><text class="cls-3" transform="translate(242.89 570.17) rotate(17.88)">Т</text><text class="cls-3" transform="matrix(0.98, 0.22, -0.22, 0.98, 256.01, 574.38)">Р</text><text class="cls-3" transform="matrix(0.99, 0.13, -0.13, 0.99, 270.09, 577.51)">Я</text><text class="cls-3" transform="matrix(1, 0.04, -0.04, 1, 283.26, 579.31)">Л</text><text class="cls-3" transform="translate(298.58 579.8) rotate(-1.37)"> </text><text class="cls-3" transform="translate(304.44 579.66) rotate(-3.49)"> </text><text class="cls-3" transform="translate(310.27 579.3) rotate(-5.6)"> </text><text class="cls-3" transform="translate(316.09 578.72) rotate(-7.7)"> </text><text class="cls-3" transform="translate(321.87 577.93) rotate(-9.8)"> </text><text class="cls-3" transform="matrix(0.98, -0.21, 0.21, 0.98, 327.61, 576.94)"> </text><text class="cls-3" transform="translate(333.35 575.72) rotate(-14)"> </text><text class="cls-3" transform="matrix(0.96, -0.28, 0.28, 0.96, 339, 574.31)"> </text><text class="cls-3" transform="translate(344.63 572.68) rotate(-18.2)"> </text><text class="cls-3" transform="matrix(0.94, -0.35, 0.35, 0.94, 350.16, 570.85)"> </text><text class="cls-3" transform="translate(355.66 568.81) rotate(-22.41)"> </text><text class="cls-3" transform="translate(361.06 566.58) rotate(-24.51)"> </text><text class="cls-3" transform="translate(366.38 564.15) rotate(-26.62)"> </text><text class="cls-3" transform="matrix(0.88, -0.48, 0.48, 0.88, 371.59, 561.53)"> </text><text class="cls-3" transform="matrix(0.86, -0.51, 0.51, 0.86, 376.74, 558.7)"> </text><text class="cls-3" transform="translate(381.73 555.71) rotate(-32.96)"> </text><text class="cls-3" transform="matrix(0.82, -0.57, 0.57, 0.82, 386.65, 552.51)"> </text><text class="cls-3" transform="matrix(0.8, -0.6, 0.6, 0.8, 391.41, 549.16)"> </text><text class="cls-3" transform="matrix(0.77, -0.63, 0.63, 0.77, 396.09, 545.6)"> </text><text class="cls-3" transform="matrix(0.75, -0.66, 0.66, 0.75, 400.6, 541.9)"> </text><text class="cls-3" transform="matrix(0.72, -0.69, 0.69, 0.72, 404.99, 538.02)"> </text><text class="cls-3" transform="matrix(0.7, -0.72, 0.72, 0.7, 409.2, 534)"> </text><text class="cls-3" transform="translate(413.29 529.81) rotate(-47.82)"> </text><text class="cls-3" transform="translate(417.21 525.47) rotate(-49.94)"> </text><text class="cls-3" transform="matrix(0.61, -0.79, 0.79, 0.61, 420.98, 520.98)"> </text><text class="cls-3" transform="matrix(0.59, -0.81, 0.81, 0.59, 424.56, 516.38)"> </text><text class="cls-3" transform="matrix(0.56, -0.83, 0.83, 0.56, 427.97, 511.64)"> </text><text class="cls-3" transform="matrix(0.53, -0.85, 0.85, 0.53, 431.21, 506.77)"> </text><text class="cls-3" transform="matrix(0.49, -0.87, 0.87, 0.49, 434.31, 501.78)"> </text><text class="cls-3" transform="matrix(0.46, -0.89, 0.89, 0.46, 437.16, 496.71)"> </text><text class="cls-3" transform="matrix(0.53, -0.85, 0.85, 0.53, 174.35, 350.84)">Б</text><text class="cls-3" transform="matrix(0.62, -0.79, 0.79, 0.62, 180.72, 340.42)">Ы</text><text class="cls-3" transform="translate(191.36 327.04) rotate(-45.93)">Т</text><text class="cls-3" transform="matrix(0.76, -0.65, 0.65, 0.76, 199.63, 318.38)">О</text><text class="cls-3" transform="translate(209.98 309.42) rotate(-35.51)">В</text><text class="cls-3" transform="matrix(0.86, -0.5, 0.5, 0.86, 220.27, 302.01)">А</text><text class="cls-3" transform="translate(232.01 295.19) rotate(-25.06)">Я</text><text class="cls-3" transform="translate(242.91 290.19) rotate(-21.59)"> </text><text class="cls-3" transform="translate(247.52 288.21) rotate(-17.9)">Р</text><text class="cls-3" transform="matrix(0.98, -0.22, 0.22, 0.98, 259.78, 284.22)">У</text><text class="cls-3" transform="matrix(0.99, -0.13, 0.13, 0.99, 272.13, 281.41)">Т</text><text class="cls-3" transform="matrix(1, -0.04, 0.04, 1, 284.27, 279.71)">И</text><text class="cls-3" transform="translate(298 279.07) rotate(3.03)">Н</text><text class="cls-3" transform="matrix(0.99, 0.15, -0.15, 0.99, 312.11, 279.8)">А</text><text class="cls-3" transform="translate(409.04 335.95) rotate(55.68)">Я</text><text class="cls-3" transform="translate(415.74 345.92) rotate(59.12)"> </text><text class="cls-3" transform="translate(418.43 350.08) rotate(62.96)">Н</text><text class="cls-3" transform="translate(424.87 362.65) rotate(68.56)">А</text><text class="cls-3" transform="matrix(0.3, 0.95, -0.95, 0.3, 429.79, 375.52)"> </text><text class="cls-3" transform="translate(431.47 380.16) rotate(76.38)">Д</text><text class="cls-3" transform="translate(435 394.62) rotate(82.19)">Н</text><text class="cls-3" transform="translate(436.87 408.49) rotate(87.27)">Е</text><text class="cls-3" transform="translate(363.89 579.76)">СРОЧНОЕ СОБ<tspan class="cls-5" x="144.29" y="0">Р</tspan><tspan x="155.86" y="0">АНИЕ</tspan></text><text class="cls-3" transform="translate(305.69 629.4)"><tspan class="cls-6">Г</tspan><tspan x="10.95" y="0">ОРЫ </tspan><tspan class="cls-7" x="62.91" y="0">Д</tspan><tspan x="78.36" y="0">ОКУМЕ</tspan><tspan class="cls-8" x="149.58" y="0">Н</tspan><tspan class="cls-9" x="163.97" y="0">Т</tspan><tspan x="176.67" y="0">ОВ</tspan></text><text class="cls-3" transform="translate(350.76 680.18)">Б<tspan class="cls-8" x="13.1" y="0">Ы</tspan><tspan class="cls-9" x="31.05" y="0">Т</tspan><tspan x="43.76" y="0">ОВЫЕ ПРОБЛЕМЫ</tspan></text><text class="cls-3" transform="translate(294.4 730.6)"><tspan class="cls-7">Д</tspan><tspan class="cls-10" x="15.46" y="0">О</tspan><tspan x="29.55" y="0">ДЕ</tspan><tspan class="cls-11" x="57.07" y="0">Л</tspan><tspan class="cls-12" x="72.02" y="0">А</tspan><tspan class="cls-13" x="84.95" y="0">Т</tspan><tspan x="98.16" y="0">Ь Г</tspan><tspan class="cls-5" x="128.6" y="0">Р</tspan><tspan x="140.17" y="0">АФИКИ</tspan></text><text class="cls-14" transform="translate(432.27 441.79)">Лебедева, 9<tspan x="0" y="16.8">20.11</tspan><tspan class="cls-15"><tspan x="0" y="33.6">Беспл</tspan><tspan class="cls-16" x="39.54" y="33.6">а</tspan><tspan x="46.94" y="33.6">тный воркшоп</tspan></tspan></text><text class="cls-3" transform="translate(326.96 780.33)">З<tspan class="cls-17" x="13" y="0">А</tspan><tspan x="27.55" y="0">ДЕ</tspan><tspan class="cls-18" x="55.07" y="0">Р</tspan><tspan x="68.12" y="0">Ж</tspan><tspan class="cls-19" x="89.32" y="0">А</tspan><tspan x="103.85" y="0">ЛИ </tspan><tspan class="cls-11" x="138.67" y="0">Н</tspan><tspan x="153.61" y="0">А </tspan><tspan class="cls-5" x="173.47" y="0">Р</tspan><tspan x="185.04" y="0">АБ</tspan><tspan class="cls-20" x="212.47" y="0">О</tspan><tspan x="225.96" y="0">ТЕ</tspan></text><circle class="cls-21" cx="54.6" cy="39.4" r="20.07"/><path class="cls-22" d="M449.54,485.22a9.57,9.57,0,0,0-9,12.85,5.53,5.53,0,0,1,4.08-1.73c4.66,0,4.66,4.57,9.32,4.57a5.57,5.57,0,0,0,4.13-1.78,9.41,9.41,0,0,0,1-4.33A9.57,9.57,0,0,0,449.54,485.22Z"/><path class="cls-23" d="M449.54,504.37a9.57,9.57,0,0,0,8.53-5.24,5.57,5.57,0,0,1-4.13,1.78c-4.66,0-4.66-4.57-9.32-4.57a5.53,5.53,0,0,0-4.08,1.73A9.59,9.59,0,0,0,449.54,504.37Z"/><path class="cls-24" d="M440.54,498.07a5.53,5.53,0,0,1,4.08-1.73c4.66,0,4.66,4.57,9.32,4.57a5.57,5.57,0,0,0,4.13-1.78,9.41,9.41,0,0,0,1-4.33,9.61,9.61,0,0,0-1.59-5.3,4.41,4.41,0,0,0-3.87-1.92c-5.14,0-5,4.59-9.45,4.59a6.2,6.2,0,0,1-3.4-1.28h0a9.55,9.55,0,0,0-.25,7.17Z"/><text class="cls-25" transform="translate(432.62 516.45)">С<tspan class="cls-26" x="6.44" y="0">ФЕ</tspan><tspan class="cls-27" x="21.54" y="0">Р</tspan><tspan class="cls-26" x="27.42" y="0">А</tspan></text></g><g id="Layer_2" data-name="Layer 2"><rect class="cls-28" x="250.75" y="428.58" width="57.13" height="5.71" transform="matrix(0.86, -0.51, 0.51, 0.86, -179.8, 200.42)"/><rect class="cls-28" x="295.81" y="411.14" width="85.2" height="5.71" transform="translate(-58.23 55.41) rotate(-8.62)"/><rect class="cls-22" x="292.92" y="302.75" width="9.42" height="3.96" rx="1.72" transform="translate(-9.13 600.27) rotate(-89.61)"/><path class="cls-22" d="M410.37,422.7a1.45,1.45,0,0,1-1.48-1.62v-.83a1.34,1.34,0,0,1,1.45-1.51l6,0c.95,0,2,.53,2,1.48V421a1.91,1.91,0,0,1-2,1.65Z"/><rect class="cls-22" x="295.64" y="531.96" width="3.96" height="9.42" rx="1.72" transform="translate(-0.91 0.5) rotate(-0.1)"/><rect class="cls-22" x="176.95" y="418.72" width="9.42" height="3.96" rx="1.72"/><path class="cls-22" d="M199.42,362.2a1.54,1.54,0,0,0-2.11.56h0a1.54,1.54,0,0,0,.55,2.12l4,2.34a1.55,1.55,0,0,0,2.12-.56h0a1.55,1.55,0,0,0-.56-2.12Z"/><path class="cls-22" d="M241.8,320.92a1.55,1.55,0,0,0-2.11-.55h0a1.55,1.55,0,0,0-.56,2.12l2.35,4a1.55,1.55,0,0,0,2.12.56h0a1.56,1.56,0,0,0,.55-2.12Z"/><path class="cls-22" d="M356.13,322.48a1.53,1.53,0,0,0-.58-2.11h0a1.53,1.53,0,0,0-2.11.58l-2.3,4a1.55,1.55,0,0,0,.58,2.11h0a1.55,1.55,0,0,0,2.11-.58Z"/><path class="cls-22" d="M397.41,365a1.56,1.56,0,0,0,.61-2.11h0a1.55,1.55,0,0,0-2.1-.61l-4.08,2.23a1.55,1.55,0,0,0-.61,2.11h0a1.55,1.55,0,0,0,2.1.61Z"/><path class="cls-22" d="M395.84,479.2a1.55,1.55,0,0,0,2.12-.57h0a1.54,1.54,0,0,0-.56-2.11l-4-2.34a1.55,1.55,0,0,0-2.12.57h0a1.55,1.55,0,0,0,.56,2.12Z"/><path class="cls-22" d="M353.42,520.47a1.55,1.55,0,0,0,2.12.56h0a1.55,1.55,0,0,0,.56-2.12l-2.34-4a1.54,1.54,0,0,0-2.11-.56h0a1.55,1.55,0,0,0-.57,2.12Z"/><path class="cls-22" d="M239.18,518.88a1.55,1.55,0,0,0,.55,2.12h0a1.55,1.55,0,0,0,2.12-.55l2.36-4a1.54,1.54,0,0,0-.55-2.12h0a1.54,1.54,0,0,0-2.12.55Z"/><path class="cls-22" d="M197.85,476.51a1.55,1.55,0,0,0-.56,2.12h0a1.55,1.55,0,0,0,2.11.57l4-2.33a1.54,1.54,0,0,0,.57-2.11h0a1.54,1.54,0,0,0-2.11-.57Z"/><rect class="cls-29" x="257.7" y="323.08" width="3.59" height="136.97" transform="translate(-209.11 358.82) rotate(-52.47)"/><path class="cls-28" d="M297.56,432a11.08,11.08,0,1,1,11.15-11A11.09,11.09,0,0,1,297.56,432Z"/><path class="cls-30" d="M206.22,472.06s-32-15.07-33.15-33c0,0,2.56-2.65,4.8-1.63s3.63,2.52,3.24,3.15-.31,4.11,3.32,6.63S198.9,458,199.84,457.52s8.2,3.07,8.2,3.07L211,470.92Z"/><path class="cls-31" d="M251.67,492.15s-1,8.53,5,13.61,6.88,6,13.54,2.29a17.31,17.31,0,0,0,8.16-10.19s-6.4,12.07-1.62,16.91,6.7-1.33,6.29-1.89-2.17-15.8.74-19.4-4.84-3.28-5.19-2.88-12.8,5-12.8,5Z"/><path class="cls-22" d="M279.11,484.92s-.24-11.1-15-12.81-20.33,2.29-20.93,2.57-14.43,2.34-17.9-5.34c-2-4.5-1.51-6.55-.73-7.47a4.54,4.54,0,0,0,1-3.64,14.65,14.65,0,0,0-2.16-6.16c-2.33-3.23-10.2-5.62-12.18-4.24a13.81,13.81,0,0,1-2.23,1.25,4.62,4.62,0,0,1-4.07-.13c-1.44-.77-3.52-1.48-4.95-.32-2.07,1.67-.35,8.16.17,9.94a4.19,4.19,0,0,0,.34.85l5,9.49a4.64,4.64,0,0,1-.38,5,11,11,0,0,1-3.52,3c-4,2.14-14.26-.1-16.72-5.63s-5.41-3.39-5.41-3.39-2.56.8.36,5.43,15,14.55,22.89,14.82a22.65,22.65,0,0,0,7.38-.72,4.69,4.69,0,0,1,4.38.78c2.85,2.33,8.29,6,14.86,6.51,9.76.8,24.67.71,25.35,2.15s-3.87-13,1.83-17.06,19.91-1.23,21.77,3A8.22,8.22,0,0,1,279.11,484.92Z"/><path class="cls-32" d="M216,456.19c-1.19.91-2,1.85-2.92.66s.24-1.68,1.43-2.6,2-1.91,2.88-.72S217.23,455.27,216,456.19Z"/><path class="cls-22" d="M277,482.44s92.31,1.84,85.88,63.69c0,0-9.18,20.42-23.44,3.57s-22.24-42.19-56.62-60.43c0,0-4.82-2.77-6.59-1.61S277,482.44,277,482.44Z"/><path class="cls-33" d="M276.24,480.35a7,7,0,0,1,2.69,5.36c.11,3.08-2.05,8.69-5.18,12.07-5,5.43-15.88,3.75-18.68-.45s-4.49-13.56,1.19-17.82C259.54,477.05,268.94,474.76,276.24,480.35Z"/><path class="cls-22" d="M223.89,460.8s6.73.7,7.72-.31c1.71-1.74-2.51-4.5-3.57-4.72a38.44,38.44,0,0,0-4.12-.26Z"/></g></svg>