<svg xmlns="http://www.w3.org/2000/svg" viewBox="0 0 595.28 841.89"><defs><style>.cls-1{fill:#f15d22;}.cls-2,.cls-6{fill:none;}.cls-2{stroke:#fddac5;stroke-width:25px;}.cls-13,.cls-2{stroke-miterlimit:10;}.cls-3{fill:#231f20;}.cls-13,.cls-4{fill:#fff;}.cls-5{fill:#fddac5;}.cls-7{fill:#2556a2;}.cls-8{fill:#83aedd;}.cls-9{fill:#010101;}.cls-10{fill:#d8d9d9;}.cls-11{fill:#898b8d;}.cls-12{fill:#abacb1;}.cls-13{stroke:#fff;}</style></defs><title>6</title><g id="Layer_3" data-name="Layer 3"><rect class="cls-1" width="597.6" height="841.89"/><path class="cls-2" d="M297.64,671.26c-138.17,0-250-112-250-250.3s111.8-250.31,250-250.31"/><polyline class="cls-2" points="597.09 671.25 297.64 671.25 300.62 671.25"/><path class="cls-2" d="M644.59,417.05v3.24c0-193.43-156.73-350-350.42-350"/><path class="cls-2" d="M297.64,571.14a150.19,150.19,0,0,1,0-300.37"/><polyline class="cls-2" points="597.09 571.13 297.64 571.13 300.62 571.13"/><path class="cls-2" d="M494.36,417.45v3.23c0-110.53-89.56-200-200.24-200"/><path class="cls-2" d="M296.61,721.32C131.28,720.76-2.32,586.63-2.32,421c0-166,134.16-300.37,300-300.37"/><polyline class="cls-2" points="597.09 721.31 296.61 721.31 299.59 721.31"/><path class="cls-2" d="M444.3,417.45v3.23a150,150,0,0,0-150.18-150"/><path class="cls-2" d="M297.64,771.38C104.21,771.38-52.31,614.65-52.31,421s156.52-350.43,350-350.43"/><polyline class="cls-2" points="597.09 771.37 297.64 771.37 300.62 771.37"/><path class="cls-2" d="M297.64,621.2c-110.53,0-200-89.56-200-200.24s89.45-200.25,200-200.25"/><polyline class="cls-2" points="597.09 621.19 297.64 621.19 300.62 621.19"/></g><g id="Layer_1" data-name="Layer 1"><path class="cls-3" d="M68.37,697.35l-2.62-2.24L75,684.33,71.14,681l-9.23,10.78-2.62-2.25,11.1-13,9.08,7.78Z"/><path class="cls-3" d="M82.29,699l-4.21-3.34-2.81,3.55,5,3.95-1.78,2.24-7.68-6.09L81.4,686,89.05,692l-1.78,2.25-5-3.93-2.5,3.16,4.2,3.33Z"/><path class="cls-3" d="M86.61,704l-3.55,4.84-2.78-2.05,10.11-13.74,4.69,3.45a5.35,5.35,0,0,1,2.32,3.65,5.7,5.7,0,0,1-1.21,4.18,5.26,5.26,0,0,1-3.54,2.31,5.65,5.65,0,0,1-4.19-1.28Zm1.7-2.31,1.91,1.4a1.89,1.89,0,0,0,1.61.39,2.93,2.93,0,0,0,1.55-1.19,3.47,3.47,0,0,0,.76-2,1.78,1.78,0,0,0-.74-1.49l-1.93-1.42Z"/><path class="cls-3" d="M103,713.86l-4.43-3L96,714.58l5.25,3.57-1.61,2.37L91.55,715l9.61-14.1,8.08,5.5-1.62,2.38-5.23-3.57-2.27,3.33,4.44,3Z"/><path class="cls-3" d="M112.07,715.15l5.07-3.73,3.34,2.1-7.91,5L111.46,728l-3.38-2.13,1.19-6.3-5.15,3.81-3.38-2.14,8.06-5.08,1.11-9.31,3.34,2.11Z"/><path class="cls-3" d="M126.89,728.87a8,8,0,0,1-4.07,3.81,6.33,6.33,0,0,1-7.82-4.5,7.86,7.86,0,0,1,1.19-5.39l1.46-2.53a8.39,8.39,0,0,1,4.16-3.94,6.16,6.16,0,0,1,7.82,4.48,8.29,8.29,0,0,1-1.28,5.54Zm-1.56-4.2a7.1,7.1,0,0,0,1.15-3.31,2.44,2.44,0,0,0-3.51-2.07,6.68,6.68,0,0,0-2.23,2.52l-1.52,2.63a6.33,6.33,0,0,0-1.07,3.19,2.25,2.25,0,0,0,1.25,2,2.22,2.22,0,0,0,2.26.1,6.18,6.18,0,0,0,2.18-2.45Z"/><path class="cls-3" d="M135.68,746.15l-2.8-1.46,1.94-3.72-7.15-3.74-1.94,3.71-2.89-1.51,3.1-6.33,1,.53A4.83,4.83,0,0,0,129,732.2a20.58,20.58,0,0,0,2.4-3.28l4.11-6.83,8.69,4.55-6.58,12.58,1.57.82Zm-5.45-10.81,4.38,2.29,5.25-10-2.74-1.43-2.43,4A16.68,16.68,0,0,1,130.23,735.34Z"/><path class="cls-3" d="M156.25,737.49a2.14,2.14,0,0,0,.14-1.59,1.81,1.81,0,0,0-1-1.09,1.64,1.64,0,0,0-1.4,0,2,2,0,0,0-1.05,1.11l-3.14-1.42a4.6,4.6,0,0,1,4.1-2.8,5.88,5.88,0,0,1,2.67.53,5.81,5.81,0,0,1,3.09,2.8,4.59,4.59,0,0,1-.18,3.85,4.08,4.08,0,0,1-1.42,1.7,4.24,4.24,0,0,1-2.11.73,3.85,3.85,0,0,1,1,2.1,4.56,4.56,0,0,1-.45,2.53,4.62,4.62,0,0,1-2.9,2.7,6,6,0,0,1-4.28-.46,6.4,6.4,0,0,1-2.29-1.69,4.57,4.57,0,0,1-1.07-2.37,4.82,4.82,0,0,1,.46-2.7l3.15,1.43a2.1,2.1,0,0,0-.12,1.59,1.81,1.81,0,0,0,1,1.16,2.05,2.05,0,0,0,1.69.08,2.21,2.21,0,0,0,1.2-1.22,2.87,2.87,0,0,0,.32-1.94,1.83,1.83,0,0,0-1.1-1.12l-1.59-.72,1.15-2.53,1.6.72Q155.32,739.54,156.25,737.49Z"/><path class="cls-3" d="M166,751.22l-4.36-1.77-2.16,2.89L156.06,751l11.37-13.8,2.92,1.19-1.46,17.83-3.41-1.39Zm-2.58-4.15,2.95,1.2.82-6.23Z"/><path class="cls-3" d="M177.75,752l-1.41-.51L174,758l-3.24-1.17,5.8-16.05,3.24,1.18-2.32,6.41,1.09.39,5.11-5.4,3.94,1.42L181,750.87,182.24,761l-3.86-1.39Z"/><path class="cls-3" d="M188.87,756.84l-1.82,5.72-3.28-1,5.17-16.26,5.54,1.76a5.36,5.36,0,0,1,3.37,2.72,5.65,5.65,0,0,1,.2,4.35,5.28,5.28,0,0,1-2.62,3.32,5.63,5.63,0,0,1-4.37.13Zm.87-2.74,2.26.72a1.86,1.86,0,0,0,1.64-.15,2.82,2.82,0,0,0,1.09-1.63,3.48,3.48,0,0,0,.09-2.1,1.79,1.79,0,0,0-1.18-1.18l-2.29-.73Z"/><path class="cls-3" d="M203.38,756.1l2,.53a5.76,5.76,0,0,1,3.6,2.49,5.2,5.2,0,0,1,.46,4.2,5.4,5.4,0,0,1-2.48,3.44,5.46,5.46,0,0,1-4.24.48l-5.49-1.48,4.43-16.47,3.34.89Zm-.75,2.76-1.35,5,2,.54a1.88,1.88,0,0,0,1.73-.32,3.12,3.12,0,0,0,1.06-1.72,2.83,2.83,0,0,0-.08-1.9,2,2,0,0,0-1.34-1.09Zm9.53,10.92-3.33-.89,4.43-16.48,3.33.89Z"/><path class="cls-3" d="M230.77,756.42l-3.63,16.67-3.38-.74,3-13.86-3.09-.68-1.52,5.86a20.23,20.23,0,0,1-1.66,4.49,5.12,5.12,0,0,1-2.08,2.18,4.32,4.32,0,0,1-2.87.22l-.82-.18.61-2.79.39,0a1.9,1.9,0,0,0,1.82-1,16.54,16.54,0,0,0,1.55-4.31l2-8Z"/><path class="cls-3" d="M241.37,758.32l3.4.59-2.94,16.81-3.39-.59L240.38,764l-6.89,10.26-3.41-.59L233,756.86l3.41.59-1.94,11.14Z"/><path class="cls-3" d="M81.45,146.41l-4.18,3.38,2.85,3.52,4.93-4,1.8,2.23-7.62,6.16L68.51,144.43l7.6-6.15,1.8,2.24-4.92,4,2.53,3.14,4.18-3.38Z"/><path class="cls-3" d="M80.75,134.69l8.39,11.46,2.8-2.05-8.4-11.46,2.78-2,8.4,11.46,2.76-2-8.4-11.46,2.78-2,8.47,11.55,1.62-1.19,3.86,5.66-2.48,1.81-2.42-3.31L88,150.5,78,136.73Z"/><path class="cls-3" d="M94.86,121.41a1.34,1.34,0,0,1-.19-1.15,1.62,1.62,0,0,1,.72-1,1.69,1.69,0,0,1,1.2-.28,1.38,1.38,0,0,1,1,.63,1.35,1.35,0,0,1,.18,1.14,1.63,1.63,0,0,1-.73,1,1.6,1.6,0,0,1-1.19.28A1.36,1.36,0,0,1,94.86,121.41Zm13.58,5.74-4.47,3,2.49,3.77,5.3-3.51,1.58,2.39-8.17,5.4-9.42-14.23,8.15-5.39,1.59,2.4-5.28,3.49,2.22,3.36,4.48-3Zm-8.8-8.9a1.35,1.35,0,0,1-.19-1.14,1.67,1.67,0,0,1,.73-1,1.69,1.69,0,0,1,1.2-.29,1.44,1.44,0,0,1,1.17,1.74,1.61,1.61,0,0,1-.74,1,1.58,1.58,0,0,1-1.22.28A1.36,1.36,0,0,1,99.64,118.25Z"/><path class="cls-3" d="M120.06,120.5l-1.3.77,3.54,6-3,1.75-8.66-14.7,3-1.75,3.46,5.88,1-.59-.91-7.38,3.62-2.13.43,9,8.63,5.5-3.53,2.08Z"/><path class="cls-3" d="M131,111.46l-1.58-7.76,3.27-1.76L135,116.23a7,7,0,0,1-.19,3.28,3.53,3.53,0,0,1-1.56,1.75l-.33.18-.75.34-1.4-2.49a3.07,3.07,0,0,0,.69-.32,1.45,1.45,0,0,0,.73-.72,2.68,2.68,0,0,0-.11-1.43l-.15-.63-10.09-8.45,3.25-1.75Z"/><path class="cls-3" d="M145.29,95.74l7.48,15.33-3.1,1.51-2.82-5.78a11.91,11.91,0,0,1-2.18,1.4,5.86,5.86,0,0,1-4.44.6,5.52,5.52,0,0,1-3.15-3l-2.4-4.92,3.11-1.52,2.31,4.75a3.56,3.56,0,0,0,1.4,1.71,2.22,2.22,0,0,0,1.91-.22,11.38,11.38,0,0,0,2.19-1.4l-3.41-7Z"/><path class="cls-3" d="M161.22,103.51l-4.31,1.88.56,3.57-3.34,1.46-1.94-17.77,2.89-1.26,11.75,13.49-3.37,1.47Zm-4.77-1.05,2.92-1.27-3.89-4.94Z"/><path class="cls-3" d="M187.27,101.63l-3,1.1-1.45-3.94-7.57,2.79,1.44,3.92-3.06,1.13-2.61-6.55,1.07-.39a4.67,4.67,0,0,0,.34-2.5,20.42,20.42,0,0,0-.81-4l-2.3-7.64,9.21-3.38,4.9,13.33,1.66-.61ZM175.6,98.41l4.64-1.71-3.91-10.63-2.91,1.07,1.36,4.5A17,17,0,0,1,175.6,98.41Z"/><path class="cls-3" d="M193.58,87.44l-5.11,1.66,1.39,4.3,6-2,.88,2.72-9.32,3L182.21,81l9.3-3,.88,2.73-6,2,1.24,3.84,5.11-1.66Z"/><path class="cls-3" d="M212.65,94l-3,.86-1.14-4L200.7,93l1.13,4-3.14.89-2.08-6.73,1.09-.31a4.68,4.68,0,0,0,.54-2.46,21.14,21.14,0,0,0-.5-4l-1.69-7.79,9.44-2.65,3.84,13.67,1.71-.48Zm-11.38-4.12L206,88.54,203,77.63l-3,.84,1,4.6A16.85,16.85,0,0,1,201.27,89.88Z"/><path class="cls-3" d="M221.1,70.17,225,86.79l-3.36.79-3.25-13.82-3.08.72,1.16,5.94a20.24,20.24,0,0,1,.42,4.77,5.09,5.09,0,0,1-.93,2.86,4.32,4.32,0,0,1-2.49,1.44l-.82.2L212,86.9l.38-.12a1.9,1.9,0,0,0,1.19-1.73,16.63,16.63,0,0,0-.46-4.56l-1.66-8Z"/><path class="cls-3" d="M234.93,81.28l-4.62.88-.24,3.6-3.58.69,2-17.76,3.1-.59,8.48,15.75-3.62.69Zm-4.42-2.08,3.13-.6-2.71-5.67Z"/><path class="cls-3" d="M247.07,65.54l3.4-.51L253,81.91l-3.4.51-1.68-11.17-3.3,11.91-3.41.52L238.68,66.8l3.42-.51,1.67,11.18Zm.88-4.68a3.12,3.12,0,0,1-.73,2.66,5,5,0,0,1-5.84.87,3.14,3.14,0,0,1-1.48-2.32l2.4-.36a1.44,1.44,0,0,0,.6,1,2,2,0,0,0,2.38-.35,1.44,1.44,0,0,0,.26-1.19Z"/><path class="cls-3" d="M267.28,80.32l-3.41.36-.79-7.25L258,74l.78,7.26-3.43.37-1.83-17,3.43-.37.74,6.86,5-.55L262,63.72l3.42-.37Z"/><path class="cls-3" d="M281.19,72.33a7.94,7.94,0,0,1-1.27,5.43A5.57,5.57,0,0,1,275.55,80a5.67,5.67,0,0,1-4.63-1.57,7.91,7.91,0,0,1-2-5.15l-.19-2.91A8.41,8.41,0,0,1,270,64.73a6.16,6.16,0,0,1,9-.63,8.26,8.26,0,0,1,2,5.32Zm-3.64-2.62a7,7,0,0,0-.88-3.38,2.42,2.42,0,0,0-4.06.23,6.63,6.63,0,0,0-.47,3.33l.21,3a6.29,6.29,0,0,0,.88,3.25,2.28,2.28,0,0,0,2.13.92,2.21,2.21,0,0,0,1.93-1.17,6.21,6.21,0,0,0,.45-3.25Z"/><path class="cls-3" d="M283.8,79.23l-.45-17.06,5.27-.14a6.1,6.1,0,0,1,4.09,1.09,4.3,4.3,0,0,1,1.48,3.44,4.22,4.22,0,0,1-.51,2.26,3.45,3.45,0,0,1-1.54,1.41A3,3,0,0,1,294,71.5a4.49,4.49,0,0,1,.68,2.43,4.83,4.83,0,0,1-1.26,3.78,5.59,5.59,0,0,1-3.92,1.37Zm3.18-10,1.8,0a1.83,1.83,0,0,0,2-2.15,2.37,2.37,0,0,0-.52-1.65,2,2,0,0,0-1.53-.47l-1.83,0Zm.07,2.5.12,4.56,2.2-.06a1.71,1.71,0,0,0,1.39-.61A2.46,2.46,0,0,0,291.2,74c0-1.53-.62-2.3-1.73-2.31Z"/><path class="cls-3" d="M395.47,87.85a6.43,6.43,0,0,1-2.76,3.82,5.8,5.8,0,0,1-4.52.29,5.34,5.34,0,0,1-3.76-3,8.52,8.52,0,0,1,0-5.65l.77-2.76a8.27,8.27,0,0,1,3-4.8,6.31,6.31,0,0,1,8.44,2,7.13,7.13,0,0,1,.39,4.76l-3.33-.93A4.67,4.67,0,0,0,393.8,79a2.17,2.17,0,0,0-1.62-1.16,2.07,2.07,0,0,0-2.14.4,6.77,6.77,0,0,0-1.44,2.9l-.87,3.1a7.33,7.33,0,0,0-.39,3.52A2.08,2.08,0,0,0,389,89.21a2.29,2.29,0,0,0,2-.13,4.35,4.35,0,0,0,1.2-2.15Z"/><path class="cls-3" d="M409.22,90.88A7.91,7.91,0,0,1,406,95.45a5.62,5.62,0,0,1-4.87.43,5.7,5.7,0,0,1-3.72-3.18,7.89,7.89,0,0,1,0-5.53l.9-2.77a8.4,8.4,0,0,1,3.24-4.73,5.51,5.51,0,0,1,4.91-.48,5.57,5.57,0,0,1,3.67,3.22,8.25,8.25,0,0,1-.09,5.69Zm-2.41-3.78a7,7,0,0,0,.44-3.47,2.43,2.43,0,0,0-3.86-1.29,6.64,6.64,0,0,0-1.66,2.93l-.94,2.88a6.42,6.42,0,0,0-.38,3.35,2.27,2.27,0,0,0,1.64,1.64,2.21,2.21,0,0,0,2.23-.37,6.13,6.13,0,0,0,1.62-2.85Z"/><path class="cls-3" d="M420.3,102.39l-3.22-1.19,2.54-6.85-4.77-1.76-2.54,6.84-3.23-1.19,5.93-16,3.23,1.19-2.4,6.47,4.77,1.77L423,85.2l3.22,1.19Z"/><path class="cls-3" d="M438.34,114.63l-2.9-1.27,1.69-3.84-7.39-3.25-1.68,3.83-3-1.31,2.67-6.53,1,.46a4.76,4.76,0,0,0,2-1.56,21.1,21.1,0,0,0,2.17-3.43l3.64-7.1,9,4-5.71,13,1.62.72Zm-6.17-10.42,4.52,2,4.56-10.37-2.83-1.25-2.15,4.19A16.69,16.69,0,0,1,432.17,104.21Z"/><path class="cls-3" d="M460,101.61l-7.55,15.3-3.1-1.53,6.28-12.73-2.84-1.4-2.88,5.32a20.72,20.72,0,0,1-2.7,4,5.11,5.11,0,0,1-2.54,1.62,4.35,4.35,0,0,1-2.84-.48l-.76-.37,1.27-2.57.37.15a1.9,1.9,0,0,0,2-.58,17.05,17.05,0,0,0,2.54-3.81l3.83-7.27Z"/><path class="cls-3" d="M460.21,121.09l2.93-5.39-1.58-.87-5.15,4.2-3.26-1.78,6.18-5a5,5,0,0,1,.25-4.88,5.2,5.2,0,0,1,3.12-2.75,5.56,5.56,0,0,1,4.2.73l4.5,2.44-8.15,15Zm2.28-11.87a3.36,3.36,0,0,0-.54,2,1.88,1.88,0,0,0,1.08,1.31l1.4.76,2.56-4.72-1.5-.81Q463.77,106.87,462.49,109.22Z"/><path class="cls-3" d="M482.81,127.84a6.33,6.33,0,0,1-3.71,2.9,5.78,5.78,0,0,1-4.42-1,5.39,5.39,0,0,1-2.78-3.95,8.39,8.39,0,0,1,1.54-5.43l1.5-2.45a8.24,8.24,0,0,1,4.2-3.78,6.31,6.31,0,0,1,7.56,4.24,7.12,7.12,0,0,1-.94,4.68l-2.95-1.81a4.55,4.55,0,0,0,.83-2.41,2.21,2.21,0,0,0-1.23-1.57,2.1,2.1,0,0,0-2.18-.2,6.82,6.82,0,0,0-2.18,2.39l-1.69,2.75a7.37,7.37,0,0,0-1.34,3.27,2.08,2.08,0,0,0,1.16,1.83,2.24,2.24,0,0,0,1.95.42,4.42,4.42,0,0,0,1.75-1.73Z"/><path class="cls-3" d="M500.79,126.16l-9.53,14.16-2.86-1.93,7.91-11.77-2.62-1.77-3.57,4.89a20.46,20.46,0,0,1-3.2,3.56,5.08,5.08,0,0,1-2.73,1.26,4.36,4.36,0,0,1-2.76-.85l-.7-.47,1.6-2.37.35.19a1.91,1.91,0,0,0,2.08-.3,17.13,17.13,0,0,0,3-3.44l4.77-6.7Z"/><path class="cls-3" d="M502,143.84l-3.79-2.78-2.8,2.27-2.94-2.16,14.4-10.59,2.54,1.87-5.78,16.93-3-2.19Zm-1.48-4.65,2.56,1.89,2.32-5.85Z"/><path class="cls-3" d="M521,145l-4.78-3.81-2,2.54,1.6,1.27a5.73,5.73,0,0,1,2.31,3.73,5.2,5.2,0,0,1-1.25,4,5.4,5.4,0,0,1-3.65,2.16,5.49,5.49,0,0,1-4.08-1.25l-4.45-3.54,10.64-13.34,7.49,6Zm-8.6,1-3.25,4.08,1.63,1.3a1.9,1.9,0,0,0,1.71.4,3.16,3.16,0,0,0,1.67-1.16,2.76,2.76,0,0,0,.68-1.77,2,2,0,0,0-.79-1.54Z"/><path class="cls-3" d="M523.06,160.84l-3.56-3.07-3,2-2.76-2.38L529,148l2.39,2.05-7.09,16.43-2.78-2.41ZM522,156.09l2.41,2.08,2.76-5.64Z"/><path class="cls-3" d="M533.56,165.66l-1.1-1-4.75,5.08-2.52-2.35,11.65-12.47,2.52,2.35-4.66,5,.85.79,6.82-3,3.07,2.86-8.48,3-2.83,9.83-3-2.8Z"/><path class="cls-3" d="M548,179.77a8,8,0,0,1-4.94,2.58,6.32,6.32,0,0,1-6.34-6.41,7.84,7.84,0,0,1,2.59-4.88l2.07-2.05a8.37,8.37,0,0,1,5.06-2.69,5.54,5.54,0,0,1,4.58,1.83,5.61,5.61,0,0,1,1.77,4.56,8.32,8.32,0,0,1-2.71,5Zm-.39-4.47a6.87,6.87,0,0,0,2-2.88,2.19,2.19,0,0,0-.62-2.24,2.23,2.23,0,0,0-2.2-.69,6.81,6.81,0,0,0-2.83,1.83l-2.16,2.13a6.39,6.39,0,0,0-1.88,2.79,2.28,2.28,0,0,0,.69,2.22,2.22,2.22,0,0,0,2.15.7,6.31,6.31,0,0,0,2.76-1.78Z"/><path class="cls-3" d="M544.48,186.24l12.57-11.53,3.57,3.88a6.12,6.12,0,0,1,1.87,3.8,4.37,4.37,0,0,1-1.63,3.38,4.18,4.18,0,0,1-2,1.09,3.41,3.41,0,0,1-2.07-.23,3,3,0,0,1,.22,2.2,4.53,4.53,0,0,1-1.38,2.1,4.87,4.87,0,0,1-3.69,1.53,5.57,5.57,0,0,1-3.6-2.06Zm7.8-2.47-3.36,3.08,1.48,1.62a1.74,1.74,0,0,0,1.38.65,2.4,2.4,0,0,0,1.52-.75c1.13-1,1.34-2,.62-2.82Zm1.84-1.7,1.21,1.32a1.83,1.83,0,0,0,2.92.08,2.41,2.41,0,0,0,.91-1.47,2,2,0,0,0-.66-1.46l-1.23-1.35Z"/><path class="cls-4" d="M368,132.93l-3.64-.9-4.18,16.89-8.36-2.06L362,105.45l8.36,2.06-4.09,16.55,2.82.7L380.38,110l10.18,2.52-14.88,16.78,5.79,24.91-10-2.46Z"/><path class="cls-4" d="M404.29,153.5l-11-4.11-5.19,7.38-8.54-3.19L407,118.29l7.38,2.76L412,165.7l-8.62-3.22Zm-6.74-10.17,7.47,2.79,1.59-15.64Z"/><path class="cls-4" d="M432.31,156.72,429,155,421,170.49l-7.66-3.93,19.47-37.95,7.67,3.93-7.79,15.17L435.3,149l14.38-11.79L459,142,440.66,155l-.08,25.57-9.13-4.68Z"/><path class="cls-4" d="M492.3,173.5l-12.34-9L475.15,171l4.11,3q5.22,3.82,6.15,9.06a13,13,0,0,1-2.71,10.2,13.5,13.5,0,0,1-8.89,5.78,13.74,13.74,0,0,1-10.32-2.71L452,188l25.21-34.41,19.31,14.14Zm-21.38,3.3-7.7,10.52,4.21,3.08a4.69,4.69,0,0,0,4.32.82,7.69,7.69,0,0,0,4-3.05,6.9,6.9,0,0,0,1.53-4.49,4.9,4.9,0,0,0-2.13-3.76Z"/><path class="cls-4" d="M505.22,207.43l-9.94-9-7.59,8.38,11.77,10.66-4.8,5.3L476.5,206.32l28.64-31.62,18.11,16.41-4.82,5.32L506.7,185.81l-6.76,7.47,9.94,9Z"/><path class="cls-4" d="M548.34,218.68,516.4,247l-5.73-6.47L537.24,217,532,211l-11.7,9.58a50.28,50.28,0,0,1-10,6.6,12.61,12.61,0,0,1-7.39,1.34,10.82,10.82,0,0,1-6.13-3.78l-1.4-1.58,5.35-4.74.73.69q2,1.8,5.21.56t9.48-6.41l15.75-13.2Z"/><path class="cls-4" d="M540.47,250.79l-2.14-3.08L524,257.64l-4.92-7.07,35-24.35,4.92,7.07-14,9.74,1.65,2.38L565,241.76l6,8.61-22.26,2.78-12.1,22.53-5.85-8.42Z"/><path class="cls-4" d="M554.17,290.25l-5.55-10.35L539.85,282l-4.31-8,43.9-8.4,3.72,6.94-31.26,32-4.34-8.11Zm1.67-12.09,3.76,7,11.52-10.69Z"/><path class="cls-3" d="M33.55,589.52l-1.63-2.71,3.59-2.17-4.18-6.91-3.58,2.17-1.69-2.79,5.93-3.8.59,1a4.76,4.76,0,0,0,2.52-.14,20.14,20.14,0,0,0,3.75-1.56l7.06-3.71,5.08,8.4-12.16,7.35.92,1.51Zm1-12.07,2.56,4.23,9.69-5.86-1.6-2.65L41,575.36A16.8,16.8,0,0,1,34.5,577.45Z"/><path class="cls-3" d="M46.09,594.41l-2.63-3.89-3.4,1.2-2.05-3,17.12-5.15,1.77,2.61-11.12,14-2.07-3Zm.17-4.88L48,592.17l4.15-4.73Z"/><path class="cls-3" d="M47,601.78l13.67-10.22,3.16,4.23a6.08,6.08,0,0,1,1.48,4,4.34,4.34,0,0,1-2,3.2,4.25,4.25,0,0,1-2.14.88,3.37,3.37,0,0,1-2-.44,3,3,0,0,1,0,2.21,4.52,4.52,0,0,1-1.58,2,4.85,4.85,0,0,1-3.82,1.15,5.57,5.57,0,0,1-3.38-2.41Zm8-1.68-3.65,2.72,1.32,1.77a1.74,1.74,0,0,0,1.3.78,2.45,2.45,0,0,0,1.59-.59c1.23-.91,1.52-1.83.89-2.74Zm2-1.51L58.05,600a1.83,1.83,0,0,0,2.9.37A2.38,2.38,0,0,0,62,599a2,2,0,0,0-.51-1.52L60.4,596Z"/><path class="cls-3" d="M63.83,612.25l-.95-1.16L57.5,615.5l-2.18-2.66L68.51,602l2.18,2.66L65.42,609l.74.89,7.15-2L76,611.12l-8.79,1.81-4.11,9.37-2.6-3.18Z"/><path class="cls-3" d="M72.24,627.27l-3.15-3.49-3.21,1.66-2.44-2.71,16.25-7.46,2.11,2.34L72.72,633l-2.46-2.73Zm-.51-4.85,2.13,2.36,3.45-5.25Z"/><path class="cls-3" d="M78.08,638.52,90,626.3,93.77,630a6,6,0,0,1,2.07,3.68,4.29,4.29,0,0,1-1.43,3.47,4.25,4.25,0,0,1-2,1.2,3.36,3.36,0,0,1-2.08-.11,3,3,0,0,1,.35,2.18,4.43,4.43,0,0,1-1.26,2.18,4.85,4.85,0,0,1-3.59,1.74,5.62,5.62,0,0,1-3.72-1.86Zm7.65-2.91-3.18,3.27,1.57,1.54a1.75,1.75,0,0,0,1.41.57,2.49,2.49,0,0,0,1.48-.84c1.07-1.09,1.22-2,.46-2.84Zm1.75-1.79,1.28,1.25a1.83,1.83,0,0,0,2.92-.09,2.4,2.4,0,0,0,.82-1.52,2,2,0,0,0-.74-1.42l-1.31-1.28Z"/><path class="cls-3" d="M106.73,641.89l-5.5,11.51L111.65,646l3.44,2.9-11,13-2.64-2.23,3-3.52,4.83-5.24-10.17,6.77-1.8-1.51,5-11.17-4.34,5.64-3,3.53L92.29,652l11-13Z"/><path class="cls-3" d="M118.1,663.39l-4.26-3.26-2.75,3.6,5.06,3.85-1.74,2.28-7.79-5.94L117,650.35l7.78,5.92L123,658.55l-5-3.83-2.44,3.2,4.27,3.26Z"/><path class="cls-3" d="M133.68,666.06l-3.46-2.42-8.12,11.64-2.83-2,8.12-11.64L124,659.29l1.65-2.35,9.69,6.76Z"/><path class="cls-3" d="M133.65,675.76l-3.21,5.07L127.53,679l9.13-14.42,4.91,3.11a5.35,5.35,0,0,1,2.57,3.49,5.66,5.66,0,0,1-.91,4.25,5.24,5.24,0,0,1-3.38,2.55,5.63,5.63,0,0,1-4.26-1Zm1.54-2.42,2,1.26a1.85,1.85,0,0,0,1.63.28,2.9,2.9,0,0,0,1.46-1.3,3.42,3.42,0,0,0,.62-2,1.77,1.77,0,0,0-.84-1.44l-2-1.29Z"/><path class="cls-3" d="M153.34,686.33a7.92,7.92,0,0,1-4.05,3.83,6.32,6.32,0,0,1-7.84-4.45,7.86,7.86,0,0,1,1.16-5.4l1.45-2.53a8.38,8.38,0,0,1,4.13-4,6.18,6.18,0,0,1,7.85,4.43,8.31,8.31,0,0,1-1.25,5.56Zm-1.59-4.19a7.06,7.06,0,0,0,1.14-3.31,2.43,2.43,0,0,0-3.52-2.05,6.55,6.55,0,0,0-2.22,2.53l-1.5,2.63a6.46,6.46,0,0,0-1.06,3.2,2.26,2.26,0,0,0,1.27,1.94,2.17,2.17,0,0,0,2.25.09,6.15,6.15,0,0,0,2.18-2.46Z"/><path class="cls-3" d="M-.1,416.79l6,.12-.07,3.45L-11.23,420l.12-5.82a5.3,5.3,0,0,1,1.65-4,5.64,5.64,0,0,1,4.11-1.42,5.27,5.27,0,0,1,3.93,1.56A5.68,5.68,0,0,1,0,414.5ZM-3,416.73l.05-2.36a1.9,1.9,0,0,0-.61-1.54,2.84,2.84,0,0,0-1.87-.57,3.33,3.33,0,0,0-2,.51,1.76,1.76,0,0,0-.8,1.46l0,2.4Z"/><path class="cls-3" d="M3.05,400.8l-.28,4.69,3.44,1.12L6,410.24l-16.72-6.32.19-3.15,17.35-4.35-.22,3.67ZM0,404.57l.19-3.18L-6,402.62Z"/><path class="cls-3" d="M-6.17,384.21l-.64,6.09,3.24.34.21-2a5.7,5.7,0,0,1,1.89-3.95,5.19,5.19,0,0,1,4.07-1.12,5.39,5.39,0,0,1,3.79,1.91,5.5,5.5,0,0,1,1.15,4.11l-.6,5.65-17-1.77,1-9.53Zm5.44,6.72,5.19.55.22-2.08a1.9,1.9,0,0,0-.59-1.66A3.17,3.17,0,0,0,2.22,387a2.8,2.8,0,0,0-1.86.38,2,2,0,0,0-.87,1.5Z"/><path class="cls-3" d="M3.19,369.64a8,8,0,0,1,5,2.4,5.6,5.6,0,0,1,1.2,4.74A5.67,5.67,0,0,1,6.88,381a7.86,7.86,0,0,1-5.45.86l-2.89-.44A8.37,8.37,0,0,1-6.64,379a5.54,5.54,0,0,1-1.28-4.77A5.57,5.57,0,0,1-5.33,370,8.34,8.34,0,0,1,.3,369.2Zm-3.35,3a7,7,0,0,0-3.49.13,2.21,2.21,0,0,0-1.42,1.85,2.2,2.2,0,0,0,.77,2.17,6.6,6.6,0,0,0,3.16,1.16l3,.46a6.3,6.3,0,0,0,3.36-.17,2.25,2.25,0,0,0,1.36-1.88,2.22,2.22,0,0,0-.73-2.14,6.28,6.28,0,0,0-3.08-1.14Z"/><path class="cls-3" d="M-1.5,356l-.81,4.14,13.93,2.72L11,366.29-3,363.57l-.79,4.07-2.82-.55,2.26-11.6Z"/><path class="cls-3" d="M11,349.79l-1.09,4.57,3.19,1.7-.85,3.55-15.36-9.14.73-3.07,17.84-1.27-.85,3.58ZM7.26,353l.74-3.1L1.72,350Z"/><path class="cls-3" d="M59.19,242.81a6.41,6.41,0,0,1,2.64,3.91,5.78,5.78,0,0,1-1.27,4.34,5.38,5.38,0,0,1-4.13,2.5,8.52,8.52,0,0,1-5.31-1.91L48.79,250a8.18,8.18,0,0,1-3.48-4.45,6.29,6.29,0,0,1,4.76-7.24,7.1,7.1,0,0,1,4.6,1.26l-2,2.81a4.63,4.63,0,0,0-2.35-1,2.2,2.2,0,0,0-1.65,1.12,2.1,2.1,0,0,0-.35,2.15A6.79,6.79,0,0,0,50.54,247l2.62,1.88a7.55,7.55,0,0,0,3.17,1.57,2.1,2.1,0,0,0,1.91-1,2.23,2.23,0,0,0,.55-1.91,4.32,4.32,0,0,0-1.6-1.87Z"/><path class="cls-3" d="M72.25,235.37l-2.13,2.7-5.73-4.53-3.15,4L67,242.06l-2.13,2.7L51.45,234.19l2.13-2.7L59,235.76l3.15-4-5.42-4.28,2.13-2.69Z"/><path class="cls-3" d="M76.62,225l-3.09,3.54,2,3-2.4,2.75L63.81,219l2.07-2.38,16.39,7.17-2.42,2.78Zm-4.76,1.09,2.09-2.4-5.63-2.8Z"/><path class="cls-3" d="M95.22,210.54,92.8,213l-5.17-5.15L84,211.42l5.17,5.16L86.78,219,74.69,207l2.44-2.44L82,209.4l3.59-3.6-4.88-4.87,2.42-2.43Z"/><path class="cls-3" d="M91.62,190.68l2.54-2.32L105.65,201l-2.55,2.32L95.5,195l3.88,11.74L96.82,209,85.34,196.39l2.56-2.32,7.61,8.36Z"/><path class="cls-3" d="M111.54,196,100.9,182.65l4.12-3.29a6.12,6.12,0,0,1,3.92-1.61,4.41,4.41,0,0,1,3.26,1.86,4.23,4.23,0,0,1,.94,2.11,3.38,3.38,0,0,1-.37,2.05,3,3,0,0,1,2.21-.07,4.56,4.56,0,0,1,2,1.52,4.88,4.88,0,0,1,1.28,3.78,5.66,5.66,0,0,1-2.31,3.46Zm-3.5-9.9,1.4-1.12a1.83,1.83,0,0,0,.28-2.91,2.43,2.43,0,0,0-1.41-1,2,2,0,0,0-1.5.56l-1.43,1.14Zm1.56,2,2.85,3.56,1.72-1.37a1.74,1.74,0,0,0,.74-1.33,2.46,2.46,0,0,0-.64-1.57c-1-1.2-1.88-1.47-2.77-.81Z"/><path class="cls-3" d="M132,172.06a8,8,0,0,1,1.72,5.3,6.32,6.32,0,0,1-7.39,5.17,7.82,7.82,0,0,1-4.38-3.37l-1.67-2.4a8.36,8.36,0,0,1-1.8-5.43,6.16,6.16,0,0,1,7.38-5.18,8.31,8.31,0,0,1,4.47,3.52Zm-4.47-.37a7,7,0,0,0-2.5-2.44,2.42,2.42,0,0,0-3.36,2.29,6.53,6.53,0,0,0,1.33,3.09l1.73,2.49a6.33,6.33,0,0,0,2.43,2.33,2.28,2.28,0,0,0,2.3-.31,2.19,2.19,0,0,0,1.05-2,6.14,6.14,0,0,0-1.29-3Z"/><path class="cls-3" d="M151.15,173.19l-2.68,1.68-2.23-3.56-6.84,4.28,2.21,3.55-2.76,1.73L135,175l1-.61a4.69,4.69,0,0,0-.18-2.51,19.78,19.78,0,0,0-1.61-3.73l-3.82-7,8.32-5.21,7.53,12,1.5-.94Zm-12.09-.76,4.19-2.63-6-9.6-2.62,1.64,2.25,4.13A16.91,16.91,0,0,1,139.06,172.43Z"/><path class="cls-3" d="M160.79,163l-3,1.67-3.55-6.37-4.44,2.47,3.55,6.38-3,1.68L142,153.92l3-1.68,3.36,6,4.44-2.47-3.36-6,3-1.67Z"/><path class="cls-3" d="M170.56,150.31a7.92,7.92,0,0,1,.91,5.5,5.59,5.59,0,0,1-3.2,3.69,5.65,5.65,0,0,1-4.87.32,7.82,7.82,0,0,1-3.83-4l-1.3-2.61a8.43,8.43,0,0,1-1-5.64,6.16,6.16,0,0,1,8.06-4,8.22,8.22,0,0,1,3.91,4.14Zm-4.36-1a7.15,7.15,0,0,0-2.11-2.79,2.42,2.42,0,0,0-3.67,1.76,6.66,6.66,0,0,0,.85,3.26l1.35,2.72a6.29,6.29,0,0,0,2.06,2.66,2.26,2.26,0,0,0,2.32,0,2.21,2.21,0,0,0,1.34-1.82,6.28,6.28,0,0,0-.83-3.18Z"/><path class="cls-3" d="M172.9,138.24l7.81,10.08-1.9-12.61,4.14-1.77,6.71,15.68L186.48,151l-1.81-4.25-2.51-6.66,1.48,12.12-2.16.92-7.75-9.44,3.09,6.42,1.82,4.24-3.17,1.36L168.76,140Z"/><path class="cls-3" d="M201.29,130.37l-5.78,2,4.67,13.4-3.25,1.14-5.62-16.11,9-3.16Z"/><path class="cls-3" d="M212.9,123.8l5,16.32-3.3,1-4.14-13.58-3,.92,1.54,5.86a20.18,20.18,0,0,1,.74,4.73,5.1,5.1,0,0,1-.74,2.91,4.37,4.37,0,0,1-2.4,1.6l-.81.25-.83-2.74.37-.15a1.89,1.89,0,0,0,1.07-1.8,16.14,16.14,0,0,0-.75-4.52l-2.18-7.92Z"/><path class="cls-3" d="M227.38,134.07l-4.55,1.14,0,3.61-3.53.89,1-17.85,3-.77,9.37,15.24-3.57.9Zm-4.53-1.83,3.1-.77-3-5.51Z"/><path class="cls-3" d="M238.11,122.62a2.13,2.13,0,0,0-.81-1.36,1.83,1.83,0,0,0-1.5-.27,1.65,1.65,0,0,0-1.15.79,2.06,2.06,0,0,0-.2,1.51l-3.37.69a4.62,4.62,0,0,1,1.68-4.67,6.46,6.46,0,0,1,6.61-.67,4.54,4.54,0,0,1,2.11,3.22,4,4,0,0,1-.15,2.22A4.29,4.29,0,0,1,240,125.9a3.77,3.77,0,0,1,2.07,1.1,5.15,5.15,0,0,1,.34,6.21,6,6,0,0,1-3.72,2.13,6.26,6.26,0,0,1-2.86,0,4.55,4.55,0,0,1-2.25-1.29,4.85,4.85,0,0,1-1.21-2.45l3.39-.69a2.13,2.13,0,0,0,.84,1.36,1.81,1.81,0,0,0,1.52.32,2.08,2.08,0,0,0,1.42-.92,2.25,2.25,0,0,0,.25-1.69,2.9,2.9,0,0,0-.87-1.76,1.84,1.84,0,0,0-1.55-.27l-1.71.35-.56-2.72,1.72-.35C238,125,238.41,124.1,238.11,122.62Z"/><path class="cls-3" d="M249.94,123.44l1.07-7.85,3.66-.58-2.45,14.27a6.86,6.86,0,0,1-1.26,3,3.5,3.5,0,0,1-2.05,1.14l-.37,0-.82.09-.51-2.82a3,3,0,0,0,.76-.07,1.46,1.46,0,0,0,.93-.45,2.67,2.67,0,0,0,.37-1.38l.06-.64-6.74-11.3,3.64-.59Z"/><path class="cls-3" d="M51.63,340.13,68,345.07l-1,3.3-6.16-1.87a11.44,11.44,0,0,1-.46,2.56,5.85,5.85,0,0,1-2.57,3.66,5.55,5.55,0,0,1-4.33.29l-5.23-1.59,1-3.3,5.05,1.53a3.53,3.53,0,0,0,2.21.13,2.19,2.19,0,0,0,1.14-1.55,11.51,11.51,0,0,0,.45-2.55l-7.43-2.25Z"/><path class="cls-3" d="M59,328l-1.44,4,13.35,4.83L69.75,340,56.41,335.2,55,339.1l-2.7-1,4-11.11Z"/><path class="cls-3" d="M71.05,317.89a8,8,0,0,1,4.28,3.57,6.33,6.33,0,0,1-3.5,8.31,7.81,7.81,0,0,1-5.5-.52l-2.69-1.13a8.39,8.39,0,0,1-4.42-3.65,5.5,5.5,0,0,1,0-4.93,5.57,5.57,0,0,1,3.53-3.38,8.32,8.32,0,0,1,5.66.59Zm-4,2.07a7,7,0,0,0-3.42-.74A2.42,2.42,0,0,0,62,323a6.59,6.59,0,0,0,2.77,1.92l2.8,1.18a6.38,6.38,0,0,0,3.29.67,2.24,2.24,0,0,0,1.78-1.49A2.2,2.2,0,0,0,72.5,323a6.26,6.26,0,0,0-2.7-1.86Z"/><path class="cls-3" d="M80.65,314,65.5,306.13l2.43-4.69a6.08,6.08,0,0,1,2.92-3.05,4.35,4.35,0,0,1,3.74.37,4.19,4.19,0,0,1,1.72,1.54,3.47,3.47,0,0,1,.5,2,3,3,0,0,1,2-1,4.53,4.53,0,0,1,2.46.58,4.83,4.83,0,0,1,2.69,2.94,5.62,5.62,0,0,1-.69,4.09Zm-7.23-7.63.83-1.59a1.82,1.82,0,0,0-.93-2.76,2.35,2.35,0,0,0-1.69-.35,1.94,1.94,0,0,0-1.15,1.12l-.84,1.62Zm2.23,1.16,4,2.1,1-2a1.75,1.75,0,0,0,.14-1.51A2.53,2.53,0,0,0,79.62,305c-1.36-.7-2.31-.57-2.85.4Z"/><path class="cls-3" d="M82.64,287.4l-3.77-5L81,279,86,286.86l9.48,1.05-2.11,3.4-6.3-1.16,3.84,5.13-2.11,3.4-5.15-8-9.31-1,2.08-3.36Z"/><path class="cls-3" d="M97.2,273.24a8,8,0,0,1,3.45,4.39,6.33,6.33,0,0,1-5.16,7.4,7.85,7.85,0,0,1-5.27-1.66l-2.39-1.67a8.39,8.39,0,0,1-3.57-4.48,6.17,6.17,0,0,1,5.14-7.4,8.27,8.27,0,0,1,5.41,1.75Zm-4.32,1.2A7,7,0,0,0,89.69,273a2.42,2.42,0,0,0-2.36,3.31,6.58,6.58,0,0,0,2.31,2.44l2.49,1.74a6.3,6.3,0,0,0,3.09,1.35,2.29,2.29,0,0,0,2-1.09,2.19,2.19,0,0,0,.29-2.23,6.12,6.12,0,0,0-2.25-2.4Z"/><path class="cls-3" d="M97.91,256l13.4,10.56-2.13,2.71L98,260.48l-2,2.49,4.61,3.92a20.27,20.27,0,0,1,3.3,3.47,5.09,5.09,0,0,1,1.06,2.81,4.36,4.36,0,0,1-1.06,2.68l-.52.67-2.25-1.77.22-.34a1.88,1.88,0,0,0-.15-2.09,16.33,16.33,0,0,0-3.2-3.28l-6.31-5.25Z"/><path class="cls-3" d="M115.52,251.18a8,8,0,0,1,2.91,4.75,5.62,5.62,0,0,1-1.57,4.63,5.7,5.7,0,0,1-4.4,2.13,7.87,7.87,0,0,1-5-2.26l-2.18-1.93a8.46,8.46,0,0,1-3-4.87,6.17,6.17,0,0,1,6-6.76,8.29,8.29,0,0,1,5.18,2.37Zm-4.43.68a7.06,7.06,0,0,0-3-1.78,2.18,2.18,0,0,0-2.19.77,2.21,2.21,0,0,0-.54,2.24,6.59,6.59,0,0,0,2,2.7l2.27,2a6.24,6.24,0,0,0,2.91,1.69,2.25,2.25,0,0,0,2.16-.84,2.21,2.21,0,0,0,.56-2.18,6.19,6.19,0,0,0-2-2.64Z"/><path class="cls-3" d="M134.47,248l-2.24,2.24-3-3-5.7,5.71,3,3-2.3,2.31-5.11-4.85.8-.8a4.73,4.73,0,0,0-.74-2.42,21.17,21.17,0,0,0-2.41-3.27l-5.29-6,6.93-6.94,10,10,1.25-1.25Zm-12,2,3.49-3.5-8-8-2.19,2.19,3.13,3.52A16.82,16.82,0,0,1,122.52,249.93Z"/><path class="cls-3" d="M127.6,225.63l2.57-2.28,11.32,12.76-2.58,2.29L131.42,230l3.73,11.78-2.59,2.3-11.31-12.77,2.58-2.3,7.5,8.47Z"/><path class="cls-3" d="M142.21,213.75l10.54,13.42L150,229.31l-8.76-11.16-2.49,1.95,3.55,4.9a20,20,0,0,1,2.4,4.15,5.07,5.07,0,0,1,.36,3,4.36,4.36,0,0,1-1.65,2.36l-.67.52L141,232.76l.29-.27a1.9,1.9,0,0,0,.35-2.07,16.4,16.4,0,0,0-2.34-3.93l-4.91-6.6Z"/><path class="cls-3" d="M151.18,214.87l1.67-1.16a5.65,5.65,0,0,1,4.22-1.16,5.18,5.18,0,0,1,3.52,2.34,5.4,5.4,0,0,1,1,4.11,5.51,5.51,0,0,1-2.36,3.56l-4.66,3.25-9.78-14,2.84-2Zm1.64,2.35,3,4.27,1.71-1.2a1.89,1.89,0,0,0,.87-1.53,3.18,3.18,0,0,0-.64-1.92,2.83,2.83,0,0,0-1.5-1.16,2,2,0,0,0-1.7.33Z"/><path class="cls-3" d="M175.23,212.25l-2.91,1.81-3.85-6.21-4.32,2.68,3.84,6.21-2.92,1.81-9-14.5,2.92-1.82,3.64,5.87,4.32-2.68-3.63-5.87,2.92-1.8Z"/><path class="cls-3" d="M176.41,192.13l3-1.64,8.13,15-3,1.64-5.38-9.93,1,12.32-3,1.65-8.14-15,3-1.65,5.39,9.94Z"/><path class="cls-3" d="M191.12,196.06l-1.36.64,3,6.3-3.12,1.47L182.33,189l3.12-1.47,2.91,6.16,1-.49-.23-7.43L193,184l-.38,9,8.09,6.27L197,201Z"/><path class="cls-3" d="M206.84,188.77l-5,2L203.6,195l5.87-2.41,1.09,2.64L201.5,199,195,183.17l9-3.72,1.09,2.66-5.85,2.4,1.54,3.73,5-2Z"/><path class="cls-3" d="M212.34,189a8.32,8.32,0,0,1-.58-2.56,4.86,4.86,0,0,1,.46-2.13,7.21,7.21,0,0,0,.56-1.89,3,3,0,0,0-.15-1.28c-.44-1.23-1.06-1.7-1.85-1.42a1.11,1.11,0,0,0-.7.83,2.57,2.57,0,0,0,.11,1.5l-3.12,1.12a4.89,4.89,0,0,1,0-3.75,4.55,4.55,0,0,1,2.75-2.32,4.19,4.19,0,0,1,5.88,2.78,5.41,5.41,0,0,1-.2,3.83l-.54,1.37a3.67,3.67,0,0,0-.24,1.35,6.08,6.08,0,0,0,.34,1.59Zm.93,3.48a1.74,1.74,0,0,1,0-1.4,1.85,1.85,0,0,1,3.35,1.55,1.76,1.76,0,0,1-1.08.94,1.72,1.72,0,0,1-1.41-.05A1.78,1.78,0,0,1,213.27,192.47Z"/><path class="cls-3" d="M130.46,618.71l-2.58-2.28,9.42-10.62-3.79-3.36-9.42,10.62-2.57-2.29L132.84,598l8.94,7.93Z"/><path class="cls-3" d="M146.74,622.77a8,8,0,0,1-4.57,3.18,6.31,6.31,0,0,1-7.09-5.57,7.81,7.81,0,0,1,1.95-5.17l1.81-2.29a8.37,8.37,0,0,1,4.68-3.3,5.51,5.51,0,0,1,4.77,1.25,5.57,5.57,0,0,1,2.33,4.3,8.31,8.31,0,0,1-2.07,5.31Zm-.94-4.39a7,7,0,0,0,1.61-3.1,2.42,2.42,0,0,0-3.17-2.55,6.55,6.55,0,0,0-2.57,2.17l-1.88,2.38a6.3,6.3,0,0,0-1.52,3,2.25,2.25,0,0,0,1,2.11,2.22,2.22,0,0,0,2.22.43,6.21,6.21,0,0,0,2.51-2.11Z"/><path class="cls-3" d="M154.6,636.87l-2.83-2,8.13-11.64-4.15-2.89L147.62,632l-2.82-2,9.77-14,9.8,6.84Z"/><path class="cls-3" d="M166.12,640l-4-2.46-2.6,2.5-3.11-1.91,13.48-11.74,2.69,1.65-4.37,17.34-3.13-1.92Zm-1.86-4.51,2.71,1.67,1.83-6Z"/><path class="cls-3" d="M188.82,637.09l-8.06,15-3-1.63,6.7-12.51-2.79-1.49-3.06,5.22a20.19,20.19,0,0,1-2.84,3.86,5.06,5.06,0,0,1-2.58,1.53,4.33,4.33,0,0,1-2.83-.57l-.74-.4,1.35-2.52.37.15a1.87,1.87,0,0,0,2-.51,16.57,16.57,0,0,0,2.67-3.72l4.08-7.13Z"/><path class="cls-3" d="M188.86,656l6.85-15.63,4.83,2.12a6.1,6.1,0,0,1,3.24,2.72,4.32,4.32,0,0,1-.13,3.75,4.19,4.19,0,0,1-1.42,1.82,3.43,3.43,0,0,1-2,.63,3,3,0,0,1,1.09,1.91,4.55,4.55,0,0,1-.41,2.49,4.9,4.9,0,0,1-2.76,2.89,5.67,5.67,0,0,1-4.13-.43Zm6.13-5.41-1.83,4.18,2,.88a1.73,1.73,0,0,0,1.52,0,2.5,2.5,0,0,0,1.09-1.3c.62-1.4.42-2.34-.58-2.83Zm1-2.3,1.64.72a1.82,1.82,0,0,0,2.7-1.1,2.44,2.44,0,0,0,.24-1.72,2,2,0,0,0-1.2-1.07l-1.67-.73Z"/><path class="cls-3" d="M223.85,651.41l-5.59,16.12L215,666.4l2.11-6.08a11.63,11.63,0,0,1-2.53-.55A5.88,5.88,0,0,1,211,657a5.53,5.53,0,0,1-.11-4.33l1.79-5.17,3.27,1.14-1.73,5a3.48,3.48,0,0,0-.22,2.19,2.21,2.21,0,0,0,1.49,1.21,11.33,11.33,0,0,0,2.54.55l2.55-7.34Z"/><path class="cls-3" d="M230.34,667.42l-4.52-1.28L224,669.25l-3.5-1,9.77-15,3,.86.53,17.88-3.54-1Zm-3-3.84,3.07.87.12-6.29Z"/><path class="cls-3" d="M248.12,669.41a6.42,6.42,0,0,1-2.56,4,5.82,5.82,0,0,1-4.49.53,5.37,5.37,0,0,1-3.92-2.83,8.42,8.42,0,0,1-.31-5.63l.62-2.81a8.31,8.31,0,0,1,2.74-4.94,6.3,6.3,0,0,1,8.53,1.56,7,7,0,0,1,.63,4.73l-3.37-.76a4.63,4.63,0,0,0,0-2.55,2.2,2.2,0,0,0-1.67-1.08,2.08,2.08,0,0,0-2.12.52,6.58,6.58,0,0,0-1.29,3l-.71,3.15a7.29,7.29,0,0,0-.2,3.53,2.07,2.07,0,0,0,1.69,1.35,2.25,2.25,0,0,0,2-.24,4.36,4.36,0,0,0,1.09-2.21Z"/><path class="cls-3" d="M266.93,678.14l-3.41-.48,2-14-5-.72-2,14.05-3.41-.48,2.4-16.9,11.83,1.69Z"/><path class="cls-3" d="M279.94,662.19l3.43.29-1.41,17-3.43-.28.93-11.26-5.94,10.84-3.45-.29,1.41-17,3.45.29L274,673.05Z"/><path class="cls-3" d="M290.32,672.82l-1.5,0-.19,7-3.44-.09.46-17.06,3.45.09-.19,6.82,1.16,0,3.15-6.74,4.19.12L293,670.74l4.39,9.24-4.1-.11Z"/><path class="cls-3" d="M39.06,434.36l-.1-3.45,14.19-.39L53,425.46l-14.19.39-.09-3.44,17.05-.48.33,11.95Z"/><path class="cls-3" d="M47.24,449a7.94,7.94,0,0,1-5.45-1.16,6.34,6.34,0,0,1-.79-9,7.8,7.8,0,0,1,5.11-2.11l2.91-.25a8.4,8.4,0,0,1,5.61,1.15,6.16,6.16,0,0,1,.8,9,8.23,8.23,0,0,1-5.28,2.13Zm2.56-3.69a7,7,0,0,0,3.36-.95,2.41,2.41,0,0,0-.31-4.05,6.56,6.56,0,0,0-3.34-.4l-3,.26a6.38,6.38,0,0,0-3.23.95,2.26,2.26,0,0,0-.88,2.15,2.17,2.17,0,0,0,1.2,1.9,6.15,6.15,0,0,0,3.26.39Z"/><path class="cls-3" d="M56.07,460.51l-.57-4.18-14.06,1.94L41,454.84,55,452.91l-.57-4.11,2.85-.39,1.61,11.71Z"/><path class="cls-3" d="M51.5,475a7.92,7.92,0,0,1-5.54-.59,5.59,5.59,0,0,1-2.72-4.06,5.7,5.7,0,0,1,1-4.79,7.87,7.87,0,0,1,4.86-2.63l2.87-.55a8.4,8.4,0,0,1,5.7.56,6.16,6.16,0,0,1,1.73,8.84,8.28,8.28,0,0,1-5,2.67Zm2.15-3.94a7,7,0,0,0,3.25-1.29,2.42,2.42,0,0,0-.73-4,6.61,6.61,0,0,0-3.37,0l-3,.58a6.34,6.34,0,0,0-3.11,1.28,2.25,2.25,0,0,0-.65,2.22,2.2,2.2,0,0,0,1.4,1.78,6.17,6.17,0,0,0,3.28,0Z"/><path class="cls-3" d="M62.89,479.32l-11.12,6.25,12.75,0,1.14,4.35-16.5,4.32-.88-3.34,4.47-1.17,7-1.5-12.21-.33-.6-2.26,10.49-6.27-6.8,2.11-4.47,1.16-.87-3.33L61.75,475Z"/><path class="cls-3" d="M62.55,511.8a8,8,0,0,1-5.57.27,6.33,6.33,0,0,1-3.06-8.49,7.87,7.87,0,0,1,4.4-3.34l2.75-1a8.36,8.36,0,0,1,5.71-.32,5.53,5.53,0,0,1,3.39,3.59,5.6,5.6,0,0,1-.31,4.88,8.24,8.24,0,0,1-4.57,3.4Zm1.52-4.22a7,7,0,0,0,3-1.78A2.42,2.42,0,0,0,65.75,502a6.64,6.64,0,0,0-3.33.47l-2.86,1a6.24,6.24,0,0,0-2.88,1.74,2.26,2.26,0,0,0-.31,2.3A2.21,2.21,0,0,0,58,509a6.21,6.21,0,0,0,3.25-.45Z"/><path class="cls-3" d="M74,520.66l-1.63-3.89-13.09,5.46L58,519l13.1-5.46-1.6-3.83,2.65-1.11,4.56,10.92Z"/><path class="cls-3" d="M63.68,541.63l-1.37-2.85L66.09,537l-3.51-7.28-3.77,1.82-1.41-2.94,6.26-3.22.49,1a4.78,4.78,0,0,0,2.52.1,19.82,19.82,0,0,0,3.89-1.2l7.38-3,4.26,8.84-12.8,6.16.77,1.6Zm2.08-11.93,2.15,4.45,10.21-4.92-1.35-2.79-4.35,1.79A16.83,16.83,0,0,1,65.76,529.7Z"/><path class="cls-3" d="M80.53,548.93a7.93,7.93,0,0,1-5.45,1.18,5.59,5.59,0,0,1-3.85-3,5.68,5.68,0,0,1-.56-4.85,7.87,7.87,0,0,1,3.79-4L77,536.81a8.39,8.39,0,0,1,5.59-1.25,5.53,5.53,0,0,1,3.93,3,5.58,5.58,0,0,1,.49,4.87,8.25,8.25,0,0,1-3.94,4.1Zm.81-4.41A7,7,0,0,0,84,542.28a2.42,2.42,0,0,0-1.94-3.57,6.56,6.56,0,0,0-3.21,1l-2.66,1.48a6.24,6.24,0,0,0-2.55,2.19,2.26,2.26,0,0,0,.08,2.32A2.2,2.2,0,0,0,75.62,547a6.14,6.14,0,0,0,3.13-1Z"/><path class="cls-3" d="M88.12,553.15,94.3,552l2.11,3.34-9.29,1.13L82,564.49l-2.14-3.37L83.69,556l-6.28,1.21-2.14-3.37,9.46-1.13,5-7.92,2.11,3.34Z"/><path class="cls-3" d="M90.24,576.09l-2-2.8,5.94-4.24-3-4.14-5.95,4.24-2-2.8,13.89-9.91,2,2.8-5.62,4,3,4.14,5.62-4,2,2.8Z"/><path class="cls-3" d="M103,576.94l7.36-2.94,2.31,2.88L99,581.81a7,7,0,0,1-3.26.41,3.46,3.46,0,0,1-2-1.23l-.24-.29-.48-.67,2.2-1.83a3.17,3.17,0,0,0,.44.62,1.43,1.43,0,0,0,.85.59,2.64,2.64,0,0,0,1.38-.37l.59-.26L105,567.34l2.31,2.88Z"/><path class="cls-4" d="M305.12,191.66l3.82-42.49,13.13,1.18q6.66.6,9.85,3.88c2.12,2.18,3,5.18,2.67,9a10.48,10.48,0,0,1-1.93,5.44,8.47,8.47,0,0,1-4.21,3.06,7.54,7.54,0,0,1,4.11,3.68,11.3,11.3,0,0,1,1,6.23q-.56,6.18-4.24,9t-10.13,2.26ZM315.36,174l-1,11.35,5.48.49a4.31,4.31,0,0,0,3.63-1.11,6.16,6.16,0,0,0,1.57-3.95q.51-5.72-3.62-6.24Zm.56-6.25,4.47.41q5,.45,5.51-4.77a6,6,0,0,0-.79-4.25,5,5,0,0,0-3.68-1.6l-4.55-.41Z"/><path class="cls-4" d="M365,183.81l-3.6-1-4.81,16.72-8.28-2.38,11.79-41,8.27,2.38-4.71,16.38,2.79.8,11.83-14.34,10.08,2.9-15.51,16.21,4.85,25.11-9.85-2.83Z"/><path class="cls-4" d="M411.62,201.71q-3.5,7.84-9.12,10.54T390.28,212q-6.55-2.91-8.4-8.87t1.53-13.73l2.95-6.67q3.57-8,9.29-10.89t12.34.07q6.51,2.88,8.29,9T414.57,195Zm-5-10q2.34-5.26,2-8.51a6.06,6.06,0,0,0-9.26-4.21q-2.59,1.81-4.89,6.85l-3.07,6.94c-1.52,3.41-2.12,6.15-1.82,8.21a5.69,5.69,0,0,0,3.64,4.52,5.54,5.54,0,0,0,5.63-.34q2.55-1.71,4.79-6.68Z"/><path class="cls-4" d="M454.52,198.55l-22.66,36.13-7.32-4.59L443.39,200l-6.7-4.2-8.53,12.5a50.39,50.39,0,0,1-7.72,9.14,12.75,12.75,0,0,1-6.72,3.38,10.84,10.84,0,0,1-7-1.9L405,217.83l3.8-6.06.89.46q2.46,1.16,5.16-.93t7.29-8.83l11.38-17.11Z"/><path class="cls-4" d="M463.83,237.18l-10.32-8.57-7.22,8.7,12.22,10.14-4.57,5.5-18.85-15.63,27.24-32.83,18.8,15.6-4.58,5.52-12.18-10.1-6.43,7.76,10.33,8.56Z"/><path class="cls-4" d="M485.74,265.91q-5.55,4.74-10.86,4.54t-10-5.22q-4.94-5.3-4.09-11.36t7.29-12.08l5.24-4.91q6.42-6,12.62-6.34t11,4.84q4.76,5.09,4.38,10.39T496,256.43l-5.9-6.32q3.21-3.17,3.6-5.27c.25-1.4-.4-2.92-1.94-4.58s-3.28-2.32-5.11-1.92-4.11,1.84-6.85,4.32l-5.89,5.5q-4.63,4.34-5.4,7t1.6,5.18c1.54,1.66,3,2.42,4.41,2.3s3.18-1.14,5.37-3Z"/><path class="cls-4" d="M504.7,284.86,496.85,274l-9.17,6.62L497,293.47l-5.79,4.19L476.84,277.8l34.59-25,14.3,19.81-5.82,4.2L510.65,264l-8.17,5.89,7.85,10.88Z"/><path class="cls-3" d="M309.35,225.17a6.35,6.35,0,0,1-1.8,4.35,5.79,5.79,0,0,1-4.32,1.34,5.36,5.36,0,0,1-4.36-2.07,8.39,8.39,0,0,1-1.34-5.48l.11-2.87a8.25,8.25,0,0,1,1.79-5.36,6.29,6.29,0,0,1,8.67,0,7.06,7.06,0,0,1,1.48,4.53l-3.45-.12a4.65,4.65,0,0,0-.46-2.51,2.24,2.24,0,0,0-1.85-.76,2.1,2.1,0,0,0-2,.9,6.74,6.74,0,0,0-.72,3.15l-.12,3.22a7.41,7.41,0,0,0,.43,3.51,2.11,2.11,0,0,0,1.92,1,2.27,2.27,0,0,0,1.9-.6,4.34,4.34,0,0,0,.67-2.37Z"/><path class="cls-3" d="M322.8,218l-4.19-.44-1.45,14.12-3.44-.35,1.45-14.12-4.13-.42.29-2.86,11.77,1.21Z"/><path class="cls-3" d="M327.16,227l-1,5.91-3.4-.58,2.88-16.82,5.73,1a5.37,5.37,0,0,1,3.72,2.23,5.66,5.66,0,0,1,.79,4.27,5.29,5.29,0,0,1-2.13,3.66,5.63,5.63,0,0,1-4.31.73Zm.49-2.83,2.33.4a1.89,1.89,0,0,0,1.61-.38,2.87,2.87,0,0,0,.85-1.76,3.47,3.47,0,0,0-.2-2.1,1.78,1.78,0,0,0-1.33-1l-2.37-.41Z"/><path class="cls-3" d="M342.37,232.61l-4.57-1.07-1.69,3.19-3.55-.83,9.07-15.4,3.07.72,1.35,17.83-3.58-.83Zm-3.19-3.7,3.1.73-.17-6.29Z"/><path class="cls-3" d="M355.5,222.07l-4.41,13.51,3.3,1.07,4.41-13.5,3.27,1.07-4.41,13.5,3.26,1.07,4.41-13.51,3.27,1.07-5.3,16.22-16.38-5.35L352.21,221Z"/><path class="cls-3" d="M376.15,248.07,373,246.73l2.86-6.72-4.68-2-2.86,6.71-3.17-1.35,6.68-15.69L375,229l-2.7,6.35,4.68,2,2.7-6.35,3.16,1.34Z"/><path class="cls-3" d="M387.13,249.71,383,247.56l-2.41,2.68-3.24-1.66,12.55-12.73,2.8,1.44-3,17.63-3.27-1.69Zm-2.19-4.36,2.83,1.46,1.37-6.14Z"/><path class="cls-3" d="M395.92,258.75l3.17-5.26-1.54-.93-5.33,3.95L389,254.6l6.4-4.76a5,5,0,0,1,.47-4.87,5.15,5.15,0,0,1,3.24-2.6,5.59,5.59,0,0,1,4.16.91l4.39,2.64-8.82,14.61ZM398.73,247a3.3,3.3,0,0,0-.63,2,1.89,1.89,0,0,0,1,1.36l1.36.82,2.77-4.59-1.46-.89C400.67,245,399.65,245.46,398.73,247Z"/><path class="cls-3" d="M421.22,258.85l-4.94-3.62-1.92,2.63,1.64,1.21a5.65,5.65,0,0,1,2.46,3.62,5.17,5.17,0,0,1-1.08,4.08,5.41,5.41,0,0,1-3.55,2.32A5.51,5.51,0,0,1,409.7,268l-4.59-3.35,10.08-13.77,7.72,5.65Zm-8.55,1.32-3.08,4.21,1.68,1.23a1.88,1.88,0,0,0,1.73.33,3.1,3.1,0,0,0,1.61-1.22,2.72,2.72,0,0,0,.61-1.8,1.93,1.93,0,0,0-.85-1.5Z"/><path class="cls-3" d="M426.71,272.11l-4.13-3.44-2.89,3.48,4.89,4.06-1.83,2.2-7.54-6.26L426.12,259l7.52,6.25-1.84,2.21-4.86-4.05-2.58,3.1,4.13,3.43Z"/><path class="cls-3" d="M436.14,283.19a6.43,6.43,0,0,1-4.23,2.08,5.83,5.83,0,0,1-4.13-1.84,5.38,5.38,0,0,1-1.91-4.44,8.5,8.5,0,0,1,2.61-5l2-2.09a8.17,8.17,0,0,1,4.88-2.84,5.45,5.45,0,0,1,4.52,1.66,5.53,5.53,0,0,1,2,4,7.09,7.09,0,0,1-1.88,4.38l-2.51-2.38a4.62,4.62,0,0,0,1.31-2.19,2.22,2.22,0,0,0-.89-1.78,2.09,2.09,0,0,0-2.09-.64,6.65,6.65,0,0,0-2.63,1.89L431,276.39a7.4,7.4,0,0,0-2,2.93,2.09,2.09,0,0,0,.77,2,2.28,2.28,0,0,0,1.81.81,4.38,4.38,0,0,0,2.08-1.34Z"/><path class="cls-3" d="M445.32,293.08a6.38,6.38,0,0,1-4.37,1.78,5.78,5.78,0,0,1-4-2.12,5.35,5.35,0,0,1-1.6-4.55,8.36,8.36,0,0,1,2.95-4.81l2.11-1.95a8.2,8.2,0,0,1,5.06-2.5,6.3,6.3,0,0,1,6.13,6.14,7.08,7.08,0,0,1-2.18,4.24l-2.34-2.54a4.6,4.6,0,0,0,1.46-2.09,2.2,2.2,0,0,0-.77-1.84,2.09,2.09,0,0,0-2-.79,6.89,6.89,0,0,0-2.76,1.71l-2.37,2.18a7.51,7.51,0,0,0-2.18,2.79,2.1,2.1,0,0,0,.62,2.08,2.3,2.3,0,0,0,1.76.93,4.39,4.39,0,0,0,2.16-1.2Z"/><path class="cls-3" d="M455.07,303.1a8,8,0,0,1-5.18,2.06,6.34,6.34,0,0,1-5.64-7,7.88,7.88,0,0,1,3.08-4.58l2.28-1.83a8.43,8.43,0,0,1,5.31-2.15,6.17,6.17,0,0,1,5.65,7,8.26,8.26,0,0,1-3.22,4.69Zm.08-4.48a7,7,0,0,0,2.27-2.66,2.16,2.16,0,0,0-.39-2.29,2.19,2.19,0,0,0-2.11-.91,6.7,6.7,0,0,0-3,1.52l-2.37,1.9a6.38,6.38,0,0,0-2.17,2.58,2.27,2.27,0,0,0,.46,2.27,2.21,2.21,0,0,0,2.06.92,6.18,6.18,0,0,0,2.93-1.48Z"/><path class="cls-3" d="M457.47,318.84,455.53,316l6-4.12-2.87-4.2-6,4.12-2-2.84,14.08-9.64,1.95,2.85-5.7,3.9,2.87,4.19,5.7-3.89,1.94,2.83Z"/><path class="cls-3" d="M464.62,331l-1.72-3,6.31-3.66-2.55-4.4-6.32,3.67-1.73-3,14.76-8.57,1.73,3-6,3.47,2.55,4.4,6-3.47,1.73,3Z"/><path class="cls-3" d="M484.63,332.94l1.51,3.1-15.34,7.47-1.51-3.1,10.15-5-12.35.43-1.52-3.11,15.34-7.47,1.52,3.11-10.17,4.95Z"/><path class="cls-3" d="M487.48,339l1.27,3.21-13.21,5.23,1.86,4.69,13.21-5.23,1.27,3.22-13.22,5.23.78,1.95-6.56,2.35-1.18-3,3.82-1.51-3.9-9.86Z"/><path class="cls-3" d="M483,366.69l-1.4-4.49-3.6.16L477,358.88l17.88,0,.93,3-14.71,10.18L480,368.6Zm1.57-4.62.94,3,5.34-3.32Z"/><path class="cls-3" d="M132,332.43l-1.38,2.84-3.77-1.83-3.53,7.26,3.76,1.83-1.42,2.93-6.42-2.91.5-1a4.76,4.76,0,0,0-1.49-2,20.89,20.89,0,0,0-3.35-2.3L108,333.28l4.28-8.82,12.78,6.2.77-1.59ZM121.4,338.2l2.16-4.45-10.19-4.95L112,331.58l4.11,2.31A16.81,16.81,0,0,1,121.4,338.2Z"/><path class="cls-3" d="M128.86,315.68a7.94,7.94,0,0,1,3.79,4.08,5.63,5.63,0,0,1-.62,4.85,5.69,5.69,0,0,1-3.9,3,7.88,7.88,0,0,1-5.39-1.21l-2.52-1.47a8.43,8.43,0,0,1-3.93-4.17,5.54,5.54,0,0,1,.57-4.9,5.61,5.61,0,0,1,3.93-2.91,8.33,8.33,0,0,1,5.55,1.3Zm-4.21,1.55a7.06,7.06,0,0,0-3.3-1.16,2.42,2.42,0,0,0-2.08,3.49,6.58,6.58,0,0,0,2.51,2.25l2.62,1.53a6.36,6.36,0,0,0,3.19,1.08,2.28,2.28,0,0,0,2-1.25,2.24,2.24,0,0,0,.11-2.26,6.34,6.34,0,0,0-2.45-2.19Z"/><path class="cls-3" d="M124.37,304.23l12,4.42-8.29-9.7,2.58-3.69,14,9.76-2,2.84-3.79-2.64-5.66-4.33,7.68,9.5-1.34,1.93L128,308.41l6,3.8,3.79,2.64-2,2.83-14-9.76Z"/><path class="cls-3" d="M148.58,294.74l-3,3.62,2.1,2.93-2.32,2.8-9.74-15,2-2.42,16.56,6.75-2.34,2.83ZM143.85,296l2-2.46-5.7-2.65Z"/><path class="cls-3" d="M145,278.3l10.12,10,2.43-2.47-10.12-10,2.42-2.45,10.12,10,2.4-2.44-10.12-10,2.42-2.45,12.15,12-12.09,12.28-12.16-12Z"/><path class="cls-3" d="M167.63,270.66l-1.13,1,4.53,5.28-2.61,2.24L157.3,266.22l2.61-2.25,4.45,5.18.88-.76-2.2-7.1,3.18-2.74,2,8.75,9.46,3.89-3.12,2.67Z"/><path class="cls-3" d="M182.73,263.07,179,265.91l1.39,3.34-2.91,2.2-6.08-16.81,2.51-1.9,14.6,10.33-2.93,2.22Zm-4.88.1,2.53-1.93-4.95-3.87Z"/><path class="cls-3" d="M90,443.32l-.28-3.43,14.15-1.13-.4-5.05-14.15,1.13L89,431.4l17-1.35L107,442Z"/><path class="cls-3" d="M99.1,457.52a8,8,0,0,1-5.52-.79,6.33,6.33,0,0,1-1.38-8.92,7.83,7.83,0,0,1,5-2.44l2.89-.44a8.32,8.32,0,0,1,5.67.78,5.51,5.51,0,0,1,2.64,4.17,5.57,5.57,0,0,1-1.24,4.73,8.25,8.25,0,0,1-5.13,2.47Zm2.3-3.85a7,7,0,0,0,3.3-1.17,2.42,2.42,0,0,0-.58-4,6.64,6.64,0,0,0-3.36-.18l-3,.46a6.33,6.33,0,0,0-3.16,1.17,2.26,2.26,0,0,0-.74,2.19A2.23,2.23,0,0,0,95.19,454a6.22,6.22,0,0,0,3.28.17Z"/><path class="cls-3" d="M106.34,465.52a2.1,2.1,0,0,0,1.35-.84,1.83,1.83,0,0,0,.24-1.5,1.68,1.68,0,0,0-.81-1.13,2.1,2.1,0,0,0-1.52-.17l-.76-3.36a4.58,4.58,0,0,1,4.71,1.59,6.53,6.53,0,0,1,.8,6.6,4.56,4.56,0,0,1-3.18,2.17,4.07,4.07,0,0,1-2.22-.11,4.29,4.29,0,0,1-1.85-1.25,3.84,3.84,0,0,1-1.06,2.09,4.7,4.7,0,0,1-2.29,1.16,4.62,4.62,0,0,1-3.91-.7,5.94,5.94,0,0,1-2.2-3.68,6.29,6.29,0,0,1,0-2.86,4.49,4.49,0,0,1,1.24-2.27A4.84,4.84,0,0,1,97.28,460l.76,3.37a2.21,2.21,0,0,0-1.34.86,1.85,1.85,0,0,0-.3,1.54,2.06,2.06,0,0,0,.95,1.39,2.23,2.23,0,0,0,1.7.22,2.85,2.85,0,0,0,1.74-.9,1.85,1.85,0,0,0,.24-1.56l-.38-1.7,2.71-.61.38,1.72C104,465.45,104.87,465.85,106.34,465.52Z"/><path class="cls-3" d="M95.74,489.12l-.91-3,4-1.21-2.32-7.73-4,1.21-.94-3.12L98.27,473l.33,1.09a4.78,4.78,0,0,0,2.47.49,21.07,21.07,0,0,0,4-.57l7.76-1.83,2.82,9.39-13.6,4.09.51,1.69Zm3.93-11.45,1.42,4.73,10.85-3.26-.89-3-4.58,1.08A17,17,0,0,1,99.67,477.67Z"/><path class="cls-3" d="M105,501.65l-1.24-3.21,6.82-2.62-1.83-4.75-6.82,2.63-1.23-3.22,15.92-6.13,1.24,3.21L111.41,490l1.82,4.75,6.44-2.48,1.24,3.2Z"/><path class="cls-3" d="M117.77,512.65a8,8,0,0,1-5.51.8,5.59,5.59,0,0,1-3.64-3.26,5.67,5.67,0,0,1-.22-4.89,7.89,7.89,0,0,1,4-3.75l2.64-1.24a8.39,8.39,0,0,1,5.66-.87,6.17,6.17,0,0,1,3.88,8.14,8.31,8.31,0,0,1-4.22,3.83Zm1.12-4.35a7,7,0,0,0,2.82-2.05,2.42,2.42,0,0,0-1.69-3.7,6.7,6.7,0,0,0-3.28.79l-2.74,1.3a6.25,6.25,0,0,0-2.7,2,2.24,2.24,0,0,0-.08,2.31,2.19,2.19,0,0,0,1.79,1.37,6.11,6.11,0,0,0,3.19-.76Z"/><path class="cls-3" d="M115.63,523.41l14.66-8.73,2.7,4.53a6.05,6.05,0,0,1,1,4.09,4.3,4.3,0,0,1-2.28,3,4.2,4.2,0,0,1-2.22.65,3.41,3.41,0,0,1-2-.64,3,3,0,0,1-.22,2.19,4.52,4.52,0,0,1-1.79,1.79,4.84,4.84,0,0,1-3.92.74,5.62,5.62,0,0,1-3.11-2.74Zm8.14-.84-3.92,2.34L121,526.8a1.69,1.69,0,0,0,1.21.91,2.47,2.47,0,0,0,1.65-.42c1.31-.78,1.7-1.66,1.17-2.63Zm2.15-1.28.92,1.54a1.83,1.83,0,0,0,2.84.67,2.46,2.46,0,0,0,1.19-1.26,2,2,0,0,0-.35-1.56l-.94-1.57Z"/><path class="cls-3" d="M134,538.47,131,534l-3.73,2.56,3.59,5.24-2.36,1.62-5.54-8.08L137,525.73l5.52,8.06-2.37,1.63-3.57-5.22-3.33,2.27,3,4.43Z"/><path class="cls-3" d="M136.79,544.51l-4.73,3.7-2.12-2.71L143.37,535l3.59,4.58a5.35,5.35,0,0,1,1.25,4.14,5.68,5.68,0,0,1-2.28,3.7,5.28,5.28,0,0,1-4,1.28,5.7,5.7,0,0,1-3.69-2.36Zm2.26-1.77,1.46,1.86a1.85,1.85,0,0,0,1.45.8,2.81,2.81,0,0,0,1.8-.73A3.41,3.41,0,0,0,145,543a1.77,1.77,0,0,0-.3-1.63l-1.48-1.89Z"/><path class="cls-3" d="M146.84,565.53l-2.3-2.55,5.41-4.9-3.41-3.77-5.42,4.9-2.31-2.55,12.65-11.45,2.31,2.55-5.11,4.63,3.41,3.77,5.12-4.63,2.3,2.54Z"/><path class="cls-3" d="M159.67,564.82l6.91-3.88,2.67,2.56-12.87,6.66a6.9,6.9,0,0,1-3.17.83,3.45,3.45,0,0,1-2.15-1l-.27-.26-.56-.6,1.94-2.11a2.59,2.59,0,0,0,.51.56,1.45,1.45,0,0,0,.92.48,2.69,2.69,0,0,0,1.33-.55l.55-.33,4.94-12.2,2.66,2.56Z"/><path class="cls-3" d="M178.9,571.61l-11,13.08-2.66-2.22,9.12-10.88-2.43-2L167.92,574a19.77,19.77,0,0,1-3.56,3.2,5,5,0,0,1-2.85,1,4.27,4.27,0,0,1-2.65-1.13l-.64-.54,1.83-2.19.33.23a1.92,1.92,0,0,0,2.1-.09,16.78,16.78,0,0,0,3.37-3.1l5.44-6.15Z"/><path class="cls-3" d="M183.32,588.93a6.38,6.38,0,0,1-3.92,2.61,5.81,5.81,0,0,1-4.33-1.28,5.39,5.39,0,0,1-2.48-4.14,8.43,8.43,0,0,1,1.94-5.31l1.68-2.32a8.17,8.17,0,0,1,4.47-3.46,6.3,6.3,0,0,1,7.22,4.8,7.12,7.12,0,0,1-1.29,4.59l-2.8-2a4.56,4.56,0,0,0,1-2.34,2.21,2.21,0,0,0-1.11-1.65,2.1,2.1,0,0,0-2.16-.36,6.68,6.68,0,0,0-2.35,2.21l-1.89,2.62a7.4,7.4,0,0,0-1.59,3.16,2.11,2.11,0,0,0,1,1.91,2.26,2.26,0,0,0,1.91.56,4.31,4.31,0,0,0,1.88-1.59Z"/><path class="cls-3" d="M187.62,598.38l3.27-5.2-1.53-1-5.4,3.86-3.14-2,6.49-4.65a5,5,0,0,1,.56-4.85,5.15,5.15,0,0,1,3.28-2.55,5.59,5.59,0,0,1,4.14,1l4.34,2.73-9.08,14.44Zm3-11.7a3.28,3.28,0,0,0-.67,2,1.86,1.86,0,0,0,1,1.37l1.35.85,2.86-4.54-1.45-.91C192.62,584.76,191.6,585.17,190.65,586.68Z"/><path class="cls-3" d="M181.32,502.19l-14.39,9.17-1.86-2.92,12-7.62-1.69-2.67-5.23,3.05a20.45,20.45,0,0,1-4.36,2,5.09,5.09,0,0,1-3,.06,4.29,4.29,0,0,1-2.18-1.88l-.46-.71,2.42-1.53.24.31a1.88,1.88,0,0,0,2,.55,16.27,16.27,0,0,0,4.15-1.94l7.05-4.22Z"/><path class="cls-3" d="M187.6,510.35l2.12,2.71-13.43,10.53-2.12-2.71,8.89-7-12,3-2.14-2.72,13.43-10.53,2.14,2.72-8.9,7Z"/><path class="cls-3" d="M196.07,522a5.46,5.46,0,0,1,1.65,4.54,7.72,7.72,0,0,1-2.5,4.76,7.48,7.48,0,0,1-4.75,2.3,5.53,5.53,0,0,1-4.48-1.8l-1.56,1.53-2.3-2.37,1.56-1.52a5.64,5.64,0,0,1-1.35-6.17,8.37,8.37,0,0,1,2-3.06,7.75,7.75,0,0,1,4.85-2.37,5.52,5.52,0,0,1,4.53,1.79l1.59-1.55,2.31,2.36Zm-4.53-.45a2.25,2.25,0,0,0-2.18-.63,5.53,5.53,0,0,0-2.7,1.62,5.13,5.13,0,0,0-1.58,2.54,2.27,2.27,0,0,0,.62,2.19l.1.11,5.86-5.7Zm2.42,2.5-5.85,5.7.12.12a2.23,2.23,0,0,0,2.13.63A5.2,5.2,0,0,0,193,529a5.51,5.51,0,0,0,1.69-2.63,2.22,2.22,0,0,0-.58-2.19Z"/><path class="cls-3" d="M209.16,535.47l-3.24-2.71-9.11,10.88-2.65-2.22,9.11-10.88-3.18-2.66,1.84-2.2,9.07,7.59Z"/><path class="cls-3" d="M218.85,544.37a2.11,2.11,0,0,0,.38-1.54,1.84,1.84,0,0,0-.87-1.25,1.65,1.65,0,0,0-1.37-.24,2,2,0,0,0-1.21.94l-2.89-1.89a4.73,4.73,0,0,1,2-1.74,4.6,4.6,0,0,1,2.52-.4,5.7,5.7,0,0,1,2.55.94,5.78,5.78,0,0,1,2.63,3.23,4.57,4.57,0,0,1-.77,3.78,4.08,4.08,0,0,1-1.67,1.47,4.28,4.28,0,0,1-2.19.39,3.86,3.86,0,0,1,.69,2.24,4.57,4.57,0,0,1-.83,2.43,4.63,4.63,0,0,1-3.29,2.22,6,6,0,0,1-4.15-1.11,6.38,6.38,0,0,1-2-2,4.49,4.49,0,0,1-.69-2.49,4.82,4.82,0,0,1,.86-2.6l2.9,1.89a2.19,2.19,0,0,0-.36,1.56,1.82,1.82,0,0,0,.85,1.3,2.07,2.07,0,0,0,1.66.34,2.24,2.24,0,0,0,1.37-1,2.88,2.88,0,0,0,.61-1.87,1.83,1.83,0,0,0-.91-1.28l-1.46-1,1.52-2.32,1.47,1C217.12,546,218,545.63,218.85,544.37Z"/><path class="cls-3" d="M226.79,559.15l-4.15-2.21-2.45,2.65L217,557.88l12.74-12.55,2.78,1.48-3.29,17.58L226,562.66Zm-2.14-4.39,2.81,1.5,1.46-6.12Z"/><path class="cls-3" d="M244,564.51a6.38,6.38,0,0,1-3.23,3.43,5.8,5.8,0,0,1-4.51-.27,5.37,5.37,0,0,1-3.35-3.48,8.47,8.47,0,0,1,.69-5.6l1.11-2.65a8.24,8.24,0,0,1,3.58-4.37,5.46,5.46,0,0,1,4.82,0,5.52,5.52,0,0,1,3.3,3.08,7.16,7.16,0,0,1-.22,4.77L243,558a4.68,4.68,0,0,0,.46-2.52,2.22,2.22,0,0,0-1.46-1.35,2.08,2.08,0,0,0-2.18.13A6.79,6.79,0,0,0,238,557l-1.25,3a7.45,7.45,0,0,0-.83,3.44,2.07,2.07,0,0,0,1.43,1.63,2.2,2.2,0,0,0,2,.12,4.3,4.3,0,0,0,1.47-2Z"/><path class="cls-3" d="M259.07,560.47l-4-1.29-4.35,13.51-3.29-1.07,4.35-13.5-3.94-1.28.88-2.73L260,557.74Z"/><path class="cls-3" d="M262,569.59l-1.32,5.85-3.36-.76L261.12,558l5.67,1.29a5.31,5.31,0,0,1,3.59,2.42,5.68,5.68,0,0,1,.56,4.31,5.26,5.26,0,0,1-2.32,3.53,5.64,5.64,0,0,1-4.35.51Zm.64-2.8,2.31.52a1.84,1.84,0,0,0,1.62-.29,2.83,2.83,0,0,0,.94-1.71,3.41,3.41,0,0,0-.08-2.1,1.77,1.77,0,0,0-1.28-1.08l-2.34-.53Z"/><path class="cls-3" d="M277.75,578.55l.83-6.09-1.79-.24L273.47,578l-3.68-.49,4-6.91a5,5,0,0,1-1.5-4.65,5.15,5.15,0,0,1,1.93-3.68,5.57,5.57,0,0,1,4.19-.81l5.07.68L281.18,579Zm-2.08-11.91a3.26,3.26,0,0,0,.22,2.1,1.9,1.9,0,0,0,1.47.85l1.58.21.72-5.32-1.69-.23C276.67,564.08,275.91,564.87,275.67,566.64Z"/><path class="cls-3" d="M297.33,562.85l-.75,17-3.45-.15.62-14.18-3.16-.13-.5,6a19.9,19.9,0,0,1-.88,4.7,5.05,5.05,0,0,1-1.67,2.5,4.34,4.34,0,0,1-2.79.72l-.85,0,.13-2.86.4,0a1.88,1.88,0,0,0,1.61-1.34,16.12,16.12,0,0,0,.79-4.51l.58-8.2Z"/><path class="cls-3" d="M168.19,334l-3.27,5.17,2.75,1.74,1.09-1.72a5.75,5.75,0,0,1,3.45-2.7,5.19,5.19,0,0,1,4.15.8,5.38,5.38,0,0,1,2.55,3.39,5.51,5.51,0,0,1-.8,4.19l-3,4.8-14.42-9.11,5.11-8.09Zm1.9,8.44,4.41,2.79,1.12-1.77a1.92,1.92,0,0,0,.2-1.75,3.09,3.09,0,0,0-1.33-1.52,2.74,2.74,0,0,0-1.83-.49,1.94,1.94,0,0,0-1.44,1Z"/><path class="cls-3" d="M175.15,329.83l1.26-1.6a5.66,5.66,0,0,1,3.71-2.33,5.14,5.14,0,0,1,4,1.23,5.35,5.35,0,0,1,2.19,3.63,5.46,5.46,0,0,1-1.23,4.09l-3.52,4.46-13.4-10.56,2.14-2.72Zm16-2.68-2.13,2.7-13.4-10.56,2.13-2.71Zm-13.79,4.45,4.1,3.23,1.29-1.64a1.94,1.94,0,0,0,.39-1.72,3.14,3.14,0,0,0-1.17-1.65,2.76,2.76,0,0,0-1.77-.68,2,2,0,0,0-1.53.8Z"/><path class="cls-3" d="M189.8,308.25l-2.93,3,10.19,9.87-2.4,2.48-10.2-9.87-2.88,3-2.07-2,8.23-8.5Z"/><path class="cls-3" d="M205.19,304.34a7.93,7.93,0,0,1,2.25,5.1,6.3,6.3,0,0,1-6.81,5.9,7.81,7.81,0,0,1-4.7-2.9l-1.91-2.2a8.37,8.37,0,0,1-2.35-5.22,6.15,6.15,0,0,1,6.79-5.92,8.26,8.26,0,0,1,4.82,3Zm-4.49.09a7.1,7.1,0,0,0-2.74-2.17,2.43,2.43,0,0,0-3.1,2.63,6.5,6.5,0,0,0,1.64,2.94l2,2.3a6.33,6.33,0,0,0,2.66,2.06,2.29,2.29,0,0,0,2.26-.55,2.2,2.2,0,0,0,.84-2.09,6.23,6.23,0,0,0-1.6-2.87Z"/><path class="cls-3" d="M211.1,308.63l-9.91-13.89,4.29-3.06a6.11,6.11,0,0,1,4-1.4,4.35,4.35,0,0,1,3.15,2,4.1,4.1,0,0,1,.83,2.15,3.28,3.28,0,0,1-.48,2,3,3,0,0,1,2.21.05,4.48,4.48,0,0,1,1.92,1.62,4.85,4.85,0,0,1,1.07,3.85,5.64,5.64,0,0,1-2.48,3.33Zm-3-10.08,1.46-1a1.83,1.83,0,0,0,.43-2.89,2.39,2.39,0,0,0-1.35-1.08,2,2,0,0,0-1.53.47l-1.49,1.06Zm1.45,2,2.65,3.71L214,303a1.75,1.75,0,0,0,.81-1.29,2.51,2.51,0,0,0-.56-1.6c-.89-1.25-1.8-1.56-2.72-.95Z"/><path class="cls-3" d="M226.74,294.21l-4.06,2.36,1,3.48-3.15,1.83-4-17.43,2.73-1.58,13.22,12.05-3.18,1.85Zm-4.86-.5,2.76-1.6-4.44-4.46Z"/><path class="cls-3" d="M239,291.91l-2.6-5.56-1.64.76.32,6.63-3.37,1.58-.38-8a5,5,0,0,1-3.78-3.1,5.12,5.12,0,0,1-.36-4.14,5.56,5.56,0,0,1,3.07-2.95l4.64-2.17,7.23,15.46Zm-8.2-8.88a3.32,3.32,0,0,0,1.32,1.65,1.91,1.91,0,0,0,1.7-.09l1.44-.67L233,279.06l-1.55.72C230.27,280.33,230.06,281.42,230.82,283Z"/><path class="cls-3" d="M250.26,281l1.84,5.71-3.28,1.06-5.24-16.24,5.53-1.79a5.33,5.33,0,0,1,4.33.26,5.61,5.61,0,0,1,2.68,3.41,5.25,5.25,0,0,1-.2,4.23,5.61,5.61,0,0,1-3.48,2.65Zm-.88-2.74,2.25-.72a1.88,1.88,0,0,0,1.25-1.08,2.86,2.86,0,0,0-.06-2,3.43,3.43,0,0,0-1.15-1.77,1.76,1.76,0,0,0-1.64-.28l-2.29.74Z"/><path class="cls-3" d="M264.28,273.48l.57-7.9,3.61-.81-1.54,14.4a6.91,6.91,0,0,1-1.05,3.11,3.52,3.52,0,0,1-2,1.26l-.37.09-.81.13L262,281a3.72,3.72,0,0,0,.76-.12,1.52,1.52,0,0,0,.9-.51A2.71,2.71,0,0,0,264,279l0-.64-7.45-10.85,3.6-.81Z"/><path class="cls-3" d="M282.54,265.69l-4.18.56,1.9,14.07-3.43.46-1.89-14.07-4.11.56-.39-2.85,11.72-1.58Z"/><path class="cls-3" d="M293.26,262.24l3.44-.14.73,17-3.44.15L293.5,268,289,279.51l-3.46.15-.73-17.05,3.46-.15.48,11.3Z"/><path class="cls-3" d="M311.32,279.78l-3.43-.18.38-7.29-5.08-.27-.38,7.29-3.44-.18.9-17,3.44.18-.36,6.89,5.07.27.37-6.89,3.43.18Z"/><path class="cls-3" d="M322,277.78l-4.64-.71L316,280.39l-3.6-.55,7.83-16.07,3.12.47,2.74,17.68-3.64-.55Zm-3.47-3.43,3.15.47-.66-6.25Z"/><path class="cls-3" d="M413.4,342.34l5.07-3.47-1-1.49-6.5,1.38-2.09-3.06,7.8-1.67a5,5,0,0,1,2.45-4.23,5.17,5.17,0,0,1,4-1,5.56,5.56,0,0,1,3.4,2.56l2.89,4.23-14.09,9.62Zm7.45-9.53a3.38,3.38,0,0,0-1.42,1.58,1.88,1.88,0,0,0,.36,1.65l.9,1.32,4.43-3-1-1.41C423.42,331.84,422.32,331.81,420.85,332.81Z"/><path class="cls-3" d="M424.49,362l-1.56-3.06,6.5-3.32-2.31-4.53-6.5,3.32-1.57-3.07,15.2-7.76,1.57,3.07-6.15,3.14,2.31,4.53,6.15-3.14,1.56,3.06Z"/><path class="cls-3" d="M431.6,370.23l-1.72-4.37-3.59.42L425,362.89l17.83-1.27,1.16,2.93L430,375.79l-1.35-3.43Zm1.23-4.72,1.16,3,5.08-3.7Z"/><path class="cls-3" d="M430.94,395.76l-.75-3.08,4.08-1-1.9-7.85-4.07,1-.76-3.16,6.8-1.84.26,1.1a4.72,4.72,0,0,0,2.45.63,20.4,20.4,0,0,0,4.05-.36l7.84-1.4,2.31,9.53-13.8,3.34.42,1.72Zm4.54-11.23,1.16,4.81,11-2.67-.73-3-4.63.83A16.69,16.69,0,0,1,435.48,384.53Z"/><path class="cls-3" d="M436.81,407.83l-.47-3.4,7.24-1-.69-5-7.24,1-.47-3.41,16.91-2.32.47,3.42-6.84.93.69,5,6.84-.93.46,3.4Z"/><path class="cls-3" d="M444.73,418.31l-.26-5.36-4.52.22.31,6.34-2.86.14-.47-9.79,17.05-.81.46,9.76-2.87.14-.3-6.32-4,.19.25,5.36Z"/><path class="cls-3" d="M376.83,574.08a6.43,6.43,0,0,1-1.64,4.42,5.8,5.8,0,0,1-4.27,1.5,5.36,5.36,0,0,1-4.43-1.91,8.4,8.4,0,0,1-1.55-5.43v-2.87a8.24,8.24,0,0,1,1.6-5.42,6.3,6.3,0,0,1,8.66-.34,7,7,0,0,1,1.65,4.47h-3.46a4.61,4.61,0,0,0-.55-2.49,2.23,2.23,0,0,0-1.87-.68,2.1,2.1,0,0,0-2,1,6.8,6.8,0,0,0-.61,3.19v3.22a7.41,7.41,0,0,0,.57,3.49,2.1,2.1,0,0,0,1.95.95,2.27,2.27,0,0,0,1.88-.66,4.43,4.43,0,0,0,.58-2.4Z"/><path class="cls-3" d="M382.39,573.76v6H379V562.7h5.81a5.37,5.37,0,0,1,4,1.57,5.67,5.67,0,0,1,1.5,4.08,5.29,5.29,0,0,1-1.48,4,5.67,5.67,0,0,1-4.13,1.45Zm0-2.87h2.37a1.86,1.86,0,0,0,1.52-.64,2.87,2.87,0,0,0,.54-1.88,3.35,3.35,0,0,0-.55-2,1.77,1.77,0,0,0-1.47-.77h-2.41Z"/><path class="cls-3" d="M404.61,572.77A8,8,0,0,1,403,578.1a5.59,5.59,0,0,1-4.51,1.9,5.7,5.7,0,0,1-4.51-1.88,7.85,7.85,0,0,1-1.66-5.27v-2.92a8.38,8.38,0,0,1,1.63-5.49,6.17,6.17,0,0,1,9,0,8.24,8.24,0,0,1,1.66,5.44Zm-3.45-2.86a7,7,0,0,0-.66-3.43,2.43,2.43,0,0,0-4.07-.05,6.84,6.84,0,0,0-.68,3.3v3a6.41,6.41,0,0,0,.67,3.3,2.28,2.28,0,0,0,2.06,1.06,2.22,2.22,0,0,0,2-1,6.31,6.31,0,0,0,.67-3.22Z"/><path class="cls-3" d="M419,562.7v17.06h-3.44v-6.43a12.23,12.23,0,0,1-2.58.31,5.92,5.92,0,0,1-4.26-1.41,5.58,5.58,0,0,1-1.52-4.06V562.7h3.46V568a3.48,3.48,0,0,0,.51,2.14,2.19,2.19,0,0,0,1.81.65,11.79,11.79,0,0,0,2.58-.31V562.7Z"/><path class="cls-3" d="M433.72,579.76h-3.43v-7.3H425.2v7.3h-3.44V562.7h3.44v6.9h5.09v-6.9h3.43Z"/><path class="cls-3" d="M448.5,572.77a8,8,0,0,1-1.62,5.33,5.62,5.62,0,0,1-4.51,1.9,5.68,5.68,0,0,1-4.51-1.88,7.85,7.85,0,0,1-1.67-5.27v-2.92a8.44,8.44,0,0,1,1.63-5.49,6.17,6.17,0,0,1,9,0,8.24,8.24,0,0,1,1.67,5.44ZM445,569.91a7.08,7.08,0,0,0-.65-3.43,2.43,2.43,0,0,0-4.07-.05,6.72,6.72,0,0,0-.68,3.3v3a6.31,6.31,0,0,0,.67,3.3,2.27,2.27,0,0,0,2.06,1.06,2.2,2.2,0,0,0,2-1,6.21,6.21,0,0,0,.67-3.22Z"/><path class="cls-3" d="M459.78,572.38h-5.36v4.53h6.35v2.85H451V562.7h9.78v2.87h-6.33v4h5.36Z"/><path class="cls-3" d="M479.85,574.08a6.43,6.43,0,0,1-1.64,4.42,5.8,5.8,0,0,1-4.27,1.5,5.39,5.39,0,0,1-4.44-1.91,8.46,8.46,0,0,1-1.54-5.43v-2.87a8.24,8.24,0,0,1,1.6-5.42,6.3,6.3,0,0,1,8.66-.34,7,7,0,0,1,1.65,4.47h-3.46a4.61,4.61,0,0,0-.55-2.49,2.23,2.23,0,0,0-1.87-.68,2.1,2.1,0,0,0-2,1,6.8,6.8,0,0,0-.61,3.19v3.22a7.41,7.41,0,0,0,.57,3.49,2.1,2.1,0,0,0,1.95.95,2.27,2.27,0,0,0,1.88-.66,4.43,4.43,0,0,0,.58-2.4Z"/><path class="cls-3" d="M494,572.77a8,8,0,0,1-1.62,5.33,5.62,5.62,0,0,1-4.51,1.9,5.68,5.68,0,0,1-4.51-1.88,7.9,7.9,0,0,1-1.67-5.27v-2.92a8.44,8.44,0,0,1,1.63-5.49,6.18,6.18,0,0,1,9,0,8.29,8.29,0,0,1,1.66,5.44Zm-3.46-2.86a7.08,7.08,0,0,0-.65-3.43,2.43,2.43,0,0,0-4.07-.05,6.72,6.72,0,0,0-.68,3.3v3a6.31,6.31,0,0,0,.67,3.3,2.27,2.27,0,0,0,2.06,1.06,2.2,2.2,0,0,0,2-1,6.21,6.21,0,0,0,.67-3.22Z"/><path class="cls-3" d="M506,565.57H499.9v3.26h2a5.71,5.71,0,0,1,4.12,1.47,5.2,5.2,0,0,1,1.54,3.93,5.39,5.39,0,0,1-1.5,4,5.5,5.5,0,0,1-4,1.56h-5.68V562.7H506Zm-6.11,6.12v5.22H502a1.9,1.9,0,0,0,1.59-.76,3.07,3.07,0,0,0,.58-1.94,2.76,2.76,0,0,0-.57-1.81,1.94,1.94,0,0,0-1.57-.71Z"/><path class="cls-3" d="M513,573.76v6h-3.45V562.7h5.82a5.35,5.35,0,0,1,4,1.57,5.64,5.64,0,0,1,1.51,4.08,5.29,5.29,0,0,1-1.49,4,5.64,5.64,0,0,1-4.12,1.45Zm0-2.87h2.37a1.87,1.87,0,0,0,1.52-.64,2.87,2.87,0,0,0,.54-1.88,3.35,3.35,0,0,0-.55-2,1.79,1.79,0,0,0-1.48-.77H513Z"/><path class="cls-3" d="M529.26,576.27h-4.69l-.92,3.49H520l5.33-17.06h3.15l5.37,17.06h-3.68Zm-3.94-2.87h3.18l-1.59-6.08Z"/><path class="cls-3" d="M547.42,579.76H544v-7.3H538.9v7.3h-3.45V562.7h3.45v6.9H544v-6.9h3.44Z"/><path class="cls-3" d="M558.54,562.7H562v17.06h-3.44V568.47l-5,11.29h-3.46V562.7h3.46V574Z"/><path class="cls-3" d="M573.54,572.38h-5.37v4.53h6.35v2.85h-9.79V562.7h9.77v2.87h-6.33v4h5.37Z"/><path class="cls-3" d="M316.67,615.21h-6.13V629.4h-3.45V612.34h9.58Z"/><path class="cls-3" d="M330,622.41a7.94,7.94,0,0,1-1.63,5.33,6.3,6.3,0,0,1-9,0,7.8,7.8,0,0,1-1.67-5.26v-2.92a8.38,8.38,0,0,1,1.63-5.49,6.16,6.16,0,0,1,9,0,8.29,8.29,0,0,1,1.67,5.45Zm-3.46-2.86a7,7,0,0,0-.66-3.44,2.42,2.42,0,0,0-4.06,0,6.56,6.56,0,0,0-.68,3.3v3a6.25,6.25,0,0,0,.67,3.29,2.25,2.25,0,0,0,2.06,1.06,2.2,2.2,0,0,0,2-1,6.23,6.23,0,0,0,.67-3.22Z"/><path class="cls-3" d="M335.93,623.4v6h-3.44V612.34h5.81a5.33,5.33,0,0,1,4,1.57,5.67,5.67,0,0,1,1.5,4.08,5.29,5.29,0,0,1-1.48,4,5.67,5.67,0,0,1-4.13,1.45Zm0-2.87h2.37a1.88,1.88,0,0,0,1.53-.64,2.92,2.92,0,0,0,.53-1.88,3.35,3.35,0,0,0-.55-2,1.75,1.75,0,0,0-1.47-.77h-2.41Z"/><path class="cls-3" d="M349.63,618.47h2a5.73,5.73,0,0,1,4.13,1.47,5.2,5.2,0,0,1,1.53,3.93,5.41,5.41,0,0,1-1.5,4,5.48,5.48,0,0,1-4,1.56h-5.68V612.34h3.45Zm0,2.86v5.21h2.09a1.91,1.91,0,0,0,1.59-.75,3.15,3.15,0,0,0,.58-1.94,2.74,2.74,0,0,0-.57-1.81,1.91,1.91,0,0,0-1.58-.71Zm12,8.07h-3.45V612.34h3.45Z"/><path class="cls-3" d="M383.63,633.6h-3.16v-4.2h-8.08v4.18h-3.26l-.18-7h1.13a4.73,4.73,0,0,0,1.19-2.22,20.91,20.91,0,0,0,.61-4l.48-8h9.81v14.2h1.76Zm-9.84-7.06h4.94V615.21h-3.09l-.28,4.7A16.89,16.89,0,0,1,373.79,626.54Z"/><path class="cls-3" d="M397.43,622.41a8,8,0,0,1-1.62,5.33,5.62,5.62,0,0,1-4.5,1.9,5.68,5.68,0,0,1-4.52-1.89,7.85,7.85,0,0,1-1.66-5.26v-2.92a8.38,8.38,0,0,1,1.63-5.49,6.16,6.16,0,0,1,9,0,8.29,8.29,0,0,1,1.66,5.45ZM394,619.55a7,7,0,0,0-.66-3.44,2.43,2.43,0,0,0-4.07,0,6.68,6.68,0,0,0-.67,3.3v3a6.36,6.36,0,0,0,.66,3.29,2.28,2.28,0,0,0,2.07,1.06,2.21,2.21,0,0,0,2-1,6.23,6.23,0,0,0,.67-3.22Z"/><path class="cls-3" d="M404.88,622.44h-1.5v7h-3.45V612.34h3.45v6.82h1.16l3-6.82h4.2l-4.18,7.94,4.65,9.12h-4.11Z"/><path class="cls-3" d="M418.83,619.92l2.3-7.58h3.7l-4.67,13.71a7,7,0,0,1-1.72,2.8,3.53,3.53,0,0,1-2.21.8h-.37l-.82,0-.06-2.86a3.24,3.24,0,0,0,.76,0,1.48,1.48,0,0,0,1-.29,2.71,2.71,0,0,0,.58-1.32l.16-.62-4.87-12.22h3.69Z"/><path class="cls-3" d="M431.16,612.34l3.22,12.34,3.21-12.34h4.5V629.4h-3.45v-4.62l.31-7.11-3.41,11.73H433.2l-3.41-11.73.32,7.11v4.62h-3.45V612.34Z"/><path class="cls-3" d="M453.67,622h-5.36v4.52h6.35v2.86h-9.8V612.34h9.77v2.87h-6.32v4h5.36Z"/><path class="cls-3" d="M468.6,629.4h-3.43v-7.3h-5.09v7.3h-3.44V612.34h3.44v6.9h5.09v-6.9h3.43Z"/><path class="cls-3" d="M482.08,615.21h-4.22V629.4H474.4V615.21h-4.15v-2.87h11.83Z"/><path class="cls-3" d="M495.74,622.41a8,8,0,0,1-1.62,5.33,6.31,6.31,0,0,1-9,0,7.8,7.8,0,0,1-1.66-5.26v-2.92a8.38,8.38,0,0,1,1.63-5.49,6.16,6.16,0,0,1,9,0,8.29,8.29,0,0,1,1.66,5.45Zm-3.45-2.86a7,7,0,0,0-.66-3.44,2.43,2.43,0,0,0-4.07,0,6.78,6.78,0,0,0-.68,3.3v3a6.35,6.35,0,0,0,.67,3.29,2.26,2.26,0,0,0,2.06,1.06,2.22,2.22,0,0,0,2-1,6.23,6.23,0,0,0,.67-3.22Z"/><path class="cls-3" d="M498.22,629.4V612.34h5.27a6.11,6.11,0,0,1,4.06,1.19,4.31,4.31,0,0,1,1.39,3.48,4.13,4.13,0,0,1-.58,2.24,3.32,3.32,0,0,1-1.57,1.37,3,3,0,0,1,1.77,1.32,4.48,4.48,0,0,1,.62,2.45,4.88,4.88,0,0,1-1.36,3.75,5.64,5.64,0,0,1-4,1.26Zm3.44-9.92h1.79c1.36,0,2-.7,2-2.1a2.38,2.38,0,0,0-.47-1.67,2,2,0,0,0-1.52-.5h-1.83Zm0,2.5v4.56h2.2a1.74,1.74,0,0,0,1.41-.57,2.49,2.49,0,0,0,.48-1.63c0-1.53-.55-2.32-1.66-2.36Z"/><path class="cls-3" d="M361.69,666h-6.12v3.26h2a5.73,5.73,0,0,1,4.13,1.47,5.2,5.2,0,0,1,1.53,3.93,5.42,5.42,0,0,1-1.5,4,5.48,5.48,0,0,1-4,1.56h-5.68V663.12h9.57Zm-6.12,6.12v5.21h2.09a1.89,1.89,0,0,0,1.59-.76,3.13,3.13,0,0,0,.58-1.94,2.78,2.78,0,0,0-.57-1.81,2,2,0,0,0-1.58-.7Z"/><path class="cls-3" d="M368.72,669.25h2a5.73,5.73,0,0,1,4.13,1.47,5.2,5.2,0,0,1,1.53,3.93,5.42,5.42,0,0,1-1.5,4,5.48,5.48,0,0,1-4,1.56h-5.69V663.12h3.46Zm0,2.86v5.21h2.09a1.89,1.89,0,0,0,1.59-.76,3.13,3.13,0,0,0,.58-1.94,2.78,2.78,0,0,0-.57-1.81,2,2,0,0,0-1.58-.7Zm12,8.07h-3.45V663.12h3.45Z"/><path class="cls-3" d="M394.23,666H390v14.19h-3.45V666h-4.15v-2.87h11.82Z"/><path class="cls-3" d="M407.9,673.18a8,8,0,0,1-1.63,5.34,6.33,6.33,0,0,1-9,0,7.82,7.82,0,0,1-1.67-5.26v-2.92a8.4,8.4,0,0,1,1.63-5.49,6.16,6.16,0,0,1,9,0,8.29,8.29,0,0,1,1.67,5.45Zm-3.46-2.86a7,7,0,0,0-.66-3.43,2.17,2.17,0,0,0-2-1.12,2.21,2.21,0,0,0-2,1.08,6.56,6.56,0,0,0-.68,3.3v3a6.26,6.26,0,0,0,.67,3.3,2.25,2.25,0,0,0,2.06,1.06,2.2,2.2,0,0,0,2-1,6.26,6.26,0,0,0,.67-3.22Z"/><path class="cls-3" d="M410.37,680.18V663.12h5.27a6,6,0,0,1,4.06,1.19,4.31,4.31,0,0,1,1.39,3.48,4.21,4.21,0,0,1-.57,2.24A3.37,3.37,0,0,1,419,671.4a3,3,0,0,1,1.77,1.32,4.56,4.56,0,0,1,.62,2.44,4.86,4.86,0,0,1-1.37,3.75,5.57,5.57,0,0,1-4,1.27Zm3.45-9.93h1.79a1.82,1.82,0,0,0,2-2.09,2.43,2.43,0,0,0-.47-1.67,2,2,0,0,0-1.53-.5h-1.82Zm0,2.51v4.56H416a1.72,1.72,0,0,0,1.4-.57,2.44,2.44,0,0,0,.49-1.63c0-1.53-.56-2.32-1.67-2.36Z"/><path class="cls-3" d="M427.33,669.25h2a5.71,5.71,0,0,1,4.12,1.47,5.2,5.2,0,0,1,1.54,3.93,5.42,5.42,0,0,1-1.5,4,5.5,5.5,0,0,1-4,1.56h-5.68V663.12h3.46Zm0,2.86v5.21h2.08a1.89,1.89,0,0,0,1.59-.76,3.07,3.07,0,0,0,.58-1.94,2.78,2.78,0,0,0-.57-1.81,1.93,1.93,0,0,0-1.57-.7Zm12,8.07h-3.44V663.12h3.44Z"/><path class="cls-3" d="M450.94,672.8h-5.37v4.52h6.35v2.86h-9.79V663.12h9.77V666h-6.33v4h5.37Z"/><path class="cls-3" d="M471.41,680.18H468V666h-5.06v14.19h-3.45V663.12h12Z"/><path class="cls-3" d="M477.64,674.18v6h-3.45V663.12H480a5.32,5.32,0,0,1,4,1.57,5.65,5.65,0,0,1,1.51,4.08,5.29,5.29,0,0,1-1.49,4,5.65,5.65,0,0,1-4.13,1.45Zm0-2.87H480a1.89,1.89,0,0,0,1.53-.65,2.84,2.84,0,0,0,.54-1.87,3.35,3.35,0,0,0-.56-2A1.73,1.73,0,0,0,480,666h-2.4Z"/><path class="cls-3" d="M499.85,673.18a8,8,0,0,1-1.62,5.34,5.61,5.61,0,0,1-4.5,1.89,5.67,5.67,0,0,1-4.52-1.88,7.87,7.87,0,0,1-1.66-5.26v-2.92a8.34,8.34,0,0,1,1.63-5.49,6.16,6.16,0,0,1,9,0,8.29,8.29,0,0,1,1.66,5.45Zm-3.45-2.86a7,7,0,0,0-.66-3.43,2.43,2.43,0,0,0-4.07,0,6.68,6.68,0,0,0-.67,3.3v3a6.38,6.38,0,0,0,.66,3.3,2.28,2.28,0,0,0,2.07,1.06,2.21,2.21,0,0,0,2-1,6.26,6.26,0,0,0,.67-3.22Z"/><path class="cls-3" d="M511.89,666h-6.12v3.26h2a5.73,5.73,0,0,1,4.13,1.47,5.2,5.2,0,0,1,1.53,3.93,5.42,5.42,0,0,1-1.5,4,5.48,5.48,0,0,1-4,1.56h-5.68V663.12h9.57Zm-6.12,6.12v5.21h2.09a1.89,1.89,0,0,0,1.59-.76,3.13,3.13,0,0,0,.58-1.94,2.78,2.78,0,0,0-.57-1.81,2,2,0,0,0-1.58-.7Z"/><path class="cls-3" d="M527.39,663.12v17.06h-3.45V666h-3.17l-.23,6a20.22,20.22,0,0,1-.68,4.74,5.1,5.1,0,0,1-1.55,2.57,4.42,4.42,0,0,1-2.76.83h-.85v-2.86l.4,0a1.89,1.89,0,0,0,1.55-1.42,16.35,16.35,0,0,0,.6-4.54l.22-8.21Z"/><path class="cls-3" d="M539,672.8h-5.36v4.52H540v2.86h-9.8V663.12h9.77V666h-6.32v4H539Z"/><path class="cls-3" d="M546.45,663.12l3.22,12.34,3.21-12.34h4.5v17.06h-3.46v-4.62l.32-7.11-3.41,11.73h-2.34l-3.41-11.73.31,7.11v4.62H542V663.12Z"/><path class="cls-3" d="M563.64,669.25h2a5.69,5.69,0,0,1,4.12,1.47,5.17,5.17,0,0,1,1.54,3.93,5.42,5.42,0,0,1-1.5,4,5.5,5.5,0,0,1-4,1.56h-5.69V663.12h3.46Zm0,2.86v5.21h2.09a1.86,1.86,0,0,0,1.58-.76,3.07,3.07,0,0,0,.58-1.94,2.83,2.83,0,0,0-.56-1.81,2,2,0,0,0-1.58-.7Zm12,8.07h-3.44V663.12h3.44Z"/><path class="cls-3" d="M309.44,734.79h-3.17V730.6H298.2v4.18h-3.26l-.19-7h1.14a4.71,4.71,0,0,0,1.18-2.23,19.92,19.92,0,0,0,.61-4l.48-8H308v14.2h1.77Zm-9.85-7h5V716.41h-3.1l-.28,4.7A16.72,16.72,0,0,1,299.59,727.74Z"/><path class="cls-3" d="M323.24,723.6a8,8,0,0,1-1.62,5.34,6.34,6.34,0,0,1-9,0,7.82,7.82,0,0,1-1.66-5.26v-2.92a8.34,8.34,0,0,1,1.63-5.49,5.52,5.52,0,0,1,4.52-2,5.59,5.59,0,0,1,4.49,1.94,8.29,8.29,0,0,1,1.66,5.45Zm-3.46-2.86a7,7,0,0,0-.65-3.43,2.43,2.43,0,0,0-4.07,0,6.67,6.67,0,0,0-.68,3.3v3a6.26,6.26,0,0,0,.67,3.3,2.26,2.26,0,0,0,2.06,1.06,2.22,2.22,0,0,0,2-1,6.27,6.27,0,0,0,.66-3.22Z"/><path class="cls-3" d="M339,734.79h-3.16V730.6h-8.08v4.18H324.5l-.19-7h1.13a4.71,4.71,0,0,0,1.19-2.23,20.66,20.66,0,0,0,.61-4l.48-8h9.81v14.2h1.77Zm-9.84-7h4.94V716.41H331l-.28,4.7A16.89,16.89,0,0,1,329.15,727.74Z"/><path class="cls-3" d="M349.88,723.22h-5.37v4.52h6.35v2.86h-9.79V713.54h9.77v2.87h-6.33v4h5.37Z"/><path class="cls-3" d="M364.81,713.54V730.6h-3.46V716.41h-3.16l-.24,6.05a20.29,20.29,0,0,1-.67,4.74,5.18,5.18,0,0,1-1.56,2.57,4.38,4.38,0,0,1-2.76.83h-.84v-2.86l.39,0a1.92,1.92,0,0,0,1.56-1.42,16.86,16.86,0,0,0,.59-4.54l.22-8.21Z"/><path class="cls-3" d="M375.94,727.11h-4.7l-.91,3.49h-3.65L372,713.54h3.16l5.36,17.06h-3.68ZM372,724.24h3.19l-1.6-6.09Z"/><path class="cls-3" d="M391.77,716.41h-4.22V730.6H384.1V716.41H380v-2.87h11.82Z"/><path class="cls-3" d="M397.37,719.67h2a5.73,5.73,0,0,1,4.13,1.47,5.2,5.2,0,0,1,1.53,3.93,5.42,5.42,0,0,1-1.5,4,5.48,5.48,0,0,1-4,1.56h-5.68V713.54h3.45Zm0,2.86v5.21h2.09a1.89,1.89,0,0,0,1.59-.76,3.13,3.13,0,0,0,.58-1.94,2.78,2.78,0,0,0-.57-1.81,1.94,1.94,0,0,0-1.58-.7Z"/><path class="cls-3" d="M422.25,716.41h-6.13V730.6h-3.44V713.54h9.57Z"/><path class="cls-3" d="M427.82,724.6v6h-3.45V713.54h5.82a5.31,5.31,0,0,1,4,1.57,5.61,5.61,0,0,1,1.51,4.08,5.29,5.29,0,0,1-1.49,4,5.64,5.64,0,0,1-4.12,1.45Zm0-2.87h2.37a1.88,1.88,0,0,0,1.52-.65,2.84,2.84,0,0,0,.54-1.87,3.35,3.35,0,0,0-.55-2,1.76,1.76,0,0,0-1.48-.77h-2.4Z"/><path class="cls-3" d="M444.08,727.11h-4.69l-.92,3.49h-3.64l5.33-17.06h3.15l5.37,17.06H445Zm-3.94-2.87h3.18l-1.59-6.09Z"/><path class="cls-3" d="M459.28,715.06a5.45,5.45,0,0,1,4.4,2,7.63,7.63,0,0,1,1.67,5.11,7.48,7.48,0,0,1-1.66,5,5.51,5.51,0,0,1-4.41,2v2.18H456v-2.18a5.64,5.64,0,0,1-5.36-3.33,8.34,8.34,0,0,1-.76-3.6,7.69,7.69,0,0,1,1.68-5.13,5.52,5.52,0,0,1,4.44-2v-2.23h3.3ZM455.8,718a2.23,2.23,0,0,0-2,1.12,5.6,5.6,0,0,0-.72,3.07,5.17,5.17,0,0,0,.72,2.9,2.28,2.28,0,0,0,2,1.08H456V718Zm3.48,0v8.17h.18a2.2,2.2,0,0,0,1.93-1.08,5.25,5.25,0,0,0,.72-2.93,5.63,5.63,0,0,0-.71-3,2.21,2.21,0,0,0-2-1.12Z"/><path class="cls-3" d="M476,713.54h3.45V730.6H476V719.3l-5,11.3H467.5V713.54H471v11.31Z"/><path class="cls-3" d="M487.14,723.64h-1.5v7h-3.45V713.54h3.45v6.82h1.16l3-6.82H494l-4.17,7.94,4.64,9.12h-4.1Z"/><path class="cls-3" d="M504.06,713.54h3.45V730.6h-3.45V719.3l-5,11.3h-3.45V713.54H499v11.31Z"/><path class="cls-5" d="M440.83,431.84v10H440v-9.24h-4.2l-.23,4.12a16.69,16.69,0,0,1-.42,3.21,2.9,2.9,0,0,1-.81,1.45,2.16,2.16,0,0,1-1.42.46h-.35v-.7h.27a1.43,1.43,0,0,0,1.06-.44,3,3,0,0,0,.55-1.33,20.49,20.49,0,0,0,.3-2.85l.25-4.62Z"/><path class="cls-5" d="M446,441.93a3.13,3.13,0,0,1-1.7-.47,3.1,3.1,0,0,1-1.19-1.29,4,4,0,0,1-.42-1.86V438a4.43,4.43,0,0,1,.41-1.92,3.28,3.28,0,0,1,1.15-1.34,2.84,2.84,0,0,1,1.6-.49,2.69,2.69,0,0,1,2.14.92,3.7,3.7,0,0,1,.79,2.51v.46h-5.28v.16a3.09,3.09,0,0,0,.72,2.09,2.3,2.3,0,0,0,1.82.84,2.67,2.67,0,0,0,1.16-.24,2.5,2.5,0,0,0,.91-.77l.51.39A3,3,0,0,1,446,441.93Zm-.15-7a2,2,0,0,0-1.55.67,3.13,3.13,0,0,0-.77,1.82H448v-.09a2.74,2.74,0,0,0-.61-1.73A1.9,1.9,0,0,0,445.88,435Z"/><path class="cls-5" d="M453.38,434.89a3,3,0,0,1,2.29.92,3.39,3.39,0,0,1,.87,2.44v.17a4,4,0,0,1-.4,1.81,2.9,2.9,0,0,1-1.15,1.25,3.27,3.27,0,0,1-1.72.45,3.1,3.1,0,0,1-2.37-1,3.7,3.7,0,0,1-.9-2.61v-.65a6.78,6.78,0,0,1,.87-3.67,3.5,3.5,0,0,1,2.49-1.64,3.67,3.67,0,0,0,1.43-.45.86.86,0,0,0,.42-.76h.7a1.74,1.74,0,0,1-.24.95,1.69,1.69,0,0,1-.71.6,6,6,0,0,1-1.47.39,2.92,2.92,0,0,0-1.81,1,4,4,0,0,0-.89,2.09,3.39,3.39,0,0,1,1.09-.93A3.19,3.19,0,0,1,453.38,434.89Zm-2.56,3.36v.17a3,3,0,0,0,.68,2,2.4,2.4,0,0,0,3.55,0,3.09,3.09,0,0,0,.67-2.07v-.18a2.69,2.69,0,0,0-.68-1.89,2.51,2.51,0,0,0-3.55,0A2.77,2.77,0,0,0,450.82,438.25Z"/><path class="cls-5" d="M461,441.93a3.18,3.18,0,0,1-2.89-1.76,4,4,0,0,1-.42-1.86V438a4.29,4.29,0,0,1,.41-1.92,3.21,3.21,0,0,1,1.15-1.34,2.82,2.82,0,0,1,1.6-.49,2.69,2.69,0,0,1,2.14.92,3.75,3.75,0,0,1,.79,2.51v.46h-5.28v.16a3.09,3.09,0,0,0,.72,2.09,2.29,2.29,0,0,0,1.81.84,2.64,2.64,0,0,0,1.16-.24,2.53,2.53,0,0,0,.92-.77l.51.39A3,3,0,0,1,461,441.93Zm-.15-7a2.07,2.07,0,0,0-1.56.67,3.13,3.13,0,0,0-.76,1.82h4.43v-.09a2.63,2.63,0,0,0-.61-1.73A1.86,1.86,0,0,0,460.82,435Z"/><path class="cls-5" d="M465.17,441.1l.36-.47a6.43,6.43,0,0,0,1-3.42l.13-2.81H471v6.7h.77V444H471v-2.18h-5.56V444h-.78V441.1Zm.94,0h4.09v-5.94h-2.77l-.09,1.92A6.76,6.76,0,0,1,466.11,441.1Z"/><path class="cls-5" d="M476.23,441.93a3.14,3.14,0,0,1-1.71-.47,3.07,3.07,0,0,1-1.18-1.29,3.92,3.92,0,0,1-.43-1.86V438a4.3,4.3,0,0,1,.42-1.92,3.21,3.21,0,0,1,1.15-1.34,2.79,2.79,0,0,1,1.6-.49,2.66,2.66,0,0,1,2.13.92,3.7,3.7,0,0,1,.79,2.51v.46h-5.27v.16a3.09,3.09,0,0,0,.72,2.09,2.28,2.28,0,0,0,1.81.84,2.64,2.64,0,0,0,1.16-.24,2.43,2.43,0,0,0,.91-.77l.52.39A3,3,0,0,1,476.23,441.93Zm-.15-7a2,2,0,0,0-1.56.67,3.13,3.13,0,0,0-.77,1.82h4.44v-.09a2.69,2.69,0,0,0-.61-1.73A1.86,1.86,0,0,0,476.08,435Z"/><path class="cls-5" d="M480.69,441.79V434.4h2.71a3.84,3.84,0,0,1,2.16.5,1.66,1.66,0,0,1,.75,1.47,1.6,1.6,0,0,1-.33,1,1.9,1.9,0,0,1-1,.63,2.09,2.09,0,0,1,1.17.62,1.66,1.66,0,0,1,.44,1.13,1.78,1.78,0,0,1-.73,1.52,3.42,3.42,0,0,1-2,.53Zm.81-4.08h2.07c1.29,0,1.93-.46,1.93-1.32a1,1,0,0,0-.53-1,3.12,3.12,0,0,0-1.57-.32h-1.9Zm0,.68v2.72h2.37a2.38,2.38,0,0,0,1.42-.36,1.14,1.14,0,0,0,.5-1,1.13,1.13,0,0,0-.5-1,2.38,2.38,0,0,0-1.42-.36Z"/><path class="cls-5" d="M493.09,441.79a3.82,3.82,0,0,1-.15-1,3,3,0,0,1-1.1.87,3.43,3.43,0,0,1-1.41.3,2.48,2.48,0,0,1-1.73-.6,1.91,1.91,0,0,1-.66-1.5,2,2,0,0,1,.9-1.71,4.31,4.31,0,0,1,2.51-.63h1.48v-.84a1.58,1.58,0,0,0-.49-1.24A2,2,0,0,0,491,435a2.24,2.24,0,0,0-1.41.44,1.3,1.3,0,0,0-.56,1.05h-.82a1.89,1.89,0,0,1,.82-1.52,3.18,3.18,0,0,1,2-.65,2.91,2.91,0,0,1,1.95.62,2.22,2.22,0,0,1,.73,1.72v3.5a4.32,4.32,0,0,0,.23,1.61v.08Zm-2.57-.58a2.79,2.79,0,0,0,1.47-.4,2.4,2.4,0,0,0,.94-1.06v-1.63h-1.46a3.68,3.68,0,0,0-1.92.45,1.35,1.35,0,0,0-.69,1.19,1.33,1.33,0,0,0,.46,1A1.72,1.72,0,0,0,490.52,441.21Z"/><path class="cls-5" d="M495.75,443.65l-.48-.35a3,3,0,0,0,.64-1.73v-1.06h.8v.85A2.94,2.94,0,0,1,495.75,443.65Z"/><path class="cls-5" d="M507,437.19a3.09,3.09,0,0,1-1.08,1,2.89,2.89,0,0,1-1.41.35,2.55,2.55,0,0,1-1.5-.44,2.79,2.79,0,0,1-1-1.21,3.9,3.9,0,0,1-.36-1.68,4.16,4.16,0,0,1,.38-1.79,3,3,0,0,1,1.06-1.26,2.78,2.78,0,0,1,1.57-.45,2.81,2.81,0,0,1,2.33,1.05,4.66,4.66,0,0,1,.83,3v.74a6.14,6.14,0,0,1-1.14,4,4.34,4.34,0,0,1-3.51,1.36H503v-.71h.29a3.68,3.68,0,0,0,2.72-1A4.34,4.34,0,0,0,507,437.19Zm-2.39.63a2.35,2.35,0,0,0,1.47-.49,2.55,2.55,0,0,0,.93-1.26v-.47a3.84,3.84,0,0,0-.63-2.35,2,2,0,0,0-1.71-.84,1.92,1.92,0,0,0-1.59.79,3.36,3.36,0,0,0,0,3.86A1.86,1.86,0,0,0,504.59,437.82Z"/><path class="cls-5" d="M439.44,458.59h-6.23V458l3.41-3.87a8.57,8.57,0,0,0,1.18-1.61,2.63,2.63,0,0,0,.32-1.24,2,2,0,0,0-.55-1.49,2.06,2.06,0,0,0-1.52-.55,2.21,2.21,0,0,0-1.63.64,2.33,2.33,0,0,0-.62,1.67H433a3.15,3.15,0,0,1,.38-1.53,2.67,2.67,0,0,1,1.08-1.08,3.14,3.14,0,0,1,1.6-.4,3,3,0,0,1,2.13.72,2.53,2.53,0,0,1,.77,2,3.3,3.3,0,0,1-.43,1.52,11.23,11.23,0,0,1-1.53,2.06l-2.78,3.14h5.23Z"/><path class="cls-5" d="M447,454.44a5.56,5.56,0,0,1-.77,3.2,2.93,2.93,0,0,1-4.54,0,5.29,5.29,0,0,1-.81-3.11v-1.79a5.41,5.41,0,0,1,.78-3.18,2.94,2.94,0,0,1,4.53,0,5.18,5.18,0,0,1,.81,3.07Zm-.82-1.78a4.84,4.84,0,0,0-.56-2.58,1.85,1.85,0,0,0-1.68-.88,1.88,1.88,0,0,0-1.67.85,4.69,4.69,0,0,0-.57,2.53v1.95a4.91,4.91,0,0,0,.57,2.61,1.89,1.89,0,0,0,1.68.9,1.85,1.85,0,0,0,1.66-.88,4.81,4.81,0,0,0,.57-2.59Z"/><path class="cls-5" d="M448.78,458.1a.57.57,0,0,1,.16-.41.54.54,0,0,1,.42-.16.54.54,0,0,1,.43.16.57.57,0,0,1,.16.41.5.5,0,0,1-.16.39.54.54,0,0,1-.43.16.54.54,0,0,1-.42-.16A.5.5,0,0,1,448.78,458.1Z"/><path class="cls-5" d="M455.88,458.59h-.82v-9l-2.71,1v-.77l3.39-1.25h.14Z"/><path class="cls-5" d="M463.64,458.59h-.82v-9l-2.71,1v-.77l3.39-1.25h.14Z"/><path class="cls-5" d="M439.66,467.1h-4.45V469h1.6a4.24,4.24,0,0,1,2.79.85,2.84,2.84,0,0,1,1,2.29,2.91,2.91,0,0,1-1,2.33,4.08,4.08,0,0,1-2.72.89h-3.75v-9.95h6.52Zm-4.45,3.58v3.07h1.64a1.81,1.81,0,0,0,1.25-.43,1.52,1.52,0,0,0,.47-1.16,1.35,1.35,0,0,0-.45-1.07,1.87,1.87,0,0,0-1.23-.41Z"/><path class="cls-5" d="M445.21,475.53a3.61,3.61,0,0,1-2.65-1,3.54,3.54,0,0,1-1-2.66v-.19a4.41,4.41,0,0,1,.43-2,3.1,3.1,0,0,1,1.22-1.36,3.45,3.45,0,0,1,1.8-.47,3.07,3.07,0,0,1,2.39,1,3.89,3.89,0,0,1,.87,2.71v.81h-4.71a1.82,1.82,0,0,0,.58,1.16,1.74,1.74,0,0,0,1.22.44,2.13,2.13,0,0,0,1.78-.83l1,1.09a3,3,0,0,1-1.2,1A4,4,0,0,1,445.21,475.53Zm-.23-6.08a1.24,1.24,0,0,0-1,.4,2.06,2.06,0,0,0-.47,1.14h2.75v-.16a1.47,1.47,0,0,0-.36-1A1.28,1.28,0,0,0,445,469.45Z"/><path class="cls-5" d="M452.45,473.94a1.27,1.27,0,0,0,.88-.3,1.06,1.06,0,0,0,.36-.8h1.85a2.45,2.45,0,0,1-.41,1.37,2.59,2.59,0,0,1-1.1,1,3.33,3.33,0,0,1-1.55.35,3.21,3.21,0,0,1-2.5-1,4,4,0,0,1-.92-2.78v-.13a4,4,0,0,1,.91-2.73,3.18,3.18,0,0,1,2.5-1,3.09,3.09,0,0,1,2.22.79,2.77,2.77,0,0,1,.85,2.1h-1.85a1.35,1.35,0,0,0-.36-.94,1.16,1.16,0,0,0-.9-.36,1.18,1.18,0,0,0-1,.51,2.94,2.94,0,0,0-.35,1.63v.2a2.91,2.91,0,0,0,.35,1.65A1.2,1.2,0,0,0,452.45,473.94Z"/><path class="cls-5" d="M463.1,475.39h-2v-5.8h-2.47v5.8h-2V468h6.43Z"/><path class="cls-5" d="M471.05,468v7.39h-2v-5.8h-1.74l-.12,2.29a5.27,5.27,0,0,1-.72,2.66,2.12,2.12,0,0,1-1.79.85H464l0-1.6.24,0a.9.9,0,0,0,.78-.63,6.24,6.24,0,0,0,.31-2l.14-3.13Z"/><path class="cls-5" d="M476.86,475.39a2.14,2.14,0,0,1-.2-.66,2.4,2.4,0,0,1-1.87.8,2.63,2.63,0,0,1-1.8-.63,2,2,0,0,1-.71-1.58,2.09,2.09,0,0,1,.87-1.81,4.26,4.26,0,0,1,2.52-.63h.91v-.43a1.21,1.21,0,0,0-.27-.82,1,1,0,0,0-.83-.31,1.17,1.17,0,0,0-.78.24.81.81,0,0,0-.28.66h-2a1.94,1.94,0,0,1,.4-1.19,2.59,2.59,0,0,1,1.12-.86,4,4,0,0,1,1.63-.31,3.23,3.23,0,0,1,2.17.69,2.4,2.4,0,0,1,.8,1.93v3.2a3.51,3.51,0,0,0,.29,1.6v.11ZM475.22,474a1.7,1.7,0,0,0,.81-.2,1.26,1.26,0,0,0,.55-.52V472h-.74c-1,0-1.52.34-1.58,1v.11a.8.8,0,0,0,.26.61A1,1,0,0,0,475.22,474Z"/><path class="cls-5" d="M486.11,469.59h-2.38v5.8h-2v-5.8h-2.33V468h6.69Z"/><path class="cls-5" d="M493.51,475.39h-2v-2.83h-2.46v2.83h-2V468h2v3h2.46v-3h2Z"/><path class="cls-5" d="M497.15,470.16h1.42a4,4,0,0,1,1.68.33,2.4,2.4,0,0,1,1.5,2.31,2.31,2.31,0,0,1-.87,1.88,3.55,3.55,0,0,1-2.35.71h-3.36V468h2Zm0,1.6v2.05h1.4a1.35,1.35,0,0,0,.91-.27.92.92,0,0,0,.31-.74,1,1,0,0,0-.31-.76,1.27,1.27,0,0,0-.91-.28Zm7.74,3.63h-2V468h2Z"/><path class="cls-5" d="M511.08,468h2v7.39h-2v-4.56l-2.47,4.56h-2V468h2v4.56Zm1.17-3a1.84,1.84,0,0,1-.66,1.47,2.89,2.89,0,0,1-3.42,0,1.79,1.79,0,0,1-.65-1.47h1.4a.87.87,0,0,0,.25.67,1,1,0,0,0,.71.24,1,1,0,0,0,.7-.24.87.87,0,0,0,.25-.67Z"/><path class="cls-5" d="M518.19,475.39V468h3.09a4.14,4.14,0,0,1,2.31.53,1.73,1.73,0,0,1,.81,1.53,1.38,1.38,0,0,1-.34.92,2.14,2.14,0,0,1-1,.63,2.33,2.33,0,0,1,1.24.59,1.41,1.41,0,0,1,.46,1.08,1.79,1.79,0,0,1-.78,1.57,3.94,3.94,0,0,1-2.25.54Zm2-4.39h1.23c.69,0,1-.23,1-.67a.61.61,0,0,0-.29-.57,1.74,1.74,0,0,0-.86-.17h-1.12Zm0,1.32v1.49h1.6c.69,0,1-.24,1-.73s-.33-.75-1-.76Z"/><path class="cls-5" d="M525.67,471.63a4.25,4.25,0,0,1,.43-2,3.11,3.11,0,0,1,1.22-1.34,3.58,3.58,0,0,1,1.85-.47,3.38,3.38,0,0,1,2.44.92,3.71,3.71,0,0,1,1.06,2.48v.51a3.86,3.86,0,0,1-.95,2.73,3.67,3.67,0,0,1-5.1,0,3.9,3.9,0,0,1-1-2.78Zm2,.14a2.79,2.79,0,0,0,.39,1.61,1.43,1.43,0,0,0,2.26,0,3,3,0,0,0,.4-1.77,2.72,2.72,0,0,0-.4-1.6,1.41,1.41,0,0,0-2.26,0A3.1,3.1,0,0,0,527.65,471.77Z"/><path class="cls-5" d="M540.55,471.76a4.41,4.41,0,0,1-.77,2.74,2.49,2.49,0,0,1-2.1,1,2.31,2.31,0,0,1-1.81-.78v3.49h-2V468h1.83l.07.72a2.33,2.33,0,0,1,1.87-.86,2.53,2.53,0,0,1,2.13,1,4.62,4.62,0,0,1,.75,2.79Zm-2-.14a2.83,2.83,0,0,0-.37-1.59,1.16,1.16,0,0,0-1.06-.56,1.28,1.28,0,0,0-1.28.71v3a1.32,1.32,0,0,0,1.29.73C538.11,473.94,538.58,473.17,538.58,471.62Z"/><path class="cls-5" d="M544.68,472.67h-.8v2.72h-2V468h2v2.78h.71L546.2,468h2.5l-2.42,3.52,2.64,3.87h-2.63Z"/><path class="cls-5" d="M551.64,468v5.8h2V468h2v5.8h2V468h2v7.39h-10V468Z"/><path class="cls-5" d="M560.94,471.63a4.38,4.38,0,0,1,.42-2,3.17,3.17,0,0,1,1.22-1.34,3.61,3.61,0,0,1,1.85-.47,3.38,3.38,0,0,1,2.45.92,3.66,3.66,0,0,1,1,2.48l0,.51a3.86,3.86,0,0,1-1,2.73,3.68,3.68,0,0,1-5.11,0,3.94,3.94,0,0,1-.95-2.78Zm2,.14a2.79,2.79,0,0,0,.39,1.61,1.32,1.32,0,0,0,1.14.56,1.34,1.34,0,0,0,1.12-.55,3,3,0,0,0,.4-1.77,2.72,2.72,0,0,0-.4-1.6,1.32,1.32,0,0,0-1.14-.57,1.29,1.29,0,0,0-1.12.57A3.1,3.1,0,0,0,562.92,471.77Z"/><path class="cls-5" d="M575.6,475.39h-2v-5.8h-2.47v5.8h-2V468h6.44Z"/><path class="cls-3" d="M335.17,768a2.13,2.13,0,0,0-.53-1.5,1.82,1.82,0,0,0-1.41-.56,1.66,1.66,0,0,0-1.28.54,2.09,2.09,0,0,0-.5,1.45H328a4.63,4.63,0,0,1,2.58-4.24,6.51,6.51,0,0,1,6.62.66,4.55,4.55,0,0,1,1.42,3.58A4.08,4.08,0,0,1,338,770a4.34,4.34,0,0,1-1.62,1.53,3.79,3.79,0,0,1,1.8,1.49,5.18,5.18,0,0,1-.9,6.15,5.94,5.94,0,0,1-4.08,1.35,6.34,6.34,0,0,1-2.79-.6,4.58,4.58,0,0,1-1.95-1.71,4.94,4.94,0,0,1-.7-2.65h3.46a2.15,2.15,0,0,0,.55,1.5,1.85,1.85,0,0,0,1.43.62,2.06,2.06,0,0,0,1.57-.62,2.25,2.25,0,0,0,.59-1.61,2.81,2.81,0,0,0-.51-1.89,1.81,1.81,0,0,0-1.46-.58h-1.75v-2.78h1.76C334.59,770.24,335.17,769.48,335.17,768Z"/><path class="cls-3" d="M349.47,776.84h-4.7l-.91,3.49h-3.64l5.33-17.06h3.15l5.37,17.06h-3.68Zm-4-2.87h3.19l-1.59-6.08Z"/><path class="cls-3" d="M369.55,784.53h-3.17v-4.2h-8.07v4.19h-3.26l-.19-7H356a4.63,4.63,0,0,0,1.18-2.22,20.15,20.15,0,0,0,.61-4l.48-8h9.81v14.2h1.77Zm-9.85-7.06h4.95V766.14h-3.09l-.29,4.7A16.55,16.55,0,0,1,359.7,777.47Z"/><path class="cls-3" d="M380.43,773h-5.36v4.52h6.35v2.86h-9.8V763.27h9.78v2.87h-6.33v4h5.36Z"/><path class="cls-3" d="M386.84,774.33v6H383.4V763.27h5.81a5.32,5.32,0,0,1,4,1.57,5.67,5.67,0,0,1,1.5,4.08,5.29,5.29,0,0,1-1.48,4,5.67,5.67,0,0,1-4.13,1.45Zm0-2.87h2.37a1.88,1.88,0,0,0,1.53-.64,2.92,2.92,0,0,0,.53-1.88,3.35,3.35,0,0,0-.55-2,1.77,1.77,0,0,0-1.47-.77h-2.41Z"/><path class="cls-3" d="M409.2,773.41h-1.62v6.92h-3.45v-6.92h-1.69l-2.68,6.92h-4.29l4.3-9.35-4.11-7.71H400l2.77,6.86h1.41v-6.86h3.45v6.86h1.35l2.69-6.86h4.28l-4,7.68,4.2,9.38h-4.29Z"/><path class="cls-3" d="M425.8,776.84h-4.7l-.92,3.49h-3.64l5.33-17.06H425l5.37,17.06h-3.68ZM421.85,774H425l-1.6-6.08Z"/><path class="cls-3" d="M444.15,763.27v17.06h-3.46V766.14h-3.16l-.24,6.05a19.77,19.77,0,0,1-.67,4.74,5,5,0,0,1-1.56,2.57,4.26,4.26,0,0,1-2.76.83h-.84v-2.86l.4,0a1.91,1.91,0,0,0,1.55-1.41,16.52,16.52,0,0,0,.59-4.54l.22-8.22Z"/><path class="cls-3" d="M455.28,763.27h3.45v17.06h-3.45V769l-5,11.29H446.8V763.27h3.45v11.31Z"/><path class="cls-3" d="M479,780.33h-3.44V773h-5.08v7.3H467V763.27h3.45v6.9h5.08v-6.9H479Z"/><path class="cls-3" d="M490.09,776.84h-4.7l-.92,3.49h-3.64l5.33-17.06h3.15l5.37,17.06H491ZM486.14,774h3.19l-1.6-6.08Z"/><path class="cls-3" d="M505.25,774.33v6h-3.44V763.27h5.81a5.33,5.33,0,0,1,4,1.57,5.67,5.67,0,0,1,1.5,4.08,5.25,5.25,0,0,1-1.49,4,5.63,5.63,0,0,1-4.12,1.45Zm0-2.87h2.37a1.87,1.87,0,0,0,1.52-.64,2.87,2.87,0,0,0,.54-1.88,3.35,3.35,0,0,0-.55-2,1.79,1.79,0,0,0-1.48-.77h-2.4Z"/><path class="cls-3" d="M521.52,776.84h-4.7l-.92,3.49h-3.64l5.33-17.06h3.15l5.37,17.06h-3.68ZM517.57,774h3.18l-1.59-6.08Z"/><path class="cls-3" d="M537.27,766.14h-6.12v3.26h2a5.69,5.69,0,0,1,4.12,1.47,5.17,5.17,0,0,1,1.54,3.93,5.39,5.39,0,0,1-1.5,4,5.5,5.5,0,0,1-4,1.56h-5.69V763.27h9.58Zm-6.12,6.12v5.21h2.09a1.88,1.88,0,0,0,1.58-.75,3.09,3.09,0,0,0,.58-1.94,2.76,2.76,0,0,0-.57-1.81,1.92,1.92,0,0,0-1.57-.71Z"/><path class="cls-3" d="M552.82,773.34a7.92,7.92,0,0,1-1.63,5.33,5.59,5.59,0,0,1-4.5,1.9,5.67,5.67,0,0,1-4.51-1.88,7.85,7.85,0,0,1-1.67-5.27V770.5a8.44,8.44,0,0,1,1.63-5.49,6.17,6.17,0,0,1,9,0,8.24,8.24,0,0,1,1.67,5.44Zm-3.46-2.86a7,7,0,0,0-.66-3.44,2.17,2.17,0,0,0-2-1.12,2.21,2.21,0,0,0-2,1.08,6.61,6.61,0,0,0-.68,3.3v3a6.31,6.31,0,0,0,.67,3.3,2.27,2.27,0,0,0,2.06,1.06,2.21,2.21,0,0,0,2-1,6.21,6.21,0,0,0,.67-3.22Z"/><path class="cls-3" d="M565.34,766.14h-4.21v14.19h-3.46V766.14h-4.15v-2.87h11.82Z"/><path class="cls-3" d="M576.14,773h-5.37v4.52h6.35v2.86h-9.79V763.27h9.77v2.87h-6.33v4h5.37Z"/><circle class="cls-6" cx="54.6" cy="39.4" r="20.07"/><path class="cls-4" d="M449.54,485.22a9.57,9.57,0,0,0-9,12.85,5.53,5.53,0,0,1,4.08-1.73c4.66,0,4.66,4.57,9.32,4.57a5.57,5.57,0,0,0,4.13-1.78,9.41,9.41,0,0,0,1-4.33A9.57,9.57,0,0,0,449.54,485.22Z"/><path class="cls-7" d="M449.54,504.37a9.57,9.57,0,0,0,8.53-5.24,5.57,5.57,0,0,1-4.13,1.78c-4.66,0-4.66-4.57-9.32-4.57a5.53,5.53,0,0,0-4.08,1.73A9.59,9.59,0,0,0,449.54,504.37Z"/><path class="cls-8" d="M440.54,498.07a5.53,5.53,0,0,1,4.08-1.73c4.66,0,4.66,4.57,9.32,4.57a5.57,5.57,0,0,0,4.13-1.78,9.41,9.41,0,0,0,1-4.33,9.61,9.61,0,0,0-1.59-5.3,4.41,4.41,0,0,0-3.87-1.92c-5.14,0-5,4.59-9.45,4.59a6.2,6.2,0,0,1-3.4-1.28h0a9.55,9.55,0,0,0-.25,7.17Z"/><path class="cls-4" d="M436.09,516.57a3.47,3.47,0,0,1-1.24-.22,2.48,2.48,0,0,1-.94-.65,2.93,2.93,0,0,1-.6-1.07,4.87,4.87,0,0,1-.21-1.51,5,5,0,0,1,.21-1.51,3.11,3.11,0,0,1,.6-1.11,2.45,2.45,0,0,1,.94-.68,3.08,3.08,0,0,1,1.24-.24,2.85,2.85,0,0,1,1.55.39,2.58,2.58,0,0,1,1,1.2l-1.27.66a1.46,1.46,0,0,0-.42-.68,1.15,1.15,0,0,0-.83-.26,1.36,1.36,0,0,0-1,.42,1.74,1.74,0,0,0-.39,1.22v1.09a1.74,1.74,0,0,0,.39,1.22,1.36,1.36,0,0,0,1,.42A1.24,1.24,0,0,0,437,515a1.76,1.76,0,0,0,.48-.72l1.2.7a3,3,0,0,1-1,1.2A2.7,2.7,0,0,1,436.09,516.57Z"/><path class="cls-4" d="M442.68,516h-.39a2.94,2.94,0,0,1-1.17-.22,2.79,2.79,0,0,1-.92-.61,2.85,2.85,0,0,1-.59-.92,3.36,3.36,0,0,1,0-2.31,3,3,0,0,1,.59-.93,2.67,2.67,0,0,1,.91-.62,3,3,0,0,1,1.19-.23h.39v-.87h1.49v.87h.4a3,3,0,0,1,1.19.23,2.77,2.77,0,0,1,.91.62,2.8,2.8,0,0,1,.58.93,3.28,3.28,0,0,1,0,2.31,2.71,2.71,0,0,1-.6.92,2.75,2.75,0,0,1-.91.61,2.94,2.94,0,0,1-1.17.22h-.4v.88h-1.49Zm0-1.2v-3.43h-.42a1.65,1.65,0,0,0-.63.11,1.38,1.38,0,0,0-.43.3,1.22,1.22,0,0,0-.24.45,1.64,1.64,0,0,0-.09.56v.59a1.48,1.48,0,0,0,.35,1,1.28,1.28,0,0,0,1,.41Zm1.86,0a1.3,1.3,0,0,0,1-.41,1.47,1.47,0,0,0,.34-1v-.59a1.94,1.94,0,0,0-.08-.56,1.24,1.24,0,0,0-.25-.45,1.27,1.27,0,0,0-.43-.3,1.64,1.64,0,0,0-.62-.11h-.43v3.43Z"/><path class="cls-4" d="M448.79,516.45V509.7h4.59V511h-3.12v1.37h2.67v1.3h-2.67v1.46h3.12v1.31Z"/><path class="cls-4" d="M454.9,516.45V509.7h3.19a2.08,2.08,0,0,1,.85.16,1.83,1.83,0,0,1,.64.44,1.8,1.8,0,0,1,.41.68,2.66,2.66,0,0,1,0,1.76,1.76,1.76,0,0,1-.41.67,1.7,1.7,0,0,1-.64.44,2.08,2.08,0,0,1-.85.16h-1.72v2.44Zm1.47-3.71h1.55a.75.75,0,0,0,.51-.17.63.63,0,0,0,.19-.5v-.43a.6.6,0,0,0-.19-.49.7.7,0,0,0-.51-.17h-1.55Z"/><path class="cls-4" d="M464.94,516.45l-.49-1.61H462.2l-.49,1.61h-1.48l2.22-6.75h1.82l2.19,6.75Zm-1.6-5.42h0l-.74,2.57h1.54Z"/></g><g id="Layer_2" data-name="Layer 2"><rect class="cls-9" x="250.75" y="428.58" width="57.13" height="5.71" transform="matrix(0.86, -0.51, 0.51, 0.86, -179.8, 200.42)"/><rect class="cls-9" x="295.81" y="411.14" width="85.2" height="5.71" transform="translate(-58.23 55.41) rotate(-8.62)"/><rect class="cls-4" x="292.92" y="302.75" width="9.42" height="3.96" rx="1.72" transform="translate(-9.13 600.27) rotate(-89.61)"/><path class="cls-4" d="M410.37,422.7a1.45,1.45,0,0,1-1.48-1.62v-.83a1.34,1.34,0,0,1,1.45-1.51l6,0c.95,0,2,.53,2,1.48V421a1.91,1.91,0,0,1-2,1.65Z"/><rect class="cls-4" x="295.64" y="531.96" width="3.96" height="9.42" rx="1.72" transform="translate(-0.91 0.5) rotate(-0.1)"/><rect class="cls-4" x="176.95" y="418.72" width="9.42" height="3.96" rx="1.72"/><path class="cls-4" d="M199.42,362.2a1.54,1.54,0,0,0-2.11.56h0a1.54,1.54,0,0,0,.55,2.12l4,2.34a1.55,1.55,0,0,0,2.12-.56h0a1.55,1.55,0,0,0-.56-2.12Z"/><path class="cls-4" d="M241.8,320.92a1.55,1.55,0,0,0-2.11-.55h0a1.55,1.55,0,0,0-.56,2.12l2.35,4a1.55,1.55,0,0,0,2.12.56h0a1.56,1.56,0,0,0,.55-2.12Z"/><path class="cls-4" d="M356.13,322.48a1.53,1.53,0,0,0-.58-2.11h0a1.53,1.53,0,0,0-2.11.58l-2.3,4a1.55,1.55,0,0,0,.58,2.11h0a1.55,1.55,0,0,0,2.11-.58Z"/><path class="cls-4" d="M397.41,365a1.56,1.56,0,0,0,.61-2.11h0a1.55,1.55,0,0,0-2.1-.61l-4.08,2.23a1.55,1.55,0,0,0-.61,2.11h0a1.55,1.55,0,0,0,2.1.61Z"/><path class="cls-4" d="M395.84,479.2a1.55,1.55,0,0,0,2.12-.57h0a1.54,1.54,0,0,0-.56-2.11l-4-2.34a1.55,1.55,0,0,0-2.12.57h0a1.55,1.55,0,0,0,.56,2.12Z"/><path class="cls-4" d="M353.42,520.47a1.55,1.55,0,0,0,2.12.56h0a1.55,1.55,0,0,0,.56-2.12l-2.34-4a1.54,1.54,0,0,0-2.11-.56h0a1.55,1.55,0,0,0-.57,2.12Z"/><path class="cls-4" d="M239.18,518.88a1.55,1.55,0,0,0,.55,2.12h0a1.55,1.55,0,0,0,2.12-.55l2.36-4a1.54,1.54,0,0,0-.55-2.12h0a1.54,1.54,0,0,0-2.12.55Z"/><path class="cls-4" d="M197.85,476.51a1.55,1.55,0,0,0-.56,2.12h0a1.55,1.55,0,0,0,2.11.57l4-2.33a1.54,1.54,0,0,0,.57-2.11h0a1.54,1.54,0,0,0-2.11-.57Z"/><rect class="cls-10" x="257.7" y="323.08" width="3.59" height="136.97" transform="translate(-209.11 358.82) rotate(-52.47)"/><path class="cls-9" d="M297.56,432a11.08,11.08,0,1,1,11.15-11A11.09,11.09,0,0,1,297.56,432Z"/><path class="cls-11" d="M206.22,472.06s-32-15.07-33.15-33c0,0,2.56-2.65,4.8-1.63s3.63,2.52,3.24,3.15-.31,4.11,3.32,6.63S198.9,458,199.84,457.52s8.2,3.07,8.2,3.07L211,470.92Z"/><path class="cls-12" d="M251.67,492.15s-1,8.53,5,13.61,6.88,6,13.54,2.29a17.31,17.31,0,0,0,8.16-10.19s-6.4,12.07-1.62,16.91,6.7-1.33,6.29-1.89-2.17-15.8.74-19.4-4.84-3.28-5.19-2.88-12.8,5-12.8,5Z"/><path class="cls-4" d="M279.11,484.92s-.24-11.1-15-12.81-20.33,2.29-20.93,2.57-14.43,2.34-17.9-5.34c-2-4.5-1.51-6.55-.73-7.47a4.54,4.54,0,0,0,1-3.64,14.65,14.65,0,0,0-2.16-6.16c-2.33-3.23-10.2-5.62-12.18-4.24a13.81,13.81,0,0,1-2.23,1.25,4.62,4.62,0,0,1-4.07-.13c-1.44-.77-3.52-1.48-4.95-.32-2.07,1.67-.35,8.16.17,9.94a4.19,4.19,0,0,0,.34.85l5,9.49a4.64,4.64,0,0,1-.38,5,11,11,0,0,1-3.52,3c-4,2.14-14.26-.1-16.72-5.63s-5.41-3.39-5.41-3.39-2.56.8.36,5.43,15,14.55,22.89,14.82a22.65,22.65,0,0,0,7.38-.72,4.69,4.69,0,0,1,4.38.78c2.85,2.33,8.29,6,14.86,6.51,9.76.8,24.67.71,25.35,2.15s-3.87-13,1.83-17.06,19.91-1.23,21.77,3A8.22,8.22,0,0,1,279.11,484.92Z"/><path class="cls-3" d="M216,456.19c-1.19.91-2,1.85-2.92.66s.24-1.68,1.43-2.6,2-1.91,2.88-.72S217.23,455.27,216,456.19Z"/><path class="cls-4" d="M277,482.44s92.31,1.84,85.88,63.69c0,0-9.18,20.42-23.44,3.57s-22.24-42.19-56.62-60.43c0,0-4.82-2.77-6.59-1.61S277,482.44,277,482.44Z"/><path class="cls-13" d="M276.24,480.35a7,7,0,0,1,2.69,5.36c.11,3.08-2.05,8.69-5.18,12.07-5,5.43-15.88,3.75-18.68-.45s-4.49-13.56,1.19-17.82C259.54,477.05,268.94,474.76,276.24,480.35Z"/><path class="cls-4" d="M223.89,460.8s6.73.7,7.72-.31c1.71-1.74-2.51-4.5-3.57-4.72a38.44,38.44,0,0,0-4.12-.26Z"/></g></svg>