<svg width="33" height="32" viewBox="0 0 33 32" fill="none" xmlns="http://www.w3.org/2000/svg">
<ellipse cx="16.3344" cy="16" rx="16.2954" ry="16" fill="white"/>
<path fill-rule="evenodd" clip-rule="evenodd" d="M16.7912 8.92864L23.1552 15.2926C23.5457 15.6831 23.5457 16.3163 23.1552 16.7068L16.7912 23.0708C16.4007 23.4613 15.7676 23.4613 15.377 23.0708C14.9865 22.6802 14.9865 22.0471 15.377 21.6566L20.0339 16.9997L10.2266 16.9997C9.67428 16.9997 9.22656 16.552 9.22656 15.9997C9.22656 15.4474 9.67428 14.9997 10.2266 14.9997L20.0339 14.9997L15.377 10.3428C14.9865 9.95232 14.9865 9.31916 15.377 8.92864C15.7676 8.53811 16.4007 8.53811 16.7912 8.92864Z" fill="black"/>
</svg>
