<svg width="534" height="88" viewBox="0 0 534 88" fill="none" xmlns="http://www.w3.org/2000/svg">
<path d="M139.105 61.6721C136.454 61.6721 134.065 61.2614 131.937 60.4401C129.809 59.5814 127.998 58.3307 126.505 56.6881C125.011 55.0081 123.854 52.9361 123.033 50.4721C122.211 47.9707 121.801 45.0587 121.801 41.7361C121.801 38.4507 122.211 35.5387 123.033 33.0001C123.854 30.4241 125.011 28.2774 126.505 26.5601C127.998 24.8054 129.809 23.4801 131.937 22.5841C134.065 21.6881 136.454 21.2401 139.105 21.2401C142.726 21.2401 145.713 21.9867 148.065 23.4801C150.417 24.9361 152.302 27.2507 153.721 30.4241L146.385 34.2321C145.862 32.5894 145.041 31.2827 143.921 30.3121C142.838 29.3041 141.233 28.8001 139.105 28.8001C136.603 28.8001 134.587 29.6214 133.057 31.2641C131.563 32.8694 130.817 35.2214 130.817 38.3201V44.5921C130.817 47.6907 131.563 50.0614 133.057 51.7041C134.587 53.3094 136.603 54.1121 139.105 54.1121C141.195 54.1121 142.857 53.5521 144.089 52.4321C145.358 51.2747 146.291 49.8934 146.889 48.2881L153.833 52.3201C152.377 55.3067 150.454 57.6214 148.065 59.2641C145.713 60.8694 142.726 61.6721 139.105 61.6721Z" fill="white"/>
<path d="M177.61 58.4241H175.314C172.85 58.4241 170.592 57.9947 168.538 57.1361C166.485 56.2774 164.712 55.1014 163.218 53.6081C161.762 52.0774 160.624 50.2854 159.802 48.2321C158.981 46.1787 158.57 43.9574 158.57 41.5681C158.57 39.1787 158.962 36.9574 159.746 34.9041C160.568 32.8507 161.706 31.0587 163.162 29.5281C164.618 27.9974 166.373 26.8027 168.426 25.9441C170.48 25.0481 172.776 24.6001 175.314 24.6001H177.61V19.5601H186.234V24.6001H188.53C191.069 24.6001 193.365 25.0481 195.418 25.9441C197.472 26.8027 199.226 27.9974 200.682 29.5281C202.138 31.0587 203.258 32.8507 204.042 34.9041C204.864 36.9574 205.274 39.1787 205.274 41.5681C205.274 43.9574 204.864 46.1787 204.042 48.2321C203.221 50.2854 202.064 52.0774 200.57 53.6081C199.114 55.1014 197.36 56.2774 195.306 57.1361C193.253 57.9947 190.994 58.4241 188.53 58.4241H186.234V63.4641H177.61V58.4241ZM177.778 51.4241V31.6001H175.314C173.896 31.6001 172.682 31.8241 171.674 32.2721C170.666 32.6827 169.845 33.2614 169.21 34.0081C168.576 34.7174 168.09 35.5761 167.754 36.5841C167.456 37.5547 167.306 38.6187 167.306 39.7761V43.2481C167.306 45.6001 167.96 47.5601 169.266 49.1281C170.61 50.6587 172.626 51.4241 175.314 51.4241H177.778ZM188.53 51.4241C191.218 51.4241 193.216 50.6587 194.522 49.1281C195.866 47.5601 196.538 45.6001 196.538 43.2481V39.7761C196.538 38.6187 196.37 37.5547 196.034 36.5841C195.736 35.5761 195.269 34.7174 194.634 34.0081C194 33.2614 193.16 32.6827 192.114 32.2721C191.106 31.8241 189.912 31.6001 188.53 31.6001H186.066V51.4241H188.53Z" fill="white"/>
<path d="M213.243 61.0001V21.9121H239.843V29.4721H221.755V37.4801H237.267V44.9841H221.755V53.4401H239.843V61.0001H213.243Z" fill="white"/>
<path d="M248.939 61.0001V21.9121H267.419C269.248 21.9121 270.891 22.2294 272.347 22.8641C273.803 23.4614 275.035 24.3014 276.043 25.3841C277.088 26.4667 277.891 27.7921 278.451 29.3601C279.011 30.8907 279.291 32.5707 279.291 34.4001C279.291 36.2667 279.011 37.9654 278.451 39.4961C277.891 41.0267 277.088 42.3334 276.043 43.4161C275.035 44.4987 273.803 45.3574 272.347 45.9921C270.891 46.5894 269.248 46.8881 267.419 46.8881H257.451V61.0001H248.939ZM257.451 39.4961H266.411C267.68 39.4961 268.669 39.1787 269.379 38.5441C270.125 37.8721 270.499 36.9014 270.499 35.6321V33.1681C270.499 31.8987 270.125 30.9467 269.379 30.3121C268.669 29.6401 267.68 29.3041 266.411 29.3041H257.451V39.4961Z" fill="white"/>
<path d="M307.347 61.0001L304.547 51.7041H291.499L288.699 61.0001H280.075L292.955 21.9121H303.483L316.195 61.0001H307.347ZM298.107 29.6401H297.827L293.515 44.4801H302.475L298.107 29.6401Z" fill="white"/>
<path d="M381.743 34.2881C380.799 34.2881 379.959 34.1361 379.223 33.8321C378.487 33.5121 377.871 33.0721 377.375 32.5121C376.879 31.9361 376.503 31.2401 376.247 30.4241C375.991 29.6081 375.863 28.6961 375.863 27.6881C375.863 26.6801 375.991 25.7761 376.247 24.9761C376.503 24.1601 376.879 23.4641 377.375 22.8881C377.871 22.3121 378.487 21.8721 379.223 21.5681C379.959 21.2641 380.799 21.1121 381.743 21.1121C383.023 21.1121 384.087 21.4001 384.935 21.9761C385.799 22.5521 386.415 23.3601 386.783 24.4001L383.903 25.6481C383.791 25.1681 383.559 24.7601 383.207 24.4241C382.855 24.0881 382.367 23.9201 381.743 23.9201C381.023 23.9201 380.479 24.1601 380.111 24.6401C379.743 25.1041 379.559 25.7361 379.559 26.5361V28.8881C379.559 29.6881 379.743 30.3201 380.111 30.7841C380.479 31.2481 381.023 31.4801 381.743 31.4801C382.383 31.4801 382.887 31.3121 383.255 30.9761C383.639 30.6241 383.919 30.1681 384.095 29.6081L386.855 30.8081C386.439 32.0081 385.791 32.8881 384.911 33.4481C384.047 34.0081 382.991 34.2881 381.743 34.2881Z" fill="white"/>
<path d="M392.433 24.1601H388.785V21.4001H399.633V24.1601H395.985V34.0001H392.433V24.1601Z" fill="white"/>
<path d="M410.62 21.4001H413.932L409.084 35.9441C408.764 36.9201 408.308 37.6401 407.716 38.1041C407.14 38.5681 406.308 38.8001 405.22 38.8001H403.012V36.0401H405.388L405.82 34.6481L401.404 21.4001H404.932L406.78 27.2801L407.692 30.9281H407.836L408.772 27.2801L410.62 21.4001Z" fill="white"/>
<path d="M414.454 31.2401H416.11C416.318 30.9361 416.502 30.5921 416.662 30.2081C416.822 29.8241 416.95 29.3841 417.046 28.8881C417.158 28.3761 417.238 27.8001 417.286 27.1601C417.334 26.5201 417.358 25.7921 417.358 24.9761V21.4001H427.486V31.2401H429.646V37.3601H426.43V34.0001H417.67V37.3601H414.454V31.2401ZM423.934 31.2401V24.1601H420.766V25.1681C420.766 26.8961 420.67 28.2321 420.478 29.1761C420.302 30.1041 420.086 30.7921 419.83 31.2401H423.934Z" fill="white"/>
<path d="M432.387 21.4001H435.867V26.4641L435.555 29.3921H435.627L437.091 26.7041L440.595 21.4001H443.763V34.0001H440.283V28.9361L440.595 26.0081H440.523L439.059 28.6961L435.555 34.0001H432.387V21.4001Z" fill="white"/>
<path d="M447.178 31.2401H448.522L449.098 30.1121C449.386 29.5201 449.826 29.2001 450.418 29.1521V29.0321C449.474 28.9041 448.722 28.5601 448.162 28.0001C447.602 27.4401 447.322 26.6401 447.322 25.6001C447.322 24.9441 447.434 24.3601 447.658 23.8481C447.882 23.3201 448.186 22.8801 448.57 22.5281C448.97 22.1601 449.434 21.8801 449.962 21.6881C450.49 21.4961 451.058 21.4001 451.666 21.4001H458.53V34.0001H454.978V29.6081H453.034L451.714 32.2001C451.378 32.8721 450.986 33.3441 450.538 33.6161C450.106 33.8721 449.554 34.0001 448.882 34.0001H447.178V31.2401ZM454.978 27.0881V23.9201H452.434C451.97 23.9201 451.594 24.0481 451.306 24.3041C451.034 24.5441 450.898 24.8961 450.898 25.3601V25.7681C450.898 26.1521 451.034 26.4721 451.306 26.7281C451.594 26.9681 451.97 27.0881 452.434 27.0881H454.978Z" fill="white"/>
<path d="M376.655 46.4001H380.207V48.5121H380.327C380.503 47.8081 380.903 47.2321 381.527 46.7841C382.167 46.3361 382.895 46.1121 383.711 46.1121C385.311 46.1121 386.519 46.6721 387.335 47.7921C388.151 48.9121 388.559 50.5441 388.559 52.6881C388.559 54.8321 388.151 56.4721 387.335 57.6081C386.519 58.7281 385.311 59.2881 383.711 59.2881C383.295 59.2881 382.903 59.2241 382.535 59.0961C382.167 58.9841 381.831 58.8241 381.527 58.6161C381.239 58.3921 380.991 58.1361 380.783 57.8481C380.575 57.5441 380.423 57.2241 380.327 56.8881H380.207V63.8001H376.655V46.4001ZM382.535 56.4081C383.207 56.4081 383.759 56.1761 384.191 55.7121C384.639 55.2321 384.863 54.5921 384.863 53.7921V51.6081C384.863 50.8081 384.639 50.1761 384.191 49.7121C383.759 49.2321 383.207 48.9921 382.535 48.9921C381.863 48.9921 381.303 49.1601 380.855 49.4961C380.423 49.8161 380.207 50.2641 380.207 50.8401V54.5601C380.207 55.1361 380.423 55.5921 380.855 55.9281C381.303 56.2481 381.863 56.4081 382.535 56.4081Z" fill="white"/>
<path d="M397.233 59.2881C396.273 59.2881 395.417 59.1361 394.665 58.8321C393.913 58.5121 393.273 58.0721 392.745 57.5121C392.233 56.9361 391.841 56.2401 391.569 55.4241C391.313 54.6081 391.185 53.6961 391.185 52.6881C391.185 51.6961 391.313 50.8001 391.569 50.0001C391.825 49.1841 392.201 48.4881 392.697 47.9121C393.209 47.3361 393.833 46.8961 394.569 46.5921C395.305 46.2721 396.145 46.1121 397.089 46.1121C398.129 46.1121 399.017 46.2881 399.753 46.6401C400.505 46.9921 401.113 47.4641 401.577 48.0561C402.057 48.6481 402.401 49.3361 402.609 50.1201C402.833 50.8881 402.945 51.6961 402.945 52.5441V53.6001H394.857V53.7921C394.857 54.6241 395.081 55.2881 395.529 55.7841C395.977 56.2641 396.681 56.5041 397.641 56.5041C398.377 56.5041 398.977 56.3601 399.441 56.0721C399.905 55.7681 400.337 55.4081 400.737 54.9921L402.513 57.2001C401.953 57.8561 401.217 58.3681 400.305 58.7361C399.409 59.1041 398.385 59.2881 397.233 59.2881ZM397.161 48.7281C396.441 48.7281 395.873 48.9681 395.457 49.4481C395.057 49.9121 394.857 50.5361 394.857 51.3201V51.5121H399.273V51.2961C399.273 50.5281 399.097 49.9121 398.745 49.4481C398.409 48.9681 397.881 48.7281 397.161 48.7281Z" fill="white"/>
<path d="M406.173 46.4001H414.693V49.1601H409.725V59.0001H406.173V46.4001Z" fill="white"/>
<path d="M422.626 59.2881C421.666 59.2881 420.81 59.1361 420.058 58.8321C419.306 58.5121 418.666 58.0721 418.138 57.5121C417.626 56.9361 417.234 56.2401 416.962 55.4241C416.706 54.6081 416.578 53.6961 416.578 52.6881C416.578 51.6961 416.706 50.8001 416.962 50.0001C417.218 49.1841 417.594 48.4881 418.09 47.9121C418.602 47.3361 419.226 46.8961 419.962 46.5921C420.698 46.2721 421.538 46.1121 422.482 46.1121C423.522 46.1121 424.41 46.2881 425.146 46.6401C425.898 46.9921 426.506 47.4641 426.97 48.0561C427.45 48.6481 427.794 49.3361 428.002 50.1201C428.226 50.8881 428.338 51.6961 428.338 52.5441V53.6001H420.25V53.7921C420.25 54.6241 420.474 55.2881 420.922 55.7841C421.37 56.2641 422.074 56.5041 423.034 56.5041C423.77 56.5041 424.37 56.3601 424.834 56.0721C425.298 55.7681 425.73 55.4081 426.13 54.9921L427.906 57.2001C427.346 57.8561 426.61 58.3681 425.698 58.7361C424.802 59.1041 423.778 59.2881 422.626 59.2881ZM422.554 48.7281C421.834 48.7281 421.266 48.9681 420.85 49.4481C420.45 49.9121 420.25 50.5361 420.25 51.3201V51.5121H424.666V51.2961C424.666 50.5281 424.49 49.9121 424.138 49.4481C423.802 48.9681 423.274 48.7281 422.554 48.7281Z" fill="white"/>
<path d="M431.567 46.4001H435.119V51.2241H439.391V46.4001H442.943V59.0001H439.391V53.9841H435.119V59.0001H431.567V46.4001Z" fill="white"/>
<path d="M452.238 59.2881C451.278 59.2881 450.422 59.1361 449.67 58.8321C448.918 58.5121 448.278 58.0721 447.75 57.5121C447.238 56.9361 446.846 56.2401 446.574 55.4241C446.318 54.6081 446.19 53.6961 446.19 52.6881C446.19 51.6961 446.318 50.8001 446.574 50.0001C446.83 49.1841 447.206 48.4881 447.702 47.9121C448.214 47.3361 448.838 46.8961 449.574 46.5921C450.31 46.2721 451.15 46.1121 452.094 46.1121C453.134 46.1121 454.022 46.2881 454.758 46.6401C455.51 46.9921 456.118 47.4641 456.582 48.0561C457.062 48.6481 457.406 49.3361 457.614 50.1201C457.838 50.8881 457.95 51.6961 457.95 52.5441V53.6001H449.862V53.7921C449.862 54.6241 450.086 55.2881 450.534 55.7841C450.982 56.2641 451.686 56.5041 452.646 56.5041C453.382 56.5041 453.982 56.3601 454.446 56.0721C454.91 55.7681 455.342 55.4081 455.742 54.9921L457.518 57.2001C456.958 57.8561 456.222 58.3681 455.31 58.7361C454.414 59.1041 453.39 59.2881 452.238 59.2881ZM452.166 48.7281C451.446 48.7281 450.878 48.9681 450.462 49.4481C450.062 49.9121 449.862 50.5361 449.862 51.3201V51.5121H454.278V51.2961C454.278 50.5281 454.102 49.9121 453.75 49.4481C453.414 48.9681 452.886 48.7281 452.166 48.7281Z" fill="white"/>
<path d="M461.178 46.4001H464.73V48.5121H464.85C465.026 47.8081 465.426 47.2321 466.05 46.7841C466.69 46.3361 467.418 46.1121 468.234 46.1121C469.834 46.1121 471.042 46.6721 471.858 47.7921C472.674 48.9121 473.082 50.5441 473.082 52.6881C473.082 54.8321 472.674 56.4721 471.858 57.6081C471.042 58.7281 469.834 59.2881 468.234 59.2881C467.818 59.2881 467.426 59.2241 467.058 59.0961C466.69 58.9841 466.354 58.8241 466.05 58.6161C465.762 58.3921 465.514 58.1361 465.306 57.8481C465.098 57.5441 464.946 57.2241 464.85 56.8881H464.73V63.8001H461.178V46.4001ZM467.058 56.4081C467.73 56.4081 468.282 56.1761 468.714 55.7121C469.162 55.2321 469.386 54.5921 469.386 53.7921V51.6081C469.386 50.8081 469.162 50.1761 468.714 49.7121C468.282 49.2321 467.73 48.9921 467.058 48.9921C466.386 48.9921 465.826 49.1601 465.378 49.4961C464.946 49.8161 464.73 50.2641 464.73 50.8401V54.5601C464.73 55.1361 464.946 55.5921 465.378 55.9281C465.826 56.2481 466.386 56.4081 467.058 56.4081Z" fill="white"/>
<path d="M485.812 59.0001C485.172 59.0001 484.636 58.8001 484.204 58.4001C483.788 58.0001 483.524 57.4641 483.412 56.7921H483.268C483.076 57.6081 482.652 58.2321 481.996 58.6641C481.34 59.0801 480.532 59.2881 479.572 59.2881C478.308 59.2881 477.34 58.9521 476.668 58.2801C475.996 57.6081 475.66 56.7201 475.66 55.6161C475.66 54.2881 476.14 53.3041 477.1 52.6641C478.076 52.0081 479.396 51.6801 481.06 51.6801H483.052V50.8881C483.052 50.2801 482.892 49.8001 482.572 49.4481C482.252 49.0801 481.716 48.8961 480.964 48.8961C480.26 48.8961 479.7 49.0481 479.284 49.3521C478.868 49.6561 478.524 50.0001 478.252 50.3841L476.14 48.5121C476.652 47.7601 477.292 47.1761 478.06 46.7601C478.844 46.3281 479.9 46.1121 481.228 46.1121C483.02 46.1121 484.364 46.5041 485.26 47.2881C486.156 48.0721 486.604 49.2161 486.604 50.7201V56.2401H487.78V59.0001H485.812ZM480.892 56.8161C481.484 56.8161 481.988 56.6881 482.404 56.4321C482.836 56.1761 483.052 55.7601 483.052 55.1841V53.6961H481.324C479.932 53.6961 479.236 54.1681 479.236 55.1121V55.4721C479.236 55.9361 479.38 56.2801 479.668 56.5041C479.956 56.7121 480.364 56.8161 480.892 56.8161Z" fill="white"/>
<path d="M500.844 59.0001H490.884V46.4001H494.436V56.2401H498.348V46.4001H501.9V56.2401H504.06V62.3601H500.844V59.0001Z" fill="white"/>
<path d="M506.792 46.4001H510.272V51.4641L509.96 54.3921H510.032L511.496 51.7041L515 46.4001H518.168V59.0001H514.688V53.9361L515 51.0081H514.928L513.464 53.6961L509.96 59.0001H506.792V46.4001Z" fill="white"/>
<path d="M522.207 46.4001H525.687V51.4641L525.375 54.3921H525.447L526.911 51.7041L530.415 46.4001H533.583V59.0001H530.103V53.9361L530.415 51.0081H530.343L528.879 53.6961L525.375 59.0001H522.207V46.4001Z" fill="white"/>
<path d="M343.128 44.304C341.52 44.304 340.38 43.944 339.708 43.224C339.06 42.504 338.736 41.616 338.736 40.56V39.552C338.736 38.496 339.06 37.608 339.708 36.888C340.38 36.168 341.52 35.808 343.128 35.808C344.736 35.808 345.864 36.168 346.512 36.888C347.184 37.608 347.52 38.496 347.52 39.552V40.56C347.52 41.616 347.184 42.504 346.512 43.224C345.864 43.944 344.736 44.304 343.128 44.304Z" fill="white"/>
<path d="M44.0512 0C19.6694 0 0 19.6694 0 44.0512C0 49.3783 0.922002 54.3981 2.66356 59.1106C7.27357 54.8079 12.4983 51.2223 21.4109 51.2223C42.8219 51.2223 42.8219 72.2235 64.2328 72.2235C73.3504 72.2235 78.5751 68.4331 83.1851 64.0279C86.2584 58.0861 88 51.2223 88 44.0512C88 19.6694 68.3306 0 44.0512 0Z" fill="white"/>
<path d="M44.0508 88C61.1591 88 76.0136 78.1653 83.2872 63.9255C78.6772 68.3306 73.35 72.121 64.3349 72.121C42.9239 72.121 42.9239 51.1199 21.513 51.1199C12.6003 51.1199 7.37564 54.8079 2.76562 59.0081C8.80986 75.9115 24.9961 88 44.0508 88Z" fill="#2356A2"/>
<path d="M2.66356 59.0082C7.27357 54.7055 12.4983 51.1199 21.4109 51.1199C42.8219 51.1199 42.8219 72.1211 64.2328 72.1211C73.3504 72.1211 78.5751 68.3306 83.1851 63.9255C86.2584 57.9837 88 51.1199 88 43.9488C88 34.9337 85.3364 26.5332 80.624 19.567C77.858 15.5716 72.8382 10.7567 62.901 10.7567C39.3388 10.8592 39.9534 31.9628 19.4645 31.9628C12.0885 31.9628 6.76135 27.865 3.79045 26.021C3.79045 26.021 3.79045 26.021 3.79045 26.1234C1.33178 31.553 0 37.5972 0 44.0512C0 49.2759 0.922002 54.3982 2.66356 59.0082Z" fill="#83AEDD"/>
</svg>
