<svg width="30" height="30" viewBox="0 0 30 30" fill="none" xmlns="http://www.w3.org/2000/svg">
<g clip-path="url(#clip0)">
<path d="M15.0175 0C6.70547 0 0 6.70547 0 15.0175C0 16.8335 0.314319 18.5448 0.908033 20.1513C2.47963 18.6845 4.26077 17.4622 7.29919 17.4622C14.5984 17.4622 14.5984 24.6217 21.8976 24.6217C25.0058 24.6217 26.787 23.3295 28.3586 21.8277C29.4063 19.8021 30 17.4622 30 15.0175C30 6.70547 23.2945 0 15.0175 0Z" fill="white"/>
<path d="M15.0159 30C20.8483 30 25.9123 26.6473 28.3919 21.7928C26.8203 23.2945 25.0043 24.5867 21.9309 24.5867C14.6317 24.5867 14.6317 17.4272 7.33256 17.4272C4.29414 17.4272 2.513 18.6845 0.941406 20.1164C3.00194 25.8789 8.51999 30 15.0159 30Z" fill="#2356A2"/>
<path d="M0.908033 20.1163C2.47963 18.6495 4.26077 17.4272 7.29919 17.4272C14.5984 17.4272 14.5984 24.5867 21.8976 24.5867C25.0058 24.5867 26.787 23.2945 28.3586 21.7927C29.4063 19.7671 30 17.4272 30 14.9825C30 11.9091 29.092 9.04534 27.4854 6.67048C26.5425 5.30844 24.8312 3.66699 21.4435 3.66699C13.4109 3.70192 13.6205 10.8963 6.63562 10.8963C4.12107 10.8963 2.30501 9.49935 1.2922 8.87072C1.2922 8.87072 1.2922 8.87072 1.2922 8.90564C0.454016 10.7566 0 12.8172 0 15.0174C0 16.7985 0.314319 18.5448 0.908033 20.1163Z" fill="#83AEDD"/>
</g>
<defs>
<clipPath id="clip0">
<rect width="30" height="30" fill="white"/>
</clipPath>
</defs>
</svg>
