<svg width="133" height="36" viewBox="0 0 133 36" fill="none" xmlns="http://www.w3.org/2000/svg">
<path d="M56.6152 26.2882C55.4792 26.2882 54.4552 26.1122 53.5432 25.7602C52.6312 25.3922 51.8552 24.8562 51.2152 24.1522C50.5752 23.4322 50.0792 22.5442 49.7272 21.4882C49.3752 20.4162 49.1992 19.1682 49.1992 17.7442C49.1992 16.3362 49.3752 15.0882 49.7272 14.0002C50.0792 12.8962 50.5752 11.9762 51.2152 11.2402C51.8552 10.4882 52.6312 9.92023 53.5432 9.53623C54.4552 9.15223 55.4792 8.96023 56.6152 8.96023C58.1672 8.96023 59.4472 9.28023 60.4552 9.92023C61.4632 10.5442 62.2712 11.5362 62.8792 12.8962L59.7352 14.5282C59.5112 13.8242 59.1592 13.2642 58.6792 12.8482C58.2152 12.4162 57.5272 12.2002 56.6152 12.2002C55.5432 12.2002 54.6792 12.5522 54.0232 13.2562C53.3832 13.9442 53.0632 14.9522 53.0632 16.2802V18.9682C53.0632 20.2962 53.3832 21.3122 54.0232 22.0162C54.6792 22.7042 55.5432 23.0482 56.6152 23.0482C57.5112 23.0482 58.2232 22.8082 58.7512 22.3282C59.2952 21.8322 59.6952 21.2402 59.9512 20.5522L62.9272 22.2802C62.3032 23.5602 61.4792 24.5522 60.4552 25.2562C59.4472 25.9442 58.1672 26.2882 56.6152 26.2882Z" fill="black"/>
<path d="M73.1177 24.8962H72.1337C71.0777 24.8962 70.1097 24.7122 69.2297 24.3442C68.3497 23.9762 67.5897 23.4722 66.9497 22.8322C66.3257 22.1762 65.8377 21.4082 65.4857 20.5282C65.1337 19.6482 64.9577 18.6962 64.9577 17.6722C64.9577 16.6482 65.1257 15.6962 65.4617 14.8162C65.8137 13.9362 66.3017 13.1682 66.9257 12.5122C67.5497 11.8562 68.3017 11.3442 69.1817 10.9762C70.0617 10.5922 71.0457 10.4002 72.1337 10.4002H73.1177V8.24023H76.8137V10.4002H77.7977C78.8857 10.4002 79.8697 10.5922 80.7497 10.9762C81.6297 11.3442 82.3817 11.8562 83.0057 12.5122C83.6297 13.1682 84.1097 13.9362 84.4457 14.8162C84.7977 15.6962 84.9737 16.6482 84.9737 17.6722C84.9737 18.6962 84.7977 19.6482 84.4457 20.5282C84.0937 21.4082 83.5977 22.1762 82.9577 22.8322C82.3337 23.4722 81.5817 23.9762 80.7017 24.3442C79.8217 24.7122 78.8537 24.8962 77.7977 24.8962H76.8137V27.0562H73.1177V24.8962ZM73.1897 21.8962V13.4002H72.1337C71.5257 13.4002 71.0057 13.4962 70.5737 13.6882C70.1417 13.8642 69.7897 14.1122 69.5177 14.4322C69.2457 14.7362 69.0377 15.1042 68.8937 15.5362C68.7657 15.9522 68.7017 16.4082 68.7017 16.9042V18.3922C68.7017 19.4002 68.9817 20.2402 69.5417 20.9122C70.1177 21.5682 70.9817 21.8962 72.1337 21.8962H73.1897ZM77.7977 21.8962C78.9497 21.8962 79.8057 21.5682 80.3657 20.9122C80.9417 20.2402 81.2297 19.4002 81.2297 18.3922V16.9042C81.2297 16.4082 81.1577 15.9522 81.0137 15.5362C80.8857 15.1042 80.6857 14.7362 80.4137 14.4322C80.1417 14.1122 79.7817 13.8642 79.3337 13.6882C78.9017 13.4962 78.3897 13.4002 77.7977 13.4002H76.7417V21.8962H77.7977Z" fill="black"/>
<path d="M88.3888 26.0002V9.24823H99.7888V12.4882H92.0368V15.9202H98.6848V19.1362H92.0368V22.7602H99.7888V26.0002H88.3888Z" fill="black"/>
<path d="M103.687 26.0002V9.24823H111.607C112.391 9.24823 113.095 9.38423 113.719 9.65623C114.343 9.91223 114.871 10.2722 115.303 10.7362C115.751 11.2002 116.095 11.7682 116.335 12.4402C116.575 13.0962 116.695 13.8162 116.695 14.6002C116.695 15.4002 116.575 16.1282 116.335 16.7842C116.095 17.4402 115.751 18.0002 115.303 18.4642C114.871 18.9282 114.343 19.2962 113.719 19.5682C113.095 19.8242 112.391 19.9522 111.607 19.9522H107.335V26.0002H103.687ZM107.335 16.7842H111.175C111.719 16.7842 112.143 16.6482 112.447 16.3762C112.767 16.0882 112.927 15.6722 112.927 15.1282V14.0722C112.927 13.5282 112.767 13.1202 112.447 12.8482C112.143 12.5602 111.719 12.4162 111.175 12.4162H107.335V16.7842Z" fill="black"/>
<path d="M128.719 26.0002L127.519 22.0162H121.927L120.727 26.0002H117.031L122.551 9.24823H127.063L132.511 26.0002H128.719ZM124.759 12.5602H124.639L122.791 18.9202H126.631L124.759 12.5602Z" fill="black"/>
<g clip-path="url(#clip0)">
<path d="M18.021 0C8.04657 0 0 8.04657 0 18.021C0 20.2002 0.377183 22.2538 1.08964 24.1816C2.97555 22.4214 5.11292 20.9546 8.75902 20.9546C17.518 20.9546 17.518 29.546 26.2771 29.546C30.007 29.546 32.1444 27.9953 34.0303 26.1932C35.2875 23.7625 36 20.9546 36 18.021C36 8.04657 27.9534 0 18.021 0Z" fill="white"/>
<path d="M18.0222 36.0004C25.0211 36.0004 31.0979 31.9771 34.0734 26.1517C32.1875 27.9538 30.0082 29.5045 26.3202 29.5045C17.5612 29.5045 17.5612 20.9131 8.80219 20.9131C5.15609 20.9131 3.01873 22.4218 1.13281 24.1401C3.60545 31.0551 10.2271 36.0004 18.0222 36.0004Z" fill="#2356A2"/>
<path d="M1.08964 24.1396C2.97555 22.3794 5.11292 20.9126 8.75902 20.9126C17.518 20.9126 17.518 29.504 26.2771 29.504C30.007 29.504 32.1444 27.9534 34.0303 26.1513C35.2875 23.7205 36 20.9126 36 17.979C36 14.291 34.9104 10.8544 32.9825 8.00458C31.851 6.37012 29.7974 4.40039 25.7322 4.40039C16.0931 4.4423 16.3446 13.0756 7.96275 13.0756C4.94529 13.0756 2.76601 11.3992 1.55064 10.6449C1.55064 10.6449 1.55064 10.6449 1.55064 10.6868C0.54482 12.908 0 15.3806 0 18.0209C0 20.1582 0.377183 22.2537 1.08964 24.1396Z" fill="#83AEDD"/>
</g>
<defs>
<clipPath id="clip0">
<rect width="36" height="36" fill="white"/>
</clipPath>
</defs>
</svg>
