<svg width="619" height="88" viewBox="0 0 619 88" fill="none" xmlns="http://www.w3.org/2000/svg">
<path d="M139.105 61.6721C136.454 61.6721 134.065 61.2614 131.937 60.4401C129.809 59.5814 127.998 58.3307 126.505 56.6881C125.011 55.0081 123.854 52.9361 123.033 50.4721C122.211 47.9707 121.801 45.0587 121.801 41.7361C121.801 38.4507 122.211 35.5387 123.033 33.0001C123.854 30.4241 125.011 28.2774 126.505 26.5601C127.998 24.8054 129.809 23.4801 131.937 22.5841C134.065 21.6881 136.454 21.2401 139.105 21.2401C142.726 21.2401 145.713 21.9867 148.065 23.4801C150.417 24.9361 152.302 27.2507 153.721 30.4241L146.385 34.2321C145.862 32.5894 145.041 31.2827 143.921 30.3121C142.838 29.3041 141.233 28.8001 139.105 28.8001C136.603 28.8001 134.587 29.6214 133.057 31.2641C131.563 32.8694 130.817 35.2214 130.817 38.3201V44.5921C130.817 47.6907 131.563 50.0614 133.057 51.7041C134.587 53.3094 136.603 54.1121 139.105 54.1121C141.195 54.1121 142.857 53.5521 144.089 52.4321C145.358 51.2747 146.291 49.8934 146.889 48.2881L153.833 52.3201C152.377 55.3067 150.454 57.6214 148.065 59.2641C145.713 60.8694 142.726 61.6721 139.105 61.6721Z" fill="black"/>
<path d="M177.61 58.4241H175.314C172.85 58.4241 170.592 57.9947 168.538 57.1361C166.485 56.2774 164.712 55.1014 163.218 53.6081C161.762 52.0774 160.624 50.2854 159.802 48.2321C158.981 46.1787 158.57 43.9574 158.57 41.5681C158.57 39.1787 158.962 36.9574 159.746 34.9041C160.568 32.8507 161.706 31.0587 163.162 29.5281C164.618 27.9974 166.373 26.8027 168.426 25.9441C170.48 25.0481 172.776 24.6001 175.314 24.6001H177.61V19.5601H186.234V24.6001H188.53C191.069 24.6001 193.365 25.0481 195.418 25.9441C197.472 26.8027 199.226 27.9974 200.682 29.5281C202.138 31.0587 203.258 32.8507 204.042 34.9041C204.864 36.9574 205.274 39.1787 205.274 41.5681C205.274 43.9574 204.864 46.1787 204.042 48.2321C203.221 50.2854 202.064 52.0774 200.57 53.6081C199.114 55.1014 197.36 56.2774 195.306 57.1361C193.253 57.9947 190.994 58.4241 188.53 58.4241H186.234V63.4641H177.61V58.4241ZM177.778 51.4241V31.6001H175.314C173.896 31.6001 172.682 31.8241 171.674 32.2721C170.666 32.6827 169.845 33.2614 169.21 34.0081C168.576 34.7174 168.09 35.5761 167.754 36.5841C167.456 37.5547 167.306 38.6187 167.306 39.7761V43.2481C167.306 45.6001 167.96 47.5601 169.266 49.1281C170.61 50.6587 172.626 51.4241 175.314 51.4241H177.778ZM188.53 51.4241C191.218 51.4241 193.216 50.6587 194.522 49.1281C195.866 47.5601 196.538 45.6001 196.538 43.2481V39.7761C196.538 38.6187 196.37 37.5547 196.034 36.5841C195.736 35.5761 195.269 34.7174 194.634 34.0081C194 33.2614 193.16 32.6827 192.114 32.2721C191.106 31.8241 189.912 31.6001 188.53 31.6001H186.066V51.4241H188.53Z" fill="black"/>
<path d="M213.243 61.0001V21.9121H239.843V29.4721H221.755V37.4801H237.267V44.9841H221.755V53.4401H239.843V61.0001H213.243Z" fill="black"/>
<path d="M248.939 61.0001V21.9121H267.419C269.248 21.9121 270.891 22.2294 272.347 22.8641C273.803 23.4614 275.035 24.3014 276.043 25.3841C277.088 26.4667 277.891 27.7921 278.451 29.3601C279.011 30.8907 279.291 32.5707 279.291 34.4001C279.291 36.2667 279.011 37.9654 278.451 39.4961C277.891 41.0267 277.088 42.3334 276.043 43.4161C275.035 44.4987 273.803 45.3574 272.347 45.9921C270.891 46.5894 269.248 46.8881 267.419 46.8881H257.451V61.0001H248.939ZM257.451 39.4961H266.411C267.68 39.4961 268.669 39.1787 269.379 38.5441C270.125 37.8721 270.499 36.9014 270.499 35.6321V33.1681C270.499 31.8987 270.125 30.9467 269.379 30.3121C268.669 29.6401 267.68 29.3041 266.411 29.3041H257.451V39.4961Z" fill="black"/>
<path d="M307.347 61.0001L304.547 51.7041H291.499L288.699 61.0001H280.075L292.955 21.9121H303.483L316.195 61.0001H307.347ZM298.107 29.6401H297.827L293.515 44.4801H302.475L298.107 29.6401Z" fill="black"/>
<path d="M376.656 21.4001H380.208V31.2401H383.352V21.4001H386.904V31.2401H390.048V21.4001H393.6V34.0001H376.656V21.4001Z" fill="black"/>
<path d="M397.626 21.4001H401.178V26.2241H403.002L404.658 23.1521C404.994 22.5281 405.37 22.0801 405.786 21.8081C406.218 21.5361 406.77 21.4001 407.442 21.4001H408.906V24.1601H407.634L406.554 26.1761C406.33 26.5921 406.106 26.8881 405.882 27.0641C405.674 27.2401 405.426 27.3681 405.138 27.4481V27.5681C405.41 27.6321 405.658 27.7441 405.882 27.9041C406.122 28.0641 406.338 28.3201 406.53 28.6721L407.946 31.2401H409.242V34.0001H407.586C406.914 34.0001 406.37 33.8641 405.954 33.5921C405.538 33.3201 405.146 32.8561 404.778 32.2001L403.002 28.9841H401.178V34.0001H397.626V21.4001Z" fill="black"/>
<path d="M417.357 34.2881C416.429 34.2881 415.597 34.1361 414.861 33.8321C414.141 33.5281 413.525 33.0881 413.013 32.5121C412.517 31.9361 412.133 31.2401 411.861 30.4241C411.589 29.6081 411.453 28.6961 411.453 27.6881C411.453 26.6801 411.589 25.7681 411.861 24.9521C412.133 24.1361 412.517 23.4481 413.013 22.8881C413.525 22.3121 414.141 21.8721 414.861 21.5681C415.597 21.2641 416.429 21.1121 417.357 21.1121C418.285 21.1121 419.109 21.2641 419.829 21.5681C420.565 21.8721 421.181 22.3121 421.677 22.8881C422.189 23.4481 422.581 24.1361 422.853 24.9521C423.125 25.7681 423.261 26.6801 423.261 27.6881C423.261 28.6961 423.125 29.6081 422.853 30.4241C422.581 31.2401 422.189 31.9361 421.677 32.5121C421.181 33.0881 420.565 33.5281 419.829 33.8321C419.109 34.1361 418.285 34.2881 417.357 34.2881ZM417.357 31.4801C418.061 31.4801 418.605 31.2641 418.989 30.8321C419.373 30.4001 419.565 29.7841 419.565 28.9841V26.4161C419.565 25.6161 419.373 25.0001 418.989 24.5681C418.605 24.1361 418.061 23.9201 417.357 23.9201C416.653 23.9201 416.109 24.1361 415.725 24.5681C415.341 25.0001 415.149 25.6161 415.149 26.4161V28.9841C415.149 29.7841 415.341 30.4001 415.725 30.8321C416.109 31.2641 416.653 31.4801 417.357 31.4801Z" fill="black"/>
<path d="M425.028 31.2401H426.66C426.82 31.0321 426.956 30.7681 427.068 30.4481C427.196 30.1281 427.3 29.7441 427.38 29.2961C427.476 28.8321 427.548 28.2801 427.596 27.6401C427.644 27.0001 427.668 26.2481 427.668 25.3841V21.4001H437.676V34.0001H434.124V24.1601H431.076V25.5761C431.076 26.6641 431.036 27.6241 430.956 28.4561C430.876 29.2721 430.756 29.9841 430.596 30.5921C430.436 31.1841 430.244 31.6881 430.02 32.1041C429.812 32.5041 429.58 32.8321 429.324 33.0881C428.94 33.4721 428.492 33.7441 427.98 33.9041C427.484 34.0641 426.86 34.1441 426.108 34.1441H425.028V31.2401Z" fill="black"/>
<path d="M451.028 34.0001C450.388 34.0001 449.852 33.8001 449.42 33.4001C449.004 33.0001 448.74 32.4641 448.628 31.7921H448.484C448.292 32.6081 447.868 33.2321 447.212 33.6641C446.556 34.0801 445.748 34.2881 444.788 34.2881C443.524 34.2881 442.556 33.9521 441.884 33.2801C441.212 32.6081 440.876 31.7201 440.876 30.6161C440.876 29.2881 441.356 28.3041 442.316 27.6641C443.292 27.0081 444.612 26.6801 446.276 26.6801H448.268V25.8881C448.268 25.2801 448.108 24.8001 447.788 24.4481C447.468 24.0801 446.932 23.8961 446.18 23.8961C445.476 23.8961 444.916 24.0481 444.5 24.3521C444.084 24.6561 443.74 25.0001 443.468 25.3841L441.356 23.5121C441.868 22.7601 442.508 22.1761 443.276 21.7601C444.06 21.3281 445.116 21.1121 446.444 21.1121C448.236 21.1121 449.58 21.5041 450.476 22.2881C451.372 23.0721 451.82 24.2161 451.82 25.7201V31.2401H452.996V34.0001H451.028ZM446.108 31.8161C446.7 31.8161 447.204 31.6881 447.62 31.4321C448.052 31.1761 448.268 30.7601 448.268 30.1841V28.6961H446.54C445.148 28.6961 444.452 29.1681 444.452 30.1121V30.4721C444.452 30.9361 444.596 31.2801 444.884 31.5041C445.172 31.7121 445.58 31.8161 446.108 31.8161Z" fill="black"/>
<path d="M379.128 49.1601H375.48V46.4001H386.328V49.1601H382.68V59.0001H379.128V49.1601Z" fill="black"/>
<path d="M398.384 59.0001C397.744 59.0001 397.208 58.8001 396.776 58.4001C396.36 58.0001 396.096 57.4641 395.984 56.7921H395.84C395.648 57.6081 395.224 58.2321 394.568 58.6641C393.912 59.0801 393.104 59.2881 392.144 59.2881C390.88 59.2881 389.912 58.9521 389.24 58.2801C388.568 57.6081 388.232 56.7201 388.232 55.6161C388.232 54.2881 388.712 53.3041 389.672 52.6641C390.648 52.0081 391.968 51.6801 393.632 51.6801H395.624V50.8881C395.624 50.2801 395.464 49.8001 395.144 49.4481C394.824 49.0801 394.288 48.8961 393.536 48.8961C392.832 48.8961 392.272 49.0481 391.856 49.3521C391.44 49.6561 391.096 50.0001 390.824 50.3841L388.712 48.5121C389.224 47.7601 389.864 47.1761 390.632 46.7601C391.416 46.3281 392.472 46.1121 393.8 46.1121C395.592 46.1121 396.936 46.5041 397.832 47.2881C398.728 48.0721 399.176 49.2161 399.176 50.7201V56.2401H400.352V59.0001H398.384ZM393.464 56.8161C394.056 56.8161 394.56 56.6881 394.976 56.4321C395.408 56.1761 395.624 55.7601 395.624 55.1841V53.6961H393.896C392.504 53.6961 391.808 54.1681 391.808 55.1121V55.4721C391.808 55.9361 391.952 56.2801 392.24 56.5041C392.528 56.7121 392.936 56.8161 393.464 56.8161Z" fill="black"/>
<path d="M403.456 46.4001H406.936V51.4641L406.624 54.3921H406.696L408.16 51.7041L411.664 46.4001H414.832V59.0001H411.352V53.9361L411.664 51.0081H411.592L410.128 53.6961L406.624 59.0001H403.456V46.4001ZM409.168 45.1041C408.112 45.1041 407.256 44.8721 406.6 44.4081C405.944 43.9441 405.432 43.2801 405.064 42.4161L404.56 41.1921L407.32 40.1601L408.088 42.5841C408.184 42.6321 408.336 42.6721 408.544 42.7041C408.752 42.7361 408.96 42.7521 409.168 42.7521C409.376 42.7521 409.584 42.7361 409.792 42.7041C410 42.6721 410.152 42.6321 410.248 42.5841L411.016 40.1601L413.776 41.1921L413.272 42.4161C412.904 43.2801 412.392 43.9441 411.736 44.4081C411.08 44.8721 410.224 45.1041 409.168 45.1041Z" fill="black"/>
<path d="M418.871 46.4001H422.711L425.879 51.5601H425.975L429.143 46.4001H432.983V59.0001H429.527V50.8161H429.455L428.495 52.5681L425.927 56.7441L423.359 52.5681L422.399 50.8161H422.327V59.0001H418.871V46.4001Z" fill="black"/>
<path d="M436.621 53.4081V49.9521H443.749V53.4081H436.621Z" fill="black"/>
<path d="M447.405 46.4001H451.245L454.413 51.5601H454.509L457.677 46.4001H461.517V59.0001H458.061V50.8161H457.989L457.029 52.5681L454.461 56.7441L451.893 52.5681L450.933 50.8161H450.861V59.0001H447.405V46.4001Z" fill="black"/>
<path d="M470.795 59.2881C469.835 59.2881 468.979 59.1361 468.227 58.8321C467.475 58.5121 466.835 58.0721 466.307 57.5121C465.795 56.9361 465.403 56.2401 465.131 55.4241C464.875 54.6081 464.747 53.6961 464.747 52.6881C464.747 51.6961 464.875 50.8001 465.131 50.0001C465.387 49.1841 465.763 48.4881 466.259 47.9121C466.771 47.3361 467.395 46.8961 468.131 46.5921C468.867 46.2721 469.707 46.1121 470.651 46.1121C471.691 46.1121 472.579 46.2881 473.315 46.6401C474.067 46.9921 474.675 47.4641 475.139 48.0561C475.619 48.6481 475.963 49.3361 476.171 50.1201C476.395 50.8881 476.507 51.6961 476.507 52.5441V53.6001H468.419V53.7921C468.419 54.6241 468.643 55.2881 469.091 55.7841C469.539 56.2641 470.243 56.5041 471.203 56.5041C471.939 56.5041 472.539 56.3601 473.003 56.0721C473.467 55.7681 473.899 55.4081 474.299 54.9921L476.075 57.2001C475.515 57.8561 474.779 58.3681 473.867 58.7361C472.971 59.1041 471.947 59.2881 470.795 59.2881ZM470.723 48.7281C470.003 48.7281 469.435 48.9681 469.019 49.4481C468.619 49.9121 468.419 50.5361 468.419 51.3201V51.5121H472.835V51.2961C472.835 50.5281 472.659 49.9121 472.307 49.4481C471.971 48.9681 471.443 48.7281 470.723 48.7281Z" fill="black"/>
<path d="M479.736 46.4001H483.288V51.2241H487.56V46.4001H491.112V59.0001H487.56V53.9841H483.288V59.0001H479.736V46.4001Z" fill="black"/>
<path d="M500.407 59.2881C499.447 59.2881 498.591 59.1361 497.839 58.8321C497.087 58.5121 496.447 58.0721 495.919 57.5121C495.407 56.9361 495.015 56.2401 494.743 55.4241C494.487 54.6081 494.359 53.6961 494.359 52.6881C494.359 51.6961 494.487 50.8001 494.743 50.0001C494.999 49.1841 495.375 48.4881 495.871 47.9121C496.383 47.3361 497.007 46.8961 497.743 46.5921C498.479 46.2721 499.319 46.1121 500.263 46.1121C501.303 46.1121 502.191 46.2881 502.927 46.6401C503.679 46.9921 504.287 47.4641 504.751 48.0561C505.231 48.6481 505.575 49.3361 505.783 50.1201C506.007 50.8881 506.119 51.6961 506.119 52.5441V53.6001H498.031V53.7921C498.031 54.6241 498.255 55.2881 498.703 55.7841C499.151 56.2641 499.855 56.5041 500.815 56.5041C501.551 56.5041 502.151 56.3601 502.615 56.0721C503.079 55.7681 503.511 55.4081 503.911 54.9921L505.687 57.2001C505.127 57.8561 504.391 58.3681 503.479 58.7361C502.583 59.1041 501.559 59.2881 500.407 59.2881ZM500.335 48.7281C499.615 48.7281 499.047 48.9681 498.631 49.4481C498.231 49.9121 498.031 50.5361 498.031 51.3201V51.5121H502.447V51.2961C502.447 50.5281 502.271 49.9121 501.919 49.4481C501.583 48.9681 501.055 48.7281 500.335 48.7281Z" fill="black"/>
<path d="M507.931 56.2401H509.587C509.795 55.9361 509.979 55.5921 510.139 55.2081C510.299 54.8241 510.427 54.3841 510.523 53.8881C510.635 53.3761 510.715 52.8001 510.763 52.1601C510.811 51.5201 510.835 50.7921 510.835 49.9761V46.4001H520.963V56.2401H523.123V62.3601H519.907V59.0001H511.147V62.3601H507.931V56.2401ZM517.411 56.2401V49.1601H514.243V50.1681C514.243 51.8961 514.147 53.2321 513.955 54.1761C513.779 55.1041 513.563 55.7921 513.307 56.2401H517.411Z" fill="black"/>
<path d="M525.168 56.2401H526.464L527.784 53.6481C528.104 53.0561 528.568 52.6961 529.176 52.5681V52.4481C528.584 52.3041 528.136 51.9281 527.832 51.3201L526.752 49.1601H525.456V46.4001H526.92C527.592 46.4001 528.144 46.5361 528.576 46.8081C529.008 47.0801 529.384 47.5361 529.704 48.1761L531.24 51.2241H532.824V46.4001H536.376V51.2241H537.96L539.496 48.1761C539.816 47.5361 540.192 47.0801 540.624 46.8081C541.056 46.5361 541.608 46.4001 542.28 46.4001H543.744V49.1601H542.448L541.368 51.3201C541.064 51.9281 540.616 52.3041 540.024 52.4481V52.5681C540.632 52.6961 541.096 53.0561 541.416 53.6481L542.736 56.2401H544.032V59.0001H542.424C541.752 59.0001 541.2 58.8721 540.768 58.6161C540.336 58.3441 539.952 57.8721 539.616 57.2001L537.96 53.9841H536.376V59.0001H532.824V53.9841H531.24L529.584 57.2001C529.248 57.8721 528.864 58.3441 528.432 58.6161C528 58.8721 527.448 59.0001 526.776 59.0001H525.168V56.2401Z" fill="black"/>
<path d="M547.373 46.4001H551.213L554.381 51.5601H554.477L557.645 46.4001H561.485V59.0001H558.029V50.8161H557.957L556.997 52.5681L554.429 56.7441L551.861 52.5681L550.901 50.8161H550.829V59.0001H547.373V46.4001Z" fill="black"/>
<path d="M570.763 59.2881C569.803 59.2881 568.947 59.1361 568.195 58.8321C567.443 58.5121 566.803 58.0721 566.275 57.5121C565.763 56.9361 565.371 56.2401 565.099 55.4241C564.843 54.6081 564.715 53.6961 564.715 52.6881C564.715 51.6961 564.843 50.8001 565.099 50.0001C565.355 49.1841 565.731 48.4881 566.227 47.9121C566.739 47.3361 567.363 46.8961 568.099 46.5921C568.835 46.2721 569.675 46.1121 570.619 46.1121C571.659 46.1121 572.547 46.2881 573.283 46.6401C574.035 46.9921 574.643 47.4641 575.107 48.0561C575.587 48.6481 575.931 49.3361 576.139 50.1201C576.363 50.8881 576.475 51.6961 576.475 52.5441V53.6001H568.387V53.7921C568.387 54.6241 568.611 55.2881 569.059 55.7841C569.507 56.2641 570.211 56.5041 571.171 56.5041C571.907 56.5041 572.507 56.3601 572.971 56.0721C573.435 55.7681 573.867 55.4081 574.267 54.9921L576.043 57.2001C575.483 57.8561 574.747 58.3681 573.835 58.7361C572.939 59.1041 571.915 59.2881 570.763 59.2881ZM570.691 48.7281C569.971 48.7281 569.403 48.9681 568.987 49.4481C568.587 49.9121 568.387 50.5361 568.387 51.3201V51.5121H572.803V51.2961C572.803 50.5281 572.627 49.9121 572.275 49.4481C571.939 48.9681 571.411 48.7281 570.691 48.7281Z" fill="black"/>
<path d="M579.704 46.4001H583.256V51.2241H587.528V46.4001H591.08V59.0001H587.528V53.9841H583.256V59.0001H579.704V46.4001Z" fill="black"/>
<path d="M597.591 49.1601H593.943V46.4001H604.791V49.1601H601.143V59.0001H597.591V49.1601Z" fill="black"/>
<path d="M616.847 59.0001C616.207 59.0001 615.671 58.8001 615.239 58.4001C614.823 58.0001 614.559 57.4641 614.447 56.7921H614.303C614.111 57.6081 613.687 58.2321 613.031 58.6641C612.375 59.0801 611.567 59.2881 610.607 59.2881C609.343 59.2881 608.375 58.9521 607.703 58.2801C607.031 57.6081 606.695 56.7201 606.695 55.6161C606.695 54.2881 607.175 53.3041 608.135 52.6641C609.111 52.0081 610.431 51.6801 612.095 51.6801H614.087V50.8881C614.087 50.2801 613.927 49.8001 613.607 49.4481C613.287 49.0801 612.751 48.8961 611.999 48.8961C611.295 48.8961 610.735 49.0481 610.319 49.3521C609.903 49.6561 609.559 50.0001 609.287 50.3841L607.175 48.5121C607.687 47.7601 608.327 47.1761 609.095 46.7601C609.879 46.3281 610.935 46.1121 612.263 46.1121C614.055 46.1121 615.399 46.5041 616.295 47.2881C617.191 48.0721 617.639 49.2161 617.639 50.7201V56.2401H618.815V59.0001H616.847ZM611.927 56.8161C612.519 56.8161 613.023 56.6881 613.439 56.4321C613.871 56.1761 614.087 55.7601 614.087 55.1841V53.6961H612.359C610.967 53.6961 610.271 54.1681 610.271 55.1121V55.4721C610.271 55.9361 610.415 56.2801 610.703 56.5041C610.991 56.7121 611.399 56.8161 611.927 56.8161Z" fill="black"/>
<path d="M343.74 45.5999C342.732 45.5999 341.88 45.4799 341.184 45.2399C340.488 44.9999 339.924 44.6759 339.492 44.2679C339.06 43.8359 338.736 43.3319 338.52 42.7559C338.328 42.1799 338.232 41.5559 338.232 40.8839V39.5879C338.232 38.9159 338.328 38.2919 338.52 37.7159C338.736 37.1399 339.06 36.6479 339.492 36.2399C339.924 35.8079 340.488 35.4719 341.184 35.2319C341.88 34.9919 342.732 34.8719 343.74 34.8719C344.748 34.8719 345.6 34.9919 346.296 35.2319C346.992 35.4719 347.556 35.8079 347.988 36.2399C348.42 36.6479 348.732 37.1399 348.924 37.7159C349.14 38.2919 349.248 38.9159 349.248 39.5879V40.8839C349.248 41.5559 349.14 42.1799 348.924 42.7559C348.732 43.3319 348.42 43.8359 347.988 44.2679C347.556 44.6759 346.992 44.9999 346.296 45.2399C345.6 45.4799 344.748 45.5999 343.74 45.5999Z" fill="black"/>
<path d="M44.0512 0C19.6694 0 0 19.6694 0 44.0512C0 49.3783 0.922002 54.3981 2.66356 59.1106C7.27357 54.8079 12.4983 51.2223 21.4109 51.2223C42.8219 51.2223 42.8219 72.2235 64.2328 72.2235C73.3504 72.2235 78.5751 68.4331 83.1851 64.0279C86.2584 58.0861 88 51.2223 88 44.0512C88 19.6694 68.3306 0 44.0512 0Z" fill="white"/>
<path d="M44.0508 88C61.1591 88 76.0136 78.1653 83.2872 63.9255C78.6772 68.3306 73.35 72.121 64.3349 72.121C42.9239 72.121 42.9239 51.1199 21.513 51.1199C12.6003 51.1199 7.37564 54.8079 2.76562 59.0081C8.80986 75.9115 24.9961 88 44.0508 88Z" fill="#2356A2"/>
<path d="M2.66356 59.0082C7.27357 54.7055 12.4983 51.1199 21.4109 51.1199C42.8219 51.1199 42.8219 72.1211 64.2328 72.1211C73.3504 72.1211 78.5751 68.3306 83.1851 63.9255C86.2584 57.9837 88 51.1199 88 43.9488C88 34.9337 85.3364 26.5332 80.624 19.567C77.858 15.5716 72.8382 10.7567 62.901 10.7567C39.3388 10.8592 39.9534 31.9628 19.4645 31.9628C12.0885 31.9628 6.76135 27.865 3.79045 26.021C3.79045 26.021 3.79045 26.021 3.79045 26.1234C1.33178 31.553 0 37.5972 0 44.0512C0 49.2759 0.922002 54.3982 2.66356 59.0082Z" fill="#83AEDD"/>
</svg>
